<svg width="20" height="20" viewBox="0 0 20 20" fill="none" xmlns="http://www.w3.org/2000/svg">
<path d="M18.8067 7.22193C18.4177 7.16543 18.0464 7.02189 17.7206 6.80201C17.3947 6.58214 17.1227 6.29159 16.9247 5.95199C16.7267 5.6124 16.6079 5.23252 16.577 4.84064C16.5462 4.44876 16.6042 4.05497 16.7467 3.6886C16.8372 3.44909 16.8506 3.18723 16.7848 2.93975C16.7191 2.69227 16.5775 2.47158 16.38 2.3086C15.508 1.57638 14.5155 1.00117 13.4467 0.608604C13.2033 0.518193 12.9376 0.506896 12.6874 0.576324C12.4372 0.645753 12.2153 0.792364 12.0533 0.99527C11.8095 1.30704 11.4979 1.55919 11.1421 1.73261C10.7864 1.90603 10.3958 1.99615 10 1.99615C9.60422 1.99615 9.21364 1.90603 8.85787 1.73261C8.5021 1.55919 8.19049 1.30704 7.94668 0.99527C7.78469 0.792364 7.5628 0.645753 7.31262 0.576324C7.06244 0.506896 6.79673 0.518193 6.55334 0.608604C5.56645 0.971032 4.64374 1.48865 3.82001 2.14194C3.61237 2.30631 3.46282 2.53285 3.39324 2.78837C3.32366 3.04389 3.33771 3.31498 3.43335 3.56193C3.58718 3.93799 3.65074 4.34487 3.61893 4.74993C3.58711 5.15499 3.46081 5.54696 3.25015 5.89439C3.03948 6.24182 2.75033 6.53504 2.40587 6.75054C2.06142 6.96603 1.67126 7.0978 1.26668 7.13527C1.00402 7.16335 0.757314 7.27502 0.562888 7.45385C0.368462 7.63267 0.236588 7.8692 0.186681 8.1286C0.0625461 8.74306 1.44269e-05 9.36838 1.44269e-05 9.99526C-0.000897968 10.5201 0.0414678 11.0441 0.126681 11.5619C0.169091 11.8296 0.298512 12.0759 0.494934 12.2627C0.691356 12.4495 0.943839 12.5664 1.21335 12.5953C1.62681 12.6341 2.02496 12.7713 2.37448 12.9956C2.724 13.2199 3.01472 13.5246 3.2223 13.8843C3.42988 14.2439 3.54829 14.6481 3.56761 15.0629C3.58693 15.4778 3.5066 15.8912 3.33334 16.2686C3.21996 16.5141 3.19184 16.7904 3.25344 17.0537C3.31504 17.317 3.46283 17.5522 3.67334 17.7219C4.54009 18.4408 5.52306 19.0067 6.58001 19.3953C6.71517 19.4421 6.85698 19.4668 7.00001 19.4686C7.19612 19.4682 7.38927 19.4207 7.56327 19.3302C7.73727 19.2398 7.88703 19.1089 8.00001 18.9486C8.23762 18.6024 8.55613 18.3194 8.9279 18.1243C9.29967 17.9291 9.71345 17.8276 10.1333 17.8286C10.5402 17.8291 10.9413 17.9246 11.3047 18.1075C11.6681 18.2903 11.9838 18.5555 12.2267 18.8819C12.3882 19.0991 12.617 19.2567 12.8775 19.3302C13.1379 19.4038 13.4154 19.3892 13.6667 19.2886C14.6331 18.8996 15.5329 18.362 16.3333 17.6953C16.5344 17.529 16.6776 17.3033 16.7423 17.0505C16.807 16.7978 16.7898 16.531 16.6933 16.2886C16.5365 15.9174 16.4682 15.5148 16.4936 15.1126C16.5191 14.7105 16.6377 14.3197 16.84 13.9712C17.0424 13.6228 17.323 13.3261 17.6597 13.1047C17.9963 12.8832 18.3799 12.7431 18.78 12.6953C19.0395 12.6594 19.2808 12.5418 19.4689 12.3596C19.6571 12.1775 19.7824 11.9401 19.8267 11.6819C19.9337 11.1259 19.9917 10.5615 20 9.99526C20.0001 9.39803 19.9443 8.80209 19.8333 8.21526C19.7883 7.9628 19.6649 7.73094 19.4806 7.55262C19.2963 7.3743 19.0605 7.25859 18.8067 7.22193ZM13.3333 9.99526C13.3333 10.6545 13.1378 11.299 12.7716 11.8472C12.4053 12.3953 11.8847 12.8226 11.2756 13.0749C10.6665 13.3272 9.99631 13.3932 9.34971 13.2645C8.7031 13.1359 8.10916 12.8185 7.64299 12.3523C7.17681 11.8861 6.85934 11.2922 6.73072 10.6456C6.60211 9.99896 6.66812 9.32874 6.92041 8.71965C7.1727 8.11057 7.59994 7.58997 8.14811 7.2237C8.69627 6.85743 9.34074 6.66193 10 6.66193C10.8841 6.66193 11.7319 7.01312 12.357 7.63824C12.9821 8.26336 13.3333 9.11121 13.3333 9.99526Z" fill="#5A6376"/>
</svg>
