<svg width="14" height="19" viewBox="0 0 14 19" fill="none" xmlns="http://www.w3.org/2000/svg">
<path fill-rule="evenodd" clip-rule="evenodd" d="M6.9987 0.666672C4.69751 0.666672 2.83203 2.53215 2.83203 4.83334C2.83203 7.13452 4.69751 9 6.9987 9C9.29988 9 11.1654 7.13452 11.1654 4.83334C11.1654 2.53215 9.29988 0.666672 6.9987 0.666672ZM4.4987 4.83334C4.4987 3.45263 5.61799 2.33334 6.9987 2.33334C8.37941 2.33334 9.4987 3.45263 9.4987 4.83334C9.4987 6.21405 8.37941 7.33334 6.9987 7.33334C5.61799 7.33334 4.4987 6.21405 4.4987 4.83334Z" fill="#5A6376"/>
<path fill-rule="evenodd" clip-rule="evenodd" d="M6.9987 18.1667C5.71494 18.1667 3.85688 17.8752 2.46156 17.2645C1.77656 16.9647 1.07991 16.5356 0.675159 15.9145C0.462295 15.5879 0.327726 15.2031 0.332136 14.7735C0.336507 14.3479 0.476564 13.9401 0.71196 13.5607C1.85313 11.7214 4.18769 9.83334 6.9987 9.83334C9.8097 9.83334 12.1443 11.7214 13.2854 13.5607C13.5208 13.9401 13.6609 14.3479 13.6653 14.7735C13.6697 15.2031 13.5351 15.5879 13.3222 15.9145C12.9175 16.5356 12.2208 16.9647 11.5358 17.2645C10.1405 17.8752 8.28245 18.1667 6.9987 18.1667ZM2.12819 14.4393C2.01846 14.6162 1.99934 14.7298 1.99872 14.7906C1.99813 14.8475 2.01275 14.9144 2.0715 15.0046C2.20998 15.2171 2.54626 15.4823 3.1298 15.7377C4.27157 16.2374 5.89306 16.5 6.9987 16.5C8.10433 16.5 9.72583 16.2374 10.8676 15.7377C11.4511 15.4823 11.7874 15.2171 11.9259 15.0046C11.9846 14.9144 11.9993 14.8475 11.9987 14.7906C11.9981 14.7298 11.9789 14.6162 11.8692 14.4393C10.9341 12.9321 9.06898 11.5 6.9987 11.5C4.92842 11.5 3.06332 12.9321 2.12819 14.4393Z" fill="#5A6376"/>
</svg>
