<svg width="13" height="13" viewBox="0 0 13 13" fill="none" xmlns="http://www.w3.org/2000/svg">
<path d="M11.05 6.42566L11.75 7.13066L8.485 10.4257L6.75 8.67566L7.45 7.97066L8.485 9.01066L11.05 6.42566ZM5.5 8.67566L7 10.1757H2V9.17566C2 8.07066 3.79 7.17566 6 7.17566L6.945 7.23066L5.5 8.67566ZM6 2.17566C6.53043 2.17566 7.03914 2.38637 7.41421 2.76145C7.78929 3.13652 8 3.64523 8 4.17566C8 4.70609 7.78929 5.2148 7.41421 5.58987C7.03914 5.96495 6.53043 6.17566 6 6.17566C5.46957 6.17566 4.96086 5.96495 4.58579 5.58987C4.21071 5.2148 4 4.70609 4 4.17566C4 3.64523 4.21071 3.13652 4.58579 2.76145C4.96086 2.38637 5.46957 2.17566 6 2.17566Z" fill="#5A6376"/>
</svg>
