<svg width="24" height="23" viewBox="0 0 47 46" fill="none" xmlns="http://www.w3.org/2000/svg">
<rect x="1" y="0.5" width="45" height="45" rx="4.5" stroke="#EBEBEB"/>
<g clip-path="url(#clip0_1654_1826)">
<path d="M23.5 28C24.0304 28 24.5391 28.2107 24.9142 28.5858C25.2893 28.9609 25.5 29.4696 25.5 30C25.5 30.5304 25.2893 31.0391 24.9142 31.4142C24.5391 31.7893 24.0304 32 23.5 32C22.9696 32 22.4609 31.7893 22.0858 31.4142C21.7107 31.0391 21.5 30.5304 21.5 30C21.5 29.4696 21.7107 28.9609 22.0858 28.5858C22.4609 28.2107 22.9696 28 23.5 28ZM23.5 21C24.0304 21 24.5391 21.2107 24.9142 21.5858C25.2893 21.9609 25.5 22.4696 25.5 23C25.5 23.5304 25.2893 24.0391 24.9142 24.4142C24.5391 24.7893 24.0304 25 23.5 25C22.9696 25 22.4609 24.7893 22.0858 24.4142C21.7107 24.0391 21.5 23.5304 21.5 23C21.5 22.4696 21.7107 21.9609 22.0858 21.5858C22.4609 21.2107 22.9696 21 23.5 21ZM23.5 14C24.0304 14 24.5391 14.2107 24.9142 14.5858C25.2893 14.9609 25.5 15.4696 25.5 16C25.5 16.5304 25.2893 17.0391 24.9142 17.4142C24.5391 17.7893 24.0304 18 23.5 18C22.9696 18 22.4609 17.7893 22.0858 17.4142C21.7107 17.0391 21.5 16.5304 21.5 16C21.5 15.4696 21.7107 14.9609 22.0858 14.5858C22.4609 14.2107 22.9696 14 23.5 14Z" fill="#5A6376"/>
</g>
<defs>
<clipPath id="clip0_1654_1826">
<rect width="24" height="24" fill="white" transform="translate(11.5 11)"/>
</clipPath>
</defs>
</svg>
