<svg width="24" height="24" viewBox="0 0 24 24" fill="none" xmlns="http://www.w3.org/2000/svg">
<path fill-rule="evenodd" clip-rule="evenodd" d="M6.8499 7.9999C6.8499 6.26021 8.26021 4.8499 9.9999 4.8499C11.7396 4.8499 13.1499 6.26021 13.1499 7.9999C13.1499 9.7396 11.7396 11.1499 9.9999 11.1499C8.26021 11.1499 6.8499 9.7396 6.8499 7.9999ZM9.9999 3.1499C7.32132 3.1499 5.1499 5.32132 5.1499 7.9999C5.1499 10.6785 7.32132 12.8499 9.9999 12.8499C12.6785 12.8499 14.8499 10.6785 14.8499 7.9999C14.8499 5.32132 12.6785 3.1499 9.9999 3.1499ZM4.8499 17.9166C4.8499 17.5136 5.17855 16.9978 6.21827 16.5387C7.2078 16.1017 8.58414 15.8499 9.9999 15.8499C11.3956 15.8499 12.7708 16.143 13.7678 16.6046C14.2668 16.8356 14.6327 17.0911 14.8629 17.3377C15.0845 17.5752 15.1475 17.7655 15.1498 17.9084C15.1418 17.9299 15.105 17.998 14.9626 18.1087C14.7442 18.2785 14.3796 18.4615 13.8649 18.6269C12.8445 18.9548 11.4362 19.1499 9.9999 19.1499C8.3014 19.1499 6.90326 18.952 5.9612 18.6315C5.48754 18.4703 5.18096 18.2954 5.00759 18.1424C4.84883 18.0023 4.84976 17.9278 4.8499 17.9166ZM9.9999 14.1499C8.41567 14.1499 6.792 14.4269 5.53154 14.9836C4.32125 15.518 3.1499 16.4606 3.1499 17.9166C3.1499 18.5455 3.46745 19.0506 3.88284 19.4171C4.2876 19.7743 4.82476 20.0405 5.4136 20.2409C6.59654 20.6434 8.1984 20.8499 9.9999 20.8499C11.5636 20.8499 13.1553 20.6406 14.385 20.2454C14.9952 20.0493 15.5682 19.7912 16.0059 19.4509C16.4403 19.1133 16.8499 18.6033 16.8499 17.9166C16.8499 17.227 16.536 16.6388 16.1057 16.1777C15.6796 15.7212 15.108 15.3517 14.482 15.0619C13.229 14.4818 11.6042 14.1499 9.9999 14.1499ZM16.1538 11.9184C16.1989 11.4511 16.6142 11.1088 17.0814 11.1538C18.2956 11.2708 19.4221 11.5864 20.2733 12.0787C21.0977 12.5554 21.8499 13.3199 21.8499 14.3732C21.8499 14.9191 21.641 15.4169 21.2348 15.8125C20.8518 16.1854 20.3291 16.4348 19.7317 16.6042C19.2801 16.7322 18.8102 16.4699 18.6821 16.0182C18.5541 15.5666 18.8164 15.0967 19.2681 14.9686C19.7157 14.8417 19.9429 14.6977 20.0487 14.5946C20.1313 14.5142 20.1499 14.4535 20.1499 14.3732C20.1499 14.2165 20.0327 13.9033 19.4223 13.5503C18.8388 13.2129 17.9652 12.9469 16.9184 12.846C16.4511 12.801 16.1088 12.3856 16.1538 11.9184ZM17.9999 3.1499C17.5305 3.1499 17.1499 3.53046 17.1499 3.9999C17.1499 4.46934 17.5305 4.8499 17.9999 4.8499C18.9112 4.8499 19.6499 5.58863 19.6499 6.4999C19.6499 7.41117 18.9112 8.1499 17.9999 8.1499C17.5305 8.1499 17.1499 8.53046 17.1499 8.9999C17.1499 9.46934 17.5305 9.8499 17.9999 9.8499C19.8501 9.8499 21.3499 8.35006 21.3499 6.4999C21.3499 4.64975 19.8501 3.1499 17.9999 3.1499Z" fill="#28385C"/>
</svg>
