<svg width="61" height="54" viewBox="0 0 61 54" fill="none" xmlns="http://www.w3.org/2000/svg">
<rect width="61" height="54" rx="13.5211" fill="#D3DEF1" fill-opacity="0.32"/>
<g clip-path="url(#clip0_3531_36987)">
<g clip-path="url(#clip1_3531_36987)">
<path d="M28.5175 30.0144L29.3625 29.1694L27.8307 27.6375L26.9857 28.4825C26.4086 28.0985 25.7626 27.8299 25.0833 27.6917V26.5H22.9167V27.6917C22.2375 27.8296 21.5915 28.0978 21.0143 28.4814L20.1693 27.6364L18.6375 29.1694L19.4825 30.0144C19.0985 30.5914 18.8299 31.2374 18.6917 31.9167H17.5V34.0834H18.6917C18.8296 34.7625 19.0978 35.4085 19.4814 35.9857L18.6364 36.8307L20.1693 38.3625L21.0143 37.5175C21.5914 37.9016 22.2374 38.1701 22.9167 38.3084V39.5H25.0833V38.3084C25.7625 38.1705 26.4085 37.9023 26.9857 37.5186L27.8307 38.3636L29.3625 36.8318L28.5175 35.9868C28.9017 35.4094 29.1702 34.763 29.3083 34.0834H30.5V31.9167H29.3083C29.1701 31.2374 28.9015 30.5914 28.5175 30.0144ZM24 36.25C23.138 36.25 22.3114 35.9076 21.7019 35.2981C21.0924 34.6886 20.75 33.862 20.75 33C20.75 32.1381 21.0924 31.3114 21.7019 30.7019C22.3114 30.0924 23.138 29.75 24 29.75C24.862 29.75 25.6886 30.0924 26.2981 30.7019C26.9076 31.3114 27.25 32.1381 27.25 33C27.25 33.862 26.9076 34.6886 26.2981 35.2981C25.6886 35.9076 24.862 36.25 24 36.25ZM43.5 25.4167C43.5 24.5547 43.1576 23.7281 42.5481 23.1186C41.9386 22.5091 41.112 22.1667 40.25 22.1667H39.1667V18.9167H37V22.1667H34.3502L29.889 15.0275C29.5982 14.5589 29.1922 14.1725 28.7098 13.9051C28.2274 13.6377 27.6846 13.4983 27.133 13.5H20.75V22.1667C19.888 22.1667 19.0614 22.5091 18.4519 23.1186C17.8424 23.7281 17.5 24.5547 17.5 25.4167V27.2811C18.1212 26.5748 18.8529 25.974 19.6667 25.5023V25.4167C19.6667 25.1294 19.7808 24.8538 19.984 24.6507C20.1871 24.4475 20.4627 24.3334 20.75 24.3334H40.25C40.5373 24.3334 40.8129 24.4475 41.016 24.6507C41.2192 24.8538 41.3333 25.1294 41.3333 25.4167V27.2226L39.2154 30.0458C31.9257 27.8791 29.9432 39.0374 37.5417 39.5C38.4945 39.4885 39.4233 39.1994 40.2143 38.668C41.0053 38.1367 41.6241 37.3862 41.9951 36.5084C42.366 35.6307 42.4729 34.6638 42.3026 33.7263C42.1323 32.7887 41.6923 31.9211 41.0365 31.2299L43.5 27.9441V25.4167ZM22.9167 15.6667H27.133C27.3167 15.666 27.4975 15.7125 27.6582 15.8017C27.8188 15.8908 27.9539 16.0196 28.0506 16.1758L31.8 22.1667H22.9167V15.6667ZM37.5417 37.3334C36.8234 37.3334 36.1345 37.048 35.6266 36.5401C35.1187 36.0322 34.8333 35.3433 34.8333 34.625C34.8333 33.9067 35.1187 33.2178 35.6266 32.7099C36.1345 32.202 36.8234 31.9167 37.5417 31.9167C38.26 31.9167 38.9488 32.202 39.4567 32.7099C39.9647 33.2178 40.25 33.9067 40.25 34.625C40.25 35.3433 39.9647 36.0322 39.4567 36.5401C38.9488 37.048 38.26 37.3334 37.5417 37.3334Z" fill="#28385C" fill-opacity="0.6"/>
</g>
</g>
<defs>
<clipPath id="clip0_3531_36987">
<rect width="26" height="26" fill="white" transform="translate(18 14)"/>
</clipPath>
<clipPath id="clip1_3531_36987">
<rect width="26" height="26" fill="white" transform="translate(17.5 13.5)"/>
</clipPath>
</defs>
</svg>
