<svg width="77" height="68" viewBox="0 0 77 68" fill="none" xmlns="http://www.w3.org/2000/svg">
<rect x="0.720703" y="0.635498" width="75.8224" height="67.1215" rx="16.8066" fill="#D3DEF1" fill-opacity="0.32"/>
<g clip-path="url(#clip0_6264_54242)">
<path d="M55.232 34.3837C55.232 34.7608 54.9259 35.0669 54.5488 35.0669H52.465C52.1165 42.0563 46.5073 47.6655 39.518 48.0139V50.0978C39.518 50.4749 39.2119 50.781 38.8348 50.781C38.4576 50.781 38.1515 50.4749 38.1515 50.0978V48.0139C31.1622 47.6655 25.553 42.0563 25.2045 35.0669H23.1207C22.7436 35.0669 22.4375 34.7608 22.4375 34.3837C22.4375 34.0066 22.7436 33.7005 23.1207 33.7005H25.2086C25.3999 29.8362 27.1831 26.2534 30.2043 23.7897C30.4995 23.552 30.9272 23.597 31.1663 23.8881C31.4041 24.1805 31.3603 24.6109 31.0679 24.8501C28.3665 27.0528 26.765 30.2502 26.5751 33.7019H28.5865C28.9636 33.7019 29.2697 34.0079 29.2697 34.3851C29.2697 34.7622 28.9636 35.0683 28.5865 35.0683H26.571C26.9167 41.3034 31.9165 46.3032 38.1515 46.6489V44.6334C38.1515 44.2562 38.4576 43.9501 38.8348 43.9501C39.2119 43.9501 39.518 44.2562 39.518 44.6334V46.6489C45.753 46.3032 50.7528 41.3034 51.0985 35.0683H49.083C48.7059 35.0683 48.3998 34.7622 48.3998 34.3851C48.3998 34.0079 48.7059 33.7019 49.083 33.7019H51.0944C50.9045 30.2502 49.303 27.0528 46.6016 24.8501C46.3092 24.6109 46.2655 24.1805 46.5032 23.8881C46.741 23.5957 47.1714 23.5492 47.4652 23.7897C50.4864 26.2534 52.2696 29.8376 52.4609 33.7005H54.5488C54.9259 33.7005 55.232 34.0066 55.232 34.3837ZM32.6858 30.8556C31.9274 30.0302 31.7908 28.8155 32.3428 27.8344L36.4298 19.4472C36.9463 18.5221 37.8386 17.9892 38.832 17.9865C39.8295 17.9892 40.7218 18.5221 41.2206 19.4116L45.3363 27.8535C45.876 28.8319 45.7353 30.0357 44.9824 30.8556C44.2636 31.6399 43.1787 31.8626 42.2194 31.4281L38.8334 29.8909L35.4474 31.4281C35.1235 31.5757 34.7846 31.6481 34.4499 31.6481C33.7967 31.6481 33.1613 31.3748 32.6858 30.8556ZM33.6929 29.9319C33.8131 30.063 34.2558 30.4702 34.883 30.1846L38.5519 28.519C38.7309 28.437 38.9372 28.437 39.1162 28.519L42.7851 30.1846C43.4151 30.4689 43.8564 30.0644 43.9767 29.9319C44.2527 29.6312 44.459 29.0778 44.1352 28.5039C44.1297 28.4916 44.1229 28.4807 44.1174 28.4684L40.0126 20.0457C39.7721 19.6193 39.3362 19.3543 38.8334 19.3529C38.3346 19.3529 37.8988 19.6193 37.6405 20.0812L33.5535 28.4698C33.2119 29.0792 33.4182 29.6326 33.6942 29.9332L33.6929 29.9319Z" fill="#28385C"/>
</g>
<defs>
<clipPath id="clip0_6264_54242">
<rect width="32.7945" height="32.7945" fill="white" transform="translate(22.4375 17.9865)"/>
</clipPath>
</defs>
</svg>
