<svg width="21" height="18" viewBox="0 0 21 18" fill="none" xmlns="http://www.w3.org/2000/svg">
<path d="M7.16698 13.1667L10.5003 16.5M10.5003 16.5L13.8336 13.1667M10.5003 16.5V9.00001M17.9003 14.075C18.6248 13.5655 19.1681 12.8385 19.4514 11.9993C19.7347 11.1601 19.7432 10.2525 19.4756 9.40819C19.2081 8.56387 18.6785 7.82675 17.9637 7.30381C17.2489 6.78087 16.386 6.49931 15.5003 6.50001H14.4503C14.1997 5.52323 13.7307 4.61605 13.0787 3.84674C12.4268 3.07743 11.6088 2.46606 10.6863 2.05863C9.76387 1.65121 8.76101 1.45836 7.75325 1.4946C6.74548 1.53084 5.75907 1.79523 4.86827 2.26786C3.97747 2.74049 3.2055 3.40905 2.61047 4.2232C2.01544 5.03735 1.61285 5.97588 1.43303 6.96813C1.2532 7.96038 1.30082 8.9805 1.57229 9.95169C1.84377 10.9229 2.33203 11.8198 3.00031 12.575" stroke="#344054" stroke-width="1.67" stroke-linecap="round" stroke-linejoin="round"/>
</svg>
