<svg width="155" height="46" viewBox="0 0 189 56" fill="none" xmlns="http://www.w3.org/2000/svg">
<rect x="0.65" y="0.65" width="187.7" height="54.7" rx="8.45" fill="black"/>
<rect x="0.65" y="0.65" width="187.7" height="54.7" rx="8.45" stroke="#A6A6A6" stroke-width="1.3"/>
<path d="M39.011 28.4211C39.0451 26.0677 40.4669 23.8409 42.7225 22.6082C41.2996 20.8018 38.9162 19.6564 36.4365 19.5875C33.7917 19.3407 31.2276 20.9942 29.8799 20.9942C28.5061 20.9942 26.431 19.612 24.1965 19.6529C21.2839 19.7365 18.5687 21.2084 17.1517 23.4719C14.1056 28.1597 16.3777 35.0491 19.2956 38.8384C20.7554 40.6939 22.4616 42.7665 24.6941 42.693C26.8787 42.6125 27.6946 41.4547 30.3316 41.4547C32.9442 41.4547 33.7097 42.693 35.9875 42.6463C38.3317 42.6124 39.8086 40.7825 41.2173 38.9095C42.2662 37.5874 43.0733 36.1262 43.6088 34.58C40.8539 33.5443 39.0142 31.0799 39.011 28.4211Z" fill="white"/>
<path d="M34.7086 17.0955C35.9868 15.7316 36.6164 13.9785 36.464 12.2086C34.5112 12.3909 32.7074 13.2205 31.412 14.5321C30.1453 15.8135 29.4861 17.5357 29.6107 19.238C31.5641 19.2559 33.4845 18.4488 34.7086 17.0955Z" fill="white"/>
<path d="M128.403 26.8813V30.0887H126.141V32.1922H128.403V39.3391C128.403 41.7796 129.645 42.7557 132.77 42.7557C133.319 42.7557 133.842 42.6976 134.299 42.6279V40.5477C133.907 40.5826 133.659 40.6058 133.227 40.6058C131.828 40.6058 131.214 40.0248 131.214 38.7V32.1922H134.299V30.0887H131.214V26.8813H128.403Z" fill="white"/>
<path d="M142.259 42.93C146.417 42.93 148.966 40.4548 148.966 36.3525C148.966 32.2735 146.404 29.7866 142.259 29.7866C138.102 29.7866 135.539 32.2735 135.539 36.3525C135.539 40.4548 138.089 42.93 142.259 42.93ZM142.259 40.7104C139.814 40.7104 138.442 39.1183 138.442 36.3525C138.442 33.6099 139.814 32.0062 142.259 32.0062C144.691 32.0062 146.077 33.6099 146.077 36.3525C146.077 39.1067 144.691 40.7104 142.259 40.7104Z" fill="white"/>
<path d="M151.147 42.686H153.958V35.2136C153.958 33.4356 155.462 32.2386 157.593 32.2386C158.089 32.2386 158.926 32.32 159.161 32.3897V29.926C158.861 29.8563 158.325 29.8215 157.906 29.8215C156.05 29.8215 154.468 30.7279 154.063 31.9714H153.854V30.0306H151.147V42.686Z" fill="white"/>
<path d="M166.141 31.9132C168.219 31.9132 169.579 33.2032 169.644 35.1904H162.454C162.611 33.2148 164.062 31.9132 166.141 31.9132ZM169.631 39.2694C169.108 40.2572 167.945 40.8034 166.245 40.8034C163.997 40.8034 162.545 39.3972 162.454 37.1776V37.0381H172.508V36.1666C172.508 32.1922 170.115 29.7866 166.154 29.7866C162.14 29.7866 159.591 32.3548 159.591 36.399C159.591 40.4431 162.088 42.93 166.167 42.93C169.422 42.93 171.697 41.5355 172.338 39.2694H169.631Z" fill="white"/>
<path d="M109.97 38.0126C110.187 41.1202 113.1 43.1076 117.436 43.1076C122.071 43.1076 124.97 41.0238 124.97 37.6994C124.97 35.0857 123.317 33.6403 119.306 32.8092L117.152 32.3394C114.604 31.8094 113.574 31.0988 113.574 29.8582C113.574 28.2923 115.173 27.2685 117.572 27.2685C119.848 27.2685 121.42 28.2682 121.705 29.8702H124.659C124.483 26.9433 121.583 24.8836 117.613 24.8836C113.344 24.8836 110.498 26.9433 110.498 30.0388C110.498 32.5924 112.111 34.11 115.648 34.8448L118.168 35.3868C120.756 35.9288 121.894 36.7238 121.894 38.0487C121.894 39.5905 120.106 40.7106 117.667 40.7106C115.051 40.7106 113.236 39.6627 112.978 38.0126H109.97Z" fill="white"/>
<path d="M80.8525 29.8215C78.9175 29.8215 77.2441 30.6814 76.3812 32.1224H76.1721V30.0306H73.4658V46.8928H76.2766V40.7685H76.4989C77.2441 42.1049 78.8522 42.8952 80.8786 42.8952C84.4739 42.8952 86.7618 40.3734 86.7618 36.3525C86.7618 32.3316 84.4739 29.8215 80.8525 29.8215ZM80.055 40.6523C77.7017 40.6523 76.2244 39.0021 76.2244 36.3641C76.2244 33.7145 77.7017 32.0643 80.068 32.0643C82.4474 32.0643 83.8725 33.6797 83.8725 36.3525C83.8725 39.037 82.4474 40.6523 80.055 40.6523Z" fill="white"/>
<path d="M96.5974 29.8215C94.6625 29.8215 92.9891 30.6814 92.1262 32.1224H91.917V30.0306H89.2108V46.8928H92.0216V40.7685H92.2439C92.9891 42.1049 94.5971 42.8952 96.6236 42.8952C100.219 42.8952 102.507 40.3734 102.507 36.3525C102.507 32.3316 100.219 29.8215 96.5974 29.8215ZM95.7999 40.6523C93.4466 40.6523 91.9693 39.0021 91.9693 36.3641C91.9693 33.7145 93.4466 32.0643 95.813 32.0643C98.1924 32.0643 99.6174 33.6797 99.6174 36.3525C99.6174 39.037 98.1924 40.6523 95.7999 40.6523Z" fill="white"/>
<path d="M68.4226 42.686H71.6477L64.5878 25.3052H61.3222L54.2623 42.686H57.379L59.1812 38.0728H66.634L68.4226 42.686ZM62.7992 28.4609H63.0295L65.8616 35.8084H59.9536L62.7992 28.4609Z" fill="white"/>
<path d="M56.1504 12.1953V20.58H59.5561C62.3669 20.58 63.9946 19.0402 63.9946 16.3615C63.9946 13.7235 62.3539 12.1953 59.5561 12.1953H56.1504ZM57.6146 13.3807H59.3927C61.3472 13.3807 62.5042 14.4847 62.5042 16.3789C62.5042 18.3022 61.3668 19.3946 59.3927 19.3946H57.6146V13.3807Z" fill="white"/>
<path d="M68.9796 20.702C71.0584 20.702 72.3331 19.4643 72.3331 17.4132C72.3331 15.3737 71.0518 14.1303 68.9796 14.1303C66.9009 14.1303 65.6197 15.3737 65.6197 17.4132C65.6197 19.4643 66.8944 20.702 68.9796 20.702ZM68.9796 19.5922C67.7572 19.5922 67.0709 18.7961 67.0709 17.4132C67.0709 16.0419 67.7572 15.2401 68.9796 15.2401C70.1955 15.2401 70.8884 16.0419 70.8884 17.4132C70.8884 18.7903 70.1955 19.5922 68.9796 19.5922Z" fill="white"/>
<path d="M83.1882 14.2523H81.7827L80.5146 19.0808H80.4035L78.9392 14.2523H77.5926L76.1284 19.0808H76.0238L74.7491 14.2523H73.324L75.2851 20.58H76.7297L78.194 15.9199H78.3051L79.7759 20.58H81.2337L83.1882 14.2523Z" fill="white"/>
<path d="M84.8067 20.58H86.2121V16.8786C86.2121 15.8908 86.8723 15.2749 87.9117 15.2749C88.9511 15.2749 89.4479 15.7804 89.4479 16.7973V20.58H90.8533V16.4835C90.8533 14.9786 89.9774 14.1303 88.3889 14.1303C87.3169 14.1303 86.6109 14.5544 86.2644 15.2575H86.1598V14.2523H84.8067V20.58Z" fill="white"/>
<path d="M93.0667 20.58H94.4721V11.7828H93.0667V20.58Z" fill="white"/>
<path d="M99.7578 20.702C101.837 20.702 103.111 19.4643 103.111 17.4132C103.111 15.3737 101.83 14.1303 99.7578 14.1303C97.6791 14.1303 96.3979 15.3737 96.3979 17.4132C96.3979 19.4643 97.6726 20.702 99.7578 20.702ZM99.7578 19.5922C98.5354 19.5922 97.8491 18.7961 97.8491 17.4132C97.8491 16.0419 98.5354 15.2401 99.7578 15.2401C100.974 15.2401 101.667 16.0419 101.667 17.4132C101.667 18.7903 100.974 19.5922 99.7578 19.5922Z" fill="white"/>
<path d="M107.299 19.6328C106.534 19.6328 105.978 19.3016 105.978 18.7322C105.978 18.1744 106.423 17.8781 107.403 17.8199L109.142 17.7212V18.2499C109.142 19.0344 108.358 19.6328 107.299 19.6328ZM106.939 20.6845C107.874 20.6845 108.652 20.3243 109.077 19.6909H109.188V20.58H110.541V16.2569C110.541 14.9205 109.534 14.1303 107.75 14.1303C106.135 14.1303 104.985 14.8275 104.841 15.9141H106.201C106.357 15.4667 106.9 15.211 107.684 15.211C108.645 15.211 109.142 15.5887 109.142 16.2569V16.8031L107.214 16.9019C105.521 16.9949 104.566 17.6514 104.566 18.7903C104.566 19.9466 105.566 20.6845 106.939 20.6845Z" fill="white"/>
<path d="M115.31 20.6845C116.291 20.6845 117.121 20.272 117.546 19.5805H117.657V20.58H119.004V11.7828H117.598V15.2575H117.494C117.108 14.5602 116.284 14.1477 115.31 14.1477C113.513 14.1477 112.356 15.4144 112.356 17.4132C112.356 19.4178 113.5 20.6845 115.31 20.6845ZM115.709 15.2691C116.886 15.2691 117.624 16.1 117.624 17.419C117.624 18.7438 116.892 19.5631 115.709 19.5631C114.519 19.5631 113.807 18.7554 113.807 17.4132C113.807 16.0826 114.526 15.2691 115.709 15.2691Z" fill="white"/>
<path d="M128.117 20.702C130.196 20.702 131.471 19.4643 131.471 17.4132C131.471 15.3737 130.19 14.1303 128.117 14.1303C126.039 14.1303 124.757 15.3737 124.757 17.4132C124.757 19.4643 126.032 20.702 128.117 20.702ZM128.117 19.5922C126.895 19.5922 126.209 18.7961 126.209 17.4132C126.209 16.0419 126.895 15.2401 128.117 15.2401C129.333 15.2401 130.026 16.0419 130.026 17.4132C130.026 18.7903 129.333 19.5922 128.117 19.5922Z" fill="white"/>
<path d="M133.331 20.58H134.737V16.8786C134.737 15.8908 135.397 15.2749 136.436 15.2749C137.476 15.2749 137.972 15.7804 137.972 16.7973V20.58H139.378V16.4835C139.378 14.9786 138.502 14.1303 136.913 14.1303C135.841 14.1303 135.135 14.5544 134.789 15.2575H134.684V14.2523H133.331V20.58Z" fill="white"/>
<path d="M145.851 12.6776V14.2813H144.72V15.333H145.851V18.9065C145.851 20.1267 146.472 20.6148 148.034 20.6148C148.308 20.6148 148.57 20.5858 148.799 20.5509V19.5108C148.603 19.5282 148.478 19.5399 148.263 19.5399C147.563 19.5399 147.256 19.2493 147.256 18.5869V15.333H148.799V14.2813H147.256V12.6776H145.851Z" fill="white"/>
<path d="M150.685 20.58H152.091V16.8845C152.091 15.9257 152.731 15.2807 153.882 15.2807C154.875 15.2807 155.405 15.7921 155.405 16.8031V20.58H156.81V16.4951C156.81 14.9902 155.876 14.1361 154.359 14.1361C153.287 14.1361 152.535 14.5602 152.189 15.2691H152.078V11.7828H150.685V20.58Z" fill="white"/>
<path d="M161.88 15.1936C162.92 15.1936 163.599 15.8386 163.632 16.8322H160.037C160.115 15.8444 160.841 15.1936 161.88 15.1936ZM163.626 18.8717C163.364 19.3656 162.782 19.6386 161.933 19.6386C160.808 19.6386 160.083 18.9356 160.037 17.8258V17.756H165.064V17.3202C165.064 15.333 163.867 14.1303 161.887 14.1303C159.88 14.1303 158.605 15.4144 158.605 17.4365C158.605 19.4585 159.854 20.702 161.893 20.702C163.521 20.702 164.658 20.0047 164.979 18.8717H163.626Z" fill="white"/>
</svg>
