<svg width="24" height="24" viewBox="0 0 24 24" fill="none" xmlns="http://www.w3.org/2000/svg">
<path d="M12 2.25C10.0716 2.25 8.18657 2.82183 6.58319 3.89317C4.97982 4.96451 3.73013 6.48726 2.99218 8.26884C2.25422 10.0504 2.06114 12.0108 2.43735 13.9021C2.81355 15.7934 3.74215 17.5307 5.10571 18.8943C6.46928 20.2579 8.20656 21.1865 10.0979 21.5627C11.9892 21.9389 13.9496 21.7458 15.7312 21.0078C17.5127 20.2699 19.0355 19.0202 20.1068 17.4168C21.1782 15.8134 21.75 13.9284 21.75 12C21.745 9.41566 20.7162 6.93859 18.8888 5.11118C17.0614 3.28378 14.5843 2.25496 12 2.25ZM16.4438 12.2906C16.4029 12.3815 16.3457 12.4641 16.275 12.5344L13.0969 15.7125C13.0288 15.7825 12.9471 15.8378 12.8568 15.8748C12.7665 15.9119 12.6695 15.9301 12.5719 15.9281C12.4728 15.9303 12.3744 15.9122 12.2826 15.8752C12.1907 15.8381 12.1073 15.7828 12.0375 15.7125C11.8972 15.5719 11.8185 15.3814 11.8185 15.1828C11.8185 14.9842 11.8972 14.7937 12.0375 14.6531L13.9406 12.75H8.25C8.05109 12.75 7.86033 12.671 7.71967 12.5303C7.57902 12.3897 7.5 12.1989 7.5 12C7.5 11.8011 7.57902 11.6103 7.71967 11.4697C7.86033 11.329 8.05109 11.25 8.25 11.25H13.9406L12.0375 9.34687C11.9082 9.20421 11.8388 9.01729 11.8435 8.82483C11.8483 8.63236 11.9268 8.44909 12.063 8.31296C12.1991 8.17682 12.3824 8.09825 12.5748 8.09351C12.7673 8.08877 12.9542 8.15823 13.0969 8.2875L16.275 11.4656C16.3457 11.5359 16.4029 11.6185 16.4438 11.7094C16.5188 11.8959 16.5188 12.1041 16.4438 12.2906Z" fill="white"/>
</svg>
