<svg width="20" height="20" viewBox="0 0 20 20" fill="none" xmlns="http://www.w3.org/2000/svg">
<path fill-rule="evenodd" clip-rule="evenodd" d="M9.99969 7.40833C10.5897 7.40802 11.1608 7.61636 11.6119 7.99651C12.0631 8.37667 12.3653 8.90414 12.465 9.48562C12.5648 10.0671 12.4557 10.6651 12.157 11.1739C11.8584 11.6827 11.3894 12.0695 10.833 12.2658V16.5742H9.16636V12.2658C8.6104 12.069 8.14188 11.6821 7.84355 11.1734C7.54523 10.6646 7.4363 10.0668 7.536 9.48555C7.6357 8.90428 7.93763 8.37695 8.38844 7.99671C8.83924 7.61646 9.40993 7.40777 9.99969 7.4075M9.99969 9.07417C10.2207 9.07417 10.4327 9.16197 10.5889 9.31825C10.7452 9.47453 10.833 9.68649 10.833 9.9075C10.833 10.1285 10.7452 10.3405 10.5889 10.4968C10.4327 10.653 10.2207 10.7408 9.99969 10.7408C9.77868 10.7408 9.56671 10.653 9.41043 10.4968C9.25415 10.3405 9.16636 10.1285 9.16636 9.9075C9.16636 9.68649 9.25415 9.47453 9.41043 9.31825C9.56671 9.16197 9.77868 9.07417 9.99969 9.07417Z" fill="#5A6376"/>
<path d="M5.8724 5.78333C5.32993 6.32445 4.89974 6.96744 4.60657 7.67535C4.31339 8.38325 4.16301 9.14212 4.16407 9.90833C4.16407 11.7225 4.9924 13.3433 6.2924 14.4133L7.47823 13.2267C6.96592 12.8384 6.55054 12.3368 6.26469 11.761C5.97884 11.1853 5.83031 10.5511 5.83073 9.90833C5.83073 8.75833 6.2974 7.71667 7.05073 6.9625L5.8724 5.78333ZM12.9441 6.96083C13.3316 7.34751 13.6389 7.80698 13.8483 8.31281C14.0576 8.81865 14.165 9.36088 14.1641 9.90833C14.1641 11.2633 13.5174 12.4667 12.5166 13.2275L13.7024 14.4142C14.3686 13.8674 14.9052 13.1795 15.2732 12.4001C15.6413 11.6208 15.8317 10.7694 15.8307 9.9075C15.8318 9.14129 15.6814 8.38242 15.3882 7.67451C15.0951 6.9666 14.6649 6.32362 14.1224 5.7825L12.9441 6.96083Z" fill="#5A6376"/>
<path d="M0.832039 9.90834C0.830493 8.70408 1.0669 7.51139 1.52768 6.39878C1.98845 5.28616 2.66452 4.27555 3.51704 3.425L4.69537 4.60417C3.9978 5.29995 3.44463 6.12674 3.06765 7.03701C2.69066 7.94728 2.49731 8.92309 2.49871 9.90834C2.49742 10.8934 2.69083 11.8691 3.06781 12.7792C3.44478 13.6893 3.9979 14.516 4.69537 15.2117L3.51704 16.39C2.66457 15.5398 1.98852 14.5294 1.52774 13.4171C1.06696 12.3048 0.83053 11.1123 0.832039 9.90834ZM16.4804 16.3892C17.3328 15.5391 18.0088 14.5289 18.4696 13.4167C18.9304 12.3045 19.1668 11.1122 19.1654 9.90834C19.1654 7.37667 18.1395 5.085 16.4804 3.42667L15.302 4.605C15.9995 5.30068 16.5526 6.12734 16.9296 7.03746C17.3066 7.94758 17.5 8.92323 17.4987 9.90834C17.5 10.8934 17.3066 11.8691 16.9296 12.7792C16.5526 13.6893 15.9995 14.516 15.302 15.2117L16.4804 16.3892Z" fill="#5A6376"/>
</svg>
