<svg width="77" height="68" viewBox="0 0 77 68" fill="none" xmlns="http://www.w3.org/2000/svg">
<rect x="0.720703" y="0.64917" width="75.8224" height="67.1215" rx="16.8066" fill="#D3DEF1" fill-opacity="0.32"/>
<g clip-path="url(#clip0_6264_54278)">
<path d="M52.4991 42.4975V50.1113C52.4991 50.4885 52.193 50.7945 51.8159 50.7945C51.4387 50.7945 51.1326 50.4885 51.1326 50.1113V42.4975C51.1326 40.2374 49.5913 38.3176 47.3859 37.8284L38.0039 35.7473C37.691 35.6776 37.4683 35.4003 37.4683 35.0805V25.6616C37.4683 24.5835 36.7372 23.6516 35.7684 23.4945C35.1576 23.3975 34.5577 23.5573 34.0918 23.9536C33.6327 24.3444 33.3689 24.9142 33.3689 25.5154V44.1509C33.3689 44.4133 33.2186 44.6524 32.9822 44.7658C32.7458 44.882 32.4657 44.8492 32.2594 44.6852L28.6561 41.8157C27.7925 41.0108 26.493 41.0546 25.7237 41.8772C24.953 42.7025 24.9954 44.0047 25.8194 44.7781L30.9011 49.6153C31.1744 49.8749 31.1854 50.3081 30.9257 50.5814C30.7905 50.7221 30.6115 50.7932 30.4311 50.7932C30.2617 50.7932 30.0922 50.7303 29.9597 50.6046L24.882 45.7702C23.5128 44.4857 23.4404 42.3185 24.7262 40.9425C26.0107 39.5693 28.1737 39.4941 29.5497 40.7799L32.0039 42.7312V25.5154C32.0039 24.5125 32.4425 23.5628 33.2077 22.9124C33.9743 22.2619 34.9895 21.9846 35.9884 22.1444C37.6117 22.4082 38.8361 23.9194 38.8361 25.6603V34.5312L47.6837 36.4934C50.5191 37.122 52.5004 39.5911 52.5004 42.4962L52.4991 42.4975ZM28.9649 31.9787C29.2792 31.7696 29.3639 31.346 29.1562 31.0317C28.3363 29.7992 27.9032 28.3631 27.9032 26.8819C27.9032 22.7375 31.2742 19.3665 35.4186 19.3665C39.563 19.3665 42.934 22.7375 42.934 26.8819C42.934 28.3631 42.5008 29.7992 41.6823 31.0317C41.4733 31.346 41.558 31.771 41.8736 31.9787C41.9898 32.0566 42.121 32.0921 42.2508 32.0921C42.4708 32.0921 42.688 31.9842 42.8192 31.7874C43.788 30.3294 44.3004 28.6323 44.3004 26.8805C44.3004 21.9832 40.3159 17.9987 35.4186 17.9987C30.5213 17.9987 26.5367 21.9846 26.5367 26.8819C26.5367 28.6336 27.0492 30.3294 28.0166 31.7888C28.2243 32.1017 28.6479 32.1878 28.9635 31.9801L28.9649 31.9787Z" fill="#28385C"/>
</g>
<defs>
<clipPath id="clip0_6264_54278">
<rect width="32.7945" height="32.7945" fill="white" transform="translate(22.4375 18)"/>
</clipPath>
</defs>
</svg>
