<svg width="15" height="13" viewBox="0 0 15 13" fill="none" xmlns="http://www.w3.org/2000/svg">
<path d="M9.375 2.8125C9.03 2.8125 8.75 2.5325 8.75 2.1875V1.25H6.25V2.1875C6.25 2.5325 5.97 2.8125 5.625 2.8125C5.28 2.8125 5 2.5325 5 2.1875V1.25C5 0.560625 5.56062 0 6.25 0H8.75C9.43937 0 10 0.560625 10 1.25V2.1875C10 2.5325 9.72 2.8125 9.375 2.8125Z" fill="black"/>
<path d="M7.94375 8.36245C7.83125 8.4062 7.66875 8.43745 7.5 8.43745C7.33125 8.43745 7.16875 8.4062 7.01875 8.34995L0 6.01245V10.7812C0 11.7312 0.76875 12.5 1.71875 12.5H13.2812C14.2312 12.5 15 11.7312 15 10.7812V6.01245L7.94375 8.36245Z" fill="black"/>
<path d="M15 3.59375V5.025L7.65 7.475C7.6 7.49375 7.55 7.5 7.5 7.5C7.45 7.5 7.4 7.49375 7.35 7.475L0 5.025V3.59375C0 2.64375 0.76875 1.875 1.71875 1.875H13.2812C14.2312 1.875 15 2.64375 15 3.59375Z" fill="black"/>
</svg>
