<svg width="21" height="20" viewBox="0 0 25 24" fill="none" xmlns="http://www.w3.org/2000/svg">
<circle cx="12.5" cy="12" r="12" fill="#DD4A5D"/>
<g clip-path="url(#clip0_518_2601)">
<path d="M15.1246 17C15.0413 17.0001 14.9599 16.9752 14.8909 16.9286C14.822 16.8819 14.7685 16.8157 14.7375 16.7384L14.3859 15.858L13.5042 15.4867C13.4286 15.4533 13.3645 15.3983 13.32 15.3286C13.2755 15.2589 13.2526 15.1777 13.2542 15.095C13.2558 15.0123 13.2817 14.932 13.3288 14.864C13.3759 14.796 13.442 14.7435 13.5188 14.713L14.3888 14.3834L14.7375 13.5117C14.7696 13.4355 14.8234 13.3705 14.8923 13.3248C14.9612 13.2791 15.042 13.2547 15.1246 13.2547C15.2073 13.2547 15.2881 13.2791 15.3569 13.3248C15.4258 13.3705 15.4796 13.4355 15.5117 13.5117L15.8621 14.3867L16.7371 14.7371C16.8134 14.7691 16.8786 14.8228 16.9245 14.8917C16.9703 14.9606 16.9948 15.0415 16.9948 15.1242C16.9948 15.207 16.9703 15.2878 16.9245 15.3567C16.8786 15.4256 16.8134 15.4794 16.7371 15.5113L15.8621 15.8617L15.5117 16.7367C15.481 16.8143 15.4277 16.8809 15.3586 16.9279C15.2896 16.9748 15.2081 17 15.1246 17ZM11.1663 15.75C10.9863 15.7522 10.8104 15.696 10.665 15.5899C10.5196 15.4838 10.4124 15.3334 10.3596 15.1613L9.68712 13.0584L7.57754 12.3525C7.40727 12.2956 7.2595 12.1861 7.15557 12.0397C7.05164 11.8933 6.99693 11.7177 6.99934 11.5382C7.00176 11.3587 7.06116 11.1846 7.16899 11.041C7.27681 10.8975 7.42747 10.7919 7.5992 10.7396L9.69212 10.1005L10.3971 7.99463C10.4495 7.82166 10.558 7.67102 10.7053 7.56641C10.8527 7.46179 11.0307 7.40913 11.2113 7.41671C11.3913 7.41696 11.5664 7.4755 11.7104 7.58359C11.8544 7.69167 11.9595 7.84348 12.01 8.0163L12.6484 10.1059L14.7442 10.7767C14.9132 10.8334 15.0602 10.9418 15.1643 11.0865C15.2685 11.2313 15.3245 11.4051 15.3245 11.5834C15.3245 11.7617 15.2685 11.9355 15.1643 12.0802C15.0602 12.225 14.9132 12.3333 14.7442 12.39L12.6446 13.0617L11.973 15.1613C11.9201 15.3334 11.813 15.4838 11.6676 15.5899C11.5222 15.696 11.3463 15.7522 11.1663 15.75ZM15.5413 9.91671C15.4484 9.91671 15.3582 9.88567 15.2849 9.82852C15.2117 9.77138 15.1597 9.6914 15.1371 9.6013L14.9884 9.00546L14.3913 8.84505C14.3015 8.82094 14.2224 8.76752 14.1665 8.69328C14.1106 8.61905 14.0812 8.52826 14.0828 8.43535C14.0844 8.34244 14.1171 8.25274 14.1755 8.18051C14.234 8.10828 14.3149 8.05767 14.4055 8.03671L14.9888 7.9013L15.1371 7.31546C15.1597 7.22537 15.2117 7.1454 15.285 7.08826C15.3582 7.03113 15.4484 7.00009 15.5413 7.00009C15.6342 7.00009 15.7244 7.03113 15.7976 7.08826C15.8708 7.1454 15.9229 7.22537 15.9455 7.31546L16.093 7.9063L16.6838 8.05421C16.7739 8.07679 16.8538 8.12883 16.911 8.20206C16.9681 8.27528 16.9992 8.3655 16.9992 8.45838C16.9992 8.55126 16.9681 8.64148 16.911 8.71471C16.8538 8.78793 16.7739 8.83997 16.6838 8.86255L16.093 9.01046L15.9455 9.6013C15.9229 9.6914 15.8708 9.77138 15.7976 9.82852C15.7244 9.88567 15.6342 9.91671 15.5413 9.91671Z" fill="white"/>
</g>
<defs>
<clipPath id="clip0_518_2601">
<rect width="10" height="10" fill="white" transform="translate(7 7)"/>
</clipPath>
</defs>
</svg>
