<svg width="16" height="17" viewBox="0 0 16 17" fill="none" xmlns="http://www.w3.org/2000/svg">
<path d="M13.3335 3.16675H2.66683C1.9335 3.16675 1.34016 3.76675 1.34016 4.50008L1.3335 12.5001C1.3335 13.2334 1.9335 13.8334 2.66683 13.8334H13.3335C14.0668 13.8334 14.6668 13.2334 14.6668 12.5001V4.50008C14.6668 3.76675 14.0668 3.16675 13.3335 3.16675ZM13.0668 6.00008L8.3535 8.94675C8.14016 9.08008 7.86016 9.08008 7.64683 8.94675L2.9335 6.00008C2.86665 5.96256 2.80811 5.91186 2.76142 5.85105C2.71473 5.79025 2.68087 5.7206 2.66188 5.64633C2.64289 5.57206 2.63916 5.4947 2.65093 5.41895C2.6627 5.3432 2.68972 5.27062 2.73035 5.20562C2.77098 5.14061 2.82438 5.08452 2.88731 5.04074C2.95025 4.99697 3.02141 4.96642 3.09649 4.95095C3.17158 4.93547 3.24902 4.93539 3.32413 4.95071C3.39925 4.96603 3.47047 4.99644 3.5335 5.04008L8.00016 7.83342L12.4668 5.04008C12.5299 4.99644 12.6011 4.96603 12.6762 4.95071C12.7513 4.93539 12.8287 4.93547 12.9038 4.95095C12.9789 4.96642 13.0501 4.99697 13.113 5.04074C13.1759 5.08452 13.2293 5.14061 13.27 5.20562C13.3106 5.27062 13.3376 5.3432 13.3494 5.41895C13.3612 5.4947 13.3574 5.57206 13.3384 5.64633C13.3195 5.7206 13.2856 5.79025 13.2389 5.85105C13.1922 5.91186 13.1337 5.96256 13.0668 6.00008Z" fill="#1E1B39"/>
</svg>
