<svg width="16" height="17" viewBox="0 0 16 17" fill="none" xmlns="http://www.w3.org/2000/svg">
<path d="M8.00016 8.16658C7.55814 8.16658 7.13421 7.99099 6.82165 7.67843C6.50909 7.36587 6.3335 6.94195 6.3335 6.49992C6.3335 6.05789 6.50909 5.63397 6.82165 5.32141C7.13421 5.00885 7.55814 4.83325 8.00016 4.83325C8.44219 4.83325 8.86611 5.00885 9.17867 5.32141C9.49123 5.63397 9.66683 6.05789 9.66683 6.49992C9.66683 6.71879 9.62372 6.93551 9.53996 7.13772C9.4562 7.33993 9.33344 7.52367 9.17867 7.67843C9.02391 7.83319 8.84018 7.95596 8.63797 8.03972C8.43576 8.12348 8.21903 8.16658 8.00016 8.16658ZM8.00016 1.83325C6.76249 1.83325 5.5755 2.32492 4.70033 3.20009C3.82516 4.07526 3.3335 5.26224 3.3335 6.49992C3.3335 9.99992 8.00016 15.1666 8.00016 15.1666C8.00016 15.1666 12.6668 9.99992 12.6668 6.49992C12.6668 5.26224 12.1752 4.07526 11.3 3.20009C10.4248 2.32492 9.23784 1.83325 8.00016 1.83325Z" fill="#1E1B39"/>
</svg>
