<svg width="16" height="17" viewBox="0 0 16 17" fill="none" xmlns="http://www.w3.org/2000/svg">
<path d="M4.41333 7.69333C5.37333 9.58 6.92 11.1267 8.80667 12.0867L10.2733 10.62C10.46 10.4333 10.72 10.38 10.9533 10.4533C11.7 10.7 12.5 10.8333 13.3333 10.8333C13.5101 10.8333 13.6797 10.9036 13.8047 11.0286C13.9298 11.1536 14 11.3232 14 11.5V13.8333C14 14.0101 13.9298 14.1797 13.8047 14.3047C13.6797 14.4298 13.5101 14.5 13.3333 14.5C10.3275 14.5 7.44487 13.306 5.31946 11.1805C3.19404 9.05513 2 6.17245 2 3.16667C2 2.98986 2.07024 2.82029 2.19526 2.69526C2.32029 2.57024 2.48986 2.5 2.66667 2.5H5C5.17681 2.5 5.34638 2.57024 5.4714 2.69526C5.59643 2.82029 5.66667 2.98986 5.66667 3.16667C5.66667 4 5.8 4.8 6.04667 5.54667C6.12 5.78 6.06667 6.04 5.88 6.22667L4.41333 7.69333Z" fill="#1E1B39"/>
</svg>
