<svg width="61" height="54" viewBox="0 0 61 54" fill="none" xmlns="http://www.w3.org/2000/svg">
<rect width="61" height="54" rx="13.5211" fill="#D3DEF1" fill-opacity="0.32"/>
<g clip-path="url(#clip0_3531_37024)">
<path d="M26.7089 23.7916C26.7089 24.3885 26.8475 24.954 27.0945 25.4567C26.5637 26.137 26.2333 26.9809 26.1889 27.9007C25.1695 26.8303 24.5422 25.383 24.5422 23.7927C24.5422 20.0974 27.9244 17.1767 31.7561 17.9632C34.0116 18.4269 35.8392 20.2437 36.3202 22.4959C36.4654 23.1762 36.4925 23.8425 36.4188 24.4795C36.356 25.019 35.8825 25.4177 35.3387 25.4177H35.29C34.6486 25.4177 34.198 24.8467 34.2684 24.2097C34.316 23.7818 34.2911 23.3322 34.1817 22.874C33.8589 21.5166 32.7517 20.417 31.3921 20.1039C28.9156 19.5352 26.7078 21.4115 26.7078 23.7927L26.7089 23.7916ZM22.4947 22.3887C22.7915 20.6629 23.6355 19.0899 24.9441 17.8625C26.6005 16.3101 28.7694 15.5431 31.0433 15.6839C35.3257 15.9612 38.6743 19.7128 38.6245 24.2043C38.6039 26.085 37.0287 27.5822 35.1491 27.5822H32.5426C32.2783 26.6841 31.4571 26.0232 30.4735 26.0232C29.2764 26.0232 28.3068 26.9928 28.3068 28.1899C28.3068 29.387 29.2764 30.3566 30.4735 30.3566C31.0563 30.3566 31.5839 30.1237 31.9728 29.7488H35.1491C38.203 29.7488 40.7478 27.3167 40.7911 24.2639C40.8713 18.6078 36.6225 13.8737 31.183 13.5227C28.297 13.3352 25.5595 14.3157 23.4632 16.283C21.8393 17.8051 20.7592 19.8201 20.3703 21.9878C20.2522 22.6465 20.7733 23.251 21.4417 23.251C21.953 23.251 22.4091 22.8946 22.4947 22.3897V22.3887ZM30.5005 31.9166C26.4976 31.9166 23.0342 34.3996 21.8826 38.0937C21.7039 38.6647 22.0235 39.2724 22.5944 39.4512C23.1642 39.6234 23.772 39.3092 23.9507 38.7394C24.8055 35.9986 27.4975 34.0832 30.4995 34.0832C33.5014 34.0832 36.1945 35.9986 37.0482 38.7394C37.1934 39.2031 37.6202 39.4999 38.0828 39.4999C38.19 39.4999 38.2973 39.4837 38.4056 39.4512C38.9765 39.2724 39.295 38.6647 39.1174 38.0937C37.9658 34.3996 34.5024 31.9166 30.4995 31.9166H30.5005Z" fill="#28385C" fill-opacity="0.6"/>
</g>
<defs>
<clipPath id="clip0_3531_37024">
<rect width="26" height="26" fill="white" transform="translate(17.5 13.5)"/>
</clipPath>
</defs>
</svg>
