<svg width="308" height="242" viewBox="0 0 368 242" fill="none" xmlns="http://www.w3.org/2000/svg">
<g clip-path="url(#clip0_838_8628)">
<rect width="368" height="242" rx="20" fill="#EFF3F4"/>
<path d="M34 44C34 38.4772 38.4772 34 44 34H324C329.523 34 334 38.4772 334 44V103C334 108.523 329.523 113 324 113H44C38.4772 113 34 108.523 34 103V44Z" fill="white"/>
<path d="M54.1228 62.6103C53.1868 62.6103 52.3851 62.4066 51.7178 61.9993C51.0504 61.5876 50.5369 61.0156 50.1773 60.2833C49.8219 59.5509 49.6443 58.7016 49.6443 57.7353C49.6443 56.7689 49.8219 55.9196 50.1773 55.1873C50.5369 54.4549 51.0504 53.8851 51.7178 53.4778C52.3851 53.0661 53.1868 52.8603 54.1228 52.8603C55.2018 52.8603 56.1009 53.1311 56.8203 53.6728C57.5396 54.2101 58.0444 54.9359 58.3348 55.8503L56.7553 56.2858C56.5733 55.6748 56.2634 55.1981 55.8258 54.8558C55.3881 54.5091 54.8204 54.3358 54.1228 54.3358C53.4944 54.3358 52.9701 54.4766 52.5498 54.7583C52.1338 55.0399 51.8196 55.4364 51.6073 55.9478C51.3993 56.4548 51.2931 57.0506 51.2888 57.7353C51.2888 58.4199 51.3928 59.0179 51.6008 59.5293C51.8131 60.0363 52.1294 60.4306 52.5498 60.7123C52.9701 60.9939 53.4944 61.1348 54.1228 61.1348C54.8204 61.1348 55.3881 60.9614 55.8258 60.6148C56.2634 60.2681 56.5733 59.7914 56.7553 59.1848L58.3348 59.6203C58.0444 60.5346 57.5396 61.2626 56.8203 61.8043C56.1009 62.3416 55.2018 62.6103 54.1228 62.6103ZM61.4849 62.6103C60.9779 62.6103 60.5489 62.5149 60.1979 62.3243C59.8469 62.1293 59.5804 61.8714 59.3984 61.5508C59.2208 61.2301 59.1319 60.8769 59.1319 60.4913C59.1319 60.1533 59.1883 59.8499 59.3009 59.5813C59.4136 59.3083 59.5869 59.0743 59.8209 58.8793C60.0549 58.6799 60.3583 58.5174 60.7309 58.3918C61.0126 58.3008 61.3419 58.2184 61.7189 58.1448C62.1003 58.0711 62.5119 58.0039 62.9539 57.9433C63.4003 57.8783 63.8661 57.8089 64.3514 57.7353L63.7924 58.0538C63.7968 57.5684 63.6884 57.2109 63.4674 56.9813C63.2464 56.7516 62.8738 56.6368 62.3494 56.6368C62.0331 56.6368 61.7276 56.7104 61.4329 56.8578C61.1383 57.0051 60.9324 57.2586 60.8154 57.6183L59.3854 57.1698C59.5588 56.5761 59.8881 56.0994 60.3734 55.7398C60.8631 55.3801 61.5218 55.2003 62.3494 55.2003C62.9734 55.2003 63.5216 55.3021 63.9939 55.5058C64.4706 55.7094 64.8238 56.0431 65.0534 56.5068C65.1791 56.7538 65.2549 57.0073 65.2809 57.2673C65.3069 57.5229 65.3199 57.8024 65.3199 58.1058V62.4153H63.9484V60.8943L64.1759 61.1413C63.8596 61.6483 63.4891 62.0209 63.0644 62.2593C62.6441 62.4933 62.1176 62.6103 61.4849 62.6103ZM61.7969 61.3623C62.1523 61.3623 62.4556 61.2994 62.7069 61.1738C62.9583 61.0481 63.1576 60.8943 63.3049 60.7123C63.4566 60.5303 63.5584 60.3591 63.6104 60.1988C63.6928 59.9994 63.7383 59.7719 63.7469 59.5163C63.7599 59.2563 63.7664 59.0461 63.7664 58.8858L64.2474 59.0288C63.7751 59.1024 63.3699 59.1674 63.0319 59.2238C62.6939 59.2801 62.4036 59.3343 62.1609 59.3863C61.9183 59.4339 61.7038 59.4881 61.5174 59.5488C61.3354 59.6138 61.1816 59.6896 61.0559 59.7763C60.9303 59.8629 60.8328 59.9626 60.7634 60.0753C60.6984 60.1879 60.6659 60.3201 60.6659 60.4718C60.6659 60.6451 60.7093 60.7989 60.7959 60.9333C60.8826 61.0633 61.0083 61.1673 61.1729 61.2453C61.3419 61.3233 61.5499 61.3623 61.7969 61.3623ZM75.2027 62.4153V58.1513C75.2027 57.6703 75.0835 57.2954 74.8452 57.0268C74.6068 56.7538 74.284 56.6173 73.8767 56.6173C73.6253 56.6173 73.4 56.6758 73.2007 56.7928C73.0013 56.9054 72.8432 57.0744 72.7262 57.2998C72.6092 57.5208 72.5507 57.7851 72.5507 58.0928L71.8552 57.6833C71.8508 57.1979 71.9592 56.7711 72.1802 56.4028C72.4055 56.0301 72.7088 55.7398 73.0902 55.5318C73.4715 55.3238 73.8962 55.2198 74.3642 55.2198C75.1398 55.2198 75.7335 55.4538 76.1452 55.9218C76.5612 56.3854 76.7692 56.9964 76.7692 57.7548V62.4153H75.2027ZM66.7592 62.4153V55.3953H68.1437V57.5728H68.3387V62.4153H66.7592ZM70.9907 62.4153V58.1708C70.9907 57.6811 70.8715 57.2998 70.6332 57.0268C70.3948 56.7538 70.0698 56.6173 69.6582 56.6173C69.2595 56.6173 68.9388 56.7538 68.6962 57.0268C68.4578 57.2998 68.3387 57.6551 68.3387 58.0928L67.6367 57.6248C67.6367 57.1698 67.7493 56.7603 67.9747 56.3963C68.2 56.0323 68.5033 55.7463 68.8847 55.5383C69.2703 55.3259 69.7015 55.2198 70.1782 55.2198C70.7025 55.2198 71.1402 55.3324 71.4912 55.5578C71.8465 55.7788 72.1108 56.0821 72.2842 56.4678C72.4618 56.8491 72.5507 57.2803 72.5507 57.7613V62.4153H70.9907ZM81.598 62.6103C80.9134 62.6103 80.3392 62.4478 79.8755 62.1228C79.4119 61.7978 79.063 61.3558 78.829 60.7968C78.595 60.2334 78.478 59.6029 78.478 58.9053C78.478 58.1989 78.595 57.5663 78.829 57.0073C79.063 56.4483 79.4054 56.0084 79.856 55.6878C80.311 55.3628 80.8722 55.2003 81.5395 55.2003C82.2025 55.2003 82.7767 55.3628 83.262 55.6878C83.7517 56.0084 84.1309 56.4483 84.3995 57.0073C84.6682 57.5619 84.8025 58.1946 84.8025 58.9053C84.8025 59.6073 84.6704 60.2378 84.406 60.7968C84.1417 61.3558 83.769 61.7978 83.288 62.1228C82.807 62.4478 82.2437 62.6103 81.598 62.6103ZM78.2115 65.5353V55.3953H79.596V60.3223H79.791V65.5353H78.2115ZM81.3575 61.2063C81.7649 61.2063 82.1007 61.1044 82.365 60.9008C82.6294 60.6971 82.8244 60.4219 82.95 60.0753C83.08 59.7243 83.145 59.3343 83.145 58.9053C83.145 58.4806 83.08 58.0949 82.95 57.7483C82.82 57.3973 82.6185 57.1199 82.3455 56.9163C82.0725 56.7083 81.7259 56.6043 81.3055 56.6043C80.9069 56.6043 80.5819 56.7018 80.3305 56.8968C80.0792 57.0874 79.8929 57.3561 79.7715 57.7028C79.6545 58.0451 79.596 58.4459 79.596 58.9053C79.596 59.3603 79.6545 59.7611 79.7715 60.1078C79.8929 60.4544 80.0814 60.7253 80.337 60.9203C80.597 61.1109 80.9372 61.2063 81.3575 61.2063ZM87.9583 62.6103C87.4513 62.6103 87.0223 62.5149 86.6713 62.3243C86.3203 62.1293 86.0538 61.8714 85.8718 61.5508C85.6941 61.2301 85.6053 60.8769 85.6053 60.4913C85.6053 60.1533 85.6616 59.8499 85.7743 59.5813C85.887 59.3083 86.0603 59.0743 86.2943 58.8793C86.5283 58.6799 86.8316 58.5174 87.2043 58.3918C87.486 58.3008 87.8153 58.2184 88.1923 58.1448C88.5736 58.0711 88.9853 58.0039 89.4273 57.9433C89.8736 57.8783 90.3395 57.8089 90.8248 57.7353L90.2658 58.0538C90.2701 57.5684 90.1618 57.2109 89.9408 56.9813C89.7198 56.7516 89.3471 56.6368 88.8228 56.6368C88.5065 56.6368 88.201 56.7104 87.9063 56.8578C87.6116 57.0051 87.4058 57.2586 87.2888 57.6183L85.8588 57.1698C86.0321 56.5761 86.3615 56.0994 86.8468 55.7398C87.3365 55.3801 87.9951 55.2003 88.8228 55.2003C89.4468 55.2003 89.995 55.3021 90.4673 55.5058C90.944 55.7094 91.2971 56.0431 91.5268 56.5068C91.6525 56.7538 91.7283 57.0073 91.7543 57.2673C91.7803 57.5229 91.7933 57.8024 91.7933 58.1058V62.4153H90.4218V60.8943L90.6493 61.1413C90.333 61.6483 89.9625 62.0209 89.5378 62.2593C89.1175 62.4933 88.591 62.6103 87.9583 62.6103ZM88.2703 61.3623C88.6256 61.3623 88.929 61.2994 89.1803 61.1738C89.4316 61.0481 89.631 60.8943 89.7783 60.7123C89.93 60.5303 90.0318 60.3591 90.0838 60.1988C90.1661 59.9994 90.2116 59.7719 90.2203 59.5163C90.2333 59.2563 90.2398 59.0461 90.2398 58.8858L90.7208 59.0288C90.2485 59.1024 89.8433 59.1674 89.5053 59.2238C89.1673 59.2801 88.877 59.3343 88.6343 59.3863C88.3916 59.4339 88.1771 59.4881 87.9908 59.5488C87.8088 59.6138 87.655 59.6896 87.5293 59.7763C87.4036 59.8629 87.3061 59.9626 87.2368 60.0753C87.1718 60.1879 87.1393 60.3201 87.1393 60.4718C87.1393 60.6451 87.1826 60.7989 87.2693 60.9333C87.356 61.0633 87.4816 61.1673 87.6463 61.2453C87.8153 61.3233 88.0233 61.3623 88.2703 61.3623ZM93.3755 54.3293V52.8928H94.942V54.3293H93.3755ZM93.3755 62.4153V55.3953H94.942V62.4153H93.3755ZM99.6001 65.7303C99.2101 65.7303 98.8352 65.6696 98.4756 65.5483C98.1202 65.427 97.7996 65.2515 97.5136 65.0218C97.2276 64.7964 96.9936 64.5234 96.8116 64.2028L98.2546 63.4878C98.3889 63.7434 98.5774 63.9319 98.8201 64.0533C99.0671 64.1789 99.3292 64.2418 99.6066 64.2418C99.9316 64.2418 100.222 64.1833 100.478 64.0663C100.733 63.9536 100.93 63.7846 101.069 63.5593C101.212 63.3383 101.279 63.0609 101.271 62.7273V60.7318H101.466V55.3953H102.837V62.7533C102.837 62.9309 102.828 63.0999 102.811 63.2603C102.798 63.4249 102.774 63.5853 102.74 63.7413C102.636 64.1963 102.436 64.5689 102.142 64.8593C101.847 65.154 101.481 65.3728 101.043 65.5158C100.61 65.6588 100.129 65.7303 99.6001 65.7303ZM99.4636 62.6103C98.8179 62.6103 98.2546 62.4478 97.7736 62.1228C97.2926 61.7978 96.9199 61.3558 96.6556 60.7968C96.3912 60.2378 96.2591 59.6073 96.2591 58.9053C96.2591 58.1946 96.3912 57.5619 96.6556 57.0073C96.9242 56.4483 97.3034 56.0084 97.7931 55.6878C98.2827 55.3628 98.8591 55.2003 99.5221 55.2003C100.189 55.2003 100.748 55.3628 101.199 55.6878C101.654 56.0084 101.999 56.4483 102.233 57.0073C102.467 57.5663 102.584 58.1989 102.584 58.9053C102.584 59.6029 102.467 60.2334 102.233 60.7968C101.999 61.3558 101.65 61.7978 101.186 62.1228C100.722 62.4478 100.148 62.6103 99.4636 62.6103ZM99.7041 61.2063C100.124 61.2063 100.462 61.1109 100.718 60.9203C100.978 60.7253 101.167 60.4544 101.284 60.1078C101.405 59.7611 101.466 59.3603 101.466 58.9053C101.466 58.4459 101.405 58.0451 101.284 57.7028C101.167 57.3561 100.982 57.0874 100.731 56.8968C100.48 56.7018 100.155 56.6043 99.7561 56.6043C99.3357 56.6043 98.9891 56.7083 98.7161 56.9163C98.4431 57.1199 98.2416 57.3973 98.1116 57.7483C97.9816 58.0949 97.9166 58.4806 97.9166 58.9053C97.9166 59.3343 97.9794 59.7243 98.1051 60.0753C98.2351 60.4219 98.4322 60.6971 98.6966 60.9008C98.9609 61.1044 99.2967 61.2063 99.7041 61.2063ZM109.275 62.4153V59.0353C109.275 58.8143 109.26 58.5694 109.23 58.3008C109.199 58.0321 109.128 57.7743 109.015 57.5273C108.907 57.2759 108.742 57.0701 108.521 56.9098C108.305 56.7494 108.01 56.6693 107.637 56.6693C107.438 56.6693 107.241 56.7018 107.046 56.7668C106.851 56.8318 106.673 56.9444 106.513 57.1048C106.357 57.2608 106.231 57.4774 106.136 57.7548C106.04 58.0278 105.993 58.3788 105.993 58.8078L105.063 58.4113C105.063 57.8133 105.178 57.2716 105.408 56.7863C105.642 56.3009 105.984 55.9153 106.435 55.6293C106.885 55.3389 107.44 55.1938 108.099 55.1938C108.619 55.1938 109.048 55.2804 109.386 55.4538C109.724 55.6271 109.992 55.8481 110.192 56.1168C110.391 56.3854 110.538 56.6714 110.634 56.9748C110.729 57.2781 110.79 57.5663 110.816 57.8393C110.846 58.1079 110.861 58.3268 110.861 58.4958V62.4153H109.275ZM104.407 62.4153V55.3953H105.804V57.5728H105.993V62.4153H104.407ZM116.305 62.4153V54.7648L114.55 55.8373V54.1083L116.305 53.0553H117.904V62.4153H116.305Z" fill="#101828" fill-opacity="0.2"/>
<rect x="49.2543" y="75.5847" width="269.492" height="9" rx="3" fill="#EDEFF2" fill-opacity="0.5"/>
<rect x="49.2543" y="88.5847" width="269.492" height="9" rx="3" fill="url(#paint0_linear_838_8628)" fill-opacity="0.5"/>
<path d="M34 139C34 133.477 38.4772 129 44 129H324C329.523 129 334 133.477 334 139V198C334 203.523 329.523 208 324 208H44C38.4772 208 34 203.523 34 198V139Z" fill="white"/>
<path d="M54.1228 157.61C53.1868 157.61 52.3851 157.407 51.7178 156.999C51.0504 156.588 50.5369 156.016 50.1773 155.283C49.8219 154.551 49.6443 153.702 49.6443 152.735C49.6443 151.769 49.8219 150.92 50.1773 150.187C50.5369 149.455 51.0504 148.885 51.7178 148.478C52.3851 148.066 53.1868 147.86 54.1228 147.86C55.2018 147.86 56.1009 148.131 56.8203 148.673C57.5396 149.21 58.0444 149.936 58.3348 150.85L56.7553 151.286C56.5733 150.675 56.2634 150.198 55.8258 149.856C55.3881 149.509 54.8204 149.336 54.1228 149.336C53.4944 149.336 52.9701 149.477 52.5498 149.758C52.1338 150.04 51.8196 150.436 51.6073 150.948C51.3993 151.455 51.2931 152.051 51.2888 152.735C51.2888 153.42 51.3928 154.018 51.6008 154.529C51.8131 155.036 52.1294 155.431 52.5498 155.712C52.9701 155.994 53.4944 156.135 54.1228 156.135C54.8204 156.135 55.3881 155.961 55.8258 155.615C56.2634 155.268 56.5733 154.791 56.7553 154.185L58.3348 154.62C58.0444 155.535 57.5396 156.263 56.8203 156.804C56.1009 157.342 55.2018 157.61 54.1228 157.61ZM61.4849 157.61C60.9779 157.61 60.5489 157.515 60.1979 157.324C59.8469 157.129 59.5804 156.871 59.3984 156.551C59.2208 156.23 59.1319 155.877 59.1319 155.491C59.1319 155.153 59.1883 154.85 59.3009 154.581C59.4136 154.308 59.5869 154.074 59.8209 153.879C60.0549 153.68 60.3583 153.517 60.7309 153.392C61.0126 153.301 61.3419 153.218 61.7189 153.145C62.1003 153.071 62.5119 153.004 62.9539 152.943C63.4003 152.878 63.8661 152.809 64.3514 152.735L63.7924 153.054C63.7968 152.568 63.6884 152.211 63.4674 151.981C63.2464 151.752 62.8738 151.637 62.3494 151.637C62.0331 151.637 61.7276 151.71 61.4329 151.858C61.1383 152.005 60.9324 152.259 60.8154 152.618L59.3854 152.17C59.5588 151.576 59.8881 151.099 60.3734 150.74C60.8631 150.38 61.5218 150.2 62.3494 150.2C62.9734 150.2 63.5216 150.302 63.9939 150.506C64.4706 150.709 64.8238 151.043 65.0534 151.507C65.1791 151.754 65.2549 152.007 65.2809 152.267C65.3069 152.523 65.3199 152.802 65.3199 153.106V157.415H63.9484V155.894L64.1759 156.141C63.8596 156.648 63.4891 157.021 63.0644 157.259C62.6441 157.493 62.1176 157.61 61.4849 157.61ZM61.7969 156.362C62.1523 156.362 62.4556 156.299 62.7069 156.174C62.9583 156.048 63.1576 155.894 63.3049 155.712C63.4566 155.53 63.5584 155.359 63.6104 155.199C63.6928 154.999 63.7383 154.772 63.7469 154.516C63.7599 154.256 63.7664 154.046 63.7664 153.886L64.2474 154.029C63.7751 154.102 63.3699 154.167 63.0319 154.224C62.6939 154.28 62.4036 154.334 62.1609 154.386C61.9183 154.434 61.7038 154.488 61.5174 154.549C61.3354 154.614 61.1816 154.69 61.0559 154.776C60.9303 154.863 60.8328 154.963 60.7634 155.075C60.6984 155.188 60.6659 155.32 60.6659 155.472C60.6659 155.645 60.7093 155.799 60.7959 155.933C60.8826 156.063 61.0083 156.167 61.1729 156.245C61.3419 156.323 61.5499 156.362 61.7969 156.362ZM75.2027 157.415V153.151C75.2027 152.67 75.0835 152.295 74.8452 152.027C74.6068 151.754 74.284 151.617 73.8767 151.617C73.6253 151.617 73.4 151.676 73.2007 151.793C73.0013 151.905 72.8432 152.074 72.7262 152.3C72.6092 152.521 72.5507 152.785 72.5507 153.093L71.8552 152.683C71.8508 152.198 71.9592 151.771 72.1802 151.403C72.4055 151.03 72.7088 150.74 73.0902 150.532C73.4715 150.324 73.8962 150.22 74.3642 150.22C75.1398 150.22 75.7335 150.454 76.1452 150.922C76.5612 151.385 76.7692 151.996 76.7692 152.755V157.415H75.2027ZM66.7592 157.415V150.395H68.1437V152.573H68.3387V157.415H66.7592ZM70.9907 157.415V153.171C70.9907 152.681 70.8715 152.3 70.6332 152.027C70.3948 151.754 70.0698 151.617 69.6582 151.617C69.2595 151.617 68.9388 151.754 68.6962 152.027C68.4578 152.3 68.3387 152.655 68.3387 153.093L67.6367 152.625C67.6367 152.17 67.7493 151.76 67.9747 151.396C68.2 151.032 68.5033 150.746 68.8847 150.538C69.2703 150.326 69.7015 150.22 70.1782 150.22C70.7025 150.22 71.1402 150.332 71.4912 150.558C71.8465 150.779 72.1108 151.082 72.2842 151.468C72.4618 151.849 72.5507 152.28 72.5507 152.761V157.415H70.9907ZM81.598 157.61C80.9134 157.61 80.3392 157.448 79.8755 157.123C79.4119 156.798 79.063 156.356 78.829 155.797C78.595 155.233 78.478 154.603 78.478 153.905C78.478 153.199 78.595 152.566 78.829 152.007C79.063 151.448 79.4054 151.008 79.856 150.688C80.311 150.363 80.8722 150.2 81.5395 150.2C82.2025 150.2 82.7767 150.363 83.262 150.688C83.7517 151.008 84.1309 151.448 84.3995 152.007C84.6682 152.562 84.8025 153.195 84.8025 153.905C84.8025 154.607 84.6704 155.238 84.406 155.797C84.1417 156.356 83.769 156.798 83.288 157.123C82.807 157.448 82.2437 157.61 81.598 157.61ZM78.2115 160.535V150.395H79.596V155.322H79.791V160.535H78.2115ZM81.3575 156.206C81.7649 156.206 82.1007 156.104 82.365 155.901C82.6294 155.697 82.8244 155.422 82.95 155.075C83.08 154.724 83.145 154.334 83.145 153.905C83.145 153.481 83.08 153.095 82.95 152.748C82.82 152.397 82.6185 152.12 82.3455 151.916C82.0725 151.708 81.7259 151.604 81.3055 151.604C80.9069 151.604 80.5819 151.702 80.3305 151.897C80.0792 152.087 79.8929 152.356 79.7715 152.703C79.6545 153.045 79.596 153.446 79.596 153.905C79.596 154.36 79.6545 154.761 79.7715 155.108C79.8929 155.454 80.0814 155.725 80.337 155.92C80.597 156.111 80.9372 156.206 81.3575 156.206ZM87.9583 157.61C87.4513 157.61 87.0223 157.515 86.6713 157.324C86.3203 157.129 86.0538 156.871 85.8718 156.551C85.6941 156.23 85.6053 155.877 85.6053 155.491C85.6053 155.153 85.6616 154.85 85.7743 154.581C85.887 154.308 86.0603 154.074 86.2943 153.879C86.5283 153.68 86.8316 153.517 87.2043 153.392C87.486 153.301 87.8153 153.218 88.1923 153.145C88.5736 153.071 88.9853 153.004 89.4273 152.943C89.8736 152.878 90.3395 152.809 90.8248 152.735L90.2658 153.054C90.2701 152.568 90.1618 152.211 89.9408 151.981C89.7198 151.752 89.3471 151.637 88.8228 151.637C88.5065 151.637 88.201 151.71 87.9063 151.858C87.6116 152.005 87.4058 152.259 87.2888 152.618L85.8588 152.17C86.0321 151.576 86.3615 151.099 86.8468 150.74C87.3365 150.38 87.9951 150.2 88.8228 150.2C89.4468 150.2 89.995 150.302 90.4673 150.506C90.944 150.709 91.2971 151.043 91.5268 151.507C91.6525 151.754 91.7283 152.007 91.7543 152.267C91.7803 152.523 91.7933 152.802 91.7933 153.106V157.415H90.4218V155.894L90.6493 156.141C90.333 156.648 89.9625 157.021 89.5378 157.259C89.1175 157.493 88.591 157.61 87.9583 157.61ZM88.2703 156.362C88.6256 156.362 88.929 156.299 89.1803 156.174C89.4316 156.048 89.631 155.894 89.7783 155.712C89.93 155.53 90.0318 155.359 90.0838 155.199C90.1661 154.999 90.2116 154.772 90.2203 154.516C90.2333 154.256 90.2398 154.046 90.2398 153.886L90.7208 154.029C90.2485 154.102 89.8433 154.167 89.5053 154.224C89.1673 154.28 88.877 154.334 88.6343 154.386C88.3916 154.434 88.1771 154.488 87.9908 154.549C87.8088 154.614 87.655 154.69 87.5293 154.776C87.4036 154.863 87.3061 154.963 87.2368 155.075C87.1718 155.188 87.1393 155.32 87.1393 155.472C87.1393 155.645 87.1826 155.799 87.2693 155.933C87.356 156.063 87.4816 156.167 87.6463 156.245C87.8153 156.323 88.0233 156.362 88.2703 156.362ZM93.3755 149.329V147.893H94.942V149.329H93.3755ZM93.3755 157.415V150.395H94.942V157.415H93.3755ZM99.6001 160.73C99.2101 160.73 98.8352 160.67 98.4756 160.548C98.1202 160.427 97.7996 160.251 97.5136 160.022C97.2276 159.796 96.9936 159.523 96.8116 159.203L98.2546 158.488C98.3889 158.743 98.5774 158.932 98.8201 159.053C99.0671 159.179 99.3292 159.242 99.6066 159.242C99.9316 159.242 100.222 159.183 100.478 159.066C100.733 158.954 100.93 158.785 101.069 158.559C101.212 158.338 101.279 158.061 101.271 157.727V155.732H101.466V150.395H102.837V157.753C102.837 157.931 102.828 158.1 102.811 158.26C102.798 158.425 102.774 158.585 102.74 158.741C102.636 159.196 102.436 159.569 102.142 159.859C101.847 160.154 101.481 160.373 101.043 160.516C100.61 160.659 100.129 160.73 99.6001 160.73ZM99.4636 157.61C98.8179 157.61 98.2546 157.448 97.7736 157.123C97.2926 156.798 96.9199 156.356 96.6556 155.797C96.3912 155.238 96.2591 154.607 96.2591 153.905C96.2591 153.195 96.3912 152.562 96.6556 152.007C96.9242 151.448 97.3034 151.008 97.7931 150.688C98.2827 150.363 98.8591 150.2 99.5221 150.2C100.189 150.2 100.748 150.363 101.199 150.688C101.654 151.008 101.999 151.448 102.233 152.007C102.467 152.566 102.584 153.199 102.584 153.905C102.584 154.603 102.467 155.233 102.233 155.797C101.999 156.356 101.65 156.798 101.186 157.123C100.722 157.448 100.148 157.61 99.4636 157.61ZM99.7041 156.206C100.124 156.206 100.462 156.111 100.718 155.92C100.978 155.725 101.167 155.454 101.284 155.108C101.405 154.761 101.466 154.36 101.466 153.905C101.466 153.446 101.405 153.045 101.284 152.703C101.167 152.356 100.982 152.087 100.731 151.897C100.48 151.702 100.155 151.604 99.7561 151.604C99.3357 151.604 98.9891 151.708 98.7161 151.916C98.4431 152.12 98.2416 152.397 98.1116 152.748C97.9816 153.095 97.9166 153.481 97.9166 153.905C97.9166 154.334 97.9794 154.724 98.1051 155.075C98.2351 155.422 98.4322 155.697 98.6966 155.901C98.9609 156.104 99.2967 156.206 99.7041 156.206ZM109.275 157.415V154.035C109.275 153.814 109.26 153.569 109.23 153.301C109.199 153.032 109.128 152.774 109.015 152.527C108.907 152.276 108.742 152.07 108.521 151.91C108.305 151.749 108.01 151.669 107.637 151.669C107.438 151.669 107.241 151.702 107.046 151.767C106.851 151.832 106.673 151.944 106.513 152.105C106.357 152.261 106.231 152.477 106.136 152.755C106.04 153.028 105.993 153.379 105.993 153.808L105.063 153.411C105.063 152.813 105.178 152.272 105.408 151.786C105.642 151.301 105.984 150.915 106.435 150.629C106.885 150.339 107.44 150.194 108.099 150.194C108.619 150.194 109.048 150.28 109.386 150.454C109.724 150.627 109.992 150.848 110.192 151.117C110.391 151.385 110.538 151.671 110.634 151.975C110.729 152.278 110.79 152.566 110.816 152.839C110.846 153.108 110.861 153.327 110.861 153.496V157.415H109.275ZM104.407 157.415V150.395H105.804V152.573H105.993V157.415H104.407ZM114.42 157.402V156.037L118.424 152.469C118.736 152.191 118.953 151.929 119.074 151.682C119.195 151.435 119.256 151.197 119.256 150.967C119.256 150.655 119.189 150.378 119.055 150.135C118.92 149.888 118.734 149.693 118.496 149.55C118.262 149.407 117.991 149.336 117.683 149.336C117.358 149.336 117.07 149.412 116.819 149.563C116.572 149.711 116.379 149.908 116.24 150.155C116.101 150.402 116.036 150.668 116.045 150.954H114.433C114.433 150.33 114.572 149.786 114.849 149.323C115.131 148.859 115.516 148.499 116.006 148.244C116.5 147.988 117.07 147.86 117.716 147.86C118.314 147.86 118.851 147.995 119.328 148.263C119.804 148.528 120.179 148.896 120.452 149.368C120.725 149.836 120.862 150.376 120.862 150.987C120.862 151.433 120.801 151.808 120.68 152.111C120.558 152.415 120.376 152.694 120.134 152.95C119.895 153.205 119.598 153.489 119.243 153.801L116.403 156.317L116.26 155.927H120.862V157.402H114.42Z" fill="#101828" fill-opacity="0.2"/>
<rect x="49.2543" y="170.585" width="269.492" height="9" rx="3" fill="#EDEFF2" fill-opacity="0.5"/>
<rect x="49.2543" y="183.585" width="269.492" height="9" rx="3" fill="url(#paint1_linear_838_8628)" fill-opacity="0.5"/>
<g filter="url(#filter0_dd_838_8628)">
<g clip-path="url(#clip1_838_8628)">
<path d="M120.118 76.8919C120.927 71.4288 126.013 67.6565 131.476 68.4663L408.449 109.523C413.912 110.333 417.685 115.418 416.875 120.881L408.224 179.243C407.414 184.707 402.329 188.479 396.866 187.669L119.892 146.612C114.429 145.803 110.657 140.717 111.466 135.254L120.118 76.8919Z" fill="#27375B"/>
<path d="M137.294 98.2516C136.368 98.1144 135.605 97.7953 135.005 97.2946C134.405 96.7895 133.981 96.1484 133.732 95.3712C133.488 94.5947 133.437 93.7285 133.579 92.7726C133.72 91.8167 134.021 91.0026 134.48 90.3303C134.943 89.6586 135.534 89.1702 136.254 88.8652C136.975 88.5558 137.798 88.4697 138.724 88.607C139.791 88.7652 140.641 89.165 141.273 89.8062C141.906 90.4432 142.299 91.2353 142.452 92.1823L140.825 92.3815C140.735 91.7504 140.498 91.2334 140.116 90.8306C139.733 90.4235 139.197 90.1688 138.507 90.0665C137.886 89.9744 137.346 90.0368 136.889 90.2538C136.436 90.4714 136.068 90.8176 135.783 91.2923C135.502 91.7633 135.31 92.3371 135.205 93.0137C135.105 93.691 135.12 94.2978 135.251 94.8341C135.387 95.3668 135.642 95.8032 136.016 96.1435C136.391 96.4837 136.889 96.6999 137.51 96.7921C138.2 96.8943 138.787 96.8061 139.271 96.5274C139.755 96.2486 140.131 95.8226 140.4 95.2491L141.899 95.9115C141.478 96.7734 140.871 97.4195 140.08 97.8499C139.29 98.2759 138.361 98.4098 137.294 98.2516ZM144.577 99.3311C144.075 99.2568 143.665 99.0996 143.345 98.8595C143.027 98.6151 142.801 98.321 142.668 97.9771C142.539 97.6339 142.503 97.2715 142.56 96.89C142.609 96.5557 142.709 96.2639 142.86 96.0146C143.012 95.7611 143.218 95.555 143.478 95.3965C143.738 95.2336 144.062 95.1173 144.449 95.0477C144.741 94.9989 145.079 94.9658 145.463 94.9482C145.851 94.9312 146.268 94.9252 146.714 94.93C147.165 94.9311 147.636 94.9308 148.127 94.9291L147.527 95.1622C147.603 94.6828 147.548 94.3132 147.363 94.0537C147.178 93.7941 146.826 93.6258 146.308 93.5489C145.995 93.5026 145.682 93.5306 145.369 93.6332C145.055 93.7357 144.815 93.9563 144.646 94.2949L143.297 93.6416C143.556 93.0797 143.952 92.6565 144.484 92.3719C145.022 92.0879 145.699 92.0066 146.518 92.128C147.135 92.2195 147.663 92.4006 148.1 92.6713C148.542 92.9427 148.842 93.3245 149.001 93.8168C149.089 94.0796 149.127 94.3415 149.115 94.6025C149.103 94.8592 149.075 95.1376 149.031 95.4376L148.399 99.7006L147.042 99.4995L147.265 97.9949L147.454 98.2726C147.067 98.7277 146.645 99.042 146.19 99.2155C145.74 99.3854 145.202 99.4239 144.577 99.3311ZM145.068 98.1424C145.42 98.1945 145.729 98.1768 145.996 98.0893C146.263 98.0019 146.483 97.8789 146.655 97.7205C146.832 97.5627 146.958 97.4083 147.033 97.2573C147.143 97.0722 147.222 96.8539 147.268 96.6022C147.319 96.347 147.356 96.14 147.379 95.9814L147.834 96.1934C147.356 96.197 146.946 96.2019 146.603 96.2081C146.261 96.2142 145.966 96.2252 145.718 96.2411C145.471 96.2527 145.251 96.2748 145.058 96.3075C144.868 96.3451 144.705 96.3975 144.568 96.4648C144.431 96.5322 144.32 96.6164 144.235 96.7177C144.154 96.8196 144.102 96.9456 144.08 97.0956C144.055 97.2671 144.075 97.4256 144.141 97.5712C144.208 97.7125 144.317 97.8338 144.468 97.9351C144.624 98.0371 144.824 98.1061 145.068 98.1424ZM158.175 101.15L158.8 96.9318C158.87 96.456 158.807 96.0677 158.611 95.767C158.415 95.462 158.116 95.2796 157.713 95.2199C157.464 95.1831 157.233 95.2079 157.019 95.2944C156.805 95.3766 156.624 95.5206 156.475 95.7263C156.327 95.9278 156.23 96.1807 156.185 96.485L155.557 95.978C155.624 95.4972 155.794 95.0909 156.066 94.759C156.344 94.4234 156.687 94.1806 157.094 94.0308C157.502 93.881 157.937 93.8404 158.4 93.909C159.167 94.0227 159.72 94.3412 160.059 94.8646C160.403 95.3842 160.519 96.0191 160.408 96.7692L159.724 101.379L158.175 101.15ZM149.822 99.9116L150.852 92.9675L152.221 93.1705L151.902 95.3244L152.095 95.353L151.385 100.143L149.822 99.9116ZM154.008 100.532L154.63 96.3334C154.702 95.8491 154.64 95.4544 154.445 95.1494C154.249 94.8444 153.947 94.6617 153.54 94.6013C153.146 94.5429 152.809 94.6309 152.529 94.8654C152.253 95.1005 152.083 95.4345 152.019 95.8674L151.393 95.3015C151.459 94.8515 151.631 94.4629 151.907 94.1359C152.184 93.8089 152.526 93.5704 152.933 93.4206C153.346 93.2671 153.788 93.2253 154.259 93.2952C154.778 93.3721 155.195 93.5477 155.509 93.8221C155.828 94.0928 156.045 94.4316 156.16 94.8385C156.28 95.2418 156.304 95.6813 156.234 96.1571L155.551 100.761L154.008 100.532ZM164.472 102.28C163.795 102.18 163.251 101.935 162.84 101.546C162.429 101.156 162.149 100.668 161.999 100.08C161.85 99.4888 161.827 98.848 161.929 98.1579C162.033 97.4592 162.241 96.8505 162.555 96.3319C162.868 95.8132 163.271 95.4283 163.764 95.1772C164.262 94.9224 164.841 94.844 165.501 94.9418C166.157 95.039 166.701 95.284 167.133 95.6766C167.571 96.0656 167.881 96.5563 168.065 97.1487C168.249 97.7367 168.29 98.3823 168.185 99.0852C168.082 99.7797 167.859 100.384 167.516 100.898C167.172 101.412 166.739 101.795 166.215 102.046C165.692 102.297 165.111 102.375 164.472 102.28ZM160.693 104.677L162.18 94.6467L163.55 94.8497L162.827 99.7235L163.02 99.7521L162.256 104.909L160.693 104.677ZM164.44 100.856C164.843 100.916 165.19 100.864 165.482 100.702C165.773 100.539 166.006 100.295 166.181 99.971C166.361 99.6428 166.483 99.2666 166.546 98.8422C166.608 98.4221 166.6 98.0311 166.523 97.6691C166.445 97.3028 166.287 96.999 166.047 96.7575C165.807 96.5117 165.479 96.358 165.064 96.2963C164.669 96.2379 164.333 96.2867 164.056 96.4427C163.78 96.5945 163.556 96.8329 163.385 97.158C163.219 97.4795 163.102 97.8674 163.035 98.3218C162.968 98.7719 162.968 99.177 163.032 99.537C163.102 99.8978 163.248 100.193 163.473 100.424C163.702 100.65 164.024 100.795 164.44 100.856ZM170.764 103.213C170.262 103.139 169.852 102.981 169.533 102.741C169.214 102.497 168.988 102.203 168.855 101.859C168.726 101.516 168.69 101.153 168.747 100.772C168.796 100.437 168.897 100.146 169.047 99.8964C169.199 99.6429 169.405 99.4368 169.665 99.2783C169.925 99.1154 170.249 98.9991 170.636 98.9295C170.928 98.8807 171.266 98.8476 171.65 98.83C172.038 98.813 172.455 98.807 172.901 98.8118C173.352 98.8129 173.823 98.8126 174.314 98.8109L173.714 99.044C173.79 98.5646 173.735 98.1951 173.55 97.9355C173.365 97.6759 173.013 97.5076 172.495 97.4308C172.182 97.3844 171.869 97.4124 171.556 97.515C171.243 97.6175 171.002 97.8381 170.833 98.1767L169.485 97.5234C169.743 96.9615 170.139 96.5383 170.672 96.2537C171.209 95.9697 171.887 95.8884 172.705 96.0098C173.323 96.1013 173.85 96.2824 174.287 96.5531C174.729 96.8245 175.029 97.2063 175.189 97.6986C175.277 97.9614 175.315 98.2233 175.302 98.4843C175.29 98.741 175.262 99.0194 175.218 99.3194L174.586 103.582L173.229 103.381L173.452 101.877L173.641 102.154C173.254 102.61 172.833 102.924 172.378 103.097C171.928 103.267 171.39 103.306 170.764 103.213ZM171.255 102.024C171.607 102.076 171.916 102.059 172.183 101.971C172.45 101.884 172.67 101.761 172.842 101.602C173.019 101.445 173.145 101.29 173.22 101.139C173.331 100.954 173.409 100.736 173.455 100.484C173.506 100.229 173.543 100.022 173.567 99.8632L174.022 100.075C173.543 100.079 173.133 100.084 172.791 100.09C172.448 100.096 172.153 100.107 171.905 100.123C171.658 100.134 171.438 100.157 171.245 100.189C171.055 100.227 170.892 100.279 170.755 100.347C170.618 100.414 170.507 100.498 170.422 100.6C170.341 100.701 170.289 100.827 170.267 100.977C170.242 101.149 170.262 101.307 170.328 101.453C170.395 101.594 170.504 101.716 170.655 101.817C170.811 101.919 171.011 101.988 171.255 102.024ZM177.337 95.8158L177.547 94.3948L179.097 94.6245L178.886 96.0455L177.337 95.8158ZM176.151 103.814L177.18 96.8702L178.73 97.0999L177.701 104.044L176.151 103.814ZM181.822 108.006C181.436 107.949 181.075 107.834 180.737 107.661C180.403 107.489 180.111 107.269 179.862 106.999C179.612 106.735 179.421 106.43 179.288 106.086L180.82 105.591C180.915 105.863 181.074 106.077 181.297 106.233C181.522 106.394 181.773 106.494 182.047 106.535C182.368 106.582 182.664 106.567 182.934 106.489C183.204 106.415 183.423 106.277 183.594 106.074C183.768 105.876 183.875 105.612 183.915 105.281L184.208 103.307L184.4 103.335L185.183 98.0565L186.54 98.2576L185.461 105.536C185.435 105.712 185.401 105.878 185.361 106.034C185.324 106.195 185.277 106.35 185.219 106.499C185.05 106.934 184.798 107.273 184.464 107.517C184.129 107.766 183.735 107.928 183.281 108.006C182.831 108.084 182.345 108.084 181.822 108.006ZM182.145 104.9C181.506 104.805 180.973 104.562 180.544 104.17C180.116 103.778 179.812 103.286 179.633 102.694C179.453 102.103 179.415 101.46 179.518 100.765C179.622 100.062 179.846 99.4557 180.189 98.9458C180.536 98.4322 180.976 98.0527 181.507 97.8073C182.039 97.5576 182.633 97.4814 183.289 97.5786C183.949 97.6765 184.478 97.9192 184.876 98.3068C185.28 98.6907 185.556 99.1763 185.705 99.7635C185.855 100.351 185.878 100.994 185.774 101.692C185.672 102.383 185.464 102.989 185.15 103.512C184.836 104.031 184.426 104.417 183.92 104.67C183.414 104.924 182.822 105 182.145 104.9ZM182.588 103.546C183.004 103.608 183.353 103.563 183.633 103.412C183.919 103.257 184.145 103.017 184.312 102.691C184.483 102.366 184.602 101.979 184.668 101.529C184.736 101.074 184.734 100.669 184.665 100.312C184.6 99.9523 184.457 99.6595 184.236 99.4341C184.016 99.2043 183.709 99.0602 183.315 99.0018C182.899 98.9401 182.541 98.9922 182.24 99.1579C181.94 99.3193 181.7 99.5641 181.52 99.8923C181.341 100.216 181.22 100.588 181.158 101.008C181.095 101.433 181.1 101.828 181.173 102.193C181.25 102.555 181.405 102.856 181.637 103.096C181.868 103.337 182.186 103.487 182.588 103.546ZM191.879 106.146L192.375 102.802C192.407 102.584 192.428 102.339 192.437 102.069C192.447 101.799 192.414 101.533 192.338 101.272C192.268 101.008 192.135 100.78 191.94 100.589C191.75 100.399 191.47 100.276 191.101 100.222C190.904 100.192 190.704 100.196 190.502 100.231C190.299 100.267 190.107 100.353 189.925 100.488C189.748 100.619 189.592 100.815 189.457 101.075C189.322 101.331 189.224 101.672 189.161 102.096L188.3 101.567C188.387 100.976 188.58 100.457 188.879 100.011C189.181 99.5647 189.576 99.2334 190.064 99.0166C190.553 98.7955 191.123 98.7332 191.774 98.8298C192.288 98.9061 192.7 99.0547 193.009 99.2757C193.318 99.4967 193.551 99.7547 193.709 100.05C193.867 100.345 193.971 100.649 194.021 100.963C194.07 101.277 194.088 101.571 194.074 101.845C194.064 102.115 194.047 102.334 194.023 102.501L193.448 106.378L191.879 106.146ZM187.063 105.432L188.092 98.4878L189.475 98.6927L189.156 100.847L189.342 100.874L188.632 105.664L187.063 105.432ZM199.849 107.505C199.386 107.436 198.962 107.281 198.577 107.04C198.192 106.799 197.872 106.491 197.617 106.116C197.365 105.741 197.207 105.319 197.141 104.849L198.699 104.666C198.751 105.051 198.904 105.365 199.157 105.608C199.415 105.848 199.716 105.991 200.059 106.038C200.364 106.083 200.646 106.052 200.907 105.946C201.168 105.841 201.385 105.678 201.558 105.458C201.732 105.234 201.84 104.972 201.885 104.672C201.953 104.213 201.862 103.808 201.612 103.455C201.362 103.103 201.003 102.892 200.536 102.823C200.395 102.802 200.252 102.8 200.109 102.819C199.971 102.838 199.834 102.872 199.7 102.922L199.174 101.596L202.68 99.3951L202.76 99.788L198.356 99.1352L198.572 97.6756L204.249 98.5172L204.032 99.9832L201.175 102.017L201.229 101.559C201.785 101.681 202.24 101.908 202.594 102.241C202.952 102.574 203.203 102.973 203.349 103.437C203.5 103.902 203.536 104.391 203.46 104.906C203.374 105.488 203.153 105.99 202.797 106.411C202.445 106.832 202.01 107.141 201.489 107.34C200.974 107.536 200.427 107.59 199.849 107.505Z" fill="white"/>
<rect x="130.576" y="110.372" width="269.492" height="9" rx="3" transform="rotate(8.43171 130.576 110.372)" fill="#EDEFF2"/>
<rect x="128.669" y="123.231" width="269.492" height="9" rx="3" transform="rotate(8.43171 128.669 123.231)" fill="url(#paint2_linear_838_8628)"/>
</g>
</g>
</g>
<defs>
<filter id="filter0_dd_838_8628" x="95" y="64.9153" width="338.341" height="154.22" filterUnits="userSpaceOnUse" color-interpolation-filters="sRGB">
<feFlood flood-opacity="0" result="BackgroundImageFix"/>
<feColorMatrix in="SourceAlpha" type="matrix" values="0 0 0 0 0 0 0 0 0 0 0 0 0 0 0 0 0 0 127 0" result="hardAlpha"/>
<feMorphology radius="3" operator="erode" in="SourceAlpha" result="effect1_dropShadow_838_8628"/>
<feOffset dy="5.08475"/>
<feGaussianBlur stdDeviation="5.08475"/>
<feColorMatrix type="matrix" values="0 0 0 0 0.342222 0 0 0 0 0.30359 0 0 0 0 0.0244444 0 0 0 0.12 0"/>
<feBlend mode="normal" in2="BackgroundImageFix" result="effect1_dropShadow_838_8628"/>
<feColorMatrix in="SourceAlpha" type="matrix" values="0 0 0 0 0 0 0 0 0 0 0 0 0 0 0 0 0 0 127 0" result="hardAlpha"/>
<feMorphology radius="3" operator="erode" in="SourceAlpha" result="effect2_dropShadow_838_8628"/>
<feOffset dy="15"/>
<feGaussianBlur stdDeviation="9"/>
<feColorMatrix type="matrix" values="0 0 0 0 0.341176 0 0 0 0 0.301961 0 0 0 0 0.0235294 0 0 0 0.08 0"/>
<feBlend mode="normal" in2="effect1_dropShadow_838_8628" result="effect2_dropShadow_838_8628"/>
<feBlend mode="normal" in="SourceGraphic" in2="effect2_dropShadow_838_8628" result="shape"/>
</filter>
<linearGradient id="paint0_linear_838_8628" x1="49.2543" y1="93.0847" x2="1088" y2="96.161" gradientUnits="userSpaceOnUse">
<stop stop-color="#EDEFF2"/>
<stop offset="1" stop-color="#898A8C"/>
</linearGradient>
<linearGradient id="paint1_linear_838_8628" x1="49.2543" y1="188.085" x2="1088" y2="191.161" gradientUnits="userSpaceOnUse">
<stop stop-color="#EDEFF2"/>
<stop offset="1" stop-color="#898A8C"/>
</linearGradient>
<linearGradient id="paint2_linear_838_8628" x1="128.669" y1="127.731" x2="1167.42" y2="130.808" gradientUnits="userSpaceOnUse">
<stop stop-color="#EDEFF2"/>
<stop offset="1" stop-color="#898A8C"/>
</linearGradient>
<clipPath id="clip0_838_8628">
<rect width="368" height="242" rx="20" fill="white"/>
</clipPath>
<clipPath id="clip1_838_8628">
<path d="M120.118 76.8919C120.927 71.4288 126.013 67.6565 131.476 68.4663L408.449 109.523C413.912 110.333 417.685 115.418 416.875 120.881L408.224 179.243C407.414 184.707 402.329 188.479 396.866 187.669L119.892 146.612C114.429 145.803 110.657 140.717 111.466 135.254L120.118 76.8919Z" fill="white"/>
</clipPath>
</defs>
</svg>
