<svg width="48" height="33" viewBox="0 0 48 33" fill="none" xmlns="http://www.w3.org/2000/svg">
<path d="M34.102 18.7127C34.6437 18.0131 35.1145 17.2538 35.5059 16.4412C35.5669 16.3143 35.5136 16.1621 35.3868 16.1011C35.2604 16.0403 35.1078 16.0935 35.0467 16.22C34.5272 17.2994 33.8627 18.2813 33.0716 19.1462C31.8058 19.6445 30.4979 20.0404 29.1606 20.3265C32.5288 18.491 34.8195 14.9176 34.8195 10.8191C34.8195 6.72074 32.5288 3.14739 29.1606 1.31181C30.4939 1.59709 31.7979 1.99158 33.0603 2.48783C33.7715 3.26076 34.3869 4.11525 34.881 5.04243C34.927 5.12852 35.015 5.17742 35.1061 5.17742C35.1464 5.17742 35.1875 5.16779 35.2257 5.1474C35.35 5.08123 35.397 4.92698 35.3308 4.80285C34.9772 4.13942 34.5603 3.51422 34.098 2.92376C37.9603 4.647 41.3788 7.34471 43.9562 10.8191C41.3797 14.2924 37.9626 16.9895 34.102 18.7127ZM14.9275 19.1456C14.155 18.3039 13.5037 17.3636 12.9907 16.3441C12.9276 16.2182 12.7747 16.1676 12.6487 16.2308C12.523 16.2941 12.4723 16.4472 12.5355 16.5729C12.916 17.3291 13.3697 18.0433 13.8896 18.7087C10.0325 16.9852 6.61865 14.2898 4.04422 10.8191C6.62289 7.34282 10.0438 4.64407 13.9086 2.92102C13.4416 3.52054 13.0211 4.15764 12.6651 4.83617C12.5998 4.96068 12.6479 5.11474 12.7725 5.18016C12.8101 5.19989 12.8507 5.20923 12.8905 5.20923C12.9822 5.20923 13.0708 5.15958 13.1164 5.07273C13.6109 4.12998 14.228 3.2652 14.9417 2.48726C16.2034 1.99129 17.5068 1.59699 18.8396 1.31191C15.4714 3.14748 13.1807 6.72083 13.1807 10.8191C13.1807 14.9175 15.4714 18.4909 18.8396 20.3264C17.5018 20.0402 16.1936 19.6442 14.9275 19.1456ZM31.0964 6.54978C31.1407 6.64361 31.2326 6.69657 31.3275 6.69657C31.3707 6.69657 31.4145 6.68562 31.4545 6.66249L32.3666 6.12018C32.5875 5.98877 32.8751 6.07099 32.9901 6.30085C33.5456 7.41098 33.9026 8.64882 34.0148 9.91026C34.0378 10.1691 33.8316 10.3916 33.5718 10.3916H31.77C31.6292 10.3916 31.5152 10.5563 31.5152 10.697C31.5152 10.8377 31.6292 11.0024 31.77 11.0024H33.5905C33.8458 11.0024 34.0502 11.2176 34.0344 11.4725C33.9562 12.7358 33.6314 13.9819 33.106 15.105C32.9956 15.341 32.7041 15.4291 32.4795 15.2969L31.582 14.7692C31.4603 14.6989 31.3042 14.7336 31.2339 14.8555C31.1635 14.9774 31.2053 15.1296 31.3272 15.2001L32.24 15.7258C32.4613 15.8533 32.5309 16.1419 32.3899 16.3548C31.689 17.4137 30.793 18.3317 29.7536 19.0593C29.5409 19.2083 29.2454 19.1409 29.1156 18.9159L28.5981 18.0193C28.5274 17.8973 28.3715 17.8555 28.2501 17.9257C28.1281 17.9961 28.0863 18.1518 28.1567 18.2737L28.6991 19.1857C28.8304 19.4066 28.7482 19.6944 28.5185 19.8093C27.4083 20.3648 26.1705 20.7218 24.9091 20.8339C24.6503 20.857 24.4277 20.6507 24.4277 20.3908V18.589C24.4277 18.4483 24.2632 18.3343 24.1223 18.3343C23.9817 18.3343 23.817 18.4483 23.817 18.589V20.4096C23.817 20.665 23.6017 20.8693 23.347 20.8536C22.0835 20.7753 20.8374 20.4506 19.7143 19.9251C19.4783 19.8147 19.3903 19.5231 19.5224 19.2985L20.0502 18.4009C20.1204 18.279 20.0858 18.1233 19.9638 18.0529C19.8416 17.9823 19.6897 18.0244 19.6194 18.1462L19.0935 19.0591C18.966 19.2803 18.6774 19.35 18.4645 19.209C17.4056 18.5081 16.4877 17.612 15.7601 16.5727C15.6111 16.36 15.6785 16.0646 15.9034 15.9348L16.7884 15.424C16.9038 15.3574 16.9605 15.2136 16.9055 15.0923C16.8422 14.9526 16.675 14.9011 16.5457 14.9759L15.6336 15.5183C15.4128 15.6496 15.1251 15.5674 15.0101 15.3376C14.4545 14.2274 14.0975 12.9895 13.9854 11.7281C13.9624 11.4692 14.1686 11.2468 14.4285 11.2468H16.2304C16.371 11.2468 16.4851 11.082 16.4851 10.9414C16.4851 10.8006 16.371 10.6359 16.2304 10.6359H14.4097C14.1544 10.6359 13.95 10.4208 13.9658 10.1659C14.044 8.90247 14.3688 7.65641 14.8943 6.53336C15.0047 6.29727 15.2962 6.20929 15.5208 6.34135L16.4184 6.86913C16.4586 6.89226 16.5024 6.91019 16.5456 6.91019C16.6383 6.91019 16.7282 6.86356 16.7736 6.77313C16.8351 6.65069 16.7783 6.5007 16.6597 6.43226L15.76 5.91344C15.5388 5.78591 15.4693 5.49743 15.6103 5.28456C16.3112 4.22551 17.2073 3.3072 18.2467 2.57949C18.4594 2.43053 18.7549 2.49793 18.8847 2.72278L19.4021 3.61928C19.4494 3.70103 19.535 3.74682 19.623 3.74682C19.6662 3.74682 19.71 3.73587 19.7502 3.71274C19.8721 3.64241 19.9138 3.48665 19.8435 3.36479L19.3011 2.45262C19.1697 2.23182 19.252 1.94409 19.4818 1.82912C20.5919 1.27358 21.8298 0.916569 23.0912 0.804422C23.3501 0.781389 23.5726 0.987652 23.5726 1.24743V3.04931C23.5726 3.19005 23.7373 3.30409 23.878 3.30409C24.0187 3.30409 24.1834 3.19005 24.1834 3.04931V1.22874C24.1834 0.973398 24.3985 0.769024 24.6534 0.784788C25.9168 0.863045 27.163 1.18777 28.2861 1.71329C28.5221 1.82373 28.6101 2.11524 28.4781 2.33981L27.9503 3.23744C27.8799 3.35931 27.9147 3.51507 28.0367 3.58549C28.0767 3.60862 28.117 3.61957 28.1602 3.61957C28.2483 3.61957 28.3321 3.57388 28.3794 3.49213L28.906 2.57902C29.0335 2.35784 29.322 2.28836 29.5348 2.4293C30.5938 3.1303 31.5121 4.02633 32.2398 5.06575C32.3887 5.27843 32.3214 5.57389 32.0964 5.70369L31.2126 6.21391C31.0957 6.28131 31.0387 6.42782 31.0964 6.54978ZM44.7393 10.595C39.9326 3.96063 32.1798 -0.000320435 24.0002 -0.000320435C15.8206 -0.000320435 8.06756 3.96063 3.2609 10.595L3.09863 10.8191L3.2609 11.0433C8.06756 17.6777 15.8206 21.6387 24.0002 21.6387C32.1798 21.6387 39.9326 17.6777 44.7393 11.0433L44.9017 10.8191L44.7393 10.595Z" fill="white"/>
<path d="M12.2248 14.4465C12.1834 14.3119 12.0403 14.236 11.9064 14.2781C11.7719 14.3195 11.6965 14.462 11.7379 14.5965C11.8419 14.9343 11.9624 15.2728 12.0957 15.6024C12.1359 15.7016 12.2313 15.7617 12.332 15.7617C12.3638 15.7617 12.396 15.7557 12.4275 15.7431C12.5579 15.6903 12.6209 15.5417 12.5681 15.4113C12.4401 15.0951 12.3247 14.7705 12.2248 14.4465Z" fill="white"/>
<path d="M11.8162 13.9481C11.9532 13.916 12.0383 13.7789 12.0062 13.6419C11.4542 11.2852 11.6311 8.72389 12.5042 6.42992C12.5627 6.27596 12.4626 6.10066 12.2845 6.08461C12.166 6.07395 12.0561 6.15116 12.0142 6.26246C11.5651 7.45424 11.2963 8.76042 11.2113 9.97835C11.195 10.2116 11.0011 10.3917 10.7673 10.3917H9.90996C9.76931 10.3917 9.65527 10.5564 9.65527 10.6972C9.65527 10.8378 9.76931 11.0026 9.90996 11.0026H10.7471C10.9873 11.0026 11.1824 11.193 11.1927 11.433C11.2252 12.1859 11.3306 13.0196 11.5101 13.7861C11.5376 13.9035 11.6424 13.9688 11.7579 13.9688C11.7772 13.9688 11.7967 13.9527 11.8162 13.9481Z" fill="white"/>
<path d="M35.8756 6.94141C35.9033 6.94141 35.9313 6.93678 35.9587 6.92734C36.0918 6.88137 36.1625 6.73628 36.1164 6.60327C35.9963 6.25589 35.8583 5.90803 35.706 5.56923C35.648 5.44095 35.4973 5.38365 35.3691 5.44142C35.2407 5.4991 35.1835 5.64985 35.2413 5.77823C35.3873 6.10306 35.5198 6.43666 35.6348 6.76979C35.6713 6.87514 35.7699 6.94141 35.8756 6.94141Z" fill="white"/>
<path d="M23.8807 10.2904C23.5871 10.3155 23.3694 10.5738 23.3945 10.8674C23.4197 11.1609 23.6779 11.3785 23.9715 11.3535C24.2651 11.3284 24.4828 11.0701 24.4577 10.7765C24.4326 10.483 24.1743 10.2653 23.8807 10.2904Z" fill="white"/>
<path d="M24.0386 12.1391C23.311 12.2034 22.671 11.6608 22.6091 10.9348C22.547 10.2086 23.0874 9.56722 23.8135 9.5053C23.8519 9.5019 23.8903 9.5003 23.9284 9.5003C24.2391 9.5003 24.5371 9.60876 24.7777 9.81143C25.0479 10.0389 25.2131 10.358 25.2432 10.7096C25.2733 11.0615 25.1643 11.4039 24.9369 11.6739C24.7093 11.944 24.3904 12.1091 24.0386 12.1391ZM25.2691 12.4382C25.1945 12.3053 25.2101 12.1401 25.3084 12.0237C25.5973 11.6815 25.7695 11.2484 25.758 10.8007C25.7443 10.2607 25.5423 9.76565 25.134 9.42185C24.9821 9.29385 24.7886 9.19313 24.6041 9.12148C24.35 9.02264 24.1825 8.77881 24.1825 8.50619V4.57772C24.1825 4.43706 24.0178 4.32303 23.8771 4.32303C23.7364 4.32303 23.5717 4.43706 23.5717 4.57772V8.53979C23.5717 8.80307 23.4128 9.03567 23.1734 9.14545C22.5063 9.4514 22.0101 10.1769 22.0786 10.9781C22.16 11.9315 22.9734 12.6536 23.9133 12.6536C23.9652 12.6536 24.0235 12.6513 24.0761 12.6469C24.1926 12.6369 24.307 12.6157 24.4178 12.5845C24.5915 12.5354 24.7762 12.6063 24.8646 12.7635L26.3441 15.3916C26.3909 15.4748 26.4781 15.5215 26.5672 15.5215C26.6095 15.5215 26.6526 15.511 26.6922 15.4887C26.8148 15.4198 26.8585 15.2645 26.7896 15.1418L25.2691 12.4382Z" fill="white"/>
<path d="M38.5441 10.392H37.2267C36.9908 10.392 36.7953 10.2084 36.7823 9.97288C36.7363 9.13802 36.6089 8.31176 36.3976 7.50399C36.3614 7.36608 36.2193 7.29613 36.0817 7.33473C35.9448 7.37316 35.8712 7.52212 35.9071 7.65965C36.511 9.97609 36.4057 12.5296 35.6105 14.8458C35.565 14.9789 35.6359 15.1252 35.7687 15.1709C35.7963 15.1804 35.8242 15.1855 35.8516 15.1855C35.9573 15.1855 36.0563 15.1473 36.0926 15.0417C36.4953 13.8685 36.7263 12.6344 36.7861 11.4239C36.7978 11.1875 36.994 11.0029 37.2306 11.0029H38.5441C38.6849 11.0029 38.7989 10.8381 38.7989 10.6974C38.7989 10.5567 38.6849 10.392 38.5441 10.392Z" fill="white"/>
<path d="M39.8584 10.6985C39.8584 10.8392 39.9723 11.0039 40.1132 11.0039H41.7044C41.8451 11.0039 41.959 10.8392 41.959 10.6985C41.959 10.5579 41.8451 10.3931 41.7044 10.3931H40.1132C39.9723 10.3931 39.8584 10.5579 39.8584 10.6985Z" fill="white"/>
<path d="M8.89437 10.3931H5.78301C5.64235 10.3931 5.52832 10.5578 5.52832 10.6984C5.52832 10.8392 5.64235 11.0039 5.78301 11.0039H8.89437C9.03502 11.0039 9.14915 10.8392 9.14915 10.6984C9.14915 10.5578 9.03502 10.3931 8.89437 10.3931Z" fill="white"/>
<path d="M0 28.1803V32.9374H1.42716C2.77276 32.9374 3.87371 31.9045 3.87371 30.5589C3.87371 29.2133 2.77276 28.1803 1.42716 28.1803H0ZM0.543678 32.4278V28.69H1.42716C2.5349 28.69 3.33003 29.4171 3.33003 30.5589C3.33003 31.7006 2.5349 32.4278 1.42716 32.4278H0.543678ZM5.56591 28.1803V32.9374H8.89594V32.4278H6.10959V30.8103H8.21634V30.3006H6.10959V28.69H8.89594V28.1803H5.56591ZM10.5881 30.2191V30.6948H12.8444V30.2191H10.5881ZM14.5366 32.9374H15.0803V30.8103H17.187V30.3006H15.0803V28.69H17.8666V28.1803H14.5366V32.9374ZM21.4617 28.1803L19.5588 32.9374H20.1297L20.5986 31.7617H23.0588L23.5277 32.9374H24.0985L22.1957 28.1803H21.4617ZM20.8025 31.252L21.8287 28.69L22.8549 31.252H20.8025ZM27.5985 33.0054C28.5771 33.0054 29.3926 32.1899 29.3926 31.1977V28.1803H28.8489V31.2317C28.8489 31.9248 28.2781 32.4957 27.5985 32.4957C26.9053 32.4957 26.3344 31.9248 26.3344 31.2317V28.1803H25.7907V31.1977C25.7907 32.1899 26.6063 33.0054 27.5985 33.0054ZM33.5314 33.0054C34.5372 33.0054 35.4138 32.387 35.7808 31.5103H35.2168C34.9109 32.1219 34.2993 32.4957 33.5314 32.4957C32.4236 32.4957 31.6285 31.7006 31.6285 30.5589C31.6285 29.4171 32.4236 28.622 33.5314 28.622C34.143 28.622 34.6595 28.8667 34.9993 29.2744L35.4003 28.9822C34.9517 28.4521 34.2789 28.1123 33.5314 28.1123C32.1858 28.1123 31.0848 29.2133 31.0848 30.5589C31.0848 31.9045 32.1858 33.0054 33.5314 33.0054ZM39.9196 32.4957C38.8118 32.4957 38.0167 31.7006 38.0167 30.5589C38.0167 29.4171 38.8118 28.622 39.9196 28.622C41.0273 28.622 41.8225 29.4171 41.8225 30.5589C41.8225 31.7006 41.0273 32.4957 39.9196 32.4957ZM37.473 30.5589C37.473 31.9045 38.574 33.0054 39.9196 33.0054C41.2652 33.0054 42.3661 31.9045 42.3661 30.5589C42.3661 29.2133 41.2652 28.1123 39.9196 28.1123C38.574 28.1123 37.473 29.2133 37.473 30.5589ZM44.0583 28.1803V32.9374H44.602V28.7307L47.1845 32.9374H48V28.1803H47.4563V32.387L44.8738 28.1803H44.0583Z" fill="white"/>
</svg>
