<svg width="18" height="18" viewBox="0 0 18 18" fill="none" xmlns="http://www.w3.org/2000/svg">
<path d="M15.1453 6.53203C15.1023 6.42966 15.0299 6.34231 14.9373 6.281C14.8447 6.21969 14.7361 6.18716 14.625 6.1875H3.37502C3.26397 6.18716 3.1553 6.21969 3.0627 6.281C2.97011 6.34231 2.89774 6.42966 2.85471 6.53203C2.81418 6.63593 2.8039 6.74918 2.82505 6.85868C2.84621 6.96818 2.89793 7.06945 2.97424 7.15078L8.59924 12.7758C8.70675 12.8797 8.85046 12.9379 9.00002 12.9379C9.14958 12.9379 9.29328 12.8797 9.4008 12.7758L15.0258 7.15078C15.1021 7.06945 15.1538 6.96818 15.175 6.85868C15.1961 6.74918 15.1859 6.63593 15.1453 6.53203Z" fill="#1C1C1C"/>
</svg>
