<svg width="53" height="53" viewBox="0 0 53 53" fill="none" xmlns="http://www.w3.org/2000/svg">
<circle cx="23.6463" cy="24.464" r="17.0158" transform="rotate(-34.3093 23.6463 24.464)" fill="#27375B"/>
<path d="M31.756 25.024C31.7892 24.4715 31.7647 23.9131 31.6804 23.3552C31.6672 23.2682 31.586 23.2083 31.499 23.2215C31.4122 23.2347 31.3522 23.316 31.3651 23.4029C31.4773 24.1438 31.4802 24.8855 31.3764 25.6114C30.898 26.3152 30.3618 26.981 29.7716 27.6004C30.8648 25.4642 30.7885 22.81 29.3433 20.6922C27.8982 18.5744 25.4545 17.5357 23.0667 17.7748C23.8563 17.4521 24.6693 17.1961 25.4966 17.0074C26.1366 17.156 26.7559 17.3806 27.3382 17.6855C27.3923 17.7137 27.455 17.708 27.5021 17.6758C27.5229 17.6616 27.5407 17.6422 27.5533 17.6182C27.5942 17.5402 27.5641 17.4439 27.4861 17.4031C27.0694 17.1849 26.6336 17.0089 26.1865 16.8668C28.7899 16.3953 31.5076 16.5839 34.0645 17.4704C33.958 20.1737 33.1432 22.7723 31.756 25.024ZM22.0005 32.009C21.3045 31.8464 20.6364 31.5902 20.0118 31.2443C19.9348 31.2015 19.838 31.2293 19.7952 31.3063C19.7525 31.3834 19.7803 31.4804 19.8573 31.523C20.3205 31.7796 20.8069 31.9887 21.3101 32.1492C18.7093 32.6187 15.9948 32.4296 13.4407 31.544C13.5474 28.8384 14.3635 26.2376 15.753 23.9844C15.723 24.4589 15.7304 24.9364 15.7857 25.4125C15.7959 25.4999 15.875 25.5626 15.9625 25.5524C15.9889 25.5494 16.0132 25.5399 16.0337 25.5259C16.0811 25.4935 16.1094 25.4366 16.1023 25.3757C16.0254 24.7141 16.0394 24.0497 16.1339 23.396C16.6109 22.6949 17.1454 22.0315 17.7336 21.4142C16.6404 23.5504 16.7167 26.2046 18.1618 28.3223C19.607 30.4401 22.0507 31.4789 24.4384 31.2397C23.6462 31.5635 22.8306 31.8202 22.0005 32.009ZM25.914 19.7989C25.97 19.8318 26.0362 19.8267 26.0852 19.7932C26.1075 19.778 26.1263 19.7569 26.1388 19.7308L26.4189 19.129C26.4867 18.9832 26.6643 18.9243 26.8048 19.0025C27.4833 19.3802 28.1043 19.894 28.607 20.5063C28.7102 20.6319 28.6821 20.8196 28.5478 20.9112L27.6168 21.5466C27.544 21.5962 27.5432 21.7215 27.5928 21.7942C27.6425 21.8669 27.7594 21.9119 27.8322 21.8622L28.7729 21.2203C28.9048 21.1302 29.0863 21.1693 29.168 21.3066C29.5731 21.987 29.8447 22.7454 29.9692 23.511C29.9953 23.6719 29.8758 23.8202 29.7131 23.8311L29.0632 23.8749C28.9756 23.8815 28.9072 23.9545 28.9138 24.0422C28.9204 24.13 28.9957 24.194 29.0835 24.1874L29.7406 24.1372C29.8999 24.125 30.0376 24.2496 30.0399 24.4094C30.051 25.2037 29.9117 25.994 29.6312 26.7365C29.5738 26.8885 29.3974 26.9578 29.251 26.8873L28.6674 26.6065C28.5879 26.5684 28.4925 26.6018 28.4546 26.6809C28.4164 26.7603 28.4497 26.8554 28.529 26.8936L29.1309 27.1736C29.2767 27.2415 29.3356 27.4191 29.2574 27.5596C28.8797 28.238 28.3659 28.859 27.7537 29.3617C27.6281 29.4649 27.4403 29.4368 27.3487 29.3025L26.7133 28.3715C26.6637 28.2987 26.5385 28.2978 26.4657 28.3475C26.393 28.3971 26.3481 28.5141 26.3977 28.5868L27.0397 29.5276C27.1297 29.6595 27.0906 29.841 26.9534 29.9227C26.2729 30.3278 25.5145 30.5994 24.7489 30.7238C24.588 30.75 24.4397 30.6304 24.4288 30.4678L24.385 29.8178C24.3783 29.7301 24.3055 29.6618 24.2176 29.6684C24.1295 29.675 24.0659 29.7504 24.0725 29.8381L24.1227 30.4953C24.1348 30.6545 24.0103 30.7923 23.8505 30.7945C23.0562 30.8057 22.2659 30.6664 21.5235 30.3859C21.3715 30.3285 21.3021 30.1521 21.3726 30.0057L21.6498 29.4297C21.6859 29.3546 21.6646 29.2603 21.5934 29.217C21.5114 29.1672 21.4068 29.1995 21.3663 29.2837L21.0863 29.8856C21.0185 30.0313 20.8408 30.0903 20.7004 30.0121C20.0219 29.6343 19.4009 29.1206 18.8981 28.5083C18.795 28.3826 18.8231 28.195 18.9574 28.1033L19.8885 27.468C19.9612 27.4184 19.962 27.293 19.9124 27.2203C19.8628 27.1476 19.7458 27.1027 19.6731 27.1523L18.7323 27.7943C18.6003 27.8843 18.4189 27.8452 18.3372 27.7079C17.9321 27.0275 17.6605 26.2691 17.536 25.5035C17.5099 25.3426 17.6295 25.1943 17.7921 25.1834L18.442 25.1396C18.471 25.1374 18.4999 25.1312 18.5222 25.116C18.5701 25.0833 18.6002 25.0275 18.5917 24.9647C18.5803 24.8798 18.4981 24.8223 18.4127 24.8288L17.7648 24.8779C17.6055 24.89 17.4679 24.7654 17.4657 24.6057C17.4544 23.8113 17.5937 23.0208 17.8742 22.2783C17.9316 22.1263 18.108 22.057 18.2544 22.1274L18.8379 22.4082C18.8911 22.4337 18.9515 22.4272 18.997 22.3962C19.0193 22.381 19.0381 22.3599 19.0507 22.3337C19.0889 22.2544 19.0555 22.1592 18.9762 22.121L18.3743 21.8409C18.2285 21.7732 18.1696 21.5955 18.2478 21.455C18.6256 20.7765 19.1393 20.1556 19.7516 19.6528C19.8772 19.5496 20.0649 19.5778 20.1565 19.712L20.7919 20.6431C20.8415 20.7158 20.9669 20.7167 21.0396 20.667C21.1123 20.6174 21.1572 20.5004 21.1075 20.4277L20.4656 19.4869C20.3755 19.355 20.4146 19.1735 20.5519 19.0918C21.2324 18.6867 21.9908 18.4151 22.7565 18.2906C22.9174 18.2645 23.0656 18.3841 23.0766 18.5467L23.1203 19.1966C23.1269 19.2845 23.1999 19.3527 23.2877 19.346C23.3165 19.3439 23.3412 19.3353 23.3636 19.3201C23.4091 19.289 23.4363 19.2359 23.4319 19.1769L23.382 18.5194C23.3699 18.3602 23.4945 18.2225 23.6542 18.2203C24.4486 18.2091 25.239 18.3483 25.9816 18.6288C26.1335 18.6862 26.2029 18.8627 26.1324 19.009L25.8556 19.5844C25.819 19.6604 25.8412 19.7562 25.914 19.7989ZM34.3902 17.0785C29.567 15.3452 24.1642 16.0322 19.9375 18.9164C15.7108 21.8007 13.1013 26.5813 12.9569 31.7044L12.9521 31.8774L13.115 31.9361C17.9381 33.6694 23.3411 32.9823 27.5678 30.0981C31.7944 27.2138 34.4039 22.4333 34.5483 17.3102L34.5532 17.137L34.3902 17.0785Z" fill="white"/>
<path d="M18.947 30.5338C18.8781 30.4789 18.7774 30.4901 18.7231 30.5591C18.6682 30.6279 18.6795 30.7282 18.7483 30.783C18.9212 30.9209 19.1028 31.0534 19.2879 31.1767C19.3436 31.2138 19.4141 31.2112 19.4662 31.1757C19.4826 31.1645 19.4971 31.15 19.5089 31.1324C19.5577 31.0591 19.5379 30.9601 19.4646 30.9113C19.287 30.7931 19.1129 30.6661 18.947 30.5338Z" fill="white"/>
<path d="M18.5605 30.4202C18.62 30.3553 18.6156 30.2545 18.5507 30.195C17.4345 29.1719 16.6227 27.786 16.265 26.2927C16.241 26.1925 16.1274 26.1373 16.0297 26.1918C15.9647 26.228 15.9352 26.3067 15.9527 26.379C16.1409 27.1532 16.4626 27.9229 16.8482 28.5822C16.922 28.7085 16.8853 28.8699 16.7645 28.9524L16.3215 29.2547C16.2488 29.3043 16.2479 29.4296 16.2976 29.5023C16.3472 29.575 16.4642 29.6199 16.5369 29.5703L16.9694 29.2752C17.0936 29.1904 17.2615 29.2201 17.3515 29.3404C17.6337 29.718 17.9822 30.1117 18.3452 30.4444C18.4008 30.4954 18.478 30.4922 18.5377 30.4515C18.5476 30.4447 18.5521 30.4295 18.5605 30.4202Z" fill="white"/>
<path d="M28.5216 18.3157C28.5359 18.306 28.5487 18.2937 28.5595 18.2792C28.6121 18.2085 28.5975 18.1086 28.5268 18.0561C28.3422 17.919 28.1482 17.7879 27.9501 17.6665C27.8749 17.6207 27.7768 17.6442 27.7309 17.7193C27.6849 17.7943 27.7085 17.8924 27.7836 17.9384C27.9736 18.0547 28.1597 18.1804 28.3366 18.312C28.3926 18.3535 28.4669 18.353 28.5216 18.3157Z" fill="white"/>
<path d="M23.505 24.2761C23.3621 24.3926 23.3407 24.6028 23.4572 24.7456C23.5737 24.8885 23.7839 24.9098 23.9268 24.7934C24.0696 24.6769 24.091 24.4667 23.9745 24.3238C23.858 24.181 23.6478 24.1596 23.505 24.2761Z" fill="white"/>
<path d="M24.2384 25.1756C23.8851 25.4653 23.3631 25.4106 23.0751 25.0573C22.7869 24.7039 22.84 24.182 23.1934 23.8939C23.2121 23.8786 23.2313 23.8643 23.251 23.8508C23.4115 23.7413 23.6038 23.6923 23.7996 23.7121C24.0194 23.7344 24.2173 23.8411 24.3568 24.0121C24.4965 24.1834 24.5609 24.3987 24.5386 24.6184C24.5162 24.8382 24.4096 25.036 24.2384 25.1756ZM24.9797 24.8962C24.8943 24.8539 24.8442 24.763 24.8539 24.6681C24.8825 24.3895 24.8187 24.1049 24.655 23.8777C24.4575 23.6034 24.1785 23.4189 23.8463 23.3852C23.7227 23.3726 23.5872 23.3888 23.4666 23.4168C23.3004 23.4554 23.1279 23.3884 23.0318 23.2475L21.6465 21.2176C21.5969 21.1449 21.4716 21.1441 21.3989 21.1937C21.3262 21.2433 21.2813 21.3603 21.3309 21.433L22.728 23.4803C22.8208 23.6164 22.8207 23.7926 22.7358 23.9337C22.4989 24.327 22.4984 24.8769 22.8162 25.2668C23.1945 25.7307 23.8694 25.817 24.3551 25.4856C24.3819 25.4673 24.4112 25.4456 24.4369 25.4247C24.4935 25.3784 24.5452 25.3272 24.5914 25.272C24.6638 25.1854 24.7843 25.1569 24.8855 25.2069L26.5766 26.0433C26.6301 26.0697 26.6917 26.0631 26.7377 26.0317C26.7596 26.0168 26.7782 25.9962 26.7908 25.9707C26.8298 25.8919 26.7977 25.7962 26.7188 25.7571L24.9797 24.8962Z" fill="white"/>
<path d="M31.1169 19.158L30.4362 19.6225C30.3143 19.7057 30.1486 19.6798 30.0588 19.5627C29.7406 19.1475 29.3834 18.7655 28.9894 18.4226C28.9221 18.3641 28.824 18.378 28.7665 18.4465C28.7093 18.5146 28.7238 18.6176 28.7908 18.676C29.9197 19.66 30.7657 21.0166 31.1715 22.4939C31.1949 22.5787 31.2832 22.6293 31.3679 22.6061C31.3855 22.6012 31.4017 22.5941 31.4159 22.5844C31.4705 22.5472 31.5082 22.4925 31.4897 22.4251C31.2841 21.6769 30.9684 20.9577 30.5724 20.3111C30.4951 20.1849 30.5313 20.0203 30.6536 19.9368L31.3323 19.4737C31.4051 19.424 31.4059 19.2987 31.3563 19.226C31.3067 19.1533 31.1897 19.1084 31.1169 19.158Z" fill="white"/>
<path d="M31.9045 18.852C31.9541 18.9246 32.0711 18.9696 32.1439 18.9199L32.9661 18.3589C33.0388 18.3092 33.0396 18.1839 32.99 18.1112C32.9404 18.0386 32.8234 17.9936 32.7507 18.0433L31.9285 18.6043C31.8557 18.654 31.8549 18.7793 31.9045 18.852Z" fill="white"/>
<path d="M15.7975 29.6122L14.1898 30.7093C14.1171 30.7589 14.1162 30.8842 14.1658 30.9569C14.2155 31.0296 14.3325 31.0745 14.4052 31.0249L16.0129 29.9278C16.0856 29.8782 16.0865 29.7529 16.0369 29.6801C15.9873 29.6075 15.8702 29.5626 15.7975 29.6122Z" fill="white"/>
<circle cx="28.9736" cy="29.3112" r="17.0158" transform="rotate(-34.3093 28.9736 29.3112)" fill="#DD4A5D"/>
<path d="M37.0832 29.8712C37.1165 29.3187 37.092 28.7603 37.0077 28.2024C36.9945 28.1154 36.9133 28.0554 36.8262 28.0687C36.7395 28.0818 36.6794 28.1631 36.6924 28.2501C36.8046 28.991 36.8075 29.7327 36.7036 30.4586C36.2253 31.1624 35.689 31.8282 35.0989 32.4476C36.1921 30.3114 36.1158 27.6572 34.6706 25.5393C33.2255 23.4215 30.7817 22.3828 28.394 22.622C29.1836 22.2993 29.9965 22.0433 30.8238 21.8546C31.4639 22.0032 32.0832 22.2278 32.6654 22.5326C32.7195 22.5609 32.7823 22.5551 32.8294 22.523C32.8502 22.5088 32.868 22.4893 32.8806 22.4653C32.9214 22.3873 32.8913 22.291 32.8134 22.2502C32.3967 22.0321 31.9608 21.856 31.5137 21.714C34.1171 21.2425 36.8349 21.4311 39.3918 22.3176C39.2852 25.0209 38.4705 27.6194 37.0832 29.8712ZM27.3278 36.8561C26.6318 36.6936 25.9637 36.4374 25.3391 36.0914C25.2621 36.0487 25.1653 36.0764 25.1224 36.1535C25.0798 36.2306 25.1076 36.3276 25.1846 36.3702C25.6478 36.6268 26.1341 36.8358 26.6374 36.9964C24.0365 37.4659 21.3221 37.2768 18.768 36.3912C18.8747 33.6856 19.6907 31.0848 21.0803 28.8316C21.0503 29.3061 21.0577 29.7836 21.113 30.2597C21.1232 30.3471 21.2023 30.4097 21.2898 30.3996C21.3162 30.3965 21.3404 30.387 21.361 30.373C21.4084 30.3407 21.4366 30.2838 21.4296 30.2228C21.3527 29.5613 21.3666 28.8968 21.4611 28.2432C21.9382 27.542 22.4727 26.8787 23.0609 26.2614C21.9676 28.3976 22.044 31.0518 23.4891 33.1695C24.9343 35.2873 27.378 36.326 29.7657 36.0868C28.9735 36.4107 28.1578 36.6673 27.3278 36.8561ZM31.2413 24.6461C31.2973 24.6789 31.3634 24.6739 31.4125 24.6404C31.4348 24.6252 31.4536 24.6041 31.4661 24.578L31.7462 23.9762C31.814 23.8304 31.9916 23.7714 32.1321 23.8497C32.8106 24.2274 33.4315 24.7412 33.9343 25.3534C34.0375 25.4791 34.0093 25.6668 33.8751 25.7584L32.9441 26.3937C32.8713 26.4434 32.8705 26.5687 32.9201 26.6414C32.9697 26.7141 33.0867 26.759 33.1595 26.7094L34.1002 26.0674C34.2321 25.9774 34.4136 26.0165 34.4953 26.1538C34.9003 26.8342 35.1719 27.5926 35.2964 28.3582C35.3226 28.5191 35.203 28.6674 35.0404 28.6783L34.3905 28.7221C34.3028 28.7287 34.2345 28.8016 34.2411 28.8894C34.2477 28.9772 34.323 29.0411 34.4108 29.0346L35.0678 28.9843C35.2271 28.9722 35.3649 29.0968 35.3671 29.2565C35.3783 30.0508 35.239 30.8412 34.9585 31.5837C34.9011 31.7356 34.7247 31.805 34.5783 31.7345L33.9947 31.4536C33.9151 31.4155 33.8198 31.4489 33.7818 31.528C33.7437 31.6074 33.7769 31.7026 33.8563 31.7407L34.4582 32.0208C34.6039 32.0886 34.6629 32.2663 34.5847 32.4067C34.2069 33.0852 33.6932 33.7061 33.081 34.2089C32.9553 34.312 32.7676 34.284 32.6759 34.1497L32.0406 33.2186C31.991 33.1459 31.8657 33.145 31.793 33.1946C31.7203 33.2442 31.6754 33.3613 31.725 33.434L32.367 34.3747C32.457 34.5067 32.4178 34.6882 32.2806 34.7699C31.6002 35.1749 30.8418 35.4465 30.0761 35.571C29.9153 35.5972 29.767 35.4775 29.756 35.3149L29.7122 34.665C29.7056 34.5773 29.6327 34.509 29.5449 34.5156C29.4568 34.5222 29.3932 34.5975 29.3998 34.6853L29.4499 35.3424C29.4621 35.5017 29.3376 35.6395 29.1778 35.6417C28.3835 35.6529 27.5932 35.5135 26.8507 35.2331C26.6988 35.1757 26.6294 34.9992 26.6998 34.8529L26.9771 34.2768C27.0132 34.2018 26.9918 34.1075 26.9206 34.0642C26.8386 34.0143 26.7341 34.0467 26.6936 34.1309L26.4136 34.7328C26.3458 34.8785 26.1681 34.9375 26.0277 34.8593C25.3491 34.4815 24.7282 33.9677 24.2254 33.3555C24.1223 33.2298 24.1504 33.0421 24.2847 32.9505L25.2157 32.3151C25.2884 32.2655 25.2893 32.1402 25.2397 32.0675C25.19 31.9948 25.073 31.9499 25.0003 31.9995L24.0596 32.6415C23.9276 32.7315 23.7461 32.6924 23.6645 32.5551C23.2593 31.8747 22.9878 31.1163 22.8633 30.3507C22.8371 30.1897 22.9567 30.0415 23.1194 30.0305L23.7693 29.9867C23.7982 29.9845 23.8272 29.9783 23.8495 29.9631C23.8974 29.9304 23.9274 29.8746 23.919 29.8119C23.9076 29.7269 23.8254 29.6694 23.7399 29.6759L23.0921 29.7251C22.9328 29.7372 22.7952 29.6126 22.793 29.4529C22.7817 28.6585 22.921 27.868 23.2014 27.1255C23.2588 26.9735 23.4353 26.9041 23.5816 26.9746L24.1651 27.2553C24.2184 27.2809 24.2788 27.2744 24.3243 27.2433C24.3466 27.2281 24.3653 27.207 24.378 27.1809C24.4161 27.1016 24.3828 27.0064 24.3035 26.9682L23.7016 26.6881C23.5558 26.6203 23.4968 26.4427 23.5751 26.3022C23.9528 25.6237 24.4666 25.0027 25.0789 24.5C25.2045 24.3968 25.3922 24.4249 25.4838 24.5592L26.1192 25.4902C26.1688 25.563 26.2941 25.5638 26.3669 25.5142C26.4395 25.4646 26.4844 25.3476 26.4348 25.2749L25.7929 24.3341C25.7028 24.2022 25.7419 24.0207 25.8792 23.939C26.5596 23.5339 27.3181 23.2623 28.0837 23.1378C28.2446 23.1117 28.3929 23.2313 28.4038 23.3939L28.4476 24.0438C28.4542 24.1316 28.5271 24.1998 28.615 24.1932C28.6438 24.191 28.6685 24.1825 28.6908 24.1672C28.7364 24.1362 28.7636 24.083 28.7592 24.0241L28.7093 23.3666C28.6972 23.2073 28.8218 23.0697 28.9815 23.0675C29.7758 23.0563 30.5663 23.1955 31.3089 23.476C31.4608 23.5334 31.5302 23.7098 31.4597 23.8562L31.1829 24.4315C31.1463 24.5076 31.1685 24.6034 31.2413 24.6461ZM39.7175 21.9257C34.8943 20.1924 29.4915 20.8794 25.2648 23.7636C21.0381 26.6479 18.4285 31.4285 18.2842 36.5516L18.2793 36.7246L18.4423 36.7832C23.2654 38.5166 28.6683 37.8295 32.895 34.9452C37.1217 32.061 39.7312 27.2804 39.8755 22.1573L39.8804 21.9842L39.7175 21.9257Z" fill="white"/>
<path d="M24.2743 35.3805C24.2054 35.3256 24.1047 35.3368 24.0504 35.4058C23.9955 35.4746 24.0068 35.5748 24.0756 35.6297C24.2484 35.7676 24.4301 35.9001 24.6151 36.0234C24.6709 36.0604 24.7414 36.0579 24.7935 36.0223C24.8098 36.0112 24.8244 35.9967 24.8362 35.9791C24.885 35.9058 24.8651 35.8068 24.7919 35.758C24.6142 35.6398 24.4401 35.5128 24.2743 35.3805Z" fill="white"/>
<path d="M23.8878 35.2669C23.9473 35.202 23.9429 35.1012 23.878 35.0417C22.7618 34.0185 21.95 32.6326 21.5923 31.1394C21.5682 31.0392 21.4547 30.9839 21.357 31.0385C21.292 31.0747 21.2624 31.1534 21.28 31.2257C21.4682 31.9998 21.7899 32.7696 22.1754 33.4289C22.2492 33.5552 22.2126 33.7166 22.0917 33.7991L21.6487 34.1014C21.5761 34.151 21.5752 34.2763 21.6248 34.349C21.6744 34.4217 21.7914 34.4666 21.8641 34.417L22.2967 34.1218C22.4208 34.0371 22.5888 34.0667 22.6788 34.1871C22.961 34.5647 23.3094 34.9583 23.6725 35.2911C23.7281 35.3421 23.8052 35.3389 23.8649 35.2981C23.8749 35.2913 23.8793 35.2762 23.8878 35.2669Z" fill="white"/>
<path d="M33.8488 23.1624C33.8631 23.1527 33.876 23.1404 33.8868 23.1259C33.9394 23.0552 33.9247 22.9553 33.854 22.9028C33.6694 22.7656 33.4755 22.6346 33.2773 22.5132C33.2021 22.4673 33.104 22.4909 33.0582 22.5659C33.0122 22.641 33.0358 22.7391 33.1109 22.785C33.3009 22.9014 33.487 23.0271 33.6639 23.1587C33.7199 23.2002 33.7942 23.1997 33.8488 23.1624Z" fill="white"/>
<path d="M28.8322 29.1232C28.6894 29.2397 28.668 29.4499 28.7845 29.5928C28.901 29.7356 29.1111 29.757 29.254 29.6406C29.3969 29.5241 29.4183 29.3138 29.3018 29.171C29.1853 29.0281 28.9751 29.0067 28.8322 29.1232Z" fill="white"/>
<path d="M29.5657 30.0227C29.2124 30.3125 28.6904 30.2578 28.4024 29.9045C28.1142 29.5511 28.1673 29.0291 28.5207 28.7411C28.5393 28.7258 28.5586 28.7115 28.5783 28.698C28.7388 28.5885 28.931 28.5394 29.1269 28.5593C29.3467 28.5816 29.5445 28.6882 29.6841 28.8593C29.8237 29.0305 29.8881 29.2459 29.8658 29.4656C29.8435 29.6854 29.7369 29.8832 29.5657 30.0227ZM30.307 29.7433C30.2216 29.701 30.1714 29.6101 30.1811 29.5153C30.2097 29.2366 30.146 28.9521 29.9823 28.7248C29.7848 28.4506 29.5058 28.266 29.1736 28.2324C29.0499 28.2198 28.9144 28.236 28.7939 28.264C28.6277 28.3025 28.4552 28.2356 28.3591 28.0947L26.9738 26.0647C26.9242 25.9921 26.7989 25.9912 26.7262 26.0408C26.6535 26.0904 26.6086 26.2075 26.6582 26.2801L28.0553 28.3275C28.1481 28.4635 28.148 28.6397 28.063 28.7809C27.8262 29.1742 27.8256 29.7241 28.1435 30.1139C28.5218 30.5779 29.1967 30.6642 29.6824 30.3327C29.7092 30.3144 29.7385 30.2927 29.7641 30.2719C29.8208 30.2256 29.8725 30.1743 29.9187 30.1192C29.9911 30.0325 30.1116 30.004 30.2127 30.0541L31.9039 30.8904C31.9574 30.9169 32.019 30.9103 32.065 30.8789C32.0869 30.864 32.1055 30.8433 32.118 30.8179C32.1571 30.739 32.1249 30.6434 32.046 30.6043L30.307 29.7433Z" fill="white"/>
<path d="M36.4442 24.0052L35.7635 24.4697C35.6416 24.5529 35.4758 24.527 35.386 24.4098C35.0679 23.9947 34.7107 23.6126 34.3167 23.2697C34.2493 23.2112 34.1513 23.2252 34.0938 23.2937C34.0366 23.3618 34.0511 23.4647 34.1181 23.5232C35.247 24.5072 36.0929 25.8638 36.4988 27.3411C36.5222 27.4259 36.6104 27.4765 36.6952 27.4533C36.7128 27.4484 36.729 27.4413 36.7432 27.4316C36.7978 27.3943 36.8355 27.3397 36.817 27.2723C36.6114 26.5241 36.2956 25.8049 35.8996 25.1583C35.8223 25.032 35.8586 24.8674 35.9809 24.784L36.6596 24.3209C36.7324 24.2712 36.7332 24.1459 36.6835 24.0732C36.6339 24.0005 36.517 23.9555 36.4442 24.0052Z" fill="white"/>
<path d="M37.2318 23.6991C37.2814 23.7718 37.3984 23.8168 37.4711 23.7671L38.2933 23.206C38.3661 23.1564 38.3669 23.0311 38.3173 22.9584C38.2677 22.8857 38.1507 22.8408 38.078 22.8904L37.2558 23.4515C37.183 23.5012 37.1822 23.6265 37.2318 23.6991Z" fill="white"/>
<path d="M21.1248 34.4589L19.517 35.556C19.4444 35.6056 19.4435 35.7309 19.4931 35.8036C19.5427 35.8763 19.6598 35.9212 19.7324 35.8716L21.3402 34.7745C21.4129 34.7249 21.4138 34.5995 21.3641 34.5268C21.3145 34.4541 21.1975 34.4093 21.1248 34.4589Z" fill="white"/>
<circle cx="26.3537" cy="26.6559" r="17.0158" transform="rotate(-34.3093 26.3537 26.6559)" fill="#7C65E0"/>
<path d="M34.4634 27.2159C34.4966 26.6634 34.4721 26.105 34.3878 25.5471C34.3746 25.4601 34.2934 25.4002 34.2064 25.4134C34.1196 25.4266 34.0596 25.5079 34.0725 25.5948C34.1847 26.3357 34.1876 27.0774 34.0838 27.8033C33.6054 28.5071 33.0692 29.1729 32.479 29.7923C33.5722 27.6561 33.4959 25.0019 32.0507 22.8841C30.6056 20.7663 28.1619 19.7276 25.7741 19.9667C26.5637 19.644 27.3767 19.388 28.204 19.1993C28.844 19.3479 29.4633 19.5725 30.0455 19.8774C30.0997 19.9056 30.1624 19.8999 30.2095 19.8677C30.2303 19.8535 30.2481 19.8341 30.2607 19.81C30.3016 19.732 30.2715 19.6358 30.1935 19.595C29.7768 19.3768 29.341 19.2008 28.8939 19.0587C31.4973 18.5872 34.215 18.7758 36.7719 19.6623C36.6654 22.3656 35.8506 24.9642 34.4634 27.2159ZM24.7079 34.2009C24.0119 34.0383 23.3438 33.7821 22.7192 33.4362C22.6422 33.3934 22.5454 33.4211 22.5026 33.4982C22.4599 33.5753 22.4877 33.6723 22.5647 33.7149C23.0279 33.9715 23.5143 34.1806 24.0175 34.3411C21.4167 34.8106 18.7022 34.6215 16.1481 33.7359C16.2548 31.0303 17.0709 28.4295 18.4604 26.1763C18.4304 26.6508 18.4378 27.1283 18.4931 27.6044C18.5033 27.6918 18.5824 27.7545 18.6699 27.7443C18.6963 27.7413 18.7206 27.7318 18.7411 27.7178C18.7885 27.6854 18.8168 27.6285 18.8097 27.5676C18.7328 26.906 18.7468 26.2416 18.8413 25.5879C19.3183 24.8868 19.8528 24.2234 20.441 23.6061C19.3478 25.7423 19.4241 28.3965 20.8692 30.5142C22.3144 32.632 24.7581 33.6708 27.1458 33.4316C26.3536 33.7554 25.538 34.0121 24.7079 34.2009ZM28.6214 21.9908C28.6774 22.0237 28.7436 22.0186 28.7926 21.9851C28.8149 21.9699 28.8337 21.9488 28.8462 21.9227L29.1263 21.3209C29.1941 21.1751 29.3717 21.1162 29.5122 21.1944C30.1907 21.5721 30.8117 22.0859 31.3144 22.6982C31.4176 22.8238 31.3895 23.0115 31.2552 23.1031L30.3242 23.7384C30.2514 23.7881 30.2506 23.9134 30.3002 23.9861C30.3498 24.0588 30.4668 24.1038 30.5396 24.0541L31.4803 23.4122C31.6122 23.3221 31.7937 23.3612 31.8754 23.4985C32.2805 24.1789 32.5521 24.9373 32.6766 25.7029C32.7027 25.8638 32.5831 26.0121 32.4205 26.023L31.7706 26.0668C31.683 26.0734 31.6146 26.1464 31.6212 26.2341C31.6278 26.3219 31.7031 26.3859 31.7909 26.3793L32.448 26.3291C32.6073 26.3169 32.745 26.4415 32.7472 26.6013C32.7584 27.3956 32.6191 28.1859 32.3386 28.9284C32.2812 29.0804 32.1048 29.1497 31.9584 29.0792L31.3748 28.7984C31.2953 28.7603 31.1999 28.7937 31.162 28.8728C31.1238 28.9521 31.1571 29.0473 31.2364 29.0855L31.8383 29.3655C31.9841 29.4333 32.043 29.611 31.9648 29.7515C31.5871 30.4299 31.0733 31.0509 30.4611 31.5536C30.3354 31.6568 30.1477 31.6287 30.0561 31.4944L29.4207 30.5633C29.3711 30.4906 29.2459 30.4897 29.1731 30.5394C29.1004 30.589 29.0555 30.706 29.1051 30.7787L29.7471 31.7195C29.8371 31.8514 29.798 32.0329 29.6608 32.1146C28.9803 32.5197 28.2219 32.7913 27.4563 32.9157C27.2954 32.9419 27.1471 32.8223 27.1362 32.6597L27.0924 32.0097C27.0857 31.922 27.0129 31.8537 26.925 31.8603C26.8369 31.8669 26.7733 31.9423 26.7799 32.03L26.8301 32.6872C26.8422 32.8464 26.7177 32.9842 26.5579 32.9864C25.7636 32.9976 24.9733 32.8583 24.2309 32.5778C24.0789 32.5204 24.0095 32.344 24.08 32.1976L24.3572 31.6216C24.3933 31.5465 24.372 31.4522 24.3008 31.4089C24.2188 31.3591 24.1142 31.3914 24.0737 31.4756L23.7937 32.0775C23.7259 32.2232 23.5482 32.2822 23.4078 32.204C22.7293 31.8262 22.1083 31.3125 21.6055 30.7002C21.5024 30.5745 21.5305 30.3869 21.6648 30.2952L22.5959 29.6598C22.6686 29.6103 22.6694 29.4849 22.6198 29.4122C22.5702 29.3395 22.4532 29.2946 22.3805 29.3442L21.4397 29.9862C21.3077 30.0762 21.1263 30.0371 21.0446 29.8998C20.6395 29.2194 20.3679 28.461 20.2434 27.6954C20.2173 27.5345 20.3369 27.3862 20.4995 27.3753L21.1494 27.3315C21.1784 27.3292 21.2073 27.3231 21.2296 27.3079C21.2775 27.2752 21.3076 27.2194 21.2991 27.1566C21.2877 27.0717 21.2055 27.0142 21.1201 27.0206L20.4722 27.0698C20.3129 27.0819 20.1753 26.9573 20.1731 26.7976C20.1618 26.0032 20.3011 25.2127 20.5816 24.4702C20.6389 24.3182 20.8154 24.2489 20.9618 24.3193L21.5453 24.6001C21.5985 24.6256 21.6589 24.6191 21.7044 24.5881C21.7267 24.5729 21.7455 24.5518 21.7581 24.5256C21.7963 24.4463 21.7629 24.3511 21.6836 24.3129L21.0817 24.0328C20.9359 23.9651 20.877 23.7874 20.9552 23.6469C21.333 22.9684 21.8467 22.3474 22.459 21.8447C22.5846 21.7415 22.7723 21.7696 22.8639 21.9039L23.4993 22.835C23.5489 22.9077 23.6742 22.9085 23.747 22.8589C23.8197 22.8093 23.8646 22.6923 23.8149 22.6196L23.173 21.6788C23.0829 21.5469 23.122 21.3654 23.2593 21.2837C23.9398 20.8786 24.6982 20.607 25.4639 20.4825C25.6248 20.4564 25.773 20.576 25.7839 20.7386L25.8277 21.3885C25.8343 21.4763 25.9073 21.5446 25.9951 21.5379C26.0239 21.5358 26.0486 21.5272 26.071 21.512C26.1165 21.4809 26.1437 21.4277 26.1393 21.3688L26.0894 20.7113C26.0773 20.5521 26.2019 20.4144 26.3616 20.4122C27.156 20.401 27.9464 20.5402 28.689 20.8207C28.8409 20.8781 28.9103 21.0545 28.8398 21.2009L28.563 21.7762C28.5264 21.8523 28.5486 21.9481 28.6214 21.9908ZM37.0976 19.2704C32.2744 17.5371 26.8716 18.2241 22.6449 21.1083C18.4182 23.9926 15.8087 28.7732 15.6643 33.8963L15.6595 34.0693L15.8224 34.128C20.6455 35.8613 26.0485 35.1742 30.2752 32.2899C34.5018 29.4057 37.1113 24.6252 37.2557 19.502L37.2606 19.3289L37.0976 19.2704Z" fill="white"/>
<path d="M21.6544 32.7252C21.5855 32.6703 21.4848 32.6815 21.4305 32.7505C21.3756 32.8193 21.3869 32.9196 21.4557 32.9744C21.6286 33.1123 21.8102 33.2448 21.9953 33.3681C22.051 33.4052 22.1215 33.4026 22.1736 33.3671C22.19 33.3559 22.2045 33.3414 22.2163 33.3238C22.2651 33.2505 22.2453 33.1515 22.172 33.1028C21.9944 32.9845 21.8203 32.8575 21.6544 32.7252Z" fill="white"/>
<path d="M21.2678 32.6116C21.3273 32.5467 21.3229 32.4459 21.258 32.3864C20.1418 31.3633 19.33 29.9774 18.9723 28.4841C18.9482 28.3839 18.8347 28.3287 18.737 28.3832C18.672 28.4194 18.6424 28.4981 18.66 28.5704C18.8482 29.3446 19.1699 30.1143 19.5554 30.7736C19.6293 30.8999 19.5926 31.0613 19.4717 31.1438L19.0287 31.4461C18.9561 31.4957 18.9552 31.621 19.0048 31.6938C19.0544 31.7664 19.1715 31.8113 19.2441 31.7617L19.6767 31.4666C19.8008 31.3818 19.9688 31.4115 20.0588 31.5318C20.341 31.9094 20.6894 32.3031 21.0525 32.6358C21.1081 32.6868 21.1852 32.6836 21.2449 32.6429C21.2549 32.6361 21.2593 32.6209 21.2678 32.6116Z" fill="white"/>
<path d="M31.229 20.5071C31.2432 20.4974 31.2561 20.4851 31.2669 20.4706C31.3195 20.3999 31.3049 20.3 31.2342 20.2475C31.0496 20.1104 30.8556 19.9793 30.6575 19.8579C30.5823 19.8121 30.4842 19.8356 30.4383 19.9107C30.3923 19.9857 30.4159 20.0838 30.491 20.1298C30.681 20.2461 30.8671 20.3718 31.044 20.5034C31.1 20.5449 31.1743 20.5444 31.229 20.5071Z" fill="white"/>
<path d="M26.2124 26.468C26.0695 26.5844 26.0481 26.7947 26.1646 26.9375C26.2811 27.0804 26.4913 27.1017 26.6342 26.9853C26.777 26.8688 26.7984 26.6586 26.6819 26.5157C26.5654 26.3729 26.3552 26.3515 26.2124 26.468Z" fill="white"/>
<path d="M26.9458 27.3675C26.5925 27.6572 26.0705 27.6025 25.7825 27.2492C25.4943 26.8958 25.5474 26.3739 25.9008 26.0858C25.9195 26.0705 25.9387 26.0562 25.9584 26.0427C26.1189 25.9332 26.3112 25.8842 26.507 25.904C26.7268 25.9263 26.9247 26.0329 27.0642 26.204C27.2039 26.3753 27.2683 26.5906 27.246 26.8103C27.2236 27.0301 27.117 27.2279 26.9458 27.3675ZM27.6871 27.0881C27.6017 27.0458 27.5516 26.9549 27.5613 26.86C27.5899 26.5814 27.5261 26.2968 27.3624 26.0696C27.1649 25.7953 26.8859 25.6108 26.5537 25.5771C26.4301 25.5645 26.2946 25.5807 26.174 25.6087C26.0078 25.6473 25.8353 25.5803 25.7392 25.4394L24.3539 23.4095C24.3043 23.3368 24.179 23.3359 24.1063 23.3856C24.0336 23.4352 23.9887 23.5522 24.0383 23.6249L25.4354 25.6722C25.5282 25.8082 25.5281 25.9845 25.4431 26.1256C25.2063 26.5189 25.2058 27.0688 25.5236 27.4586C25.9019 27.9226 26.5768 28.0089 27.0625 27.6775C27.0893 27.6592 27.1186 27.6375 27.1443 27.6166C27.2009 27.5703 27.2526 27.5191 27.2988 27.4639C27.3712 27.3773 27.4917 27.3488 27.5929 27.3988L29.284 28.2352C29.3375 28.2616 29.3991 28.255 29.4451 28.2236C29.467 28.2087 29.4856 28.1881 29.4982 28.1626C29.5372 28.0838 29.5051 27.9881 29.4262 27.949L27.6871 27.0881Z" fill="white"/>
<path d="M33.8243 21.3499L33.1436 21.8144C33.0217 21.8976 32.856 21.8717 32.7662 21.7546C32.448 21.3394 32.0908 20.9574 31.6968 20.6145C31.6295 20.556 31.5314 20.5699 31.4739 20.6384C31.4167 20.7065 31.4312 20.8095 31.4982 20.8679C32.6271 21.8519 33.4731 23.2085 33.8789 24.6858C33.9023 24.7706 33.9905 24.8212 34.0753 24.798C34.0929 24.7931 34.1091 24.786 34.1233 24.7763C34.1779 24.7391 34.2156 24.6844 34.1971 24.617C33.9915 23.8688 33.6757 23.1496 33.2798 22.503C33.2025 22.3768 33.2387 22.2122 33.361 22.1287L34.0397 21.6656C34.1125 21.6159 34.1133 21.4906 34.0637 21.4179C34.0141 21.3452 33.8971 21.3003 33.8243 21.3499Z" fill="white"/>
<path d="M34.6119 21.0439C34.6615 21.1165 34.7785 21.1615 34.8513 21.1118L35.6735 20.5507C35.7462 20.5011 35.747 20.3758 35.6974 20.3031C35.6478 20.2305 35.5308 20.1855 35.4581 20.2351L34.6359 20.7962C34.5631 20.8459 34.5623 20.9712 34.6119 21.0439Z" fill="white"/>
<path d="M18.5049 31.8036L16.8972 32.9007C16.8245 32.9503 16.8236 33.0756 16.8732 33.1483C16.9229 33.221 17.0399 33.2659 17.1126 33.2163L18.7203 32.1192C18.793 32.0696 18.7939 31.9443 18.7442 31.8715C18.6947 31.7989 18.5776 31.754 18.5049 31.8036Z" fill="white"/>
</svg>
