<svg width="18" height="15" viewBox="0 0 21 18" fill="none" xmlns="http://www.w3.org/2000/svg">
<path d="M14.7611 10.5297C14.9366 10.0323 15.0256 9.50523 15.0239 8.97413C15.0239 7.7949 14.5822 6.66396 13.796 5.83012C13.0098 4.99628 11.9435 4.52783 10.8316 4.52783C10.3371 4.52844 9.84656 4.62283 9.3833 4.80654L10.3672 5.88246C10.5168 5.85708 10.6679 5.84408 10.8194 5.84357C11.6056 5.84183 12.3604 6.17007 12.9192 6.75661C13.4779 7.34316 13.7952 8.14035 13.8016 8.97413C13.8011 9.13477 13.7889 9.29513 13.765 9.45376L14.7611 10.5297Z" fill="#8D9196"/>
<path d="M20.3226 8.66947C18.2632 4.63151 14.6515 2.18799 10.6549 2.18799C9.56669 2.1907 8.48582 2.37665 7.45264 2.73891L8.43653 3.78891C9.16121 3.59028 9.90637 3.48795 10.6549 3.48428C14.0954 3.48428 17.2243 5.51947 19.0882 8.94817C18.4045 10.2202 17.498 11.3422 16.4176 12.2537L17.2854 13.1741C18.5358 12.1042 19.5742 10.7826 20.341 9.28521L20.4999 8.97409L20.3226 8.66947Z" fill="#8D9196"/>
<path d="M2.34344 1.05363L5.069 3.94437C3.34623 5.12083 1.93822 6.74811 0.980666 8.66937L0.821777 8.974L0.980666 9.28511C3.04011 13.3231 6.65178 15.7666 10.6484 15.7666C12.2084 15.7662 13.7481 15.3918 15.1523 14.6712L18.2079 17.912L19.2773 16.9397L3.38844 0.0878906L2.34344 1.05363ZM8.30178 7.37307L12.3657 11.6833C11.9065 11.9847 11.3779 12.1462 10.8379 12.1499C10.4455 12.1499 10.057 12.0676 9.69473 11.9078C9.33245 11.748 9.00355 11.5137 8.72695 11.2185C8.45035 10.9234 8.23152 10.5731 8.08304 10.1879C7.93456 9.80269 7.85936 9.39014 7.86178 8.974C7.86866 8.40788 8.02077 7.85444 8.30178 7.37307ZM7.41567 6.43326C6.84393 7.28842 6.57595 8.33058 6.65918 9.37519C6.74241 10.4198 7.17147 11.3995 7.8704 12.1408C8.56933 12.8821 9.49303 13.3371 10.478 13.4254C11.4629 13.5137 12.4455 13.2295 13.2518 12.6231L14.2296 13.6601C13.0976 14.1733 11.8794 14.4378 10.6484 14.4379C7.20789 14.4379 4.079 12.4027 2.21511 8.974C3.1096 7.29414 4.39783 5.88765 5.95511 4.89067L7.41567 6.43326Z" fill="#8D9196"/>
</svg>
