<svg width="18" height="18" viewBox="0 0 18 18" fill="none" xmlns="http://www.w3.org/2000/svg">
<rect x="18" y="18" width="18" height="18" rx="9" transform="rotate(-180 18 18)" fill="white"/>
<path d="M2.85467 11.468C2.8977 11.5703 2.97007 11.6577 3.06267 11.719C3.15526 11.7803 3.26393 11.8128 3.37498 11.8125L14.625 11.8125C14.736 11.8128 14.8447 11.7803 14.9373 11.719C15.0299 11.6577 15.1023 11.5703 15.1453 11.468C15.1858 11.3641 15.1961 11.2508 15.1749 11.1413C15.1538 11.0318 15.1021 10.9305 15.0258 10.8492L9.40076 5.22422C9.29325 5.12025 9.14954 5.06214 8.99998 5.06214C8.85042 5.06214 8.70672 5.12025 8.5992 5.22422L2.9742 10.8492C2.89789 10.9305 2.84617 11.0318 2.82502 11.1413C2.80386 11.2508 2.81414 11.3641 2.85467 11.468Z" fill="#1A87D7"/>
</svg>
