<svg width="27" height="26" viewBox="0 0 27 26" fill="none" xmlns="http://www.w3.org/2000/svg">
<path d="M13.5 2.4375C11.4109 2.4375 9.36879 3.05698 7.63179 4.2176C5.8948 5.37822 4.54098 7.02786 3.74153 8.95791C2.94208 10.8879 2.7329 13.0117 3.14046 15.0606C3.54802 17.1096 4.554 18.9916 6.03119 20.4688C7.50838 21.946 9.39044 22.952 11.4394 23.3595C13.4883 23.7671 15.6121 23.5579 17.5421 22.7585C19.4721 21.959 21.1218 20.6052 22.2824 18.8682C23.443 17.1312 24.0625 15.0891 24.0625 13C24.0571 10.2003 22.9426 7.5168 20.9629 5.53711C18.9832 3.55742 16.2997 2.44287 13.5 2.4375ZM18.3141 13.3148C18.2698 13.4133 18.2078 13.5028 18.1313 13.5789L14.6883 17.0219C14.6145 17.0977 14.526 17.1576 14.4282 17.1977C14.3303 17.2379 14.2253 17.2576 14.1195 17.2555C14.0123 17.2578 13.9056 17.2383 13.8061 17.1981C13.7066 17.1579 13.6163 17.098 13.5406 17.0219C13.3887 16.8696 13.3033 16.6632 13.3033 16.448C13.3033 16.2329 13.3887 16.0265 13.5406 15.8742L15.6023 13.8125H9.4375C9.22202 13.8125 9.01535 13.7269 8.86298 13.5745C8.71061 13.4222 8.625 13.2155 8.625 13C8.625 12.7845 8.71061 12.5778 8.86298 12.4255C9.01535 12.2731 9.22202 12.1875 9.4375 12.1875H15.6023L13.5406 10.1258C13.4006 9.97122 13.3253 9.76873 13.3305 9.56023C13.3356 9.35172 13.4207 9.15318 13.5682 9.0057C13.7157 8.85822 13.9142 8.77311 14.1227 8.76797C14.3312 8.76284 14.5337 8.83808 14.6883 8.97812L18.1313 12.4211C18.2078 12.4972 18.2698 12.5867 18.3141 12.6852C18.3954 12.8872 18.3954 13.1128 18.3141 13.3148Z" fill="#27375B"/>
</svg>
