<svg width="21" height="21" viewBox="0 0 21 21" fill="none" xmlns="http://www.w3.org/2000/svg">
<g clip-path="url(#clip0_5034_13006)">
<path d="M16.75 0.5H13C12.0808 0.5 11.3333 1.2475 11.3333 2.16667V5.5C11.3333 6.41917 12.0808 7.16667 13 7.16667H18.8333C19.7525 7.16667 20.5 6.41917 20.5 5.5V4.25C20.5 2.1825 18.8175 0.5 16.75 0.5ZM13 5.5V2.16667H16.75C17.8992 2.16667 18.8333 3.10167 18.8333 4.25V5.5H13ZM18.8333 8.83333H7.16667V5.5C7.16667 4.58083 6.41917 3.83333 5.5 3.83333H4.25C2.1825 3.83333 0.5 5.51583 0.5 7.58333V16.75C0.5 18.8175 2.1825 20.5 4.25 20.5H16.75C18.8175 20.5 20.5 18.8175 20.5 16.75V10.5C20.5 9.58083 19.7525 8.83333 18.8333 8.83333ZM18.8333 13.8333H11.3333V10.5H18.8333V13.8333ZM13.8333 15.5V18.8333H7.16667V15.5H13.8333ZM2.16667 7.58333C2.16667 6.435 3.10083 5.5 4.25 5.5H5.5V8.83333H2.16667V7.58333ZM9.66667 10.5V13.8333H2.16667V10.5H9.66667ZM2.16667 16.75V15.5H5.5V18.8333H4.25C3.10083 18.8333 2.16667 17.8983 2.16667 16.75ZM16.75 18.8333H15.5V15.5H18.8333V16.75C18.8333 17.8983 17.8992 18.8333 16.75 18.8333Z" fill="#28385C"/>
</g>
<defs>
<clipPath id="clip0_5034_13006">
<rect width="20" height="20" fill="white" transform="translate(0.5 0.5)"/>
</clipPath>
</defs>
</svg>
