<svg width="61" height="54" viewBox="0 0 61 54" fill="none" xmlns="http://www.w3.org/2000/svg">
<rect width="61" height="54" rx="13.5211" fill="#D3DEF1" fill-opacity="0.32"/>
<g clip-path="url(#clip0_3531_36996)">
<path d="M39.125 14H34.25C33.0551 14 32.0833 14.9717 32.0833 16.1667V20.5C32.0833 21.6949 33.0551 22.6667 34.25 22.6667H41.8333C43.0283 22.6667 44 21.6949 44 20.5V18.875C44 16.1873 41.8127 14 39.125 14ZM34.25 20.5V16.1667H39.125C40.6189 16.1667 41.8333 17.3822 41.8333 18.875V20.5H34.25ZM41.8333 24.8333H26.6667V20.5C26.6667 19.3051 25.6949 18.3333 24.5 18.3333H22.875C20.1873 18.3333 18 20.5206 18 23.2083V35.125C18 37.8127 20.1873 40 22.875 40H39.125C41.8127 40 44 37.8127 44 35.125V27C44 25.8051 43.0283 24.8333 41.8333 24.8333ZM41.8333 31.3333H32.0833V27H41.8333V31.3333ZM35.3333 33.5V37.8333H26.6667V33.5H35.3333ZM20.1667 23.2083C20.1667 21.7155 21.3811 20.5 22.875 20.5H24.5V24.8333H20.1667V23.2083ZM29.9167 27V31.3333H20.1667V27H29.9167ZM20.1667 35.125V33.5H24.5V37.8333H22.875C21.3811 37.8333 20.1667 36.6178 20.1667 35.125ZM39.125 37.8333H37.5V33.5H41.8333V35.125C41.8333 36.6178 40.6189 37.8333 39.125 37.8333Z" fill="#28385C" fill-opacity="0.6"/>
</g>
<defs>
<clipPath id="clip0_3531_36996">
<rect width="26" height="26" fill="white" transform="translate(18 14)"/>
</clipPath>
</defs>
</svg>
