<svg width="16" height="16" viewBox="0 0 16 16" fill="none" xmlns="http://www.w3.org/2000/svg">
<path d="M7.92308 0.158203C5.80812 0.178349 3.78719 1.02694 2.30245 2.51843C0.817712 4.00992 -0.0100806 6.02293 9.26713e-05 8.11713C0.0102659 10.2113 0.857666 12.2163 2.35683 13.6936C3.85599 15.1708 5.88494 16.0002 8 16.0002C10.1151 16.0002 12.144 15.1708 13.6432 13.6936C15.1423 12.2163 15.9897 10.2113 15.9999 8.11713C16.0101 6.02293 15.1823 4.00992 13.6975 2.51843C12.2128 1.02694 10.1919 0.178349 8.07692 0.158203H7.92308ZM7.92308 15.0933C6.53586 15.1162 5.17294 14.7312 4.00668 13.9871C2.84042 13.243 1.92319 12.1732 1.37099 10.9129C0.818787 9.6527 0.65639 8.2586 0.90437 6.90698C1.15235 5.55535 1.79963 4.3069 2.76421 3.31947C3.72879 2.33205 4.96735 1.65 6.32341 1.3596C7.67946 1.0692 9.09213 1.18351 10.3826 1.68801C11.6731 2.19251 12.7834 3.06458 13.5733 4.19394C14.3632 5.3233 14.7971 6.6592 14.8202 8.03276C14.8202 8.0722 14.8202 8.10986 14.8202 8.1493C14.8591 9.95118 14.1735 11.6946 12.9144 12.9961C11.6553 14.2976 9.92567 15.0507 8.10588 15.0897H7.92485" fill="white"/>
<path d="M10.4044 6.92192H9.29876C9.26723 6.7406 9.20909 6.57998 9.12434 6.44005C9.03959 6.29814 8.93415 6.17792 8.80802 6.07938C8.68188 5.98084 8.53801 5.90693 8.3764 5.85766C8.21676 5.80642 8.04431 5.7808 7.85905 5.7808C7.52992 5.7808 7.23823 5.86357 6.98399 6.02912C6.72975 6.1927 6.53069 6.43315 6.38682 6.75046C6.24295 7.06579 6.17101 7.45109 6.17101 7.90636C6.17101 8.36951 6.24295 8.75974 6.38682 9.07705C6.53266 9.39239 6.73172 9.63086 6.98399 9.79247C7.23823 9.95211 7.52893 10.0319 7.85609 10.0319C8.03741 10.0319 8.20691 10.0083 8.36457 9.96098C8.52421 9.91171 8.6671 9.83977 8.79323 9.74517C8.92134 9.65057 9.02875 9.53429 9.11547 9.39633C9.20416 9.25837 9.26525 9.1007 9.29876 8.92332L10.4044 8.92923C10.363 9.21698 10.2733 9.48699 10.1354 9.73926C9.9994 9.99153 9.82104 10.2142 9.6003 10.4074C9.37956 10.5985 9.12138 10.7483 8.82575 10.8567C8.53013 10.9632 8.20198 11.0164 7.84131 11.0164C7.30918 11.0164 6.83421 10.8932 6.41638 10.6468C5.99856 10.4005 5.66943 10.0447 5.42899 9.57962C5.18854 9.1145 5.06832 8.55674 5.06832 7.90636C5.06832 7.25401 5.18953 6.69626 5.43194 6.23311C5.67436 5.76798 6.00448 5.41225 6.4223 5.16589C6.84012 4.91953 7.31312 4.79635 7.84131 4.79635C8.17833 4.79635 8.49169 4.84365 8.78141 4.93825C9.07113 5.03286 9.32931 5.1718 9.55596 5.35509C9.7826 5.53641 9.96885 5.75912 10.1147 6.02321C10.2625 6.28533 10.3591 6.5849 10.4044 6.92192Z" fill="white"/>
</svg>
