<svg width="40" height="41" viewBox="0 0 40 41" fill="none" xmlns="http://www.w3.org/2000/svg">
<path d="M14.167 23H13.3337C12.8916 23 12.4677 22.8244 12.1551 22.5118C11.8426 22.1993 11.667 21.7754 11.667 21.3333V13.8333C11.667 13.3913 11.8426 12.9674 12.1551 12.6548C12.4677 12.3423 12.8916 12.1667 13.3337 12.1667H20.8337C21.2757 12.1667 21.6996 12.3423 22.0122 12.6548C22.3247 12.9674 22.5003 13.3913 22.5003 13.8333V14.6667M19.167 18H26.667C27.5875 18 28.3337 18.7462 28.3337 19.6667V27.1667C28.3337 28.0871 27.5875 28.8333 26.667 28.8333H19.167C18.2465 28.8333 17.5003 28.0871 17.5003 27.1667V19.6667C17.5003 18.7462 18.2465 18 19.167 18Z" stroke="#667085" stroke-width="1.66667" stroke-linecap="round" stroke-linejoin="round"/>
</svg>
