<svg width="24" height="24" viewBox="0 0 24 24" fill="none" xmlns="http://www.w3.org/2000/svg">
<path d="M11.8889 2C14.3444 2 16.3333 3.98889 16.3333 6.44444C16.3333 8.9 14.3444 10.8889 11.8889 10.8889C9.43333 10.8889 7.44444 8.9 7.44444 6.44444C7.44444 3.98889 9.43333 2 11.8889 2ZM16.3333 13.7111C16.3333 14.8889 16.0222 17.6333 13.9 20.7L13 15.3333L14.0444 13.2444C13.3556 13.1667 12.6333 13.1111 11.8889 13.1111C11.1444 13.1111 10.4222 13.1667 9.73333 13.2444L10.7778 15.3333L9.87778 20.7C7.75556 17.6333 7.44444 14.8889 7.44444 13.7111C4.78889 14.4889 3 15.8889 3 17.5556V22H20.7778V17.5556C20.7778 15.8889 19 14.4889 16.3333 13.7111Z" fill="#5A6376"/>
</svg>
