<svg width="13" height="13" viewBox="0 0 13 13" fill="none" xmlns="http://www.w3.org/2000/svg">
<g clip-path="url(#clip0_4316_4418)">
<path d="M7.545 8.67566H3V2.67566H6.31L4.5 4.48566V7.17566H7.5V4.17566H6.225L7.725 2.67566H9V7.22066L7.545 8.67566ZM12.18 6.99566C11.755 6.57066 11.065 6.57066 10.635 6.99566L6.995 10.6357V12.1807H8.54L12.18 8.54066C12.605 8.11566 12.605 7.42566 12.18 6.99566ZM2 1.92566C2 1.78566 2.11 1.67566 2.25 1.67566H9.75C9.89 1.67566 10 1.78566 10 1.92566V6.23066C10.425 5.84566 10.965 5.66066 11.5 5.68566V1.92566C11.5 0.960659 10.715 0.175659 9.75 0.175659H2.25C1.285 0.175659 0.5 0.960659 0.5 1.92566V11.1757H6V9.67566H2V1.92566Z" fill="#1A87D7"/>
</g>
<defs>
<clipPath id="clip0_4316_4418">
<rect width="12" height="12" fill="white" transform="translate(0.5 0.175659)"/>
</clipPath>
</defs>
</svg>
