<svg width="14" height="14" viewBox="0 0 14 14" fill="none" xmlns="http://www.w3.org/2000/svg">
<path d="M13.5395 7.77974C13.7938 7.77974 14 8.026 14 8.32977V10.3099C14 12.0717 12.8041 13.5 11.3289 13.5H2.67105C1.19587 13.5 0 12.0717 0 10.3099V8.32977C0 8.026 0.206185 7.77974 0.460526 7.77974C0.714868 7.77974 0.921053 8.026 0.921053 8.32977V10.3099C0.921053 11.4642 1.70455 12.4 2.67105 12.4H11.3289C12.2954 12.4 13.0789 11.4642 13.0789 10.3099V8.32977C13.0789 8.026 13.2851 7.77974 13.5395 7.77974ZM7 0.5C7.24417 0.5 7.44395 0.726948 7.45955 1.01386L7.46053 1.05002L7.46053 7.17383L9.44893 4.95753C9.62679 4.75928 9.90115 4.76164 10.0765 4.95656L10.0998 4.98434C10.2658 5.19676 10.2638 5.52444 10.1006 5.73392L10.0774 5.76173L7.317 8.83875C7.3087 8.84817 7.3001 8.85721 7.29123 8.86587C7.2889 8.86816 7.28651 8.87044 7.28411 8.87269C7.27866 8.8778 7.27311 8.88276 7.26746 8.88758C7.26353 8.89096 7.25961 8.8942 7.25565 8.89736C7.25162 8.90055 7.24749 8.90374 7.24332 8.90685C7.23939 8.90981 7.23546 8.91264 7.2315 8.91539C7.2254 8.9196 7.2192 8.92369 7.21292 8.9276L7.20554 8.93213C7.19991 8.93547 7.1942 8.9387 7.18843 8.9418C7.18449 8.94392 7.18048 8.94599 7.17646 8.94798C7.17133 8.95051 7.16625 8.95291 7.16112 8.95519L7.14785 8.96082C7.14379 8.96248 7.13976 8.96404 7.1357 8.96553C7.13012 8.96755 7.12452 8.96947 7.11889 8.97126C7.10373 8.97612 7.08829 8.98003 7.07259 8.983C7.06866 8.98372 7.06477 8.9844 7.06088 8.98501L7.03028 8.98862L7 8.98979C6.97657 8.98978 6.95292 8.98764 6.92969 8.98337L6.90797 8.97871C6.767 9.01295 6.61474 8.96803 6.50156 8.84187L3.73841 5.76173C3.55247 5.55446 3.54242 5.20641 3.71596 4.98434C3.8895 4.76227 4.18092 4.75027 4.36686 4.95753L6.53947 7.37954L6.53947 1.05002C6.53947 0.746255 6.74566 0.5 7 0.5Z" fill="#1E1B39"/>
</svg>
