<svg width="14" height="15" viewBox="0 0 14 15" fill="none" xmlns="http://www.w3.org/2000/svg">
<path d="M10.6749 3.83075C10.5659 3.72152 10.418 3.66013 10.2637 3.66013C10.1094 3.66013 9.96141 3.72152 9.85242 3.83075L6.99992 6.67741L4.14742 3.82491C4.03844 3.71568 3.89047 3.6543 3.73617 3.6543C3.58187 3.6543 3.43391 3.71568 3.32492 3.82491C3.09742 4.05241 3.09742 4.41991 3.32492 4.64741L6.17742 7.49991L3.32492 10.3524C3.09742 10.5799 3.09742 10.9474 3.32492 11.1749C3.55242 11.4024 3.91992 11.4024 4.14742 11.1749L6.99992 8.32241L9.85242 11.1749C10.0799 11.4024 10.4474 11.4024 10.6749 11.1749C10.9024 10.9474 10.9024 10.5799 10.6749 10.3524L7.82242 7.49991L10.6749 4.64741C10.8966 4.42575 10.8966 4.05241 10.6749 3.83075Z" fill="#475467"/>
</svg>
