<svg width="22" height="22" viewBox="0 0 22 22" fill="none" xmlns="http://www.w3.org/2000/svg">
<path d="M11 0.0380859C8.91094 0.0380859 6.86879 0.657566 5.13179 1.81819C3.3948 2.97881 2.04098 4.62845 1.24153 6.55849C0.442077 8.48854 0.232904 10.6123 0.64046 12.6612C1.04802 14.7102 2.054 16.5922 3.53119 18.0694C5.00838 19.5466 6.89044 20.5526 8.93936 20.9601C10.9883 21.3677 13.1121 21.1585 15.0421 20.3591C16.9721 19.5596 18.6218 18.2058 19.7824 16.4688C20.943 14.7318 21.5625 12.6897 21.5625 10.6006C21.5571 7.80089 20.4426 5.11739 18.4629 3.1377C16.4832 1.15801 13.7997 0.0434545 11 0.0380859ZM15.8141 10.9154C15.7698 11.0139 15.7078 11.1034 15.6313 11.1795L12.1883 14.6225C12.1145 14.6983 12.026 14.7581 11.9282 14.7983C11.8303 14.8385 11.7253 14.8582 11.6195 14.8561C11.5123 14.8584 11.4056 14.8388 11.3061 14.7987C11.2066 14.7585 11.1163 14.6986 11.0406 14.6225C10.8887 14.4701 10.8033 14.2638 10.8033 14.0486C10.8033 13.8335 10.8887 13.6271 11.0406 13.4748L13.1023 11.4131H6.9375C6.72202 11.4131 6.51535 11.3275 6.36298 11.1751C6.21061 11.0227 6.125 10.8161 6.125 10.6006C6.125 10.3851 6.21061 10.1784 6.36298 10.0261C6.51535 9.87369 6.72202 9.78809 6.9375 9.78809H13.1023L11.0406 7.72637C10.9006 7.57181 10.8253 7.36932 10.8305 7.16081C10.8356 6.95231 10.9207 6.75377 11.0682 6.60629C11.2157 6.45881 11.4142 6.37369 11.6227 6.36856C11.8312 6.36342 12.0337 6.43867 12.1883 6.57871L15.6313 10.0217C15.7078 10.0978 15.7698 10.1873 15.8141 10.2857C15.8954 10.4878 15.8954 10.7134 15.8141 10.9154Z" fill="#28385C"/>
</svg>
