<svg width="13" height="13" viewBox="0 0 13 13" fill="none" xmlns="http://www.w3.org/2000/svg">
<g clip-path="url(#clip0_4316_4448)">
<path d="M7.545 9.02698H3V3.02698H6.31L4.5 4.83698V7.52698H7.5V4.52698H6.225L7.725 3.02698H9V7.57198L7.545 9.02698ZM12.18 7.34698C11.755 6.92198 11.065 6.92198 10.635 7.34698L6.995 10.987V12.532H8.54L12.18 8.89198C12.605 8.46698 12.605 7.77698 12.18 7.34698ZM2 2.27698C2 2.13698 2.11 2.02698 2.25 2.02698H9.75C9.89 2.02698 10 2.13698 10 2.27698V6.58198C10.425 6.19698 10.965 6.01198 11.5 6.03698V2.27698C11.5 1.31198 10.715 0.526978 9.75 0.526978H2.25C1.285 0.526978 0.5 1.31198 0.5 2.27698V11.527H6V10.027H2V2.27698Z" fill="#5A6376"/>
</g>
<defs>
<clipPath id="clip0_4316_4448">
<rect width="12" height="12" fill="white" transform="translate(0.5 0.526978)"/>
</clipPath>
</defs>
</svg>
