<svg width="75" height="12" viewBox="0 0 75 12" fill="none" xmlns="http://www.w3.org/2000/svg">
<path d="M6.82812 0.927734C7.35417 0.927734 7.83073 1.00586 8.25781 1.16211C8.6849 1.31836 9.04688 1.5319 9.34375 1.80273C9.64583 2.07357 9.8776 2.39128 10.0391 2.75586C10.2005 3.11523 10.2812 3.49805 10.2812 3.9043V8.6543C10.2812 9.06055 10.2005 9.44596 10.0391 9.81055C9.8776 10.1699 9.64583 10.485 9.34375 10.7559C9.04688 11.0267 8.6849 11.2402 8.25781 11.3965C7.83073 11.5527 7.35417 11.6309 6.82812 11.6309H4.42188C3.89583 11.6309 3.41927 11.5527 2.99219 11.3965C2.5651 11.2402 2.20052 11.0267 1.89844 10.7559C1.60156 10.485 1.3724 10.1699 1.21094 9.81055C1.04948 9.44596 0.96875 9.06055 0.96875 8.6543V3.9043C0.96875 3.49805 1.04948 3.11523 1.21094 2.75586C1.3724 2.39128 1.60156 2.07357 1.89844 1.80273C2.20052 1.5319 2.5651 1.31836 2.99219 1.16211C3.41927 1.00586 3.89583 0.927734 4.42188 0.927734H6.82812ZM8.45312 2.89648L8.34375 2.24023L7.85156 1.74023L7.04688 1.63086H3.5625V8.0918H7.04688L7.85156 7.99805L8.34375 7.50586L8.45312 6.83398V2.89648ZM7.51562 7.18555L7 7.26367H4.375V2.45898H7L7.54688 2.54492L7.625 3.00586V6.74805L7.51562 7.18555ZM17.6403 7.26367H14.5231V5.2793H17.1325V4.45898H14.5231V2.45898H17.5309V1.63086H13.7106V8.0918H17.6403V7.26367ZM16.3981 0.927734C16.9242 0.927734 17.4007 1.00586 17.8278 1.16211C18.2549 1.31836 18.6169 1.5319 18.9137 1.80273C19.2158 2.07357 19.4476 2.39128 19.6091 2.75586C19.7705 3.11523 19.8512 3.49805 19.8512 3.9043V8.6543C19.8512 9.06055 19.7705 9.44596 19.6091 9.81055C19.4476 10.1699 19.2158 10.485 18.9137 10.7559C18.6169 11.0267 18.2549 11.2402 17.8278 11.3965C17.4007 11.5527 16.9242 11.6309 16.3981 11.6309H13.9919C13.4658 11.6309 12.9893 11.5527 12.5622 11.3965C12.1351 11.2402 11.7705 11.0267 11.4684 10.7559C11.1716 10.485 10.9424 10.1699 10.7809 9.81055C10.6195 9.44596 10.5387 9.06055 10.5387 8.6543V3.9043C10.5387 3.49805 10.6195 3.11523 10.7809 2.75586C10.9424 2.39128 11.1716 2.07357 11.4684 1.80273C11.7705 1.5319 12.1351 1.31836 12.5622 1.16211C12.9893 1.00586 13.4658 0.927734 13.9919 0.927734H16.3981ZM25.0384 4.45898V3.61523H22.0931V4.45898H25.0384ZM23.5619 11.6309C23.0358 11.6309 22.5593 11.5527 22.1322 11.3965C21.7051 11.2402 21.3405 11.0267 21.0384 10.7559C20.7416 10.485 20.5124 10.1699 20.3509 9.81055C20.1895 9.44596 20.1087 9.06055 20.1087 8.6543V3.9043C20.1087 3.49805 20.1895 3.11523 20.3509 2.75586C20.5124 2.39128 20.7416 2.07357 21.0384 1.80273C21.3405 1.5319 21.7051 1.31836 22.1322 1.16211C22.5593 1.00586 23.0358 0.927734 23.5619 0.927734C24.0931 0.927734 24.5697 1.00586 24.9916 1.16211C25.4186 1.31836 25.7832 1.5319 26.0853 1.80273C26.3874 2.07357 26.6192 2.39128 26.7806 2.75586C26.9421 3.11523 27.0228 3.49805 27.0228 3.9043V8.6543C27.0228 9.06055 26.9421 9.44596 26.7806 9.81055C26.6192 10.1699 26.3874 10.485 26.0853 10.7559C25.7832 11.0267 25.4186 11.2402 24.9916 11.3965C24.5697 11.5527 24.0931 11.6309 23.5619 11.6309ZM31.4131 2.44336H33.4444L34.2491 2.57617L34.4053 1.74023L33.4991 1.63086H31.3975L30.6006 1.75586L30.1006 2.25586L29.9912 2.91211V6.83398L30.1006 7.50586L30.6162 7.99805L31.3975 8.0918H33.3506L34.1397 7.99805L34.6475 7.50586L34.7569 6.83398V4.7793H32.4912V5.61523H33.9287V6.7168C33.9027 6.80013 33.8845 6.87826 33.8741 6.95117C33.8636 7.02409 33.8454 7.10221 33.8194 7.18555L33.3037 7.26367H31.4131L30.9366 7.18555L30.8272 6.68555V2.99023L30.9053 2.56055L31.4131 2.44336ZM33.1475 0.927734C33.6735 0.927734 34.1501 1.00586 34.5772 1.16211C35.0043 1.31836 35.3662 1.5319 35.6631 1.80273C35.9652 2.07357 36.197 2.39128 36.3584 2.75586C36.5199 3.11523 36.6006 3.49805 36.6006 3.9043V8.6543C36.6006 9.06055 36.5199 9.44596 36.3584 9.81055C36.197 10.1699 35.9652 10.485 35.6631 10.7559C35.3662 11.0267 35.0043 11.2402 34.5772 11.3965C34.1501 11.5527 33.6735 11.6309 33.1475 11.6309H30.7412C30.2152 11.6309 29.7386 11.5527 29.3116 11.3965C28.8845 11.2402 28.5199 11.0267 28.2178 10.7559C27.9209 10.485 27.6918 10.1699 27.5303 9.81055C27.3689 9.44596 27.2881 9.06055 27.2881 8.6543V3.9043C27.2881 3.49805 27.3689 3.11523 27.5303 2.75586C27.6918 2.39128 27.9209 2.07357 28.2178 1.80273C28.5199 1.5319 28.8845 1.31836 29.3116 1.16211C29.7386 1.00586 30.2152 0.927734 30.7412 0.927734H33.1475ZM42.7175 0.927734C43.2435 0.927734 43.7201 1.00586 44.1472 1.16211C44.5743 1.31836 44.9362 1.5319 45.2331 1.80273C45.5352 2.07357 45.767 2.39128 45.9284 2.75586C46.0899 3.11523 46.1706 3.49805 46.1706 3.9043V8.6543C46.1706 9.06055 46.0899 9.44596 45.9284 9.81055C45.767 10.1699 45.5352 10.485 45.2331 10.7559C44.9362 11.0267 44.5743 11.2402 44.1472 11.3965C43.7201 11.5527 43.2435 11.6309 42.7175 11.6309H40.3112C39.7852 11.6309 39.3086 11.5527 38.8816 11.3965C38.4545 11.2402 38.0899 11.0267 37.7878 10.7559C37.4909 10.485 37.2618 10.1699 37.1003 9.81055C36.9389 9.44596 36.8581 9.06055 36.8581 8.6543V3.9043C36.8581 3.49805 36.9389 3.11523 37.1003 2.75586C37.2618 2.39128 37.4909 2.07357 37.7878 1.80273C38.0899 1.5319 38.4545 1.31836 38.8816 1.16211C39.3086 1.00586 39.7852 0.927734 40.3112 0.927734H42.7175ZM43.1159 6.16211V8.0918H43.9441V6.07617L43.6706 5.35742L42.78 5.03711L43.6394 4.62305L43.8816 3.91992V3.05273L43.7878 2.39648L43.2722 1.74023L42.4909 1.63086H39.5769V8.0918H40.4128V5.49023H42.4441L42.9987 5.74023L43.1159 6.16211ZM42.4441 2.45898L42.9987 2.70117L43.0534 3.1543V3.98242L42.9362 4.41211L42.4441 4.6543H40.4128V2.45898H42.4441ZM53.5297 7.26367H50.4125V5.2793H53.0219V4.45898H50.4125V2.45898H53.4203V1.63086H49.6V8.0918H53.5297V7.26367ZM52.2875 0.927734C52.8135 0.927734 53.2901 1.00586 53.7172 1.16211C54.1443 1.31836 54.5062 1.5319 54.8031 1.80273C55.1052 2.07357 55.337 2.39128 55.4984 2.75586C55.6599 3.11523 55.7406 3.49805 55.7406 3.9043V8.6543C55.7406 9.06055 55.6599 9.44596 55.4984 9.81055C55.337 10.1699 55.1052 10.485 54.8031 10.7559C54.5062 11.0267 54.1443 11.2402 53.7172 11.3965C53.2901 11.5527 52.8135 11.6309 52.2875 11.6309H49.8812C49.3552 11.6309 48.8786 11.5527 48.4516 11.3965C48.0245 11.2402 47.6599 11.0267 47.3578 10.7559C47.0609 10.485 46.8318 10.1699 46.6703 9.81055C46.5089 9.44596 46.4281 9.06055 46.4281 8.6543V3.9043C46.4281 3.49805 46.5089 3.11523 46.6703 2.75586C46.8318 2.39128 47.0609 2.07357 47.3578 1.80273C47.6599 1.5319 48.0245 1.31836 48.4516 1.16211C48.8786 1.00586 49.3552 0.927734 49.8812 0.927734H52.2875ZM61.8575 0.927734C62.3835 0.927734 62.8601 1.00586 63.2872 1.16211C63.7143 1.31836 64.0762 1.5319 64.3731 1.80273C64.6752 2.07357 64.907 2.39128 65.0684 2.75586C65.2299 3.11523 65.3106 3.49805 65.3106 3.9043V8.6543C65.3106 9.06055 65.2299 9.44596 65.0684 9.81055C64.907 10.1699 64.6752 10.485 64.3731 10.7559C64.0762 11.0267 63.7143 11.2402 63.2872 11.3965C62.8601 11.5527 62.3835 11.6309 61.8575 11.6309H59.4512C58.9252 11.6309 58.4486 11.5527 58.0216 11.3965C57.5945 11.2402 57.2299 11.0267 56.9278 10.7559C56.6309 10.485 56.4018 10.1699 56.2403 9.81055C56.0789 9.44596 55.9981 9.06055 55.9981 8.6543V3.9043C55.9981 3.49805 56.0789 3.11523 56.2403 2.75586C56.4018 2.39128 56.6309 2.07357 56.9278 1.80273C57.2299 1.5319 57.5945 1.31836 58.0216 1.16211C58.4486 1.00586 58.9252 0.927734 59.4512 0.927734H61.8575ZM62.5762 8.0918H63.4669L62.8497 2.27148L62.3653 1.78711L61.3262 1.63086H60.4903L59.4512 1.78711L58.9747 2.27148L58.3341 8.0918H59.2637L59.3887 6.42773L59.4669 5.70898H62.3497L62.4278 6.42773L62.5762 8.0918ZM62.0294 2.57617C62.0658 2.99805 62.1075 3.39648 62.1544 3.77148C62.2012 4.14648 62.2455 4.54232 62.2872 4.95898H59.5372L59.7716 2.57617C59.9174 2.56055 60.0424 2.54232 60.1466 2.52148C60.2559 2.50065 60.3835 2.47982 60.5294 2.45898H61.295L62.0294 2.57617ZM72.9119 1.63086H68.3962V2.45898H70.24V8.0918H71.0759V2.45898H72.9119V1.63086ZM71.4275 0.927734C71.9535 0.927734 72.4301 1.00586 72.8572 1.16211C73.2843 1.31836 73.6462 1.5319 73.9431 1.80273C74.2452 2.07357 74.477 2.39128 74.6384 2.75586C74.7999 3.11523 74.8806 3.49805 74.8806 3.9043V8.6543C74.8806 9.06055 74.7999 9.44596 74.6384 9.81055C74.477 10.1699 74.2452 10.485 73.9431 10.7559C73.6462 11.0267 73.2843 11.2402 72.8572 11.3965C72.4301 11.5527 71.9535 11.6309 71.4275 11.6309H69.0212C68.4952 11.6309 68.0186 11.5527 67.5916 11.3965C67.1645 11.2402 66.7999 11.0267 66.4978 10.7559C66.2009 10.485 65.9718 10.1699 65.8103 9.81055C65.6489 9.44596 65.5681 9.06055 65.5681 8.6543V3.9043C65.5681 3.49805 65.6489 3.11523 65.8103 2.75586C65.9718 2.39128 66.2009 2.07357 66.4978 1.80273C66.7999 1.5319 67.1645 1.31836 67.5916 1.16211C68.0186 1.00586 68.4952 0.927734 69.0212 0.927734H71.4275Z" fill="white"/>
</svg>
