<svg width="12" height="12" viewBox="0 0 12 12" fill="none" xmlns="http://www.w3.org/2000/svg">
<path fill-rule="evenodd" clip-rule="evenodd" d="M12 6C12 6.78793 11.8448 7.56815 11.5433 8.2961C11.2417 9.02405 10.7998 9.68549 10.2426 10.2426C9.68549 10.7998 9.02405 11.2417 8.2961 11.5433C7.56815 11.8448 6.78793 12 6 12C5.21207 12 4.43185 11.8448 3.7039 11.5433C2.97595 11.2417 2.31451 10.7998 1.75736 10.2426C1.20021 9.68549 0.758251 9.02405 0.456723 8.2961C0.155195 7.56815 -1.17411e-08 6.78793 0 6C2.37122e-08 4.4087 0.632141 2.88258 1.75736 1.75736C2.88258 0.632141 4.4087 0 6 0C7.5913 0 9.11742 0.632141 10.2426 1.75736C11.3679 2.88258 12 4.4087 12 6ZM8.78133 7.838C9.20552 7.19701 9.39515 6.42911 9.31811 5.66434C9.24107 4.89957 8.9021 4.18492 8.35859 3.64141C7.81508 3.0979 7.10043 2.75893 6.33566 2.68189C5.57089 2.60485 4.80299 2.79448 4.162 3.21867L8.78133 7.838ZM3.21867 4.162L7.83867 8.78133C7.19767 9.20552 6.42978 9.39515 5.66501 9.31811C4.90024 9.24107 4.18559 8.9021 3.64208 8.35859C3.09857 7.81508 2.75959 7.10043 2.68255 6.33566C2.60551 5.57089 2.79448 4.80299 3.21867 4.162ZM6 1.33333C5.38716 1.33333 4.78033 1.45404 4.21414 1.68856C3.64796 1.92308 3.13351 2.26683 2.70017 2.70017C2.26683 3.13351 1.92308 3.64796 1.68856 4.21414C1.45404 4.78033 1.33333 5.38716 1.33333 6C1.33333 6.61284 1.45404 7.21967 1.68856 7.78586C1.92308 8.35204 2.26683 8.86649 2.70017 9.29983C3.13351 9.73317 3.64796 10.0769 4.21414 10.3114C4.78033 10.546 5.38716 10.6667 6 10.6667C7.23768 10.6667 8.42466 10.175 9.29983 9.29983C10.175 8.42466 10.6667 7.23768 10.6667 6C10.6667 4.76232 10.175 3.57534 9.29983 2.70017C8.42466 1.825 7.23768 1.33333 6 1.33333Z" fill="#1A87D7"/>
</svg>
