<svg width="13" height="13" viewBox="0 0 13 13" fill="none" xmlns="http://www.w3.org/2000/svg">
<path fill-rule="evenodd" clip-rule="evenodd" d="M11 6.17566C11 6.76661 10.8836 7.35177 10.6575 7.89773C10.4313 8.4437 10.0998 8.93978 9.68198 9.35764C9.26412 9.7755 8.76804 10.107 8.22208 10.3331C7.67611 10.5593 7.09095 10.6757 6.5 10.6757C5.90905 10.6757 5.32389 10.5593 4.77792 10.3331C4.23196 10.107 3.73588 9.7755 3.31802 9.35764C2.90016 8.93978 2.56869 8.4437 2.34254 7.89773C2.1164 7.35177 2 6.76661 2 6.17566C2 4.98218 2.47411 3.83759 3.31802 2.99368C4.16193 2.14977 5.30653 1.67566 6.5 1.67566C7.69347 1.67566 8.83807 2.14977 9.68198 2.99368C10.5259 3.83759 11 4.98218 11 6.17566ZM8.586 7.55416C8.90414 7.07341 9.04637 6.49749 8.98859 5.92391C8.93081 5.35034 8.67657 4.81435 8.26894 4.40672C7.86131 3.99908 7.32532 3.74485 6.75174 3.68707C6.17817 3.62929 5.60224 3.77152 5.1215 4.08966L8.586 7.55416ZM4.414 4.79716L7.879 8.26166C7.39826 8.5798 6.82233 8.72202 6.24876 8.66424C5.67518 8.60646 5.13919 8.35223 4.73156 7.9446C4.32393 7.53697 4.06969 7.00098 4.01191 6.4274C3.95414 5.85383 4.09586 5.2779 4.414 4.79716ZM6.5 2.67566C6.04037 2.67566 5.58525 2.76619 5.16061 2.94208C4.73597 3.11797 4.35013 3.37578 4.02513 3.70079C3.70012 4.02579 3.44231 4.41163 3.26642 4.83627C3.09053 5.26091 3 5.71603 3 6.17566C3 6.63529 3.09053 7.09041 3.26642 7.51505C3.44231 7.93969 3.70012 8.32553 4.02513 8.65053C4.35013 8.97554 4.73597 9.23335 5.16061 9.40924C5.58525 9.58513 6.04037 9.67566 6.5 9.67566C7.42826 9.67566 8.3185 9.30691 8.97487 8.65053C9.63125 7.99416 10 7.10392 10 6.17566C10 5.2474 9.63125 4.35716 8.97487 3.70079C8.3185 3.04441 7.42826 2.67566 6.5 2.67566Z" fill="#5A6376"/>
</svg>
