<svg width="15" height="16" viewBox="0 0 15 16" fill="none" xmlns="http://www.w3.org/2000/svg">
<path d="M11.9486 11.9053L11.5264 10.0784C11.4797 9.8764 11.2786 9.75083 11.0765 9.79753C10.8745 9.84422 10.7489 10.0453 10.7956 10.2473L11.0119 11.183L7.6627 9.38495L8.54689 7.54366C8.62882 7.37193 8.56984 7.16502 8.40737 7.06324L3.90923 4.25403C3.73335 4.14419 3.50243 4.19756 3.39259 4.37344C3.33781 4.46115 3.32363 4.56296 3.34525 4.65649C3.36686 4.75003 3.42429 4.83529 3.512 4.89007L7.72542 7.52146L6.83139 9.38349C6.74547 9.56461 6.81547 9.7809 6.99225 9.8763L10.6248 11.8264L9.67193 12.0466C9.46988 12.0933 9.34431 12.2944 9.39101 12.4964C9.43771 12.6985 9.63878 12.824 9.84083 12.7773L11.6677 12.3551C11.8697 12.3084 11.9953 12.1073 11.9486 11.9053Z" fill="#D31F1E"/>
</svg>
