<svg width="104" height="64" viewBox="0 0 104 64" fill="none" xmlns="http://www.w3.org/2000/svg">
<path d="M0.631836 4.81201C0.631836 2.15441 2.78625 0 5.44385 0H98.5563C101.214 0 103.368 2.15441 103.368 4.81201V59.1878C103.368 61.8454 101.214 63.9998 98.5563 63.9998H5.44384C2.78624 63.9998 0.631836 61.8454 0.631836 59.1878V4.81201Z" fill="#28385C"/>
<path d="M0.631836 4.81201C0.631836 2.15441 2.78625 0 5.44385 0H98.5563C101.214 0 103.368 2.15441 103.368 4.81201V59.1878C103.368 61.8454 101.214 63.9998 98.5563 63.9998H5.44385C2.78625 63.9998 0.631836 61.8454 0.631836 59.1878V4.81201Z" fill="#28385C"/>
<path d="M0.631836 5.99951V59.1882C0.631836 61.8458 2.78625 64.0002 5.44385 64.0002H98.5563C101.214 64.0002 103.368 61.8458 103.368 59.1882V5.99951L52.0001 40.6619L0.631836 5.99951Z" fill="#D9D9D9"/>
</svg>
