<svg width="49" height="48" viewBox="0 0 49 48" fill="none" xmlns="http://www.w3.org/2000/svg">
<path d="M46.6789 14.8131C47.4692 16.719 48.0211 18.7489 48.2971 20.8654L47.7022 20.943C47.8327 21.9432 47.9 22.9636 47.9 24C47.9 25.0364 47.8327 26.0568 47.7022 27.057L48.2971 27.1346C48.0211 29.2511 47.4692 31.281 46.6789 33.1869L46.1246 32.9571C45.3359 34.8591 44.3034 36.6348 43.0658 38.2452L43.5416 38.6108C42.2639 40.2734 40.7734 41.7639 39.1108 43.0416L38.7452 42.5658C37.1348 43.8034 35.3591 44.8359 33.4571 45.6246L33.6869 46.1789C31.781 46.9692 29.7511 47.5211 27.6346 47.7971L27.557 47.2022C26.5568 47.3327 25.5364 47.4 24.5 47.4C23.4636 47.4 22.4432 47.3327 21.443 47.2022L21.3654 47.7971C19.2489 47.5211 17.219 46.9692 15.3131 46.1789L15.5429 45.6246C13.6409 44.8359 11.8652 43.8034 10.2548 42.5658L9.88918 43.0416C8.22657 41.7639 6.73606 40.2734 5.45841 38.6108L5.93417 38.2452C4.69665 36.6348 3.66411 34.8591 2.87537 32.9571L2.32113 33.1869C1.53077 31.281 0.978936 29.2511 0.702855 27.1346L1.29781 27.057C1.16734 26.0568 1.1 25.0364 1.1 24C1.1 22.9636 1.16734 21.9432 1.29781 20.943L0.702854 20.8654C0.978935 18.7489 1.53077 16.719 2.32113 14.8131L2.87537 15.0429C3.66411 13.1409 4.69665 11.3652 5.93416 9.75478L5.45841 9.38918C6.73606 7.72657 8.22657 6.23606 9.88918 4.95841L10.2548 5.43417C11.8652 4.19665 13.6409 3.16411 15.5429 2.37537L15.3131 1.82113C17.219 1.03077 19.2489 0.478936 21.3654 0.202855L21.443 0.797815C22.4432 0.66734 23.4636 0.6 24.5 0.6C25.5364 0.6 26.5568 0.667339 27.557 0.797814L27.6346 0.202854C29.7511 0.478935 31.781 1.03077 33.6869 1.82113L33.4571 2.37537C35.3591 3.16411 37.1348 4.19665 38.7452 5.43416L39.1108 4.95841C40.7734 6.23606 42.2639 7.72657 43.5416 9.38918L43.0658 9.75478C44.3034 11.3652 45.3359 13.1409 46.1246 15.0429L46.6789 14.8131Z" stroke="#5081E9" stroke-width="1.2" stroke-dasharray="6 6"/>
</svg>
