<svg width="16" height="16" viewBox="0 0 16 16" fill="none" xmlns="http://www.w3.org/2000/svg">
<path fill-rule="evenodd" clip-rule="evenodd" d="M8.66683 7.43333V2.66667C8.66683 2.48986 8.59659 2.32029 8.47156 2.19526C8.34654 2.07024 8.17697 2 8.00016 2C7.82335 2 7.65378 2.07024 7.52875 2.19526C7.40373 2.32029 7.33349 2.48986 7.33349 2.66667V7.43333L5.85349 5.58267C5.79986 5.51127 5.73242 5.45137 5.65519 5.40654C5.57796 5.3617 5.49251 5.33284 5.40392 5.32166C5.31532 5.31049 5.22538 5.31722 5.13943 5.34147C5.05349 5.36573 4.97329 5.407 4.90361 5.46283C4.83392 5.51867 4.77616 5.58795 4.73376 5.66654C4.69135 5.74513 4.66517 5.83144 4.65677 5.92034C4.64836 6.00924 4.6579 6.09893 4.68483 6.18408C4.71175 6.26922 4.7555 6.34809 4.81349 6.416L7.48016 9.74933C7.54263 9.8272 7.62178 9.89004 7.71178 9.93322C7.80178 9.9764 7.90033 9.99881 8.00016 9.99881C8.09998 9.99881 8.19853 9.9764 8.28853 9.93322C8.37854 9.89004 8.45769 9.8272 8.52016 9.74933L11.1868 6.416C11.2448 6.34809 11.2886 6.26922 11.3155 6.18408C11.3424 6.09893 11.352 6.00924 11.3435 5.92034C11.3351 5.83144 11.309 5.74513 11.2666 5.66654C11.2242 5.58795 11.1664 5.51867 11.0967 5.46283C11.027 5.407 10.9468 5.36573 10.8609 5.34147C10.7749 5.31722 10.685 5.31049 10.5964 5.32166C10.5078 5.33284 10.4224 5.3617 10.3451 5.40654C10.2679 5.45137 10.2005 5.51127 10.1468 5.58267L8.66683 7.43333Z" fill="white"/>
<path fill-rule="evenodd" clip-rule="evenodd" d="M6.438 10.5827L4.90533 8.66675H3.33333C2.97971 8.66675 2.64057 8.80722 2.39052 9.05727C2.14048 9.30732 2 9.64646 2 10.0001V12.6667C2 13.0204 2.14048 13.3595 2.39052 13.6096C2.64057 13.8596 2.97971 14.0001 3.33333 14.0001H12.6667C13.0203 14.0001 13.3594 13.8596 13.6095 13.6096C13.8595 13.3595 14 13.0204 14 12.6667V10.0001C14 9.64646 13.8595 9.30732 13.6095 9.05727C13.3594 8.80722 13.0203 8.66675 12.6667 8.66675H11.0947L9.56133 10.5827C9.37396 10.8169 9.13632 11.006 8.86599 11.1359C8.59567 11.2658 8.29959 11.3333 7.99967 11.3333C7.69975 11.3333 7.40366 11.2658 7.13334 11.1359C6.86302 11.006 6.62537 10.8169 6.438 10.5827ZM11.3333 10.6667C11.1565 10.6667 10.987 10.737 10.8619 10.862C10.7369 10.987 10.6667 11.1566 10.6667 11.3334C10.6667 11.5102 10.7369 11.6798 10.8619 11.8048C10.987 11.9298 11.1565 12.0001 11.3333 12.0001H11.34C11.5168 12.0001 11.6864 11.9298 11.8114 11.8048C11.9364 11.6798 12.0067 11.5102 12.0067 11.3334C12.0067 11.1566 11.9364 10.987 11.8114 10.862C11.6864 10.737 11.5168 10.6667 11.34 10.6667H11.3333Z" fill="white"/>
</svg>
