<svg width="10" height="13" viewBox="0 0 10 13" fill="none" xmlns="http://www.w3.org/2000/svg">
<path fill-rule="evenodd" clip-rule="evenodd" d="M0.916707 11.2395H9.08337C9.23808 11.2395 9.38646 11.301 9.49585 11.4104C9.60525 11.5198 9.66671 11.6681 9.66671 11.8228C9.66671 11.9775 9.60525 12.1259 9.49585 12.2353C9.38646 12.3447 9.23808 12.4062 9.08337 12.4062H0.916707C0.761998 12.4062 0.613625 12.3447 0.504229 12.2353C0.394832 12.1259 0.333374 11.9775 0.333374 11.8228C0.333374 11.6681 0.394832 11.5198 0.504229 11.4104C0.613625 11.301 0.761998 11.2395 0.916707 11.2395ZM0.333374 8.32284L6.16671 2.4895L7.91671 4.2395L2.08337 10.0728H0.333374V8.32284ZM6.75004 1.90617L7.91671 0.739502L9.66671 2.4895L8.49946 3.65675L6.75004 1.90617Z" fill="#5A6376"/>
</svg>
