<svg width="21" height="21" viewBox="0 0 21 21" fill="none" xmlns="http://www.w3.org/2000/svg">
<g clip-path="url(#clip0_5034_13012)">
<path d="M19.6083 13.5195C19.0442 13.0795 18.3233 12.927 17.6292 13.1003C15.9133 13.5303 12.7067 14.2503 10.5 14.2503C8.29333 14.2503 5.08667 13.5295 3.37167 13.1003C2.6775 12.9278 1.95583 13.0803 1.39167 13.5195C0.825 13.962 0.5 14.6278 0.5 15.3478V18.1528C0.5 18.8728 0.825 19.5387 1.39167 19.9812C1.95583 20.4212 2.67667 20.5737 3.37083 20.4003C5.08667 19.9703 8.29333 19.2503 10.5 19.2503C12.7067 19.2503 15.9133 19.9712 17.6283 20.4003C17.8167 20.447 18.0058 20.4703 18.1942 20.4703C18.7017 20.4703 19.1967 20.302 19.6083 19.9812C20.175 19.5387 20.5 18.8728 20.5 18.1528V15.3478C20.5 14.6278 20.175 13.962 19.6083 13.5195ZM9.66667 17.6112C7.51917 17.7378 4.895 18.3012 2.96583 18.7837C2.7025 18.8495 2.50833 18.7387 2.41667 18.667C2.2575 18.5428 2.16667 18.3553 2.16667 18.1528V15.3478C2.16667 15.1453 2.2575 14.9578 2.41667 14.8337C2.50833 14.7612 2.70083 14.6503 2.96667 14.717C4.89583 15.1995 7.51917 15.7628 9.66667 15.8895V17.6112ZM18.8333 18.1528C18.8333 18.3553 18.7425 18.5428 18.5833 18.667C18.4908 18.7387 18.2967 18.8495 18.0333 18.7837C16.1042 18.3012 13.4808 17.7378 11.3333 17.6112V15.8895C13.4808 15.7628 16.105 15.1995 18.0342 14.717C18.2967 14.6495 18.4908 14.7612 18.5833 14.8337C18.7425 14.9578 18.8333 15.1453 18.8333 15.3478V18.1528ZM19.2692 3.29949L12.6842 0.882827C11.3033 0.376993 9.78417 0.37366 8.40417 0.876993L1.73833 3.30199C0.986667 3.57616 0.500833 4.28033 0.501667 5.09533C0.501667 5.91116 0.988333 6.61449 1.74 6.88699L4.66667 7.94866V11.3328C4.66667 11.7928 5.04 12.1662 5.5 12.1662C5.96 12.1662 6.33333 11.7928 6.33333 11.3328V8.55283L8.36833 9.29116C9.05417 9.54033 9.775 9.66449 10.495 9.66449C11.215 9.66449 11.935 9.54033 12.62 9.29116L14.6667 8.54866V11.332C14.6667 11.792 15.04 12.1653 15.5 12.1653C15.96 12.1653 16.3333 11.792 16.3333 11.332V7.94366L18.8333 7.03699V10.4987C18.8333 10.9587 19.2067 11.332 19.6667 11.332C20.1267 11.332 20.5 10.9587 20.5 10.4987V5.10283C20.5 5.10283 20.5017 5.09616 20.5017 5.09199C20.5025 4.27699 20.0192 3.57283 19.2692 3.29783V3.29949ZM18.6942 5.31616L12.0517 7.72616C11.0458 8.08949 9.94 8.09033 8.93583 7.72616L2.3075 5.32116C2.18583 5.27699 2.1675 5.16033 2.1675 5.09533C2.1675 5.03033 2.185 4.91366 2.30667 4.86949L8.97333 2.44366C9.47667 2.26033 10.005 2.16866 10.5342 2.16866C11.0675 2.16866 11.6008 2.26199 12.1083 2.44783L18.6942 4.86449C18.8117 4.90783 18.8308 5.01699 18.8325 5.08366C18.8308 5.15033 18.8125 5.27366 18.6942 5.31616Z" fill="#28385C"/>
</g>
<defs>
<clipPath id="clip0_5034_13012">
<rect width="20" height="20" fill="white" transform="translate(0.5 0.5)"/>
</clipPath>
</defs>
</svg>
