<svg width="61" height="54" viewBox="0 0 61 54" fill="none" xmlns="http://www.w3.org/2000/svg">
<rect width="61" height="54" rx="13.5211" fill="#D3DEF1" fill-opacity="0.32"/>
<g clip-path="url(#clip0_3531_36967)">
<path d="M42.8408 30.9244C42.1074 30.3524 41.1703 30.1542 40.2679 30.3795C38.0373 30.9385 33.8687 31.8745 31 31.8745C28.1313 31.8745 23.9627 30.9374 21.7332 30.3795C20.8308 30.1552 19.8926 30.3535 19.1592 30.9244C18.4225 31.4997 18 32.3652 18 33.3012V36.9477C18 37.8837 18.4225 38.7493 19.1592 39.3246C19.8926 39.8966 20.8297 40.0948 21.7321 39.8695C23.9627 39.3105 28.1313 38.3745 31 38.3745C33.8687 38.3745 38.0373 39.3116 40.2668 39.8695C40.5117 39.9302 40.7576 39.9605 41.0024 39.9605C41.6622 39.9605 42.3057 39.7417 42.8408 39.3246C43.5775 38.7493 44 37.8837 44 36.9477V33.3012C44 32.3652 43.5775 31.4997 42.8408 30.9244ZM29.9167 36.2436C27.1249 36.4082 23.7135 37.1406 21.2056 37.7678C20.8633 37.8534 20.6108 37.7093 20.4917 37.6162C20.2847 37.4547 20.1667 37.211 20.1667 36.9477V33.3012C20.1667 33.038 20.2847 32.7942 20.4917 32.6328C20.6108 32.5386 20.8611 32.3945 21.2067 32.4812C23.7146 33.1084 27.1249 33.8407 29.9167 34.0054V36.2436ZM41.8333 36.9477C41.8333 37.211 41.7153 37.4547 41.5083 37.6162C41.3881 37.7093 41.1357 37.8534 40.7933 37.7678C38.2854 37.1406 34.8751 36.4082 32.0833 36.2436V34.0054C34.8751 33.8407 38.2865 33.1084 40.7944 32.4812C41.1357 32.3934 41.3881 32.5386 41.5083 32.6328C41.7153 32.7942 41.8333 33.038 41.8333 33.3012V36.9477ZM42.3999 17.6384L33.8394 14.4967C32.0443 13.8392 30.0694 13.8348 28.2754 14.4892L19.6098 17.6417C18.6327 17.9981 18.0011 18.9135 18.0022 19.973C18.0022 21.0336 18.6348 21.9479 19.612 22.3022L23.4167 23.6823V28.0817C23.4167 28.6797 23.902 29.1651 24.5 29.1651C25.098 29.1651 25.5833 28.6797 25.5833 28.0817V24.4677L28.2288 25.4276C29.1204 25.7515 30.0575 25.9129 30.9935 25.9129C31.9295 25.9129 32.8655 25.7515 33.756 25.4276L36.4167 24.4623V28.0807C36.4167 28.6787 36.902 29.164 37.5 29.164C38.098 29.164 38.5833 28.6787 38.5833 28.0807V23.6758L41.8333 22.4972V26.9973C41.8333 27.5953 42.3187 28.0807 42.9167 28.0807C43.5147 28.0807 44 27.5953 44 26.9973V19.9827C44 19.9827 44.0022 19.9741 44.0022 19.9687C44.0033 18.9092 43.3749 17.9937 42.3999 17.6362V17.6384ZM41.6524 20.2601L33.0172 23.3931C31.7096 23.8654 30.272 23.8665 28.9666 23.3931L20.3498 20.2666C20.1916 20.2092 20.1678 20.0575 20.1678 19.973C20.1678 19.8885 20.1905 19.7368 20.3487 19.6794L29.0153 16.5258C29.6697 16.2875 30.3565 16.1683 31.0444 16.1683C31.7378 16.1683 32.4311 16.2897 33.0908 16.5312L41.6524 19.6729C41.8052 19.7292 41.8301 19.8712 41.8323 19.9578C41.8301 20.0445 41.8063 20.2048 41.6524 20.2601Z" fill="#28385C" fill-opacity="0.6"/>
</g>
<defs>
<clipPath id="clip0_3531_36967">
<rect width="26" height="26" fill="white" transform="translate(18 14)"/>
</clipPath>
</defs>
</svg>
