<svg width="22" height="23" viewBox="0 0 22 23" fill="none" xmlns="http://www.w3.org/2000/svg">
<path d="M11 1.41663C8.66164 1.41584 6.38394 2.16053 4.4977 3.54256C2.61147 4.92458 1.21494 6.87195 0.510971 9.10181C-0.193002 11.3317 -0.16776 13.7279 0.583031 15.9424C1.33382 18.157 2.77106 20.0745 4.68599 21.4165L4.92341 21.5833H17.0766L17.314 21.4165C19.2289 20.0745 20.6662 18.157 21.417 15.9424C22.1677 13.7279 22.193 11.3317 21.489 9.10181C20.785 6.87195 19.3885 4.92458 17.5023 3.54256C15.616 2.16053 13.3383 1.41584 11 1.41663ZM16.489 19.75H5.51099C3.96918 18.5972 2.82943 16.9883 2.25336 15.1514C1.67729 13.3145 1.69416 11.3429 2.30156 9.51616C2.90896 7.68939 4.07606 6.10022 5.63736 4.97401C7.19866 3.8478 9.07489 3.24172 11 3.24172C12.9251 3.24172 14.8013 3.8478 16.3626 4.97401C17.9239 6.10022 19.091 7.68939 19.6984 9.51616C20.3058 11.3429 20.3227 13.3145 19.7466 15.1514C19.1706 16.9883 18.0308 18.5972 16.489 19.75ZM18.3333 12.4166C18.336 13.3931 18.1421 14.3602 17.7632 15.2602C17.3843 16.1603 16.8281 16.9748 16.1278 17.6554L14.8445 16.3445C15.5442 15.6656 16.049 14.8113 16.3062 13.8709C16.5633 12.9304 16.5635 11.9382 16.3066 10.9976L17.7503 9.55388C18.1355 10.4591 18.3338 11.4329 18.3333 12.4166ZM5.49999 12.4166C5.49744 13.1486 5.64221 13.8735 5.92568 14.5483C6.20915 15.2231 6.62552 15.834 7.14999 16.3445L5.86666 17.6554C4.64774 16.4599 3.88415 14.8766 3.70753 13.1784C3.53092 11.4803 3.95235 9.77372 4.89917 8.353C5.84599 6.93228 7.25886 5.88644 8.89416 5.39581C10.5295 4.90519 12.2847 5.00052 13.8572 5.66538L12.419 7.10913C11.6046 6.88725 10.7499 6.85656 9.9216 7.01945C9.09334 7.18234 8.31392 7.53441 7.64416 8.04818C6.97439 8.56195 6.4324 9.22352 6.06047 9.98129C5.68853 10.7391 5.49672 11.5725 5.49999 12.4166ZM12.7655 11.9473C12.8758 12.344 12.8516 12.766 12.6968 13.1475C12.5419 13.5291 12.265 13.8485 11.9094 14.0561C11.5538 14.2636 11.1395 14.3476 10.7311 14.2948C10.3228 14.242 9.94343 14.0555 9.65228 13.7643C9.36114 13.4732 9.17461 13.0938 9.12183 12.6855C9.06905 12.2771 9.15299 11.8628 9.36054 11.5072C9.56809 11.1516 9.88757 10.8747 10.2691 10.7199C10.6506 10.565 11.0726 10.5408 11.4693 10.6511L15.3936 6.72688L16.6897 8.02304L12.7655 11.9473Z" fill="#28385C"/>
</svg>
