<svg width="85" height="80" viewBox="0 0 85 80" fill="none" xmlns="http://www.w3.org/2000/svg">
<rect x="55" y="19.381" width="27.6017" height="14.2205" rx="7.11026" transform="rotate(-44.6011 55 19.381)" fill="#1A87D7"/>
<circle cx="40" cy="40" r="39" fill="white" stroke="#1A87D7" stroke-width="2"/>
<path fill-rule="evenodd" clip-rule="evenodd" d="M56.2789 18.6698C56.8865 16.7719 56.2077 14.6671 54.4606 13.7087C52.7969 12.796 51.022 12.0287 49.1472 11.4285C33.3676 6.37674 16.4804 15.0734 11.4287 30.853C6.37694 46.6326 15.0736 63.5198 30.8532 68.5716C46.6328 73.6233 63.52 64.9266 68.5718 49.147C69.2719 46.9599 67.9061 44.7339 65.719 44.0337L63.7214 43.3942C61.7396 42.7598 59.6824 44.1162 59.0479 46.098C55.6801 56.6178 44.422 62.4155 33.9022 59.0477C23.3825 55.6799 17.5847 44.4218 20.9525 33.902C24.3204 23.3823 35.5785 17.5845 46.0982 20.9523C46.7149 21.1497 47.3153 21.3743 47.8986 21.6242C51.0226 22.9626 55.2427 21.9067 56.2789 18.6698Z" fill="#D9D9D9"/>
<g clip-path="url(#clip0_3150_1734)">
<path d="M52.395 40.3845C51.6569 40.3848 50.9491 40.0915 50.4277 39.5692L44.48 33.6237C43.84 32.9835 43.84 31.9457 44.48 31.3056C45.1202 30.6656 46.1579 30.6656 46.7981 31.3056L52.395 36.9024L67.2019 22.0955C67.8421 21.4555 68.8798 21.4555 69.52 22.0955C70.16 22.7356 70.16 23.7734 69.52 24.4136L54.3622 39.5692C53.8408 40.0915 53.133 40.3848 52.395 40.3845Z" fill="#1A87D7"/>
</g>
<defs>
<clipPath id="clip0_3150_1734">
<rect width="26" height="26" fill="white" transform="translate(44 18)"/>
</clipPath>
</defs>
</svg>
