<svg width="21" height="20" viewBox="0 0 21 20" fill="none" xmlns="http://www.w3.org/2000/svg">
<path d="M17.625 8.75V16.25C17.625 16.5815 17.4933 16.8995 17.2589 17.1339C17.0245 17.3683 16.7065 17.5 16.375 17.5H5.125C4.79348 17.5 4.47554 17.3683 4.24112 17.1339C4.0067 16.8995 3.875 16.5815 3.875 16.25V8.75C3.875 8.41848 4.0067 8.10054 4.24112 7.86612C4.47554 7.6317 4.79348 7.5 5.125 7.5H10.125V11.25C10.125 11.4158 10.1908 11.5747 10.3081 11.6919C10.4253 11.8092 10.5842 11.875 10.75 11.875C10.9158 11.875 11.0747 11.8092 11.1919 11.6919C11.3092 11.5747 11.375 11.4158 11.375 11.25V7.5H16.375C16.7065 7.5 17.0245 7.6317 17.2589 7.86612C17.4933 8.10054 17.625 8.41848 17.625 8.75ZM11.375 3.3836L13.4328 5.44219C13.5501 5.55947 13.7091 5.62535 13.875 5.62535C14.0409 5.62535 14.1999 5.55947 14.3172 5.44219C14.4345 5.32492 14.5003 5.16586 14.5003 5C14.5003 4.83415 14.4345 4.67509 14.3172 4.55782L11.1922 1.43282C11.1341 1.37471 11.0652 1.32861 10.9893 1.29715C10.9135 1.2657 10.8321 1.24951 10.75 1.24951C10.6679 1.24951 10.5865 1.2657 10.5107 1.29715C10.4348 1.32861 10.3659 1.37471 10.3078 1.43282L7.18281 4.55782C7.06554 4.67509 6.99965 4.83415 6.99965 5C6.99965 5.16586 7.06554 5.32492 7.18281 5.44219C7.30009 5.55947 7.45915 5.62535 7.625 5.62535C7.79085 5.62535 7.94991 5.55947 8.06719 5.44219L10.125 3.3836V7.5H11.375V3.3836Z" fill="white"/>
</svg>
