<svg width="26" height="26" viewBox="0 0 36 36" fill="none" xmlns="http://www.w3.org/2000/svg">
<g clip-path="url(#clip0_5011_31049)">
<path d="M35.4912 18.328C35.4912 8.69483 27.682 0.885578 18.0488 0.885578C8.41557 0.885578 0.606323 8.69483 0.606323 18.328C0.606323 27.0341 6.98478 34.2501 15.3234 35.5586V23.37H10.8946V18.328H15.3234V14.4852C15.3234 10.1137 17.9274 7.69904 21.9117 7.69904C23.82 7.69904 25.8161 8.03971 25.8161 8.03971V12.3322H23.6167C21.4499 12.3322 20.7742 13.6767 20.7742 15.0561V18.328H25.6117L24.8384 23.37H20.7742V35.5586C29.1128 34.2501 35.4912 27.0341 35.4912 18.328Z" fill="#A9AFBD"/>
<path d="M24.8384 23.37L25.6117 18.3281H20.7742V15.0561C20.7742 13.6767 21.4499 12.3322 23.6167 12.3322H25.8161V8.03973C25.8161 8.03973 23.82 7.69905 21.9117 7.69905C17.9274 7.69905 15.3234 10.1137 15.3234 14.4853V18.3281H10.8947V23.37H15.3234V35.5586C16.2114 35.6979 17.1216 35.7705 18.0488 35.7705C18.976 35.7705 19.8861 35.6979 20.7742 35.5586V23.37H24.8384Z" fill="#27375B"/>
</g>
<defs>
<clipPath id="clip0_5011_31049">
<rect width="34.8849" height="34.8849" fill="white" transform="translate(0.606323 0.885742)"/>
</clipPath>
</defs>
</svg>
