<svg width="47" height="46" viewBox="0 0 57 56" fill="none" xmlns="http://www.w3.org/2000/svg">
<g clip-path="url(#clip0_3757_32492)">
<path d="M56.411 27.7706C56.411 12.4315 43.9762 -0.0032692 28.6371 -0.0032692C13.298 -0.0032692 0.863281 12.4315 0.863281 27.7706C0.863281 41.6333 11.0198 53.1234 24.2975 55.207V35.799H17.2455V27.7706H24.2975V21.6517C24.2975 14.6908 28.4439 10.8459 34.7881 10.8459C37.8268 10.8459 41.0052 11.3884 41.0052 11.3884V18.2233H37.503C34.0528 18.2233 32.9768 20.3642 32.9768 22.5607V27.7706H40.6797L39.4483 35.799H32.9768V55.207C46.2545 53.1234 56.411 41.6333 56.411 27.7706Z" fill="white"/>
<path d="M39.4489 35.7975L40.6803 27.7691H32.9774V22.5592C32.9774 20.3628 34.0533 18.2219 37.5035 18.2219H41.0058V11.3869C41.0058 11.3869 37.8273 10.8444 34.7886 10.8444C28.4445 10.8444 24.298 14.6894 24.298 21.6502V27.7691H17.2461V35.7975H24.298V55.2056C25.7121 55.4274 27.1614 55.543 28.6377 55.543C30.1141 55.543 31.5634 55.4274 32.9774 55.2056V35.7975H39.4489Z" fill="#27375B"/>
</g>
<defs>
<clipPath id="clip0_3757_32492">
<rect width="55.5477" height="55.5477" fill="white" transform="translate(0.862305)"/>
</clipPath>
</defs>
</svg>
