<svg width="70" height="42" viewBox="0 0 90 62" fill="none" xmlns="http://www.w3.org/2000/svg">
<path d="M63.9409 35.0871C64.9565 33.7753 65.8394 32.3516 66.5732 30.828C66.6876 30.5901 66.5877 30.3046 66.3498 30.1903C66.1128 30.0763 65.8268 30.1761 65.7121 30.4133C64.7381 32.4371 63.4922 34.2782 62.0088 35.8998C59.6355 36.8342 57.1832 37.5765 54.6757 38.113C60.9911 34.6713 65.2863 27.9713 65.2863 20.2866C65.2863 12.6021 60.9911 5.90208 54.6757 2.46038C57.1758 2.99527 59.6208 3.73494 61.9878 4.66541C63.3213 6.11466 64.4751 7.71683 65.4015 9.45529C65.4877 9.61671 65.6528 9.7084 65.8236 9.7084C65.8992 9.7084 65.9762 9.69034 66.0479 9.65211C66.2808 9.52804 66.369 9.23882 66.2449 9.00607C65.5819 7.76214 64.8002 6.58989 63.9333 5.48278C71.1751 8.71385 77.5849 13.7721 82.4174 20.2866C77.5866 26.799 71.1796 31.856 63.9409 35.0871ZM27.9887 35.8988C26.5403 34.3205 25.319 32.5574 24.3572 30.6459C24.2388 30.4099 23.9523 30.3151 23.716 30.4335C23.4802 30.5522 23.3852 30.8393 23.5037 31.0749C24.217 32.4928 25.0679 33.832 26.0426 35.0796C18.8105 31.848 12.4096 26.7941 7.58254 20.2866C12.4176 13.7685 18.8317 8.70837 26.0783 5.47765C25.2026 6.60175 24.4142 7.7963 23.7468 9.06855C23.6243 9.30201 23.7144 9.59087 23.948 9.71353C24.0186 9.75052 24.0947 9.76804 24.1693 9.76804C24.3413 9.76804 24.5073 9.67494 24.5928 9.51211C25.5201 7.74444 26.6771 6.12298 28.0154 4.66435C30.3809 3.73441 32.8249 2.99509 35.3239 2.46056C29.0085 5.90226 24.7135 12.6023 24.7135 20.2866C24.7135 27.9711 29.0085 34.6711 35.3239 38.1128C32.8155 37.5762 30.3627 36.8337 27.9887 35.8988ZM58.3053 12.2816C58.3884 12.4575 58.5607 12.5568 58.7386 12.5568C58.8197 12.5568 58.9018 12.5363 58.9769 12.4929L60.687 11.4761C61.1012 11.2297 61.6405 11.3838 61.8561 11.8148C62.8977 13.8963 63.5671 16.2173 63.7774 18.5825C63.8206 19.0678 63.4338 19.485 62.9467 19.485H59.5684C59.3043 19.485 59.0907 19.7938 59.0907 20.0576C59.0907 20.3215 59.3043 20.6303 59.5684 20.6303H62.9818C63.4605 20.6303 63.8437 21.0337 63.8142 21.5116C63.6675 23.8803 63.0586 26.2169 62.0734 28.3226C61.8663 28.7651 61.3198 28.9302 60.8987 28.6824L59.2158 27.693C58.9877 27.5612 58.6951 27.6263 58.5632 27.8548C58.4312 28.0833 58.5096 28.3688 58.7381 28.5008L60.4497 29.4865C60.8645 29.7257 60.9952 30.2667 60.7307 30.666C59.4165 32.6514 57.7365 34.3727 55.7876 35.737C55.3888 36.0163 54.8348 35.8899 54.5914 35.4681L53.6211 33.7868C53.4886 33.5582 53.1962 33.4797 52.9685 33.6114C52.7399 33.7435 52.6615 34.0353 52.7935 34.2638L53.8105 35.974C54.0567 36.3882 53.9026 36.9276 53.4717 37.1432C51.3903 38.1847 49.0693 38.8541 46.7043 39.0643C46.219 39.1075 45.8016 38.7208 45.8016 38.2335V34.8552C45.8016 34.5913 45.4931 34.3775 45.229 34.3775C44.9653 34.3775 44.6564 34.5913 44.6564 34.8552V38.2687C44.6564 38.7475 44.2529 39.1307 43.7752 39.1012C41.4062 38.9544 39.0697 38.3456 36.964 37.3602C36.5215 37.1533 36.3565 36.6066 36.6041 36.1855L37.5937 34.5024C37.7254 34.2739 37.6605 33.9819 37.4318 33.8498C37.2026 33.7175 36.9178 33.7964 36.7859 34.0249L35.7999 35.7365C35.5609 36.1513 35.0198 36.282 34.6205 36.0175C32.6352 34.7033 30.9141 33.0233 29.5498 31.0745C29.2705 30.6758 29.3968 30.1218 29.8185 29.8784L31.478 28.9207C31.6943 28.7959 31.8006 28.5263 31.6974 28.2989C31.5787 28.0369 31.2652 27.9403 31.0227 28.0805L29.3126 29.0975C28.8986 29.3437 28.3591 29.1895 28.1435 28.7587C27.1019 26.6771 26.4325 24.3561 26.2222 21.9909C26.1792 21.5056 26.5658 21.0884 27.0531 21.0884H30.4316C30.6953 21.0884 30.9091 20.7795 30.9091 20.5158C30.9091 20.2519 30.6953 19.943 30.4316 19.943H27.0178C26.5391 19.943 26.1559 19.5397 26.1856 19.0618C26.3321 16.6929 26.9412 14.3565 27.9264 12.2508C28.1334 11.8081 28.68 11.6431 29.1011 11.8908L30.7841 12.8804C30.8595 12.9237 30.9417 12.9573 31.0226 12.9573C31.1964 12.9573 31.365 12.8699 31.4502 12.7003C31.5654 12.4708 31.459 12.1895 31.2365 12.0612L29.5496 11.0884C29.1349 10.8493 29.0046 10.3084 29.2689 9.90929C30.5831 7.92356 32.2633 6.20174 34.2122 4.83727C34.611 4.55797 35.165 4.68435 35.4084 5.10595L36.3787 6.78689C36.4673 6.94017 36.6277 7.02602 36.7928 7.02602C36.8737 7.02602 36.9558 7.00548 37.0312 6.96212C37.2597 6.83025 37.338 6.53821 37.2061 6.30971L36.1893 4.59939C35.9429 4.18539 36.0971 3.64591 36.528 3.43033C38.6095 2.3887 40.9305 1.7193 43.2957 1.50903C43.781 1.46584 44.1982 1.85258 44.1982 2.33968V5.71818C44.1982 5.98209 44.507 6.1959 44.7709 6.1959C45.0347 6.1959 45.3435 5.98209 45.3435 5.71818V2.30463C45.3435 1.82586 45.7469 1.44265 46.2248 1.47221C48.5937 1.61894 50.9303 2.22781 53.0362 3.21315C53.4786 3.42024 53.6436 3.9668 53.396 4.38788L52.4064 6.07094C52.2744 6.29944 52.3397 6.59149 52.5684 6.72353C52.6434 6.76689 52.719 6.78742 52.8 6.78742C52.9652 6.78742 53.1224 6.70176 53.211 6.54848L54.1983 4.83639C54.4374 4.42168 54.9783 4.29142 55.3775 4.55567C57.363 5.87005 59.0848 7.5501 60.4493 9.49901C60.7284 9.89779 60.6022 10.4518 60.1804 10.6952L58.5232 11.6518C58.3041 11.7782 58.1972 12.0529 58.3053 12.2816ZM83.8858 19.8664C74.8733 7.42691 60.3367 0.000133514 45 0.000133514C29.6632 0.000133514 15.1263 7.42691 6.11383 19.8664L5.80957 20.2866L6.11383 20.707C15.1263 33.1465 29.6632 40.5732 45 40.5732C60.3367 40.5732 74.8733 33.1465 83.8858 20.707L84.1904 20.2866L83.8858 19.8664Z" fill="white"/>
<path d="M22.9215 27.0876C22.8438 26.8352 22.5755 26.6929 22.3245 26.7719C22.0723 26.8496 21.931 27.1168 22.0086 27.3689C22.2036 28.0023 22.4294 28.637 22.6794 29.2549C22.7548 29.441 22.9337 29.5537 23.1226 29.5537C23.182 29.5537 23.2426 29.5424 23.3015 29.5188C23.5461 29.4197 23.6642 29.1411 23.5652 28.8967C23.3252 28.3038 23.1088 27.6952 22.9215 27.0876Z" fill="white"/>
<path d="M22.1565 26.1531C22.4134 26.093 22.5728 25.836 22.5127 25.5791C21.4778 21.1602 21.8095 16.3578 23.4465 12.0566C23.5562 11.7679 23.3684 11.4392 23.0344 11.4091C22.8123 11.3891 22.6063 11.5339 22.5277 11.7426C21.6857 13.9772 21.1816 16.4263 21.0223 18.7099C20.9917 19.1473 20.6282 19.485 20.1898 19.485H18.5823C18.3185 19.485 18.1047 19.7938 18.1047 20.0577C18.1047 20.3214 18.3185 20.6303 18.5823 20.6303H20.1519C20.6023 20.6303 20.968 20.9873 20.9875 21.4374C21.0484 22.849 21.2459 24.4122 21.5825 25.8494C21.634 26.0696 21.8305 26.1919 22.0472 26.1919C22.0833 26.1919 22.1199 26.1618 22.1565 26.1531Z" fill="white"/>
<path d="M67.2668 13.0142C67.3187 13.0142 67.3712 13.0055 67.4226 12.9878C67.6721 12.9016 67.8047 12.6295 67.7183 12.3802C67.493 11.7288 67.2342 11.0766 66.9487 10.4413C66.8401 10.2008 66.5574 10.0934 66.317 10.2017C66.0763 10.3098 65.9691 10.5925 66.0774 10.8332C66.3512 11.4423 66.5997 12.0678 66.8153 12.6924C66.8838 12.8899 67.0686 13.0142 67.2668 13.0142Z" fill="white"/>
<path d="M44.7773 19.296C44.2268 19.343 43.8187 19.8273 43.8658 20.3778C43.9128 20.9282 44.3971 21.3362 44.9476 21.2893C45.498 21.2422 45.9062 20.758 45.8591 20.2075C45.812 19.657 45.3277 19.2489 44.7773 19.296Z" fill="white"/>
<path d="M45.0737 22.7616C43.7095 22.8821 42.5095 21.8647 42.3934 20.5034C42.2769 19.1418 43.2902 17.9393 44.6517 17.8232C44.7237 17.8168 44.7956 17.8138 44.8671 17.8138C45.4496 17.8138 46.0084 18.0172 46.4595 18.3972C46.9661 18.8237 47.2758 19.422 47.3323 20.0813C47.3888 20.7411 47.1843 21.3831 46.758 21.8893C46.3312 22.3957 45.7333 22.7053 45.0737 22.7616ZM47.381 23.3223C47.241 23.0732 47.2704 22.7635 47.4546 22.5451C47.9962 21.9035 48.3191 21.0914 48.2977 20.2521C48.272 19.2395 47.8932 18.3113 47.1275 17.6667C46.8427 17.4267 46.4799 17.2378 46.134 17.1035C45.6576 16.9182 45.3436 16.461 45.3436 15.9498V8.58395C45.3436 8.32022 45.0347 8.10641 44.7708 8.10641C44.5071 8.10641 44.1982 8.32022 44.1982 8.58395V16.0128C44.1982 16.5065 43.9003 16.9426 43.4515 17.1485C42.2006 17.7221 41.2704 19.0825 41.3987 20.5847C41.5514 22.3723 43.0764 23.7262 44.8388 23.7262C44.9361 23.7262 45.0453 23.7219 45.1441 23.7136C45.3625 23.6949 45.577 23.6552 45.7847 23.5966C46.1103 23.5046 46.4567 23.6375 46.6226 23.9324L49.3964 28.86C49.4842 29.0159 49.6478 29.1035 49.8149 29.1035C49.8942 29.1035 49.975 29.0839 50.0492 29.0421C50.2791 28.9129 50.3611 28.6217 50.2319 28.3916L47.381 23.3223Z" fill="white"/>
<path d="M72.2687 19.4848H69.7987C69.3564 19.4848 68.9898 19.1405 68.9654 18.6989C68.879 17.1335 68.6402 15.5843 68.2441 14.0697C68.1762 13.8111 67.9098 13.68 67.6517 13.7524C67.3951 13.8244 67.257 14.1037 67.3243 14.3616C68.4567 18.7049 68.2592 23.4927 66.7681 27.8356C66.6828 28.0852 66.8158 28.3596 67.0648 28.4452C67.1166 28.4629 67.1689 28.4727 67.2202 28.4727C67.4184 28.4727 67.6041 28.401 67.6722 28.2029C68.4271 26.0032 68.8604 23.6893 68.9725 21.4195C68.9944 20.9763 69.3622 20.6301 69.8059 20.6301H72.2687C72.5327 20.6301 72.7464 20.3213 72.7464 20.0574C72.7464 19.7936 72.5327 19.4848 72.2687 19.4848Z" fill="white"/>
<path d="M74.7357 20.0578C74.7357 20.3215 74.9494 20.6304 75.2134 20.6304H78.1969C78.4608 20.6304 78.6744 20.3215 78.6744 20.0578C78.6744 19.7941 78.4608 19.4852 78.1969 19.4852H75.2134C74.9494 19.4852 74.7357 19.7941 74.7357 20.0578Z" fill="white"/>
<path d="M16.6815 19.485H10.8477C10.5839 19.485 10.3701 19.7939 10.3701 20.0576C10.3701 20.3215 10.5839 20.6304 10.8477 20.6304H16.6815C16.9452 20.6304 17.1592 20.3215 17.1592 20.0576C17.1592 19.7939 16.9452 19.485 16.6815 19.485Z" fill="white"/>
<path d="M0 52.8384V61.7581H2.67592C5.19892 61.7581 7.2632 59.8212 7.2632 57.2982C7.2632 54.7752 5.19892 52.8384 2.67592 52.8384H0ZM1.0194 60.8024V53.794H2.67592C4.75294 53.794 6.24381 55.1575 6.24381 57.2982C6.24381 59.439 4.75294 60.8024 2.67592 60.8024H1.0194ZM10.4361 52.8384V61.7581H16.6799V60.8024H11.4555V57.7697H15.4056V56.814H11.4555V53.794H16.6799V52.8384H10.4361ZM19.8528 56.6611V57.5531H24.0833V56.6611H19.8528ZM27.2561 61.7581H28.2755V57.7697H32.2257V56.814H28.2755V53.794H33.4999V52.8384H27.2561V61.7581ZM40.2407 52.8384L36.6728 61.7581H37.7432L38.6224 59.5536H43.2352L44.1144 61.7581H45.1848L41.6169 52.8384H40.2407ZM39.0047 58.598L40.9288 53.794L42.8529 58.598H39.0047ZM51.7471 61.8855C53.582 61.8855 55.1111 60.3564 55.1111 58.496V52.8384H54.0917V58.5597C54.0917 59.8595 53.0214 60.9298 51.7471 60.9298C50.4474 60.9298 49.377 59.8595 49.377 58.5597V52.8384H48.3576V58.496C48.3576 60.3564 49.8867 61.8855 51.7471 61.8855ZM62.8713 61.8855C64.7572 61.8855 66.401 60.7259 67.0891 59.0822H66.0314C65.458 60.229 64.3112 60.9298 62.8713 60.9298C60.7943 60.9298 59.3034 59.439 59.3034 57.2982C59.3034 55.1575 60.7943 53.6666 62.8713 53.6666C64.0181 53.6666 64.9865 54.1254 65.6237 54.8899L66.3755 54.342C65.5345 53.3481 64.273 52.7109 62.8713 52.7109C60.3483 52.7109 58.284 54.7752 58.284 57.2982C58.284 59.8212 60.3483 61.8855 62.8713 61.8855ZM74.8492 60.9298C72.7722 60.9298 71.2813 59.439 71.2813 57.2982C71.2813 55.1575 72.7722 53.6666 74.8492 53.6666C76.9262 53.6666 78.4171 55.1575 78.4171 57.2982C78.4171 59.439 76.9262 60.9298 74.8492 60.9298ZM70.2619 57.2982C70.2619 59.8212 72.3262 61.8855 74.8492 61.8855C77.3722 61.8855 79.4365 59.8212 79.4365 57.2982C79.4365 54.7752 77.3722 52.7109 74.8492 52.7109C72.3262 52.7109 70.2619 54.7752 70.2619 57.2982ZM82.6094 52.8384V61.7581H83.6288V53.8705L88.4709 61.7581H90V52.8384H88.9806V60.7259L84.1385 52.8384H82.6094Z" fill="white"/>
</svg>
