<svg width="158" height="19" viewBox="0 0 158 19" fill="none" xmlns="http://www.w3.org/2000/svg">
<path d="M2.8335 9.68294L12.8335 9.68294" stroke="#1A87D7" stroke-width="2.66667" stroke-linecap="round" stroke-linejoin="round"/>
<path d="M6.8667 13.6994L2.83337 9.68342L6.8667 5.66675" stroke="#1A87D7" stroke-width="2.66667" stroke-linecap="round" stroke-linejoin="round"/>
<path d="M29.0092 7.5348C28.9131 7.23319 28.7839 6.96307 28.6214 6.72443C28.4624 6.48248 28.2718 6.27699 28.0497 6.10795C27.8277 5.93561 27.5741 5.80469 27.2891 5.7152C27.0073 5.62571 26.6974 5.58097 26.3594 5.58097C25.786 5.58097 25.2689 5.72846 24.8082 6.02344C24.3475 6.31842 23.983 6.75095 23.7145 7.32102C23.4493 7.88778 23.3168 8.58215 23.3168 9.40412C23.3168 10.2294 23.451 10.9271 23.7195 11.4972C23.9879 12.0672 24.3558 12.4998 24.8232 12.7947C25.2905 13.0897 25.8224 13.2372 26.419 13.2372C26.9725 13.2372 27.4548 13.1245 27.8658 12.8991C28.2801 12.6738 28.5999 12.3556 28.8253 11.9446C29.054 11.5303 29.1683 11.0431 29.1683 10.483L29.5661 10.5575H26.6527V9.28977H30.6548V10.4482C30.6548 11.3033 30.4725 12.0457 30.108 12.6754C29.7467 13.3018 29.2462 13.7857 28.6065 14.1271C27.9702 14.4685 27.241 14.6392 26.419 14.6392C25.4976 14.6392 24.6889 14.4271 23.9929 14.0028C23.3002 13.5786 22.7599 12.977 22.3722 12.1982C21.9844 11.416 21.7905 10.4879 21.7905 9.41406C21.7905 8.60204 21.9032 7.87287 22.1286 7.22656C22.3539 6.58026 22.6705 6.03172 23.0781 5.58097C23.4891 5.12689 23.9714 4.78054 24.5249 4.5419C25.0817 4.29995 25.6899 4.17898 26.3494 4.17898C26.8996 4.17898 27.4117 4.26018 27.8857 4.42258C28.3629 4.58499 28.7872 4.81534 29.1584 5.11364C29.5329 5.41193 29.8428 5.76657 30.0881 6.17756C30.3333 6.58523 30.4991 7.03764 30.5852 7.5348H29.0092ZM35.7022 14.6541C34.9863 14.6541 34.3616 14.4901 33.8279 14.1619C33.2943 13.8338 32.88 13.3748 32.585 12.7848C32.2901 12.1948 32.1426 11.5054 32.1426 10.7166C32.1426 9.92448 32.2901 9.23177 32.585 8.63849C32.88 8.04522 33.2943 7.58452 33.8279 7.25639C34.3616 6.92827 34.9863 6.7642 35.7022 6.7642C36.4181 6.7642 37.0429 6.92827 37.5765 7.25639C38.1101 7.58452 38.5244 8.04522 38.8194 8.63849C39.1144 9.23177 39.2619 9.92448 39.2619 10.7166C39.2619 11.5054 39.1144 12.1948 38.8194 12.7848C38.5244 13.3748 38.1101 13.8338 37.5765 14.1619C37.0429 14.4901 36.4181 14.6541 35.7022 14.6541ZM35.7072 13.4062C36.1712 13.4062 36.5557 13.2836 36.8606 13.0384C37.1655 12.7931 37.3909 12.4666 37.5368 12.0589C37.6859 11.6513 37.7605 11.2022 37.7605 10.7116C37.7605 10.2244 37.6859 9.77699 37.5368 9.36932C37.3909 8.95833 37.1655 8.62855 36.8606 8.37997C36.5557 8.13139 36.1712 8.0071 35.7072 8.0071C35.2399 8.0071 34.8521 8.13139 34.5439 8.37997C34.2389 8.62855 34.0119 8.95833 33.8627 9.36932C33.7169 9.77699 33.644 10.2244 33.644 10.7116C33.644 11.2022 33.7169 11.6513 33.8627 12.0589C34.0119 12.4666 34.2389 12.7931 34.5439 13.0384C34.8521 13.2836 35.2399 13.4062 35.7072 13.4062ZM44.7456 14.5V4.31818H48.4743C49.1968 4.31818 49.795 4.4375 50.269 4.67614C50.743 4.91146 51.0976 5.2313 51.3329 5.63565C51.5682 6.03669 51.6859 6.48911 51.6859 6.9929C51.6859 7.41714 51.608 7.77509 51.4522 8.06676C51.2965 8.35511 51.0877 8.58712 50.8258 8.76278C50.5673 8.93513 50.2823 9.06108 49.9707 9.14062V9.24006C50.3088 9.25663 50.6386 9.366 50.96 9.56818C51.2849 9.76705 51.5533 10.0504 51.7654 10.4183C51.9776 10.7862 52.0836 11.2337 52.0836 11.7607C52.0836 12.281 51.961 12.7483 51.7157 13.1626C51.4738 13.5736 51.0993 13.9001 50.5922 14.142C50.0851 14.3807 49.4371 14.5 48.6483 14.5H44.7456ZM46.2818 13.1825H48.4991C49.2349 13.1825 49.7619 13.04 50.0801 12.755C50.3983 12.4699 50.5574 12.1136 50.5574 11.6861C50.5574 11.3646 50.4761 11.0696 50.3137 10.8011C50.1513 10.5327 49.9193 10.3189 49.6177 10.1598C49.3194 10.0007 48.9648 9.92116 48.5538 9.92116H46.2818V13.1825ZM46.2818 8.72301H48.34C48.6847 8.72301 48.9946 8.65672 49.2697 8.52415C49.5481 8.39157 49.7685 8.20597 49.9309 7.96733C50.0967 7.72538 50.1795 7.44034 50.1795 7.11222C50.1795 6.69129 50.032 6.3383 49.737 6.05327C49.4421 5.76823 48.9896 5.62571 48.3798 5.62571H46.2818V8.72301ZM56.0087 14.669C55.5248 14.669 55.0873 14.5795 54.6962 14.4006C54.3051 14.2183 53.9952 13.9548 53.7665 13.6101C53.5411 13.2654 53.4284 12.8428 53.4284 12.3423C53.4284 11.9115 53.5113 11.5568 53.677 11.2784C53.8427 11 54.0665 10.7796 54.3482 10.6172C54.6299 10.4548 54.9448 10.3321 55.2928 10.2493C55.6408 10.1664 55.9954 10.1035 56.3567 10.0604C56.8141 10.0073 57.1853 9.96425 57.4703 9.93111C57.7554 9.89465 57.9625 9.83665 58.0918 9.7571C58.2211 9.67756 58.2857 9.5483 58.2857 9.36932V9.33452C58.2857 8.90033 58.1631 8.56392 57.9178 8.32528C57.6758 8.08665 57.3146 7.96733 56.834 7.96733C56.3335 7.96733 55.9391 8.07836 55.6507 8.30043C55.3657 8.51918 55.1685 8.76278 55.0591 9.03125L53.6621 8.71307C53.8278 8.24905 54.0698 7.87453 54.388 7.58949C54.7095 7.30114 55.079 7.09233 55.4966 6.96307C55.9142 6.83049 56.3534 6.7642 56.8141 6.7642C57.119 6.7642 57.4422 6.80066 57.7836 6.87358C58.1283 6.94318 58.4498 7.07244 58.748 7.26136C59.0497 7.45028 59.2966 7.72041 59.4888 8.07173C59.681 8.41974 59.7772 8.87216 59.7772 9.42898V14.5H58.3255V13.456H58.2658C58.1697 13.6482 58.0255 13.8371 57.8333 14.0227C57.641 14.2083 57.3941 14.3625 57.0925 14.4851C56.7909 14.6077 56.4296 14.669 56.0087 14.669ZM56.3319 13.4759C56.7428 13.4759 57.0942 13.3946 57.3858 13.2322C57.6808 13.0698 57.9045 12.8577 58.057 12.5959C58.2128 12.3307 58.2907 12.0473 58.2907 11.7457V10.7614C58.2376 10.8144 58.1349 10.8641 57.9824 10.9105C57.8333 10.9536 57.6626 10.9917 57.4703 11.0249C57.2781 11.0547 57.0909 11.0829 56.9086 11.1094C56.7263 11.1326 56.5738 11.1525 56.4512 11.169C56.1628 11.2055 55.8993 11.2668 55.6607 11.353C55.4254 11.4392 55.2364 11.5634 55.0939 11.7259C54.9547 11.8849 54.8851 12.0971 54.8851 12.3622C54.8851 12.7301 55.021 13.0085 55.2928 13.1974C55.5646 13.383 55.9109 13.4759 56.3319 13.4759ZM64.9737 14.6541C64.2346 14.6541 63.5982 14.4867 63.0646 14.152C62.5343 13.8139 62.1267 13.3482 61.8416 12.755C61.5566 12.1617 61.4141 11.4822 61.4141 10.7166C61.4141 9.94105 61.5599 9.25663 61.8516 8.66335C62.1432 8.06676 62.5542 7.60109 63.0845 7.26633C63.6148 6.93158 64.2396 6.7642 64.9588 6.7642C65.5388 6.7642 66.0559 6.87192 66.5099 7.08736C66.964 7.29948 67.3303 7.59777 67.6087 7.98224C67.8904 8.36671 68.0578 8.81581 68.1108 9.32955H66.6641C66.5845 8.97159 66.4022 8.66335 66.1172 8.40483C65.8355 8.14631 65.4576 8.01705 64.9837 8.01705C64.5694 8.01705 64.2064 8.12642 63.8949 8.34517C63.5866 8.56061 63.3464 8.86884 63.174 9.26989C63.0017 9.66761 62.9155 10.1383 62.9155 10.6818C62.9155 11.2386 63 11.7192 63.169 12.1236C63.3381 12.5279 63.5767 12.8411 63.8849 13.0632C64.1965 13.2853 64.5627 13.3963 64.9837 13.3963C65.2654 13.3963 65.5206 13.3449 65.7493 13.2422C65.9813 13.1361 66.1752 12.9853 66.331 12.7898C66.4901 12.5942 66.6011 12.3589 66.6641 12.0838H68.1108C68.0578 12.5777 67.897 13.0185 67.6286 13.4062C67.3601 13.794 67.0005 14.099 66.5497 14.321C66.1023 14.5431 65.5769 14.6541 64.9737 14.6541ZM71.0676 11.9098L71.0577 10.0952H71.3162L74.3588 6.86364H76.1387L72.6685 10.5426H72.4348L71.0676 11.9098ZM69.7005 14.5V4.31818H71.187V14.5H69.7005ZM74.5229 14.5L71.7885 10.8707L72.8127 9.83168L76.3475 14.5H74.5229Z" fill="#1A87D7"/>
</svg>
