<svg width="61" height="54" viewBox="0 0 61 54" fill="none" xmlns="http://www.w3.org/2000/svg">
<rect width="61" height="54" rx="13.5211" fill="#D3DEF1" fill-opacity="0.32"/>
<g clip-path="url(#clip0_3531_36958)">
<path d="M34.7497 24.8333H34.208V24.2917C34.208 22.7977 32.9925 21.5833 31.4997 21.5833H30.4163C28.9235 21.5833 27.708 22.7977 27.708 24.2917V24.8333H27.1663C25.6735 24.8333 24.458 26.0477 24.458 27.5417V28.625C24.458 30.1189 25.6735 31.3333 27.1663 31.3333H27.708V31.875C27.708 33.3689 28.9235 34.5833 30.4163 34.5833H31.4997C32.9925 34.5833 34.208 33.3689 34.208 31.875V31.3333H34.7497C36.2425 31.3333 37.458 30.1189 37.458 28.625V27.5417C37.458 26.0477 36.2425 24.8333 34.7497 24.8333ZM35.2913 28.625C35.2913 28.9229 35.0487 29.1667 34.7497 29.1667H33.1247C32.5267 29.1667 32.0413 29.6509 32.0413 30.25V31.875C32.0413 32.1729 31.7987 32.4167 31.4997 32.4167H30.4163C30.1173 32.4167 29.8747 32.1729 29.8747 31.875V30.25C29.8747 29.6509 29.3893 29.1667 28.7913 29.1667H27.1663C26.8673 29.1667 26.6247 28.9229 26.6247 28.625V27.5417C26.6247 27.2437 26.8673 27 27.1663 27H28.7913C29.3893 27 29.8747 26.5157 29.8747 25.9167V24.2917C29.8747 23.9937 30.1173 23.75 30.4163 23.75H31.4997C31.7987 23.75 32.0413 23.9937 32.0413 24.2917V25.9167C32.0413 26.5157 32.5267 27 33.1247 27H34.7497C35.0487 27 35.2913 27.2437 35.2913 27.5417V28.625ZM41.5714 20.0439L33.9881 14.9262C32.1475 13.6847 29.7685 13.6847 27.9279 14.9262L20.3457 20.0439C18.8507 21.0525 17.958 22.7306 17.958 24.5343V34.5833C17.958 37.5701 20.3879 40 23.3747 40H38.5413C41.5281 40 43.958 37.5701 43.958 34.5833V24.5343C43.958 22.7306 43.0653 21.0525 41.5714 20.0439ZM41.7913 34.5833C41.7913 36.3752 40.3332 37.8333 38.5413 37.8333H23.3747C21.5828 37.8333 20.1247 36.3752 20.1247 34.5833V24.5343C20.1247 23.4521 20.6598 22.4457 21.5568 21.8412L29.1413 16.7235C29.6938 16.3497 30.3264 16.1634 30.9591 16.1634C31.5918 16.1634 32.2244 16.3497 32.7769 16.7235L40.3603 21.8412C41.2573 22.4467 41.7924 23.4521 41.7924 24.5343L41.7913 34.5833Z" fill="#27375B" fill-opacity="0.6"/>
</g>
<defs>
<clipPath id="clip0_3531_36958">
<rect width="26" height="26" fill="white" transform="translate(18 14)"/>
</clipPath>
</defs>
</svg>
