<svg width="20" height="21" viewBox="0 0 20 21" fill="none" xmlns="http://www.w3.org/2000/svg">
<g clip-path="url(#clip0_5034_13000)">
<path d="M12.8842 8.83318H12.4675V8.41651C12.4675 7.26734 11.5325 6.33318 10.3842 6.33318H9.55086C8.40253 6.33318 7.46753 7.26734 7.46753 8.41651V8.83318H7.05086C5.90253 8.83318 4.96753 9.76734 4.96753 10.9165V11.7498C4.96753 12.899 5.90253 13.8332 7.05086 13.8332H7.46753V14.2498C7.46753 15.399 8.40253 16.3332 9.55086 16.3332H10.3842C11.5325 16.3332 12.4675 15.399 12.4675 14.2498V13.8332H12.8842C14.0325 13.8332 14.9675 12.899 14.9675 11.7498V10.9165C14.9675 9.76734 14.0325 8.83318 12.8842 8.83318ZM13.3009 11.7498C13.3009 11.979 13.1142 12.1665 12.8842 12.1665H11.6342C11.1742 12.1665 10.8009 12.539 10.8009 12.9998V14.2498C10.8009 14.479 10.6142 14.6665 10.3842 14.6665H9.55086C9.32086 14.6665 9.1342 14.479 9.1342 14.2498V12.9998C9.1342 12.539 8.76086 12.1665 8.30086 12.1665H7.05086C6.82086 12.1665 6.6342 11.979 6.6342 11.7498V10.9165C6.6342 10.6873 6.82086 10.4998 7.05086 10.4998H8.30086C8.76086 10.4998 9.1342 10.1273 9.1342 9.66651V8.41651C9.1342 8.18734 9.32086 7.99984 9.55086 7.99984H10.3842C10.6142 7.99984 10.8009 8.18734 10.8009 8.41651V9.66651C10.8009 10.1273 11.1742 10.4998 11.6342 10.4998H12.8842C13.1142 10.4998 13.3009 10.6873 13.3009 10.9165V11.7498ZM18.1317 5.14901L12.2984 1.21234C10.8825 0.257344 9.05253 0.257344 7.63669 1.21234L1.8042 5.14901C0.654196 5.92484 -0.0324707 7.21568 -0.0324707 8.60318V16.3332C-0.0324707 18.6307 1.8367 20.4998 4.1342 20.4998H15.8009C18.0984 20.4998 19.9675 18.6307 19.9675 16.3332V8.60318C19.9675 7.21568 19.2809 5.92484 18.1317 5.14901ZM18.3009 16.3332C18.3009 17.7115 17.1792 18.8332 15.8009 18.8332H4.1342C2.75586 18.8332 1.6342 17.7115 1.6342 16.3332V8.60318C1.6342 7.77068 2.04586 6.99651 2.73586 6.53151L8.57003 2.59484C8.99503 2.30734 9.4817 2.16401 9.96836 2.16401C10.455 2.16401 10.9417 2.30734 11.3667 2.59484L17.2 6.53151C17.89 6.99734 18.3017 7.77068 18.3017 8.60318L18.3009 16.3332Z" fill="#27375B"/>
</g>
<defs>
<clipPath id="clip0_5034_13000">
<rect width="20" height="20" fill="white" transform="translate(0 0.5)"/>
</clipPath>
</defs>
</svg>
