<svg width="61" height="54" viewBox="0 0 61 54" fill="none" xmlns="http://www.w3.org/2000/svg">
<rect width="61" height="54" rx="13.5211" fill="#D3DEF1" fill-opacity="0.32"/>
<path d="M35.3333 14H26.6667C23.6799 14 21.25 16.4299 21.25 19.4167V34.5833C21.25 37.5701 23.6799 40 26.6667 40H28.8333C29.4313 40 29.9167 39.5147 29.9167 38.9167V33.5H32.0833V38.9167C32.0833 39.5147 32.5687 40 33.1667 40H35.3333C38.3201 40 40.75 37.5701 40.75 34.5833V19.4167C40.75 16.4299 38.3201 14 35.3333 14ZM38.5833 34.5833C38.5833 36.3752 37.1252 37.8333 35.3333 37.8333H34.25V33.5H35.3333C35.9313 33.5 36.4167 33.0147 36.4167 32.4167C36.4167 31.8187 35.9313 31.3333 35.3333 31.3333H26.6667C26.0687 31.3333 25.5833 31.8187 25.5833 32.4167C25.5833 33.0147 26.0687 33.5 26.6667 33.5H27.75V37.8333H26.6667C24.8748 37.8333 23.4167 36.3752 23.4167 34.5833V19.4167C23.4167 17.6248 24.8748 16.1667 26.6667 16.1667H35.3333C37.1252 16.1667 38.5833 17.6248 38.5833 19.4167V34.5833ZM29.9167 28.0833C29.9167 28.6813 29.4313 29.1667 28.8333 29.1667H27.75C27.152 29.1667 26.6667 28.6813 26.6667 28.0833C26.6667 27.4853 27.152 27 27.75 27H28.8333C29.4313 27 29.9167 27.4853 29.9167 28.0833ZM35.3333 28.0833C35.3333 28.6813 34.848 29.1667 34.25 29.1667H33.1667C32.5687 29.1667 32.0833 28.6813 32.0833 28.0833C32.0833 27.4853 32.5687 27 33.1667 27H34.25C34.848 27 35.3333 27.4853 35.3333 28.0833ZM29.9167 19.4167C29.9167 20.0147 29.4313 20.5 28.8333 20.5H27.75C27.152 20.5 26.6667 20.0147 26.6667 19.4167C26.6667 18.8187 27.152 18.3333 27.75 18.3333H28.8333C29.4313 18.3333 29.9167 18.8187 29.9167 19.4167ZM35.3333 19.4167C35.3333 20.0147 34.848 20.5 34.25 20.5H33.1667C32.5687 20.5 32.0833 20.0147 32.0833 19.4167C32.0833 18.8187 32.5687 18.3333 33.1667 18.3333H34.25C34.848 18.3333 35.3333 18.8187 35.3333 19.4167ZM29.9167 23.75C29.9167 24.348 29.4313 24.8333 28.8333 24.8333H27.75C27.152 24.8333 26.6667 24.348 26.6667 23.75C26.6667 23.152 27.152 22.6667 27.75 22.6667H28.8333C29.4313 22.6667 29.9167 23.152 29.9167 23.75ZM35.3333 23.75C35.3333 24.348 34.848 24.8333 34.25 24.8333H33.1667C32.5687 24.8333 32.0833 24.348 32.0833 23.75C32.0833 23.152 32.5687 22.6667 33.1667 22.6667H34.25C34.848 22.6667 35.3333 23.152 35.3333 23.75Z" fill="#28385C" fill-opacity="0.6"/>
</svg>
