<svg width="21" height="21" viewBox="0 0 21 21" fill="none" xmlns="http://www.w3.org/2000/svg">
<g clip-path="url(#clip0_5034_13018)">
<path d="M13.8333 0.5H7.16667C4.86917 0.5 3 2.36917 3 4.66667V16.3333C3 18.6308 4.86917 20.5 7.16667 20.5H8.83333C9.29333 20.5 9.66667 20.1267 9.66667 19.6667V15.5H11.3333V19.6667C11.3333 20.1267 11.7067 20.5 12.1667 20.5H13.8333C16.1308 20.5 18 18.6308 18 16.3333V4.66667C18 2.36917 16.1308 0.5 13.8333 0.5ZM16.3333 16.3333C16.3333 17.7117 15.2117 18.8333 13.8333 18.8333H13V15.5H13.8333C14.2933 15.5 14.6667 15.1267 14.6667 14.6667C14.6667 14.2067 14.2933 13.8333 13.8333 13.8333H7.16667C6.70667 13.8333 6.33333 14.2067 6.33333 14.6667C6.33333 15.1267 6.70667 15.5 7.16667 15.5H8V18.8333H7.16667C5.78833 18.8333 4.66667 17.7117 4.66667 16.3333V4.66667C4.66667 3.28833 5.78833 2.16667 7.16667 2.16667H13.8333C15.2117 2.16667 16.3333 3.28833 16.3333 4.66667V16.3333ZM9.66667 11.3333C9.66667 11.7933 9.29333 12.1667 8.83333 12.1667H8C7.54 12.1667 7.16667 11.7933 7.16667 11.3333C7.16667 10.8733 7.54 10.5 8 10.5H8.83333C9.29333 10.5 9.66667 10.8733 9.66667 11.3333ZM13.8333 11.3333C13.8333 11.7933 13.46 12.1667 13 12.1667H12.1667C11.7067 12.1667 11.3333 11.7933 11.3333 11.3333C11.3333 10.8733 11.7067 10.5 12.1667 10.5H13C13.46 10.5 13.8333 10.8733 13.8333 11.3333ZM9.66667 4.66667C9.66667 5.12667 9.29333 5.5 8.83333 5.5H8C7.54 5.5 7.16667 5.12667 7.16667 4.66667C7.16667 4.20667 7.54 3.83333 8 3.83333H8.83333C9.29333 3.83333 9.66667 4.20667 9.66667 4.66667ZM13.8333 4.66667C13.8333 5.12667 13.46 5.5 13 5.5H12.1667C11.7067 5.5 11.3333 5.12667 11.3333 4.66667C11.3333 4.20667 11.7067 3.83333 12.1667 3.83333H13C13.46 3.83333 13.8333 4.20667 13.8333 4.66667ZM9.66667 8C9.66667 8.46 9.29333 8.83333 8.83333 8.83333H8C7.54 8.83333 7.16667 8.46 7.16667 8C7.16667 7.54 7.54 7.16667 8 7.16667H8.83333C9.29333 7.16667 9.66667 7.54 9.66667 8ZM13.8333 8C13.8333 8.46 13.46 8.83333 13 8.83333H12.1667C11.7067 8.83333 11.3333 8.46 11.3333 8C11.3333 7.54 11.7067 7.16667 12.1667 7.16667H13C13.46 7.16667 13.8333 7.54 13.8333 8Z" fill="#28385C"/>
</g>
<defs>
<clipPath id="clip0_5034_13018">
<rect width="20" height="20" fill="white" transform="translate(0.5 0.5)"/>
</clipPath>
</defs>
</svg>
