<svg width="12" height="10" viewBox="0 0 12 10" fill="none" xmlns="http://www.w3.org/2000/svg">
<path d="M11.5385 0.846191H9.2308C8.97557 0.846191 8.76926 1.0525 8.76926 1.30773C8.76926 1.56295 8.97557 1.76926 9.2308 1.76926H10.4128L7.32835 5.28707L5.36545 3.71647C5.18222 3.57063 4.91776 3.58401 4.75069 3.75063L0.135345 8.36597C-0.045115 8.54643 -0.045115 8.83812 0.135345 9.01858C0.225344 9.10857 0.343497 9.1538 0.461649 9.1538C0.579802 9.1538 0.697955 9.10857 0.787954 9.01858L5.11114 4.69539L7.0962 6.28352C7.28958 6.43675 7.56835 6.41275 7.73173 6.22722L11.0769 2.41172V3.6154C11.0769 3.87062 11.2832 4.07693 11.5385 4.07693C11.7937 4.07693 12 3.87062 12 3.6154V1.30773C12 1.0525 11.7937 0.846191 11.5385 0.846191Z" fill="#006E13"/>
</svg>
