<svg width="26" height="27" viewBox="0 0 36 37" fill="none" xmlns="http://www.w3.org/2000/svg">
<circle cx="17.9127" cy="18.7984" r="17.9127" fill="#A9AFBD"/>
<g clip-path="url(#clip0_5011_31036)">
<path d="M13.098 7.2475C11.8212 7.30774 10.9493 7.5115 10.187 7.81102C9.39813 8.11846 8.72949 8.53102 8.06421 9.1987C7.39893 9.86638 6.98925 10.5355 6.68397 11.3256C6.38853 12.0895 6.18837 12.9621 6.13197 14.2397C6.07557 15.5172 6.06309 15.9278 6.06933 19.1865C6.07557 22.4453 6.08997 22.8537 6.15189 24.1339C6.21285 25.4105 6.41589 26.2821 6.71541 27.0446C7.02333 27.8335 7.43541 28.5019 8.10333 29.1674C8.77125 29.8329 9.43989 30.2417 10.2319 30.5474C10.9951 30.8424 11.868 31.0435 13.1453 31.0994C14.4225 31.1553 14.8337 31.1683 18.0914 31.1621C21.3492 31.1558 21.7593 31.1414 23.0392 31.0807C24.3192 31.02 25.1863 30.8155 25.949 30.5174C26.7379 30.2088 27.4068 29.7974 28.0718 29.1293C28.7368 28.4611 29.1463 27.7915 29.4513 27.0009C29.747 26.2377 29.9479 25.3649 30.0033 24.0885C30.0592 22.8077 30.0724 22.3987 30.0662 19.1405C30.06 15.8822 30.0453 15.4737 29.9846 14.1941C29.9239 12.9144 29.7206 12.0453 29.4213 11.2824C29.1129 10.4935 28.7013 9.82558 28.0336 9.15958C27.366 8.49358 26.6959 8.08438 25.9056 7.78006C25.1419 7.48462 24.2695 7.28326 22.9922 7.22806C21.7149 7.17286 21.3038 7.1587 18.0449 7.16494C14.7859 7.17118 14.3779 7.1851 13.098 7.2475ZM13.2381 28.9406C12.0681 28.8897 11.4328 28.6953 11.0095 28.5326C10.4489 28.3166 10.0495 28.0555 9.62757 27.6377C9.20565 27.2198 8.94645 26.819 8.72757 26.2596C8.56317 25.8362 8.36517 25.2017 8.31045 24.0317C8.25093 22.7671 8.23845 22.3874 8.23149 19.1837C8.22453 15.9799 8.23677 15.6007 8.29221 14.3357C8.34213 13.1666 8.53773 12.5306 8.70021 12.1075C8.91621 11.5461 9.17637 11.1475 9.59517 10.7258C10.014 10.3041 10.4136 10.0445 10.9735 9.82558C11.3964 9.66046 12.0309 9.46414 13.2005 9.40846C14.466 9.34846 14.8452 9.33646 18.0485 9.3295C21.2517 9.32254 21.6319 9.33454 22.8979 9.39022C24.0669 9.4411 24.7032 9.63478 25.1258 9.79822C25.6867 10.0142 26.0858 10.2737 26.5075 10.6932C26.9292 11.1127 27.1891 11.5109 27.408 12.072C27.5733 12.4937 27.7696 13.128 27.8248 14.2982C27.8851 15.5637 27.8988 15.9432 27.9045 19.1462C27.9103 22.3493 27.899 22.7297 27.8436 23.9942C27.7924 25.1642 27.5985 25.7997 27.4356 26.2236C27.2196 26.784 26.9592 27.1836 26.5401 27.605C26.1211 28.0265 25.722 28.2861 25.1618 28.505C24.7394 28.6699 24.1041 28.8667 22.9356 28.9224C21.67 28.9819 21.2908 28.9944 18.0864 29.0013C14.8819 29.0083 14.5039 28.9953 13.2384 28.9406M23.0208 12.75C23.0212 13.0348 23.1062 13.3131 23.2648 13.5496C23.4235 13.7862 23.6487 13.9704 23.912 14.0789C24.1754 14.1875 24.465 14.2155 24.7442 14.1594C25.0235 14.1033 25.2798 13.9657 25.4809 13.7639C25.6819 13.5622 25.8186 13.3053 25.8736 13.0259C25.9287 12.7464 25.8996 12.4569 25.7901 12.194C25.6806 11.931 25.4956 11.7065 25.2584 11.5487C25.0213 11.3909 24.7427 11.307 24.4579 11.3076C24.0761 11.3083 23.7102 11.4607 23.4407 11.7312C23.1712 12.0017 23.0201 12.3682 23.0208 12.75ZM11.9064 19.1755C11.9131 22.5787 14.6769 25.3313 18.0794 25.3248C21.4819 25.3183 24.2364 22.5547 24.2299 19.1515C24.2234 15.7483 21.4588 12.995 18.0559 13.0017C14.6529 13.0085 11.8999 15.7728 11.9064 19.1755ZM14.0678 19.1712C14.0662 18.38 14.2993 17.6062 14.7375 16.9475C15.1758 16.2888 15.7995 15.7749 16.5298 15.4707C17.2601 15.1665 18.0642 15.0857 18.8405 15.2385C19.6167 15.3913 20.3302 15.7709 20.8908 16.3292C21.4513 16.8875 21.8337 17.5995 21.9895 18.3751C22.1454 19.1508 22.0678 19.9552 21.7665 20.6867C21.4652 21.4182 20.9537 22.044 20.2968 22.4848C19.6399 22.9256 18.8669 23.1618 18.0758 23.1633C17.5505 23.1644 17.0301 23.0621 16.5444 22.862C16.0586 22.662 15.6171 22.3682 15.2449 21.9975C14.8727 21.6268 14.5772 21.1864 14.3752 20.7014C14.1732 20.2165 14.0688 19.6965 14.0678 19.1712Z" fill="#27375B"/>
</g>
<defs>
<clipPath id="clip0_5011_31036">
<rect width="24" height="24" fill="white" transform="translate(6.06787 7.16357)"/>
</clipPath>
</defs>
</svg>
