<svg width="48" height="48" viewBox="0 0 58 58" fill="none" xmlns="http://www.w3.org/2000/svg">
<circle cx="28.9327" cy="28.5226" r="28.5226" fill="white"/>
<g clip-path="url(#clip0_3757_32479)">
<path d="M21.2664 10.1297C19.2333 10.2256 17.845 10.5501 16.6312 11.027C15.3751 11.5166 14.3104 12.1735 13.2511 13.2367C12.1917 14.2998 11.5394 15.3653 11.0533 16.6233C10.5829 17.8397 10.2641 19.2292 10.1743 21.2634C10.0845 23.2976 10.0647 23.9515 10.0746 29.1404C10.0845 34.3293 10.1075 34.9797 10.2061 37.0182C10.3031 39.0508 10.6264 40.4388 11.1034 41.6529C11.5937 42.9091 12.2498 43.9734 13.3134 45.0331C14.3769 46.0928 15.4416 46.7436 16.7027 47.2305C17.9179 47.7002 19.3078 48.0204 21.3417 48.1095C23.3755 48.1985 24.0301 48.2191 29.2175 48.2092C34.4049 48.1993 35.058 48.1763 37.096 48.0796C39.134 47.983 40.5148 47.6574 41.7293 47.1827C42.9854 46.6913 44.0505 46.0363 45.1094 44.9723C46.1684 43.9084 46.8203 42.8422 47.3061 41.5834C47.7769 40.3681 48.0967 38.9782 48.185 36.9459C48.2741 34.9064 48.2951 34.2552 48.2851 29.067C48.2752 23.8789 48.2519 23.2285 48.1552 21.1908C48.0585 19.1532 47.7348 17.7694 47.2583 16.5545C46.7672 15.2984 46.1118 14.2348 45.0487 13.1744C43.9855 12.1139 42.9185 11.4623 41.6601 10.9777C40.4441 10.5073 39.0549 10.1867 37.0211 10.0988C34.9873 10.0109 34.3327 9.98833 29.1434 9.99827C23.9541 10.0082 23.3044 10.0304 21.2664 10.1297ZM21.4896 44.672C19.6266 44.591 18.615 44.2814 17.9409 44.0223C17.0482 43.6784 16.4123 43.2626 15.7404 42.5972C15.0686 41.9319 14.6559 41.2937 14.3073 40.4029C14.0456 39.7288 13.7303 38.7184 13.6432 36.8554C13.5484 34.8418 13.5285 34.2372 13.5174 29.1358C13.5063 24.0344 13.5258 23.4306 13.6141 21.4163C13.6936 19.5548 14.0051 18.5421 14.2638 17.8684C14.6077 16.9745 15.022 16.3397 15.6888 15.6683C16.3557 14.9969 16.992 14.5834 17.8835 14.2348C18.5569 13.9719 19.5673 13.6593 21.4296 13.5707C23.4447 13.4751 24.0485 13.456 29.1491 13.4449C34.2497 13.4338 34.8551 13.4529 36.8709 13.5416C38.7324 13.6226 39.7455 13.931 40.4185 14.1913C41.3116 14.5352 41.9471 14.9483 42.6185 15.6163C43.29 16.2843 43.7039 16.9183 44.0524 17.8118C44.3157 18.4833 44.6283 19.4933 44.7162 21.3567C44.8121 23.3718 44.8339 23.976 44.8431 29.0762C44.8522 34.1765 44.8343 34.7822 44.746 36.7958C44.6646 38.6588 44.3558 39.6707 44.0963 40.3456C43.7524 41.2379 43.3378 41.8742 42.6705 42.5453C42.0033 43.2163 41.3677 43.6298 40.4758 43.9784C39.8032 44.2409 38.7916 44.5543 36.9309 44.6429C34.9158 44.7377 34.312 44.7576 29.2095 44.7687C24.1069 44.7797 23.505 44.7591 21.4899 44.672M37.0666 18.8914C37.0673 19.3449 37.2026 19.7881 37.4552 20.1647C37.7078 20.5414 38.0665 20.8347 38.4858 21.0075C38.9051 21.1803 39.3662 21.2249 39.8109 21.1356C40.2555 21.0464 40.6637 20.8272 40.9838 20.5059C41.3039 20.1847 41.5216 19.7757 41.6092 19.3307C41.6969 18.8857 41.6506 18.4247 41.4762 18.0061C41.3019 17.5874 41.0073 17.2298 40.6297 16.9786C40.2521 16.7274 39.8085 16.5937 39.3549 16.5946C38.7469 16.5959 38.1643 16.8385 37.7352 17.2692C37.3061 17.6999 37.0656 18.2834 37.0666 18.8914ZM19.369 29.1228C19.3797 34.5418 23.7806 38.9247 29.1984 38.9144C34.6162 38.9041 39.0022 34.5036 38.9919 29.0846C38.9816 23.6657 34.5795 19.2816 29.1609 19.2923C23.7424 19.303 19.3587 23.7046 19.369 29.1228ZM22.8107 29.116C22.8082 27.8562 23.1793 26.624 23.8771 25.5752C24.5749 24.5264 25.568 23.708 26.7309 23.2237C27.8938 22.7393 29.1743 22.6106 30.4103 22.8539C31.6463 23.0972 32.7824 23.7016 33.6749 24.5906C34.5675 25.4796 35.1764 26.6133 35.4246 27.8484C35.6728 29.0834 35.5492 30.3644 35.0694 31.5292C34.5896 32.694 33.7752 33.6903 32.7292 34.3923C31.6831 35.0942 30.4524 35.4702 29.1927 35.4727C28.3562 35.4745 27.5276 35.3114 26.7541 34.9929C25.9807 34.6744 25.2776 34.2066 24.6849 33.6163C24.0923 33.026 23.6217 32.3248 23.3001 31.5526C22.9785 30.7804 22.8122 29.9524 22.8107 29.116Z" fill="#27375B"/>
</g>
<defs>
<clipPath id="clip0_3757_32479">
<rect width="38.2155" height="38.2155" fill="white" transform="translate(10.0723 9.99609)"/>
</clipPath>
</defs>
</svg>
