<svg width="90" height="52" viewBox="0 0 90 62" fill="none" xmlns="http://www.w3.org/2000/svg">
<path d="M63.9409 35.0869C64.9565 33.7752 65.8394 32.3514 66.5732 30.8278C66.6876 30.59 66.5877 30.3045 66.3498 30.1901C66.1128 30.0761 65.8268 30.176 65.7121 30.4131C64.7381 32.4369 63.4922 34.278 62.0088 35.8997C59.6355 36.834 57.1832 37.5764 54.6757 38.1128C60.9911 34.6711 65.2863 27.9711 65.2863 20.2864C65.2863 12.602 60.9911 5.90193 54.6757 2.46023C57.1758 2.99512 59.6208 3.73479 61.9878 4.66526C63.3213 6.11451 64.4751 7.71668 65.4015 9.45514C65.4877 9.61656 65.6528 9.70825 65.8236 9.70825C65.8992 9.70825 65.9762 9.69019 66.0479 9.65196C66.2808 9.52788 66.369 9.23867 66.2449 9.00592C65.5819 7.76199 64.8002 6.58974 63.9333 5.48263C71.1751 8.7137 77.5849 13.7719 82.4174 20.2864C77.5866 26.7989 71.1796 31.8558 63.9409 35.0869ZM27.9887 35.8986C26.5403 34.3203 25.319 32.5573 24.3572 30.6457C24.2388 30.4098 23.9523 30.3149 23.716 30.4333C23.4802 30.5521 23.3852 30.8392 23.5037 31.0747C24.217 32.4927 25.0679 33.8318 26.0426 35.0795C18.8105 31.8479 12.4096 26.7939 7.58254 20.2864C12.4176 13.7684 18.8317 8.70821 26.0783 5.4775C25.2026 6.6016 24.4142 7.79615 23.7468 9.0684C23.6243 9.30186 23.7144 9.59072 23.948 9.71338C24.0186 9.75037 24.0947 9.76789 24.1693 9.76789C24.3413 9.76789 24.5073 9.67479 24.5928 9.51196C25.5201 7.74429 26.6771 6.12283 28.0154 4.6642C30.3809 3.73426 32.8249 2.99494 35.3239 2.46041C29.0085 5.90211 24.7135 12.6021 24.7135 20.2864C24.7135 27.9709 29.0085 34.671 35.3239 38.1127C32.8155 37.576 30.3627 36.8335 27.9887 35.8986ZM58.3053 12.2814C58.3884 12.4574 58.5607 12.5567 58.7386 12.5567C58.8197 12.5567 58.9018 12.5361 58.9769 12.4928L60.687 11.4759C61.1012 11.2295 61.6405 11.3837 61.8561 11.8147C62.8977 13.8962 63.5671 16.2171 63.7774 18.5823C63.8206 19.0676 63.4338 19.4848 62.9467 19.4848H59.5684C59.3043 19.4848 59.0907 19.7937 59.0907 20.0574C59.0907 20.3213 59.3043 20.6302 59.5684 20.6302H62.9818C63.4605 20.6302 63.8437 21.0335 63.8142 21.5114C63.6675 23.8802 63.0586 26.2167 62.0734 28.3224C61.8663 28.7649 61.3198 28.9301 60.8987 28.6823L59.2158 27.6929C58.9877 27.561 58.6951 27.6261 58.5632 27.8546C58.4312 28.0831 58.5096 28.3686 58.7381 28.5007L60.4497 29.4864C60.8645 29.7255 60.9952 30.2666 60.7307 30.6659C59.4165 32.6513 57.7365 34.3725 55.7876 35.7368C55.3888 36.0161 54.8348 35.8898 54.5914 35.468L53.6211 33.7867C53.4886 33.558 53.1962 33.4796 52.9685 33.6113C52.7399 33.7433 52.6615 34.0352 52.7935 34.2637L53.8105 35.9738C54.0567 36.388 53.9026 36.9275 53.4717 37.1431C51.3903 38.1845 49.0693 38.8539 46.7043 39.0642C46.219 39.1074 45.8016 38.7206 45.8016 38.2334V34.855C45.8016 34.5911 45.4931 34.3773 45.229 34.3773C44.9653 34.3773 44.6564 34.5911 44.6564 34.855V38.2686C44.6564 38.7474 44.2529 39.1306 43.7752 39.101C41.4062 38.9543 39.0697 38.3454 36.964 37.3601C36.5215 37.1532 36.3565 36.6064 36.6041 36.1853L37.5937 34.5023C37.7254 34.2738 37.6605 33.9817 37.4318 33.8497C37.2026 33.7173 36.9178 33.7962 36.7859 34.0247L35.7999 35.7363C35.5609 36.1512 35.0198 36.2818 34.6205 36.0174C32.6352 34.7032 30.9141 33.0231 29.5498 31.0744C29.2705 30.6756 29.3968 30.1216 29.8185 29.8782L31.478 28.9205C31.6943 28.7957 31.8006 28.5262 31.6974 28.2987C31.5787 28.0368 31.2652 27.9401 31.0227 28.0803L29.3126 29.0973C28.8986 29.3435 28.3591 29.1894 28.1435 28.7586C27.1019 26.6769 26.4325 24.356 26.2222 21.9907C26.1792 21.5054 26.5658 21.0882 27.0531 21.0882H30.4316C30.6953 21.0882 30.9091 20.7794 30.9091 20.5157C30.9091 20.2518 30.6953 19.9429 30.4316 19.9429H27.0178C26.5391 19.9429 26.1559 19.5395 26.1856 19.0616C26.3321 16.6927 26.9412 14.3564 27.9264 12.2506C28.1334 11.808 28.68 11.643 29.1011 11.8906L30.7841 12.8802C30.8595 12.9236 30.9417 12.9572 31.0226 12.9572C31.1964 12.9572 31.365 12.8698 31.4502 12.7002C31.5654 12.4706 31.459 12.1894 31.2365 12.0611L29.5496 11.0883C29.1349 10.8492 29.0046 10.3083 29.2689 9.90913C30.5831 7.92341 32.2633 6.20158 34.2122 4.83712C34.611 4.55782 35.165 4.6842 35.4084 5.1058L36.3787 6.78674C36.4673 6.94001 36.6277 7.02586 36.7928 7.02586C36.8737 7.02586 36.9558 7.00533 37.0312 6.96196C37.2597 6.8301 37.338 6.53806 37.2061 6.30956L36.1893 4.59924C35.9429 4.18524 36.0971 3.64576 36.528 3.43018C38.6095 2.38855 40.9305 1.71915 43.2957 1.50887C43.781 1.46569 44.1982 1.85243 44.1982 2.33952V5.71803C44.1982 5.98193 44.507 6.19575 44.7709 6.19575C45.0347 6.19575 45.3435 5.98193 45.3435 5.71803V2.30448C45.3435 1.8257 45.7469 1.4425 46.2248 1.47206C48.5937 1.61879 50.9303 2.22766 53.0362 3.213C53.4786 3.42009 53.6436 3.96665 53.396 4.38773L52.4064 6.07079C52.2744 6.29929 52.3397 6.59134 52.5684 6.72337C52.6434 6.76674 52.719 6.78727 52.8 6.78727C52.9652 6.78727 53.1224 6.7016 53.211 6.54832L54.1983 4.83624C54.4374 4.42153 54.9783 4.29126 55.3775 4.55552C57.363 5.8699 59.0848 7.54995 60.4493 9.49886C60.7284 9.89763 60.6022 10.4516 60.1804 10.695L58.5232 11.6517C58.3041 11.778 58.1972 12.0527 58.3053 12.2814ZM83.8858 19.8663C74.8733 7.42676 60.3367 -1.90735e-05 45 -1.90735e-05C29.6632 -1.90735e-05 15.1263 7.42676 6.11383 19.8663L5.80957 20.2864L6.11383 20.7068C15.1263 33.1463 29.6632 40.5731 45 40.5731C60.3367 40.5731 74.8733 33.1463 83.8858 20.7068L84.1904 20.2864L83.8858 19.8663Z" fill="#28385C"/>
<path d="M22.9215 27.0875C22.8438 26.8351 22.5755 26.6928 22.3245 26.7718C22.0723 26.8495 21.931 27.1167 22.0086 27.3688C22.2036 28.0022 22.4294 28.637 22.6794 29.2548C22.7548 29.4409 22.9337 29.5536 23.1226 29.5536C23.182 29.5536 23.2426 29.5423 23.3015 29.5188C23.5461 29.4196 23.6642 29.141 23.5652 28.8966C23.3252 28.3037 23.1088 27.6952 22.9215 27.0875Z" fill="#28385C"/>
<path d="M22.1565 26.1529C22.4134 26.0928 22.5728 25.8358 22.5127 25.5789C21.4778 21.1601 21.8095 16.3576 23.4465 12.0564C23.5562 11.7677 23.3684 11.439 23.0344 11.409C22.8123 11.389 22.6063 11.5337 22.5277 11.7424C21.6857 13.977 21.1816 16.4261 21.0223 18.7097C20.9917 19.1471 20.6282 19.4848 20.1898 19.4848H18.5823C18.3185 19.4848 18.1047 19.7936 18.1047 20.0575C18.1047 20.3213 18.3185 20.6301 18.5823 20.6301H20.1519C20.6023 20.6301 20.968 20.9871 20.9875 21.4372C21.0484 22.8488 21.2459 24.412 21.5825 25.8492C21.634 26.0694 21.8305 26.1917 22.0472 26.1917C22.0833 26.1917 22.1199 26.1616 22.1565 26.1529Z" fill="#28385C"/>
<path d="M67.2668 13.0142C67.3187 13.0142 67.3712 13.0055 67.4226 12.9878C67.6721 12.9017 67.8047 12.6296 67.7183 12.3802C67.493 11.7289 67.2342 11.0766 66.9487 10.4414C66.8401 10.2009 66.5574 10.0934 66.317 10.2017C66.0763 10.3099 65.9691 10.5926 66.0774 10.8333C66.3512 11.4423 66.5997 12.0678 66.8153 12.6924C66.8838 12.89 67.0686 13.0142 67.2668 13.0142Z" fill="#28385C"/>
<path d="M44.7773 19.2957C44.2268 19.3428 43.8187 19.8271 43.8658 20.3776C43.9128 20.928 44.3971 21.336 44.9476 21.2891C45.498 21.242 45.9062 20.7577 45.8591 20.2073C45.812 19.6568 45.3277 19.2487 44.7773 19.2957Z" fill="#28385C"/>
<path d="M45.0737 22.7616C43.7095 22.8821 42.5095 21.8647 42.3934 20.5035C42.2769 19.1418 43.2902 17.9393 44.6517 17.8232C44.7237 17.8168 44.7956 17.8138 44.8671 17.8138C45.4496 17.8138 46.0084 18.0172 46.4595 18.3972C46.9661 18.8238 47.2758 19.422 47.3323 20.0813C47.3888 20.7412 47.1843 21.3831 46.758 21.8893C46.3312 22.3957 45.7333 22.7053 45.0737 22.7616ZM47.381 23.3223C47.241 23.0733 47.2704 22.7635 47.4546 22.5451C47.9962 21.9035 48.3191 21.0914 48.2977 20.2521C48.272 19.2395 47.8932 18.3114 47.1275 17.6667C46.8427 17.4267 46.4799 17.2379 46.134 17.1035C45.6576 16.9182 45.3436 16.461 45.3436 15.9499V8.58398C45.3436 8.32026 45.0347 8.10644 44.7708 8.10644C44.5071 8.10644 44.1982 8.32026 44.1982 8.58398V16.0129C44.1982 16.5065 43.9003 16.9426 43.4515 17.1485C42.2006 17.7221 41.2704 19.0825 41.3987 20.5847C41.5514 22.3724 43.0764 23.7262 44.8388 23.7262C44.9361 23.7262 45.0453 23.722 45.1441 23.7136C45.3625 23.6949 45.577 23.6552 45.7847 23.5967C46.1103 23.5046 46.4567 23.6375 46.6226 23.9324L49.3964 28.86C49.4842 29.0159 49.6478 29.1035 49.8149 29.1035C49.8942 29.1035 49.975 29.0839 50.0492 29.0421C50.2791 28.9129 50.3611 28.6218 50.2319 28.3917L47.381 23.3223Z" fill="#28385C"/>
<path d="M72.2687 19.4848H69.7987C69.3564 19.4848 68.9898 19.1406 68.9654 18.699C68.879 17.1336 68.6402 15.5844 68.2441 14.0698C68.1762 13.8112 67.9098 13.6801 67.6517 13.7524C67.3951 13.8245 67.257 14.1038 67.3243 14.3617C68.4567 18.705 68.2592 23.4927 66.7681 27.8357C66.6828 28.0853 66.8158 28.3596 67.0648 28.4453C67.1166 28.463 67.1689 28.4727 67.2202 28.4727C67.4184 28.4727 67.6041 28.401 67.6722 28.203C68.4271 26.0033 68.8604 23.6894 68.9725 21.4196C68.9944 20.9764 69.3622 20.6302 69.8059 20.6302H72.2687C72.5327 20.6302 72.7464 20.3213 72.7464 20.0574C72.7464 19.7937 72.5327 19.4848 72.2687 19.4848Z" fill="#28385C"/>
<path d="M74.7357 20.0575C74.7357 20.3212 74.9494 20.6301 75.2134 20.6301H78.1969C78.4608 20.6301 78.6744 20.3212 78.6744 20.0575C78.6744 19.7938 78.4608 19.4849 78.1969 19.4849H75.2134C74.9494 19.4849 74.7357 19.7938 74.7357 20.0575Z" fill="#28385C"/>
<path d="M16.6815 19.4848H10.8477C10.5839 19.4848 10.3701 19.7937 10.3701 20.0574C10.3701 20.3213 10.5839 20.6302 10.8477 20.6302H16.6815C16.9452 20.6302 17.1592 20.3213 17.1592 20.0574C17.1592 19.7937 16.9452 19.4848 16.6815 19.4848Z" fill="#28385C"/>
<path d="M0 52.8384V61.7581H2.67592C5.19892 61.7581 7.2632 59.8213 7.2632 57.2983C7.2632 54.7752 5.19892 52.8384 2.67592 52.8384H0ZM1.0194 60.8024V53.7941H2.67592C4.75294 53.7941 6.24381 55.1575 6.24381 57.2983C6.24381 59.439 4.75294 60.8024 2.67592 60.8024H1.0194ZM10.4361 52.8384V61.7581H16.6799V60.8024H11.4555V57.7697H15.4056V56.814H11.4555V53.7941H16.6799V52.8384H10.4361ZM19.8528 56.6611V57.5531H24.0833V56.6611H19.8528ZM27.2561 61.7581H28.2755V57.7697H32.2257V56.814H28.2755V53.7941H33.4999V52.8384H27.2561V61.7581ZM40.2407 52.8384L36.6728 61.7581H37.7432L38.6224 59.5537H43.2352L44.1144 61.7581H45.1848L41.6169 52.8384H40.2407ZM39.0047 58.598L40.9288 53.7941L42.8529 58.598H39.0047ZM51.7471 61.8855C53.582 61.8855 55.1111 60.3564 55.1111 58.496V52.8384H54.0917V58.5598C54.0917 59.8595 53.0214 60.9299 51.7471 60.9299C50.4474 60.9299 49.377 59.8595 49.377 58.5598V52.8384H48.3576V58.496C48.3576 60.3564 49.8867 61.8855 51.7471 61.8855ZM62.8713 61.8855C64.7572 61.8855 66.401 60.726 67.0891 59.0822H66.0314C65.458 60.229 64.3112 60.9299 62.8713 60.9299C60.7943 60.9299 59.3034 59.439 59.3034 57.2983C59.3034 55.1575 60.7943 53.6667 62.8713 53.6667C64.0181 53.6667 64.9865 54.1254 65.6237 54.8899L66.3755 54.342C65.5345 53.3481 64.273 52.711 62.8713 52.711C60.3483 52.711 58.284 54.7752 58.284 57.2983C58.284 59.8213 60.3483 61.8855 62.8713 61.8855ZM74.8492 60.9299C72.7722 60.9299 71.2813 59.439 71.2813 57.2983C71.2813 55.1575 72.7722 53.6667 74.8492 53.6667C76.9262 53.6667 78.4171 55.1575 78.4171 57.2983C78.4171 59.439 76.9262 60.9299 74.8492 60.9299ZM70.2619 57.2983C70.2619 59.8213 72.3262 61.8855 74.8492 61.8855C77.3722 61.8855 79.4365 59.8213 79.4365 57.2983C79.4365 54.7752 77.3722 52.711 74.8492 52.711C72.3262 52.711 70.2619 54.7752 70.2619 57.2983ZM82.6094 52.8384V61.7581H83.6288V53.8705L88.4709 61.7581H90V52.8384H88.9806V60.726L84.1385 52.8384H82.6094Z" fill="#27375B"/>
</svg>
