<svg width="16" height="17" viewBox="0 0 16 17" fill="none" xmlns="http://www.w3.org/2000/svg">
<path d="M8.98 6.18709C8.93087 6.14132 8.89147 6.08612 8.86414 6.02479C8.83682 5.96345 8.82212 5.89724 8.82094 5.83011C8.81975 5.76297 8.8321 5.69629 8.85725 5.63403C8.8824 5.57177 8.91983 5.51521 8.96731 5.46774C9.01478 5.42026 9.07134 5.38283 9.1336 5.35768C9.19586 5.33253 9.26254 5.32018 9.32968 5.32137C9.39681 5.32255 9.46302 5.33725 9.52436 5.36457C9.58569 5.3919 9.64089 5.4313 9.68666 5.48043L12.3533 8.14709C12.447 8.24084 12.4996 8.36793 12.4996 8.50043C12.4996 8.63293 12.447 8.76001 12.3533 8.85376L9.68666 11.5204C9.64089 11.5696 9.58569 11.609 9.52436 11.6363C9.46302 11.6636 9.39681 11.6783 9.32968 11.6795C9.26254 11.6807 9.19586 11.6683 9.1336 11.6432C9.07134 11.618 9.01478 11.5806 8.96731 11.5331C8.91983 11.4856 8.8824 11.4291 8.85725 11.3668C8.8321 11.3046 8.81975 11.2379 8.82094 11.1707C8.82212 11.1036 8.83682 11.0374 8.86414 10.9761C8.89147 10.9147 8.93087 10.8595 8.98 10.8138L10.7933 9.00043L4.33333 9.00043C4.20072 9.00043 4.07355 8.94775 3.97978 8.85398C3.88601 8.76021 3.83333 8.63304 3.83333 8.50043C3.83333 8.36782 3.88601 8.24064 3.97978 8.14687C4.07355 8.05311 4.20072 8.00043 4.33333 8.00043L10.7933 8.00043L8.98 6.18709Z" fill="#1A87D7"/>
</svg>
