<svg width="48" height="48" viewBox="0 0 58 58" fill="none" xmlns="http://www.w3.org/2000/svg">
<circle cx="29.0831" cy="28.5226" r="28.5226" fill="white"/>
<path d="M43.1889 9.73242H15.3958C14.0137 9.73242 12.6882 10.2815 11.7109 11.2587C10.7336 12.236 10.1846 13.5615 10.1846 14.9436V42.7367C10.1846 44.1188 10.7336 45.4443 11.7109 46.4216C12.6882 47.3989 14.0137 47.9479 15.3958 47.9479H43.1889C44.571 47.9479 45.8965 47.3989 46.8738 46.4216C47.8511 45.4443 48.4001 44.1188 48.4001 42.7367V14.9436C48.4001 13.5615 47.8511 12.236 46.8738 11.2587C45.8965 10.2815 44.571 9.73242 43.1889 9.73242ZM23.2126 39.9748C23.2129 40.0808 23.1922 40.1857 23.1519 40.2837C23.1115 40.3817 23.0522 40.4708 22.9774 40.5458C22.9026 40.6209 22.8137 40.6804 22.7158 40.721C22.6179 40.7616 22.513 40.7825 22.407 40.7825H18.9741C18.868 40.7828 18.7628 40.7621 18.6647 40.7216C18.5666 40.6811 18.4774 40.6216 18.4023 40.5466C18.3273 40.4715 18.2678 40.3824 18.2273 40.2842C18.1868 40.1861 18.1661 40.0809 18.1664 39.9748V25.5832C18.1664 25.3689 18.2515 25.1635 18.403 25.012C18.5545 24.8605 18.7599 24.7754 18.9741 24.7754H22.407C22.6209 24.776 22.8258 24.8614 22.9768 25.0128C23.1278 25.1642 23.2126 25.3693 23.2126 25.5832V39.9748ZM20.6895 23.4118C20.0453 23.4118 19.4156 23.2208 18.88 22.8629C18.3444 22.5051 17.9269 21.9964 17.6804 21.4012C17.4339 20.8061 17.3694 20.1512 17.4951 19.5194C17.6207 18.8876 17.9309 18.3073 18.3864 17.8518C18.8419 17.3963 19.4223 17.0861 20.0541 16.9604C20.6859 16.8347 21.3408 16.8992 21.9359 17.1458C22.531 17.3923 23.0397 17.8097 23.3976 18.3453C23.7555 18.881 23.9465 19.5107 23.9465 20.1548C23.9465 21.0186 23.6034 21.8471 22.9925 22.4579C22.3817 23.0687 21.5533 23.4118 20.6895 23.4118ZM41.1565 40.0312C41.1568 40.1288 41.1378 40.2255 41.1006 40.3158C41.0633 40.406 41.0087 40.488 40.9396 40.557C40.8706 40.626 40.7887 40.6807 40.6984 40.7179C40.6082 40.7551 40.5115 40.7741 40.4139 40.7738H36.7226C36.625 40.7741 36.5283 40.7551 36.4381 40.7179C36.3479 40.6807 36.2659 40.626 36.1969 40.557C36.1279 40.488 36.0732 40.406 36.036 40.3158C35.9988 40.2255 35.9798 40.1288 35.98 40.0312V33.2892C35.98 32.2817 36.2753 28.8771 33.3462 28.8771C31.0772 28.8771 30.6147 31.2069 30.5235 32.2535V40.0399C30.5235 40.235 30.4468 40.4223 30.3098 40.5612C30.1729 40.7002 29.9868 40.7797 29.7917 40.7825H26.2264C26.129 40.7825 26.0325 40.7633 25.9426 40.726C25.8526 40.6886 25.7709 40.6339 25.7021 40.5649C25.6333 40.4959 25.5788 40.414 25.5417 40.3239C25.5046 40.2339 25.4857 40.1373 25.486 40.0399V25.5202C25.4857 25.4228 25.5046 25.3263 25.5417 25.2362C25.5788 25.1461 25.6333 25.0642 25.7021 24.9952C25.7709 24.9263 25.8526 24.8715 25.9426 24.8342C26.0325 24.7968 26.129 24.7776 26.2264 24.7776H29.7917C29.9887 24.7776 30.1776 24.8558 30.3168 24.9951C30.4561 25.1344 30.5343 25.3233 30.5343 25.5202V26.7752C31.3768 25.5093 32.6253 24.5366 35.2896 24.5366C41.1912 24.5366 41.1522 30.0474 41.1522 33.0743L41.1565 40.0312Z" fill="#27375B"/>
</svg>
