<svg width="27" height="27" viewBox="0 0 37 37" fill="none" xmlns="http://www.w3.org/2000/svg">
<circle cx="18.1148" cy="18.7984" r="17.9127" fill="#A9AFBD"/>
<path d="M26.9729 7H9.51833C8.65035 7 7.81792 7.3448 7.20417 7.95856C6.59041 8.57232 6.24561 9.40475 6.24561 10.2727V27.7273C6.24561 28.5953 6.59041 29.4277 7.20417 30.0414C7.81792 30.6552 8.65035 31 9.51833 31H26.9729C27.8409 31 28.6733 30.6552 29.287 30.0414C29.9008 29.4277 30.2456 28.5953 30.2456 27.7273V10.2727C30.2456 9.40475 29.9008 8.57232 29.287 7.95856C28.6733 7.3448 27.8409 7 26.9729 7ZM14.4274 25.9927C14.4276 26.0593 14.4146 26.1252 14.3893 26.1867C14.364 26.2483 14.3267 26.3042 14.2797 26.3513C14.2327 26.3985 14.1769 26.4359 14.1154 26.4614C14.054 26.4869 13.9881 26.5 13.9215 26.5H11.7656C11.6989 26.5002 11.6329 26.4872 11.5713 26.4618C11.5096 26.4363 11.4536 26.399 11.4065 26.3518C11.3594 26.3047 11.322 26.2487 11.2966 26.1871C11.2712 26.1254 11.2582 26.0594 11.2583 25.9927V16.9545C11.2583 16.82 11.3118 16.691 11.4069 16.5958C11.502 16.5007 11.6311 16.4473 11.7656 16.4473H13.9215C14.0558 16.4476 14.1845 16.5012 14.2793 16.5963C14.3742 16.6914 14.4274 16.8202 14.4274 16.9545V25.9927ZM12.8429 15.5909C12.4383 15.5909 12.0429 15.4709 11.7065 15.2462C11.3701 15.0214 11.1079 14.702 10.9531 14.3282C10.7983 13.9545 10.7578 13.5432 10.8367 13.1464C10.9157 12.7496 11.1105 12.3852 11.3965 12.0991C11.6826 11.813 12.0471 11.6182 12.4438 11.5393C12.8406 11.4604 13.2519 11.5009 13.6256 11.6557C13.9994 11.8105 14.3189 12.0727 14.5436 12.4091C14.7684 12.7454 14.8883 13.1409 14.8883 13.5455C14.8883 14.0879 14.6728 14.6082 14.2892 14.9918C13.9056 15.3754 13.3854 15.5909 12.8429 15.5909ZM25.6965 26.0282C25.6967 26.0895 25.6848 26.1502 25.6614 26.2069C25.638 26.2635 25.6037 26.315 25.5603 26.3584C25.517 26.4017 25.4655 26.436 25.4088 26.4594C25.3522 26.4828 25.2914 26.4947 25.2302 26.4945H22.912C22.8507 26.4947 22.7899 26.4828 22.7333 26.4594C22.6766 26.436 22.6251 26.4017 22.5818 26.3584C22.5385 26.315 22.5041 26.2635 22.4807 26.2069C22.4574 26.1502 22.4454 26.0895 22.4456 26.0282V21.7941C22.4456 21.1614 22.6311 19.0232 20.7915 19.0232C19.3665 19.0232 19.0761 20.4864 19.0188 21.1436V26.0336C19.0188 26.1562 18.9706 26.2738 18.8846 26.361C18.7986 26.4483 18.6817 26.4982 18.5592 26.5H16.3202C16.259 26.5 16.1984 26.4879 16.1419 26.4645C16.0854 26.441 16.0341 26.4066 15.9909 26.3633C15.9477 26.32 15.9134 26.2686 15.8902 26.212C15.8669 26.1554 15.855 26.0948 15.8552 26.0336V16.915C15.855 16.8538 15.8669 16.7932 15.8902 16.7366C15.9134 16.6801 15.9477 16.6286 15.9909 16.5853C16.0341 16.542 16.0854 16.5076 16.1419 16.4842C16.1984 16.4607 16.259 16.4486 16.3202 16.4486H18.5592C18.6829 16.4486 18.8016 16.4978 18.889 16.5852C18.9765 16.6727 19.0256 16.7913 19.0256 16.915V17.7032C19.5547 16.9082 20.3388 16.2973 22.012 16.2973C25.7183 16.2973 25.6938 19.7582 25.6938 21.6591L25.6965 26.0282Z" fill="#27375B"/>
</svg>
