<svg width="15" height="15" viewBox="0 0 15 15" fill="none" xmlns="http://www.w3.org/2000/svg">
<path d="M5.16667 10.0923C5.33194 10.0923 5.47058 10.0363 5.58258 9.92433C5.69458 9.81233 5.75039 9.67388 5.75 9.50899C5.74961 9.3441 5.69361 9.20566 5.582 9.09366C5.47039 8.98166 5.33194 8.92566 5.16667 8.92566C5.00139 8.92566 4.86294 8.98166 4.75133 9.09366C4.63972 9.20566 4.58372 9.3441 4.58333 9.50899C4.58294 9.67388 4.63894 9.81252 4.75133 9.92491C4.86372 10.0373 5.00217 10.0931 5.16667 10.0923ZM5.16667 7.75899C5.33194 7.75899 5.47058 7.70299 5.58258 7.59099C5.69458 7.47899 5.75039 7.34055 5.75 7.17566C5.74961 7.01077 5.69361 6.87233 5.582 6.76033C5.47039 6.64833 5.33194 6.59233 5.16667 6.59233C5.00139 6.59233 4.86294 6.64833 4.75133 6.76033C4.63972 6.87233 4.58372 7.01077 4.58333 7.17566C4.58294 7.34055 4.63894 7.47919 4.75133 7.59158C4.86372 7.70396 5.00217 7.75977 5.16667 7.75899ZM5.16667 5.42566C5.33194 5.42566 5.47058 5.36966 5.58258 5.25766C5.69458 5.14566 5.75039 5.00721 5.75 4.84233C5.74961 4.67744 5.69361 4.53899 5.582 4.42699C5.47039 4.31499 5.33194 4.25899 5.16667 4.25899C5.00139 4.25899 4.86294 4.31499 4.75133 4.42699C4.63972 4.53899 4.58372 4.67744 4.58333 4.84233C4.58294 5.00721 4.63894 5.14585 4.75133 5.25824C4.86372 5.37063 5.00217 5.42644 5.16667 5.42566ZM6.91667 10.0923H10.4167V8.92566H6.91667V10.0923ZM6.91667 7.75899H10.4167V6.59233H6.91667V7.75899ZM6.91667 5.42566H10.4167V4.25899H6.91667V5.42566ZM3.41667 12.4257C3.09583 12.4257 2.82128 12.3115 2.593 12.0832C2.36472 11.855 2.25039 11.5802 2.25 11.259V3.09233C2.25 2.77149 2.36433 2.49694 2.593 2.26866C2.82167 2.04038 3.09622 1.92605 3.41667 1.92566H11.5833C11.9042 1.92566 12.1789 2.03999 12.4076 2.26866C12.6362 2.49733 12.7504 2.77188 12.75 3.09233V11.259C12.75 11.5798 12.6359 11.8546 12.4076 12.0832C12.1793 12.3119 11.9046 12.426 11.5833 12.4257H3.41667Z" fill="#5A6376"/>
</svg>
