<svg width="57" height="57" viewBox="0 0 57 57" fill="none" xmlns="http://www.w3.org/2000/svg">
<g filter="url(#filter0_d_2835_1120)">
<rect x="10" y="8" width="37" height="37" rx="18.5" fill="white" shape-rendering="crispEdges"/>
<path fill-rule="evenodd" clip-rule="evenodd" d="M28.8686 33.7986C29.8265 32.9294 30.713 31.9847 31.5196 30.9735C33.2187 28.8389 34.2523 26.7342 34.3222 24.8628C34.3499 24.1022 34.224 23.3439 33.952 22.633C33.6801 21.9222 33.2676 21.2735 32.7394 20.7256C32.2111 20.1778 31.5778 19.742 30.8773 19.4444C30.1768 19.1467 29.4236 18.9933 28.6625 18.9933C27.9014 18.9933 27.1481 19.1467 26.4477 19.4444C25.7472 19.742 25.1139 20.1778 24.5856 20.7256C24.0573 21.2735 23.6449 21.9222 23.3729 22.633C23.101 23.3439 22.9751 24.1022 23.0028 24.8628C23.0736 26.7342 24.108 28.8389 25.8062 30.9735C26.6128 31.9847 27.4993 32.9294 28.4572 33.7986C28.5494 33.8819 28.6179 33.9424 28.6629 33.9802L28.8686 33.7986ZM28.0483 34.7689C28.0483 34.7689 22 29.6751 22 24.6629C22 22.8958 22.702 21.2011 23.9515 19.9515C25.2011 18.702 26.8958 18 28.6629 18C30.43 18 32.1248 18.702 33.3743 19.9515C34.6238 21.2011 35.3258 22.8958 35.3258 24.6629C35.3258 29.6751 29.2776 34.7689 29.2776 34.7689C28.9411 35.0787 28.3872 35.0754 28.0483 34.7689ZM28.6629 26.9949C29.2814 26.9949 29.8746 26.7492 30.3119 26.3119C30.7492 25.8746 30.9949 25.2814 30.9949 24.6629C30.9949 24.0444 30.7492 23.4513 30.3119 23.0139C29.8746 22.5766 29.2814 22.3309 28.6629 22.3309C28.0444 22.3309 27.4513 22.5766 27.0139 23.0139C26.5766 23.4513 26.3309 24.0444 26.3309 24.6629C26.3309 25.2814 26.5766 25.8746 27.0139 26.3119C27.4513 26.7492 28.0444 26.9949 28.6629 26.9949ZM28.6629 27.9944C27.7794 27.9944 26.932 27.6434 26.3072 27.0186C25.6824 26.3938 25.3315 25.5465 25.3315 24.6629C25.3315 23.7794 25.6824 22.932 26.3072 22.3072C26.932 21.6824 27.7794 21.3315 28.6629 21.3315C29.5465 21.3315 30.3938 21.6824 31.0186 22.3072C31.6434 22.932 31.9944 23.7794 31.9944 24.6629C31.9944 25.5465 31.6434 26.3938 31.0186 27.0186C30.3938 27.6434 29.5465 27.9944 28.6629 27.9944Z" fill="#F3AE7C"/>
</g>
<defs>
<filter id="filter0_d_2835_1120" x="0" y="0" width="57" height="57" filterUnits="userSpaceOnUse" color-interpolation-filters="sRGB">
<feFlood flood-opacity="0" result="BackgroundImageFix"/>
<feColorMatrix in="SourceAlpha" type="matrix" values="0 0 0 0 0 0 0 0 0 0 0 0 0 0 0 0 0 0 127 0" result="hardAlpha"/>
<feOffset dy="2"/>
<feGaussianBlur stdDeviation="5"/>
<feComposite in2="hardAlpha" operator="out"/>
<feColorMatrix type="matrix" values="0 0 0 0 0.486275 0 0 0 0 0.552941 0 0 0 0 0.709804 0 0 0 0.12 0"/>
<feBlend mode="normal" in2="BackgroundImageFix" result="effect1_dropShadow_2835_1120"/>
<feBlend mode="normal" in="SourceGraphic" in2="effect1_dropShadow_2835_1120" result="shape"/>
</filter>
</defs>
</svg>
