<svg width="61" height="54" viewBox="0 0 61 54" fill="none" xmlns="http://www.w3.org/2000/svg">
<rect width="61" height="54" rx="13.5211" fill="#D3DEF1" fill-opacity="0.32"/>
<g clip-path="url(#clip0_3531_37005)">
<g clip-path="url(#clip1_3531_37005)">
<path d="M38.0833 20H35.7943C35.4855 18.5017 34.5592 17.1725 33.2083 16.3925C32.6894 16.0913 32.0286 16.2701 31.7285 16.7868C31.4295 17.3058 31.6061 17.9677 32.1239 18.2667C33.126 18.8463 33.7489 19.9253 33.7489 21.0833V33H21.8333C20.6384 33 19.6667 32.0283 19.6667 30.8333V27.5833C19.6667 26.9843 19.1813 26.5 18.5833 26.5C17.9853 26.5 17.5 26.9843 17.5 27.5833V30.8333C17.5 32.8711 18.9181 34.573 20.8161 35.0334C20.7749 35.2544 20.75 35.4798 20.75 35.7083C20.75 37.7992 22.4508 39.5 24.5417 39.5C26.6325 39.5 28.3333 37.7992 28.3333 35.7083C28.3333 35.5253 28.3149 35.3454 28.2889 35.1667H32.7111C32.6851 35.3454 32.6667 35.5253 32.6667 35.7083C32.6667 37.7992 34.3675 39.5 36.4583 39.5C38.5492 39.5 40.25 37.7992 40.25 35.7083C40.25 35.4798 40.224 35.2544 40.1839 35.0334C42.0819 34.573 43.5 32.8711 43.5 30.8333V25.4167C43.5 22.4299 41.0701 20 38.0833 20ZM41.3333 25.4167V26.5H35.9167V22.1667H38.0833C39.8752 22.1667 41.3333 23.6248 41.3333 25.4167ZM26.1667 35.7083C26.1667 36.6042 25.4376 37.3333 24.5417 37.3333C23.6458 37.3333 22.9167 36.6042 22.9167 35.7083C22.9167 35.5036 22.9589 35.3238 23.0174 35.1667H26.067C26.1255 35.3238 26.1678 35.5036 26.1678 35.7083H26.1667ZM36.4583 37.3333C35.5624 37.3333 34.8333 36.6042 34.8333 35.7083C34.8333 35.5036 34.8756 35.3238 34.9341 35.1667H37.9837C38.0422 35.3238 38.0844 35.5036 38.0844 35.7083C38.0844 36.6042 37.3542 37.3333 36.4583 37.3333ZM39.1667 33H35.9167V28.6667H41.3333V30.8333C41.3333 32.0283 40.3616 33 39.1667 33ZM20.75 24.3333H26.1667C27.9585 24.3333 29.4167 22.8752 29.4167 21.0833V16.75C29.4167 14.9582 27.9585 13.5 26.1667 13.5H20.75C18.9582 13.5 17.5 14.9582 17.5 16.75V21.0833C17.5 22.8752 18.9582 24.3333 20.75 24.3333ZM19.6667 16.75C19.6667 16.152 20.1531 15.6667 20.75 15.6667H26.1667C26.7636 15.6667 27.25 16.152 27.25 16.75V21.0833C27.25 21.6813 26.7636 22.1667 26.1667 22.1667H20.75C20.1531 22.1667 19.6667 21.6813 19.6667 21.0833V16.75ZM21.8333 17.8333C21.8333 17.2343 22.3187 16.75 22.9167 16.75H24C24.598 16.75 25.0833 17.2343 25.0833 17.8333C25.0833 18.4324 24.598 18.9167 24 18.9167H22.9167C22.3187 18.9167 21.8333 18.4324 21.8333 17.8333Z" fill="#28385C" fill-opacity="0.6"/>
</g>
</g>
<defs>
<clipPath id="clip0_3531_37005">
<rect width="26" height="26" fill="white" transform="translate(18 14)"/>
</clipPath>
<clipPath id="clip1_3531_37005">
<rect width="26" height="26" fill="white" transform="translate(17.5 13.5)"/>
</clipPath>
</defs>
</svg>
