<svg width="20" height="21" viewBox="0 0 20 21" fill="none" xmlns="http://www.w3.org/2000/svg">
<g clip-path="url(#clip0_5015_30081)">
<path d="M18.1136 14.1666C17.8337 13.3415 17.3027 12.6247 16.5949 12.1166C15.8872 11.6085 15.0382 11.3346 14.1669 11.3333H10.8336V10.4299C12.0698 10.221 13.1823 9.55528 13.9508 8.56472C14.7193 7.57416 15.0876 6.33106 14.9827 5.08175C14.8779 3.83244 14.3076 2.6681 13.3847 1.81948C12.4619 0.970857 11.254 0.499878 10.0003 0.499878C8.74656 0.499878 7.53861 0.970857 6.61578 1.81948C5.69296 2.6681 5.12261 3.83244 5.01777 5.08175C4.91293 6.33106 5.28124 7.57416 6.04972 8.56472C6.8182 9.55528 7.93076 10.221 9.16693 10.4299V11.3333H5.83359C4.96234 11.3346 4.11333 11.6085 3.40557 12.1166C2.69782 12.6247 2.16679 13.3415 1.88692 14.1666C1.172 14.5115 0.603625 15.1002 0.284047 15.8268C-0.0355314 16.5534 -0.0853314 17.3702 0.143606 18.1302C0.372543 18.8903 0.86519 19.5437 1.53291 19.9729C2.20064 20.4021 2.99961 20.5789 3.78609 20.4715C4.57256 20.3642 5.29492 19.9797 5.8232 19.3873C6.35147 18.7948 6.65099 18.0333 6.66787 17.2397C6.68475 16.4461 6.41787 15.6726 5.91526 15.0582C5.41265 14.4438 4.70729 14.029 3.92609 13.8883C4.16037 13.6105 4.45239 13.3871 4.78183 13.2337C5.11126 13.0802 5.47018 13.0005 5.83359 12.9999H9.16693V13.9391C8.38138 14.1419 7.69677 14.6243 7.24142 15.2958C6.78608 15.9673 6.59126 16.7818 6.69349 17.5866C6.79572 18.3915 7.18798 19.1314 7.79673 19.6677C8.40549 20.204 9.18895 20.4999 10.0003 20.4999C10.8116 20.4999 11.595 20.204 12.2038 19.6677C12.8125 19.1314 13.2048 18.3915 13.307 17.5866C13.4093 16.7818 13.2144 15.9673 12.7591 15.2958C12.3038 14.6243 11.6191 14.1419 10.8336 13.9391V12.9999H14.1669C14.5301 13.0002 14.8889 13.0795 15.2184 13.2325C15.5478 13.3855 15.8399 13.6084 16.0744 13.8858C15.2932 14.0265 14.5879 14.4413 14.0853 15.0557C13.5826 15.6701 13.3158 16.4436 13.3326 17.2372C13.3495 18.0308 13.649 18.7923 14.1773 19.3848C14.7056 19.9772 15.428 20.3617 16.2144 20.469C17.0009 20.5764 17.7999 20.3996 18.4676 19.9704C19.1353 19.5412 19.628 18.8878 19.8569 18.1277C20.0858 17.3677 20.036 16.5509 19.7165 15.8243C19.3969 15.0977 18.8285 14.509 18.1136 14.1641V14.1666ZM6.66692 5.49994C6.66692 4.84067 6.86242 4.19621 7.22869 3.64804C7.59496 3.09988 8.11556 2.67264 8.72465 2.42035C9.33373 2.16805 10.004 2.10204 10.6506 2.23066C11.2972 2.35928 11.8911 2.67675 12.3573 3.14292C12.8235 3.6091 13.1409 4.20304 13.2695 4.84964C13.3982 5.49625 13.3321 6.16647 13.0799 6.77556C12.8276 7.38464 12.4003 7.90524 11.8522 8.27151C11.304 8.63778 10.6595 8.83328 10.0003 8.83328C9.1162 8.83328 8.26836 8.48209 7.64324 7.85697C7.01811 7.23185 6.66692 6.384 6.66692 5.49994ZM5.00026 17.1666C5.00026 17.4962 4.90251 17.8185 4.71937 18.0926C4.53624 18.3666 4.27594 18.5803 3.9714 18.7064C3.66685 18.8326 3.33174 18.8656 3.00844 18.8013C2.68514 18.7369 2.38817 18.5782 2.15508 18.3451C1.92199 18.112 1.76326 17.8151 1.69895 17.4918C1.63464 17.1685 1.66765 16.8333 1.79379 16.5288C1.91994 16.2243 2.13356 15.964 2.40764 15.7808C2.68172 15.5977 3.00396 15.4999 3.33359 15.4999C3.77562 15.4999 4.19954 15.6755 4.5121 15.9881C4.82466 16.3007 5.00026 16.7246 5.00026 17.1666ZM11.6669 17.1666C11.6669 17.4962 11.5692 17.8185 11.386 18.0926C11.2029 18.3666 10.9426 18.5803 10.6381 18.7064C10.3335 18.8326 9.99841 18.8656 9.67511 18.8013C9.35181 18.7369 9.05484 18.5782 8.82175 18.3451C8.58866 18.112 8.42992 17.8151 8.36562 17.4918C8.30131 17.1685 8.33431 16.8333 8.46046 16.5288C8.58661 16.2243 8.80023 15.964 9.07431 15.7808C9.34839 15.5977 9.67062 15.4999 10.0003 15.4999C10.4423 15.4999 10.8662 15.6755 11.1788 15.9881C11.4913 16.3007 11.6669 16.7246 11.6669 17.1666ZM16.6669 18.8333C16.3373 18.8333 16.0151 18.7355 15.741 18.5524C15.4669 18.3693 15.2533 18.109 15.1271 17.8044C15.001 17.4999 14.968 17.1648 15.0323 16.8415C15.0966 16.5182 15.2553 16.2212 15.4884 15.9881C15.7215 15.755 16.0185 15.5963 16.3418 15.532C16.6651 15.4677 17.0002 15.5007 17.3047 15.6268C17.6093 15.753 17.8696 15.9666 18.0527 16.2407C18.2358 16.5147 18.3336 16.837 18.3336 17.1666C18.3336 17.6086 18.158 18.0326 17.8454 18.3451C17.5329 18.6577 17.109 18.8333 16.6669 18.8333Z" fill="#28385C"/>
</g>
<defs>
<clipPath id="clip0_5015_30081">
<rect width="20" height="20" fill="white" transform="translate(0 0.5)"/>
</clipPath>
</defs>
</svg>
