<svg width="12" height="9" viewBox="0 0 12 9" fill="none" xmlns="http://www.w3.org/2000/svg">
<path d="M11.6651 0.333757C11.4505 0.120047 11.1595 0 10.8561 0C10.5527 0 10.2618 0.120047 10.0472 0.333757L4.388 5.97608L1.93057 3.52702C1.71402 3.3231 1.42621 3.21137 1.12831 3.21557C0.830408 3.21978 0.545892 3.33959 0.335223 3.54954C0.124553 3.75949 0.00433514 4.04304 0.000114965 4.33993C-0.00410521 4.63681 0.108005 4.92364 0.312623 5.13945L3.5778 8.39352C3.79242 8.60723 4.08339 8.72727 4.38678 8.72727C4.69016 8.72727 4.98114 8.60723 5.19575 8.39352L11.6651 1.9462C11.8795 1.73231 12 1.44233 12 1.13998C12 0.837622 11.8795 0.547639 11.6651 0.333757Z" fill="white"/>
</svg>
