<svg width="77" height="68" viewBox="0 0 77 68" fill="none" xmlns="http://www.w3.org/2000/svg">
<rect x="0.865234" y="0.635498" width="75.8224" height="67.1215" rx="16.8066" fill="#D3DEF1" fill-opacity="0.32"/>
<g clip-path="url(#clip0_6264_54249)">
<path d="M46.7135 32.5021C41.8161 32.5021 37.8316 36.4867 37.8316 41.384C37.8316 46.2813 41.8161 50.2658 46.7135 50.2658C51.6108 50.2658 55.5953 46.2813 55.5953 41.384C55.5953 36.4867 51.6108 32.5021 46.7135 32.5021ZM46.7135 48.8994C42.5704 48.8994 39.198 45.5284 39.198 41.384C39.198 37.2396 42.5704 33.8686 46.7135 33.8686C50.8565 33.8686 54.2289 37.2396 54.2289 41.384C54.2289 45.5284 50.8565 48.8994 46.7135 48.8994ZM51.291 39.5297C51.5534 39.8017 51.5465 40.2334 51.2746 40.4958L47.5811 44.0677C47.0892 44.5528 46.4402 44.7973 45.7897 44.7973C45.1393 44.7973 44.4916 44.5555 43.997 44.0704L42.1332 42.2325C41.8653 41.9675 41.8626 41.5343 42.1277 41.2665C42.3928 40.9973 42.8259 40.9946 43.0938 41.2596L44.9548 43.0961C45.4126 43.5471 46.1641 43.5457 46.6246 43.0907L50.3236 39.5147C50.5941 39.2537 51.03 39.2592 51.2897 39.5311L51.291 39.5297ZM42.6141 28.4028H28.9498C28.5726 28.4028 28.2665 28.0967 28.2665 27.7196C28.2665 27.3425 28.5726 27.0364 28.9498 27.0364H42.6141C42.9913 27.0364 43.2974 27.3425 43.2974 27.7196C43.2974 28.0967 42.9913 28.4028 42.6141 28.4028ZM37.8316 49.5826C37.8316 49.9598 37.5255 50.2658 37.1484 50.2658H28.2665C25.2522 50.2658 22.8008 47.8144 22.8008 44.8001V25.6699C22.8008 23.1311 24.5485 21.009 26.9001 20.3982V18.1545C26.9001 17.7774 27.2062 17.4713 27.5833 17.4713C27.9605 17.4713 28.2665 17.7774 28.2665 18.1545V20.2042H32.3659V18.1545C32.3659 17.7774 32.6719 17.4713 33.0491 17.4713C33.4262 17.4713 33.7323 17.7774 33.7323 18.1545V20.2042H37.8316V18.1545C37.8316 17.7774 38.1377 17.4713 38.5148 17.4713C38.892 17.4713 39.198 17.7774 39.198 18.1545V20.2042H43.2974V18.1545C43.2974 17.7774 43.6034 17.4713 43.9806 17.4713C44.3577 17.4713 44.6638 17.7774 44.6638 18.1545V20.3982C47.0154 21.009 48.7631 23.1311 48.7631 25.6699V29.086C48.7631 29.4632 48.457 29.7693 48.0799 29.7693C47.7028 29.7693 47.3967 29.4632 47.3967 29.086V25.6699C47.3967 23.4099 45.5574 21.5706 43.2974 21.5706H28.2665C26.0064 21.5706 24.1672 23.4099 24.1672 25.6699V44.8001C24.1672 47.0602 26.0064 48.8994 28.2665 48.8994H37.1484C37.5255 48.8994 37.8316 49.2055 37.8316 49.5826ZM37.8316 33.8686H28.9498C28.5726 33.8686 28.2665 33.5625 28.2665 33.1854C28.2665 32.8082 28.5726 32.5021 28.9498 32.5021H37.8316C38.2087 32.5021 38.5148 32.8082 38.5148 33.1854C38.5148 33.5625 38.2087 33.8686 37.8316 33.8686ZM34.4155 37.9679C34.7926 37.9679 35.0987 38.274 35.0987 38.6511C35.0987 39.0282 34.7926 39.3343 34.4155 39.3343H28.9498C28.5726 39.3343 28.2665 39.0282 28.2665 38.6511C28.2665 38.274 28.5726 37.9679 28.9498 37.9679H34.4155Z" fill="#28385C"/>
</g>
<defs>
<clipPath id="clip0_6264_54249">
<rect width="32.7945" height="32.7945" fill="white" transform="translate(22.8008 17.4713)"/>
</clipPath>
</defs>
</svg>
