<svg width="28" height="28" viewBox="0 0 28 28" fill="none" xmlns="http://www.w3.org/2000/svg">
<circle cx="14" cy="14" r="14" fill="#1A87D7"/>
<path d="M12 12.5244L14.875 12.5557C14.7083 13.1911 14.5833 13.7327 14.5 14.1807C14.4271 14.6286 14.3802 15.0036 14.3594 15.3057C14.3177 15.6494 14.3073 15.9411 14.3281 16.1807C14.3594 16.3994 14.4115 16.6338 14.4844 16.8838C14.5469 17.0921 14.6406 17.3317 14.7656 17.6025C14.8906 17.8734 15.0573 18.1442 15.2656 18.415C15.1406 18.3734 15.0052 18.3421 14.8594 18.3213C14.7135 18.3005 14.5781 18.2848 14.4531 18.2744C14.3073 18.264 14.1615 18.264 14.0156 18.2744C13.8698 18.2848 13.7083 18.3005 13.5312 18.3213C13.3854 18.3421 13.2083 18.3682 13 18.3994C12.7917 18.4307 12.5729 18.4723 12.3438 18.5244C12.5 18.0557 12.6198 17.6494 12.7031 17.3057C12.7969 16.9619 12.8646 16.6755 12.9062 16.4463C12.9479 16.1755 12.974 15.9567 12.9844 15.79C12.9844 15.5817 12.9844 15.3473 12.9844 15.0869C12.9844 14.8161 12.9844 14.5557 12.9844 14.3057C12.9844 14.0557 12.9792 13.8369 12.9688 13.6494C12.9583 13.4515 12.9375 13.3265 12.9062 13.2744L12.75 13.1182C12.6875 13.0661 12.5938 12.9932 12.4688 12.8994C12.3542 12.7952 12.1979 12.6702 12 12.5244ZM13.1094 10.1182C13.3281 10.0036 13.5469 9.97233 13.7656 10.0244C13.9948 10.0765 14.1719 10.1755 14.2969 10.3213C14.4219 10.4671 14.4635 10.639 14.4219 10.8369C14.3906 11.0348 14.224 11.2275 13.9219 11.415C13.6198 11.5921 13.3542 11.6546 13.125 11.6025C12.8958 11.5505 12.7344 11.4411 12.6406 11.2744C12.5469 11.1077 12.5312 10.915 12.5938 10.6963C12.6562 10.4671 12.8281 10.2744 13.1094 10.1182Z" fill="white"/>
</svg>
