<svg width="20" height="20" viewBox="0 0 20 20" fill="none" xmlns="http://www.w3.org/2000/svg">
<path d="M10.8346 12.5C10.8346 12.0398 10.4615 11.6667 10.0013 11.6667C9.54106 11.6667 9.16797 12.0398 9.16797 12.5V14.1667C9.16797 14.6269 9.54106 15 10.0013 15C10.4615 15 10.8346 14.6269 10.8346 14.1667V12.5Z" fill="#5A6376"/>
<path fill-rule="evenodd" clip-rule="evenodd" d="M15.0013 5.83333C15.0013 3.0719 12.7627 0.833328 10.0013 0.833328C7.23988 0.833328 5.0013 3.0719 5.0013 5.83333V7.49999C3.16035 7.49999 1.66797 8.99238 1.66797 10.8333V15.8333C1.66797 17.6743 3.16035 19.1667 5.0013 19.1667H15.0013C16.8423 19.1667 18.3346 17.6743 18.3346 15.8333V10.8333C18.3346 8.99238 16.8423 7.49999 15.0013 7.49999V5.83333ZM6.66797 5.83333C6.66797 3.99238 8.16035 2.49999 10.0013 2.49999C11.8423 2.49999 13.3346 3.99238 13.3346 5.83333V7.49999H6.66797V5.83333ZM3.33464 10.8333C3.33464 9.91285 4.08083 9.16666 5.0013 9.16666H15.0013C15.9218 9.16666 16.668 9.91285 16.668 10.8333V15.8333C16.668 16.7538 15.9218 17.5 15.0013 17.5H5.0013C4.08083 17.5 3.33464 16.7538 3.33464 15.8333V10.8333Z" fill="#5A6376"/>
</svg>
