<svg width="155" height="46" viewBox="0 0 189 56" fill="none" xmlns="http://www.w3.org/2000/svg">
<rect x="0.65" y="0.65" width="187.7" height="54.7" rx="5.85" fill="black"/>
<rect x="0.65" y="0.65" width="187.7" height="54.7" rx="5.85" stroke="#A6A6A6" stroke-width="1.3"/>
<g filter="url(#filter0_ii_521_3066)">
<path d="M14.6104 10.5532C14.203 10.9844 13.9622 11.6536 13.9622 12.5202V43.4826C13.9622 44.3506 14.203 45.0184 14.6104 45.4496L14.714 45.5504L32.0586 28.2058V28.0014V27.797L14.714 10.451L14.6104 10.5532Z" fill="url(#paint0_linear_521_3066)"/>
<path d="M37.8392 33.9892L32.0586 28.2058V28.0014V27.797L37.8406 22.015L37.9708 22.0892L44.821 25.9812C46.7768 27.0928 46.7768 28.9114 44.821 30.0244L37.9708 33.9164L37.8392 33.9892Z" fill="url(#paint1_linear_521_3066)"/>
<g filter="url(#filter1_i_521_3066)">
<path d="M37.9708 33.915L32.0572 28.0014L14.6104 45.4496C15.2544 46.1328 16.3198 46.2168 17.5196 45.5364L37.9708 33.915Z" fill="url(#paint2_linear_521_3066)"/>
</g>
<path d="M37.9708 22.0878L17.5196 10.4678C16.3198 9.78602 15.2544 9.87142 14.6104 10.5546L32.0585 28.0028L37.9708 22.0878Z" fill="url(#paint3_linear_521_3066)"/>
</g>
<path d="M95.3903 30.4516C92.0975 30.4516 89.4137 32.9562 89.4137 36.4058C89.4137 39.8344 92.0975 42.36 95.3903 42.36C98.6845 42.36 101.368 39.8344 101.368 36.4058C101.367 32.9562 98.6831 30.4516 95.3903 30.4516ZM95.3903 40.0164C93.5857 40.0164 92.0303 38.5282 92.0303 36.4072C92.0303 34.2638 93.5871 32.798 95.3903 32.798C97.1949 32.798 98.7503 34.2638 98.7503 36.4072C98.7503 38.5268 97.1949 40.0164 95.3903 40.0164ZM82.3507 30.4516C79.0579 30.4516 76.3741 32.9562 76.3741 36.4058C76.3741 39.8344 79.0579 42.36 82.3507 42.36C85.6449 42.36 88.3287 39.8344 88.3287 36.4058C88.3287 32.9562 85.6449 30.4516 82.3507 30.4516ZM82.3507 40.0164C80.5461 40.0164 78.9907 38.5282 78.9907 36.4072C78.9907 34.2638 80.5475 32.798 82.3507 32.798C84.1553 32.798 85.7107 34.2638 85.7107 36.4072C85.7121 38.5268 84.1553 40.0164 82.3507 40.0164ZM66.8415 32.28V34.8056H72.8867C72.7061 36.2266 72.2329 37.264 71.5105 37.985C70.6313 38.8642 69.2551 39.8344 66.8415 39.8344C63.1203 39.8344 60.2111 36.8342 60.2111 33.113C60.2111 29.3918 63.1203 26.3916 66.8415 26.3916C68.8491 26.3916 70.3149 27.1812 71.3971 28.1962L73.1793 26.414C71.6673 24.9706 69.6611 23.866 66.8415 23.866C61.7441 23.866 57.4587 28.0156 57.4587 33.113C57.4587 38.2104 61.7441 42.36 66.8415 42.36C69.5925 42.36 71.6687 41.457 73.2913 39.7658C74.9601 38.097 75.4795 35.7506 75.4795 33.8564C75.4795 33.2712 75.4347 32.7294 75.3437 32.2786H66.8415V32.28ZM130.273 34.2414C129.777 32.9114 128.265 30.4516 125.175 30.4516C122.108 30.4516 119.559 32.8652 119.559 36.4058C119.559 39.7434 122.086 42.36 125.468 42.36C128.197 42.36 129.776 40.6912 130.431 39.721L128.401 38.3672C127.725 39.3598 126.799 40.0136 125.468 40.0136C124.138 40.0136 123.19 39.4046 122.581 38.209L130.543 34.9162L130.273 34.2414ZM122.153 36.2266C122.086 33.925 123.935 32.7532 125.266 32.7532C126.304 32.7532 127.183 33.2726 127.477 34.016L122.153 36.2266ZM115.681 42.0002H118.296V24.4988H115.681V42.0002ZM111.394 31.783H111.304C110.718 31.083 109.589 30.4516 108.17 30.4516C105.192 30.4516 102.463 33.0682 102.463 36.4296C102.463 39.7672 105.192 42.3614 108.17 42.3614C109.591 42.3614 110.718 41.73 111.304 41.009H111.394V41.8658C111.394 44.1436 110.176 45.3616 108.214 45.3616C106.613 45.3616 105.62 44.2122 105.214 43.242L102.936 44.1898C103.59 45.7676 105.326 47.708 108.214 47.708C111.282 47.708 113.876 45.9034 113.876 41.5046V30.8142H111.395V31.783H111.394ZM108.395 40.0164C106.59 40.0164 105.08 38.5044 105.08 36.4296C105.08 34.331 106.59 32.798 108.395 32.798C110.176 32.798 111.574 34.331 111.574 36.4296C111.574 38.5044 110.176 40.0164 108.395 40.0164ZM142.528 24.4988H136.269V42.0002H138.88V35.3698H142.527C145.422 35.3698 148.27 33.274 148.27 29.935C148.27 26.596 145.424 24.4988 142.528 24.4988ZM142.596 32.9338H138.88V26.9348H142.596C144.549 26.9348 145.657 28.5518 145.657 29.935C145.657 31.2902 144.549 32.9338 142.596 32.9338ZM158.74 30.4208C156.849 30.4208 154.89 31.2538 154.08 33.1004L156.398 34.0678C156.894 33.1004 157.818 32.784 158.785 32.784C160.136 32.784 161.51 33.5946 161.532 35.0352V35.2158C161.059 34.9456 160.045 34.541 158.808 34.541C156.309 34.541 153.763 35.9144 153.763 38.4806C153.763 40.8228 155.813 42.3306 158.109 42.3306C159.865 42.3306 160.833 41.5424 161.441 40.6184H161.531V41.9694H164.053V35.2592C164.055 32.154 161.734 30.4208 158.74 30.4208ZM158.424 40.0122C157.57 40.0122 156.376 39.5838 156.376 38.5254C156.376 37.1744 157.863 36.6564 159.146 36.6564C160.293 36.6564 160.835 36.9042 161.532 37.2416C161.329 38.8642 159.933 40.0122 158.424 40.0122ZM173.24 30.803L170.246 38.391H170.156L167.048 30.803H164.234L168.895 41.408L166.237 47.3076H168.962L176.145 30.803H173.24ZM149.712 42.0002H152.323V24.4988H149.712V42.0002Z" fill="white"/>
<path d="M66.3852 14.3401C66.3852 15.5133 66.038 16.4471 65.3422 17.1443C64.5526 17.9731 63.5222 18.3875 62.2566 18.3875C61.0442 18.3875 60.0124 17.9675 59.1654 17.1275C58.317 16.2861 57.8928 15.2445 57.8928 14.0013C57.8928 12.7567 58.317 11.7151 59.1654 10.8751C60.0124 10.0337 61.0442 9.61374 62.2566 9.61374C62.8586 9.61374 63.434 9.73134 63.98 9.96514C64.5274 10.2003 64.9656 10.5125 65.2932 10.9031L64.5554 11.6423C63.9996 10.9773 63.2338 10.6455 62.2552 10.6455C61.3704 10.6455 60.606 10.9563 59.9606 11.5779C59.3152 12.1995 58.9932 13.0073 58.9932 13.9999C58.9932 14.9925 59.3152 15.8003 59.9606 16.4219C60.606 17.0435 61.3704 17.3543 62.2552 17.3543C63.1932 17.3543 63.9758 17.0421 64.6016 16.4163C65.0076 16.0089 65.2428 15.4419 65.3058 14.7153H62.2552V13.7059H66.325C66.367 13.9257 66.3852 14.1371 66.3852 14.3401Z" fill="white"/>
<path d="M72.8394 10.8318H69.0146V13.4946H72.4642V14.504H69.0146V17.1668H72.8394V18.2H67.9352V9.80002H72.8394V10.8318Z" fill="white"/>
<path d="M77.3906 18.2H76.3112V10.8318H73.9648V9.80002H79.737V10.8318H77.3906V18.2Z" fill="white"/>
<path d="M83.9131 18.2V9.80002H84.9925V18.2H83.9131Z" fill="white"/>
<path d="M89.7794 18.2H88.7V10.8318H86.3536V9.80002H92.1258V10.8318H89.7794V18.2Z" fill="white"/>
<path d="M103.052 17.115C102.226 17.9634 101.2 18.3876 99.9724 18.3876C98.7446 18.3876 97.7184 17.9634 96.8938 17.115C96.0678 16.2666 95.6562 15.2278 95.6562 14C95.6562 12.7722 96.0678 11.7334 96.8938 10.885C97.7184 10.0366 98.7446 9.61101 99.9724 9.61101C101.193 9.61101 102.218 10.038 103.047 10.8906C103.876 11.7432 104.29 12.7792 104.29 14C104.29 15.2278 103.877 16.2666 103.052 17.115ZM97.6904 16.4108C98.312 17.0408 99.0722 17.3544 99.9724 17.3544C100.873 17.3544 101.634 17.0394 102.254 16.4108C102.876 15.7808 103.188 14.9772 103.188 14C103.188 13.0228 102.876 12.2192 102.254 11.5892C101.634 10.9592 100.873 10.6456 99.9724 10.6456C99.0722 10.6456 98.312 10.9606 97.6904 11.5892C97.0702 12.2192 96.758 13.0228 96.758 14C96.758 14.9772 97.0702 15.7808 97.6904 16.4108Z" fill="white"/>
<path d="M105.805 18.2V9.80002H107.118L111.2 16.3338H111.247L111.2 14.7154V9.80002H112.28V18.2H111.153L106.881 11.3484H106.835L106.881 12.9668V18.2H105.805Z" fill="white"/>
<path d="M66.3852 14.3401C66.3852 15.5133 66.038 16.4471 65.3422 17.1443C64.5526 17.9731 63.5222 18.3875 62.2566 18.3875C61.0442 18.3875 60.0124 17.9675 59.1654 17.1275C58.317 16.2861 57.8928 15.2445 57.8928 14.0013C57.8928 12.7567 58.317 11.7151 59.1654 10.8751C60.0124 10.0337 61.0442 9.61374 62.2566 9.61374C62.8586 9.61374 63.434 9.73134 63.98 9.96514C64.5274 10.2003 64.9656 10.5125 65.2932 10.9031L64.5554 11.6423C63.9996 10.9773 63.2338 10.6455 62.2552 10.6455C61.3704 10.6455 60.606 10.9563 59.9606 11.5779C59.3152 12.1995 58.9932 13.0073 58.9932 13.9999C58.9932 14.9925 59.3152 15.8003 59.9606 16.4219C60.606 17.0435 61.3704 17.3543 62.2552 17.3543C63.1932 17.3543 63.9758 17.0421 64.6016 16.4163C65.0076 16.0089 65.2428 15.4419 65.3058 14.7153H62.2552V13.7059H66.325C66.367 13.9257 66.3852 14.1371 66.3852 14.3401Z" stroke="white" stroke-width="0.26" stroke-miterlimit="10"/>
<path d="M72.8394 10.8318H69.0146V13.4946H72.4642V14.504H69.0146V17.1668H72.8394V18.2H67.9352V9.80002H72.8394V10.8318Z" stroke="white" stroke-width="0.26" stroke-miterlimit="10"/>
<path d="M77.3906 18.2H76.3112V10.8318H73.9648V9.80002H79.737V10.8318H77.3906V18.2Z" stroke="white" stroke-width="0.26" stroke-miterlimit="10"/>
<path d="M83.9131 18.2V9.80002H84.9925V18.2H83.9131Z" stroke="white" stroke-width="0.26" stroke-miterlimit="10"/>
<path d="M89.7794 18.2H88.7V10.8318H86.3536V9.80002H92.1258V10.8318H89.7794V18.2Z" stroke="white" stroke-width="0.26" stroke-miterlimit="10"/>
<path d="M103.052 17.115C102.226 17.9634 101.2 18.3876 99.9724 18.3876C98.7446 18.3876 97.7184 17.9634 96.8938 17.115C96.0678 16.2666 95.6562 15.2278 95.6562 14C95.6562 12.7722 96.0678 11.7334 96.8938 10.885C97.7184 10.0366 98.7446 9.61101 99.9724 9.61101C101.193 9.61101 102.218 10.038 103.047 10.8906C103.876 11.7432 104.29 12.7792 104.29 14C104.29 15.2278 103.877 16.2666 103.052 17.115ZM97.6904 16.4108C98.312 17.0408 99.0722 17.3544 99.9724 17.3544C100.873 17.3544 101.634 17.0394 102.254 16.4108C102.876 15.7808 103.188 14.9772 103.188 14C103.188 13.0228 102.876 12.2192 102.254 11.5892C101.634 10.9592 100.873 10.6456 99.9724 10.6456C99.0722 10.6456 98.312 10.9606 97.6904 11.5892C97.0702 12.2192 96.758 13.0228 96.758 14C96.758 14.9772 97.0702 15.7808 97.6904 16.4108Z" stroke="white" stroke-width="0.26" stroke-miterlimit="10"/>
<path d="M105.805 18.2V9.80002H107.118L111.2 16.3338H111.247L111.2 14.7154V9.80002H112.28V18.2H111.153L106.881 11.3484H106.835L106.881 12.9668V18.2H105.805Z" stroke="white" stroke-width="0.26" stroke-miterlimit="10"/>
<defs>
<filter id="filter0_ii_521_3066" x="13.9622" y="9.99731" width="32.3257" height="36.009" filterUnits="userSpaceOnUse" color-interpolation-filters="sRGB">
<feFlood flood-opacity="0" result="BackgroundImageFix"/>
<feBlend mode="normal" in="SourceGraphic" in2="BackgroundImageFix" result="shape"/>
<feColorMatrix in="SourceAlpha" type="matrix" values="0 0 0 0 0 0 0 0 0 0 0 0 0 0 0 0 0 0 127 0" result="hardAlpha"/>
<feOffset dy="-0.195"/>
<feComposite in2="hardAlpha" operator="arithmetic" k2="-1" k3="1"/>
<feColorMatrix type="matrix" values="0 0 0 0 0 0 0 0 0 0 0 0 0 0 0 0 0 0 0.12 0"/>
<feBlend mode="normal" in2="shape" result="effect1_innerShadow_521_3066"/>
<feColorMatrix in="SourceAlpha" type="matrix" values="0 0 0 0 0 0 0 0 0 0 0 0 0 0 0 0 0 0 127 0" result="hardAlpha"/>
<feOffset dy="0.195"/>
<feComposite in2="hardAlpha" operator="arithmetic" k2="-1" k3="1"/>
<feColorMatrix type="matrix" values="0 0 0 0 1 0 0 0 0 1 0 0 0 0 1 0 0 0 0.25 0"/>
<feBlend mode="normal" in2="effect1_innerShadow_521_3066" result="effect2_innerShadow_521_3066"/>
</filter>
<filter id="filter1_i_521_3066" x="14.6104" y="28.0014" width="23.3604" height="18.0049" filterUnits="userSpaceOnUse" color-interpolation-filters="sRGB">
<feFlood flood-opacity="0" result="BackgroundImageFix"/>
<feBlend mode="normal" in="SourceGraphic" in2="BackgroundImageFix" result="shape"/>
<feColorMatrix in="SourceAlpha" type="matrix" values="0 0 0 0 0 0 0 0 0 0 0 0 0 0 0 0 0 0 127 0" result="hardAlpha"/>
<feOffset dy="-0.195"/>
<feComposite in2="hardAlpha" operator="arithmetic" k2="-1" k3="1"/>
<feColorMatrix type="matrix" values="0 0 0 0 0 0 0 0 0 0 0 0 0 0 0 0 0 0 0.08 0"/>
<feBlend mode="normal" in2="shape" result="effect1_innerShadow_521_3066"/>
</filter>
<linearGradient id="paint0_linear_521_3066" x1="30.5211" y1="12.1926" x2="7.02628" y2="35.6874" gradientUnits="userSpaceOnUse">
<stop stop-color="#00A0FF"/>
<stop offset="0.0066" stop-color="#00A1FF"/>
<stop offset="0.2601" stop-color="#00BEFF"/>
<stop offset="0.5122" stop-color="#00D2FF"/>
<stop offset="0.7604" stop-color="#00DFFF"/>
<stop offset="1" stop-color="#00E3FF"/>
</linearGradient>
<linearGradient id="paint1_linear_521_3066" x1="47.3669" y1="28.0014" x2="13.4926" y2="28.0014" gradientUnits="userSpaceOnUse">
<stop stop-color="#FFE000"/>
<stop offset="0.4087" stop-color="#FFBD00"/>
<stop offset="0.7754" stop-color="#FFA500"/>
<stop offset="1" stop-color="#FF9C00"/>
</linearGradient>
<linearGradient id="paint2_linear_521_3066" x1="34.7593" y1="31.2129" x2="2.8974" y2="63.0748" gradientUnits="userSpaceOnUse">
<stop stop-color="#FF3A44"/>
<stop offset="1" stop-color="#C31162"/>
</linearGradient>
<linearGradient id="paint3_linear_521_3066" x1="10.2163" y1="0.24754" x2="24.4435" y2="14.4748" gradientUnits="userSpaceOnUse">
<stop stop-color="#32A071"/>
<stop offset="0.0685" stop-color="#2DA771"/>
<stop offset="0.4762" stop-color="#15CF74"/>
<stop offset="0.8009" stop-color="#06E775"/>
<stop offset="1" stop-color="#00F076"/>
</linearGradient>
</defs>
</svg>
