<svg width="20" height="20" viewBox="0 0 20 20" fill="none" xmlns="http://www.w3.org/2000/svg">
<path d="M8.33366 4.99996H11.667V3.33329H8.33366V4.99996ZM15.0003 19.1666C13.8475 19.1666 12.865 18.7602 12.0528 17.9475C11.2406 17.1347 10.8342 16.1522 10.8337 15C10.8331 13.8477 11.2395 12.8652 12.0528 12.0525C12.8662 11.2397 13.8487 10.8333 15.0003 10.8333C16.152 10.8333 17.1348 11.2397 17.9487 12.0525C18.7625 12.8652 19.1687 13.8477 19.167 15C19.1653 16.1522 18.7589 17.135 17.9478 17.9483C17.1367 18.7616 16.1542 19.1677 15.0003 19.1666ZM3.33366 17.5C2.87533 17.5 2.4831 17.3369 2.15699 17.0108C1.83088 16.6847 1.66755 16.2922 1.66699 15.8333V6.66663C1.66699 6.20829 1.83033 5.81607 2.15699 5.48996C2.48366 5.16385 2.87588 5.00051 3.33366 4.99996H6.66699V3.33329C6.66699 2.87496 6.83033 2.48274 7.15699 2.15663C7.48366 1.83051 7.87588 1.66718 8.33366 1.66663H11.667C12.1253 1.66663 12.5178 1.82996 12.8445 2.15663C13.1712 2.48329 13.3342 2.87551 13.3337 3.33329V4.99996H16.667C17.1253 4.99996 17.5178 5.16329 17.8445 5.48996C18.1712 5.81663 18.3342 6.20885 18.3337 6.66663V10.2291C17.8475 9.8819 17.3198 9.61802 16.7503 9.43746C16.1809 9.2569 15.5975 9.16663 15.0003 9.16663C13.3892 9.16663 12.0142 9.73607 10.8753 10.875C9.73644 12.0138 9.16699 13.3888 9.16699 15C9.16699 15.4305 9.21227 15.8577 9.30283 16.2816C9.39338 16.7055 9.5356 17.1116 9.72949 17.5H3.33366ZM15.0003 17.5C15.1114 17.5 15.2087 17.4583 15.292 17.375C15.3753 17.2916 15.417 17.1944 15.417 17.0833C15.417 16.9722 15.3753 16.875 15.292 16.7916C15.2087 16.7083 15.1114 16.6666 15.0003 16.6666C14.8892 16.6666 14.792 16.7083 14.7087 16.7916C14.6253 16.875 14.5837 16.9722 14.5837 17.0833C14.5837 17.1944 14.6253 17.2916 14.7087 17.375C14.792 17.4583 14.8892 17.5 15.0003 17.5ZM14.5837 15.8333H15.417V12.5H14.5837V15.8333Z" fill="#5A6376"/>
</svg>
