<svg width="20" height="21" viewBox="0 0 20 21" fill="none" xmlns="http://www.w3.org/2000/svg">
<path d="M13.15 5.63582C13.15 7.81197 11.7396 9.57609 9.99995 9.57609C8.26025 9.57609 6.84995 7.81197 6.84995 5.63582C6.84995 3.45967 8.26025 1.69556 9.99995 1.69556C11.7396 1.69556 13.15 3.45967 13.15 5.63582Z" fill="#5A6376"/>
<path d="M16.3 15.4865C16.3 17.8802 13.0927 17.0626 9.99995 17.0626C6.90716 17.0626 3.69995 17.8802 3.69995 15.4865C3.69995 13.0927 6.90716 11.1522 9.99995 11.1522C13.0927 11.1522 16.3 13.0927 16.3 15.4865Z" fill="#5A6376"/>
<path d="M11.6389 11.2854L11.639 11.2854C12.029 11.4248 12.4582 11.2216 12.5976 10.8316C12.6113 10.7932 12.6219 10.7538 12.6292 10.7138L12.6292 10.7138L12.8484 9.51016C12.8593 9.45032 12.9053 9.40299 12.9648 9.39033C13.3026 9.31843 13.649 9.28184 14.0002 9.28184C14.3511 9.28184 14.6974 9.31838 15.035 9.3902C15.0945 9.40285 15.1404 9.45015 15.1514 9.50996L15.3712 10.7137C15.3712 10.7137 15.3712 10.7138 15.3712 10.7138C15.4456 11.1212 15.8361 11.3913 16.2436 11.317C16.2837 11.3097 16.3231 11.2991 16.3614 11.2855L16.3614 11.2854L17.5124 10.8739C17.5696 10.8534 17.6335 10.8695 17.6743 10.9146L17.7856 10.814L17.6743 10.9146C18.1418 11.4321 18.496 12.0426 18.711 12.7076C18.7297 12.7654 18.7117 12.8288 18.6654 12.8681L17.7325 13.6601L17.7325 13.6601C17.4167 13.9282 17.3781 14.4015 17.6462 14.7173C17.6726 14.7483 17.7014 14.7772 17.7325 14.8035L17.7325 14.8035L18.6654 15.5956C18.7117 15.6349 18.7297 15.6983 18.711 15.7561C18.496 16.421 18.1418 17.0316 17.6743 17.5491C17.6335 17.5942 17.5696 17.6102 17.5124 17.5898L16.3615 17.1782L16.3615 17.1782C15.9714 17.0388 15.5422 17.2421 15.4028 17.6321C15.3891 17.6705 15.3785 17.7099 15.3712 17.75C15.3712 17.75 15.3712 17.75 15.3712 17.75L15.1514 18.9537C15.1404 19.0135 15.0945 19.0608 15.035 19.0735C14.6974 19.1453 14.3511 19.1818 14.0002 19.1818C13.649 19.1818 13.3026 19.1452 12.9648 19.0733C12.9053 19.0607 12.8593 19.0134 12.8484 18.9535L12.6292 17.75L12.6292 17.7499C12.5549 17.3424 12.1643 17.0723 11.7568 17.1467C11.7167 17.154 11.6773 17.1645 11.639 17.1782L11.639 17.1782L10.488 17.5898L10.5385 17.731L10.488 17.5898C10.4308 17.6102 10.3669 17.5942 10.3262 17.5491C9.8586 17.0316 9.50437 16.421 9.28937 15.7561C9.27068 15.6983 9.2887 15.6349 9.33501 15.5956L10.2679 14.8035L10.2679 14.8035C10.5837 14.5354 10.6223 14.0621 10.3542 13.7464C10.3278 13.7153 10.299 13.6865 10.2679 13.6601L10.2679 13.6601L9.33501 12.8681C9.2887 12.8288 9.27068 12.7654 9.28937 12.7076C9.50437 12.0426 9.8586 11.4321 10.3262 10.9146C10.3669 10.8695 10.4308 10.8534 10.488 10.8739L11.6389 11.2854ZM12.6502 14.2318C12.6502 14.9774 13.2546 15.5818 14.0002 15.5818C14.7458 15.5818 15.3502 14.9774 15.3502 14.2318C15.3502 13.4863 14.7458 12.8818 14.0002 12.8818C13.2546 12.8818 12.6502 13.4863 12.6502 14.2318Z" fill="#5A6376" stroke="#EBEBEB" stroke-width="0.3"/>
</svg>
