<svg width="22" height="22" viewBox="0 0 22 22" fill="none" xmlns="http://www.w3.org/2000/svg">
<path d="M16.2937 7.69999C15.345 7.69999 14.575 8.41712 14.575 9.30073V20.3992C14.575 21.2829 15.345 22 16.2937 22H16.9812C17.93 22 18.7 21.2829 18.7 20.3992V9.30073C18.7 8.41627 17.93 7.69999 16.9812 7.69999H16.2937ZM8.38745 4.94999C8.38745 4.06552 9.15745 3.34924 10.1062 3.34924H10.7937C11.7434 3.34924 12.5125 4.06638 12.5125 4.94999V20.3992C12.5125 21.2829 11.7425 22 10.7937 22H10.1062C9.65036 22 9.21319 21.8313 8.89086 21.5311C8.56853 21.2309 8.38745 20.8238 8.38745 20.3992V4.94999ZM2.19995 13.7007C2.19995 12.8163 2.96995 12.1 3.9187 12.1H4.6062C5.55587 12.1 6.32495 12.8171 6.32495 13.7007V20.3992C6.32495 21.2829 5.55495 22 4.6062 22H3.9187C3.46286 22 3.02569 21.8313 2.70336 21.5311C2.38103 21.2309 2.19995 20.8238 2.19995 20.3992V13.7007Z" fill="#5A6376"/>
</svg>
