<svg width="20" height="21" viewBox="0 0 20 21" fill="none" xmlns="http://www.w3.org/2000/svg">
<g clip-path="url(#clip0_5034_12994)">
<path d="M16.6667 9.66667H8.33333C6.495 9.66667 5 11.1617 5 13V16.3333C5 18.6308 6.86917 20.5 9.16667 20.5H15.8333C18.1308 20.5 20 18.6308 20 16.3333V13C20 11.1617 18.505 9.66667 16.6667 9.66667ZM15.8333 13.8333C15.8333 15.6717 14.3383 17.1667 12.5 17.1667C10.6617 17.1667 9.16667 15.6717 9.16667 13.8333V13C9.16667 12.5392 9.54 12.1667 10 12.1667C10.46 12.1667 10.8333 12.5392 10.8333 13V13.8333C10.8333 14.7525 11.5808 15.5 12.5 15.5C13.4192 15.5 14.1667 14.7525 14.1667 13.8333V13C14.1667 12.5392 14.54 12.1667 15 12.1667C15.46 12.1667 15.8333 12.5392 15.8333 13V13.8333ZM15.8333 8C15.8333 6.16167 14.3383 4.66667 12.5 4.66667H11.6667V4.25C11.6667 2.1825 9.98417 0.5 7.91667 0.5C5.84917 0.5 4.16667 2.1825 4.16667 4.25V4.66667H3.33333C1.495 4.66667 0 6.16167 0 8V12.1667C0 14.1783 1.43417 15.8625 3.33333 16.2492V13C3.33333 10.2425 5.57583 8 8.33333 8H15.8333ZM5.83333 4.25C5.83333 3.10083 6.76833 2.16667 7.91667 2.16667C9.065 2.16667 10 3.10083 10 4.25V4.66667H5.83333V4.25Z" fill="white"/>
</g>
<defs>
<clipPath id="clip0_5034_12994">
<rect width="20" height="20" fill="white" transform="translate(0 0.5)"/>
</clipPath>
</defs>
</svg>
