<svg width="61" height="54" viewBox="0 0 61 54" fill="none" xmlns="http://www.w3.org/2000/svg">
<rect width="61" height="54" rx="13.5211" fill="#D3DEF1" fill-opacity="0.32"/>
<g clip-path="url(#clip0_3517_36841)">
<path d="M39.6667 24.8333H38.5833V22.6667C38.5833 20.2768 36.6398 18.3333 34.25 18.3333H33.1363C32.8655 15.8991 30.7963 14 28.2917 14C25.787 14 23.7168 15.8991 23.447 18.3333H22.3333C19.9435 18.3333 18 20.2768 18 22.6667V29.1667C18 32.1534 20.4299 34.5833 23.4167 34.5833H24.5C24.5 37.5701 26.9299 40 29.9167 40H38.5833C41.5701 40 44 37.5701 44 34.5833V29.1667C44 26.7768 42.0565 24.8333 39.6667 24.8333ZM28.2917 16.1667C29.5993 16.1667 30.6934 17.0983 30.9458 18.3333H25.6375C25.8888 17.0983 26.983 16.1667 28.2917 16.1667ZM23.4167 32.4167C21.6248 32.4167 20.1667 30.9585 20.1667 29.1667V22.6667C20.1667 21.4718 21.1384 20.5 22.3333 20.5H23.4167V22.6667C23.4167 23.2657 23.902 23.75 24.5 23.75C25.098 23.75 25.5833 23.2657 25.5833 22.6667V20.5H31V22.6667C31 23.2657 31.4853 23.75 32.0833 23.75C32.6813 23.75 33.1667 23.2657 33.1667 22.6667V20.5H34.25C35.4449 20.5 36.4167 21.4718 36.4167 22.6667V24.8333H28.8333C26.4435 24.8333 24.5 26.7768 24.5 29.1667V32.4167H23.4167ZM41.8333 34.5833C41.8333 36.3752 40.3752 37.8333 38.5833 37.8333H29.9167C28.1248 37.8333 26.6667 36.3752 26.6667 34.5833V29.1667C26.6667 27.9718 27.6384 27 28.8333 27H39.6667C40.8616 27 41.8333 27.9718 41.8333 29.1667V34.5833ZM38.5833 30.25V31.3333C38.5833 33.7232 36.6398 35.6667 34.25 35.6667C31.8602 35.6667 29.9167 33.7232 29.9167 31.3333V30.25C29.9167 29.6509 30.402 29.1667 31 29.1667C31.598 29.1667 32.0833 29.6509 32.0833 30.25V31.3333C32.0833 32.5283 33.0551 33.5 34.25 33.5C35.4449 33.5 36.4167 32.5283 36.4167 31.3333V30.25C36.4167 29.6509 36.902 29.1667 37.5 29.1667C38.098 29.1667 38.5833 29.6509 38.5833 30.25Z" fill="#28385C" fill-opacity="0.6"/>
</g>
<defs>
<clipPath id="clip0_3517_36841">
<rect width="26" height="26" fill="white" transform="translate(18 14)"/>
</clipPath>
</defs>
</svg>
