<svg width="23" height="23" viewBox="0 0 23 23" fill="none" xmlns="http://www.w3.org/2000/svg">
<path d="M11.6475 2.46069C9.89081 2.46069 8.1736 2.9816 6.71299 3.95755C5.25237 4.93351 4.11397 6.32066 3.44172 7.94361C2.76947 9.56655 2.59358 11.3524 2.93629 13.0753C3.279 14.7982 4.12491 16.3808 5.36706 17.623C6.60921 18.8651 8.19181 19.711 9.91472 20.0537C11.6376 20.3964 13.4235 20.2205 15.0464 19.5483C16.6694 18.8761 18.0565 17.7376 19.0325 16.277C20.0084 14.8164 20.5293 13.0992 20.5293 11.3425C20.5248 8.98832 19.5876 6.73181 17.9229 5.06711C16.2582 3.40242 14.0017 2.46521 11.6475 2.46069ZM15.6956 11.6073C15.6583 11.6901 15.6062 11.7653 15.5418 11.8293L12.6467 14.7245C12.5847 14.7882 12.5102 14.8386 12.428 14.8724C12.3457 14.9062 12.2574 14.9227 12.1684 14.9209C12.0782 14.9228 11.9886 14.9064 11.9049 14.8727C11.8212 14.8389 11.7452 14.7885 11.6816 14.7245C11.5539 14.5964 11.4821 14.4229 11.4821 14.242C11.4821 14.061 11.5539 13.8875 11.6816 13.7594L13.4153 12.0258H8.23138C8.05018 12.0258 7.8764 11.9538 7.74827 11.8257C7.62015 11.6975 7.54816 11.5237 7.54816 11.3425C7.54816 11.1613 7.62015 10.9876 7.74827 10.8594C7.8764 10.7313 8.05018 10.6593 8.23138 10.6593H13.4153L11.6816 8.92565C11.5639 8.79569 11.5006 8.62542 11.5049 8.45009C11.5092 8.27476 11.5808 8.10781 11.7048 7.9838C11.8288 7.85979 11.9958 7.78821 12.1711 7.78389C12.3464 7.77958 12.5167 7.84285 12.6467 7.96061L15.5418 10.8557C15.6062 10.9198 15.6583 10.995 15.6956 11.0778C15.7639 11.2477 15.7639 11.4374 15.6956 11.6073Z" fill="#1A87D7"/>
</svg>
