<svg width="16" height="16" viewBox="0 0 16 16" fill="none" xmlns="http://www.w3.org/2000/svg">
<path d="M15.8626 15.184L11.9735 11.2958C13.0167 10.0967 13.6483 8.53215 13.6483 6.82217C13.6483 3.05809 10.586 0 6.82466 0C3.05975 0 0.000976562 3.06164 0.000976562 6.82217C0.000976562 10.5827 3.0633 13.6443 6.82466 13.6443C8.53502 13.6443 10.0999 13.0129 11.2993 11.9698L15.1884 15.8581C15.2806 15.9503 15.4048 16 15.5255 16C15.6461 16 15.7703 15.9539 15.8626 15.8581C16.0471 15.6736 16.0471 15.3685 15.8626 15.184ZM0.955512 6.82217C0.955512 3.5867 3.58847 0.957871 6.82111 0.957871C10.0573 0.957871 12.6867 3.59024 12.6867 6.82217C12.6867 10.0541 10.0573 12.69 6.82111 12.69C3.58847 12.69 0.955512 10.0576 0.955512 6.82217Z" fill="#313A4E"/>
</svg>
