<svg width="61" height="54" viewBox="0 0 61 54" fill="none" xmlns="http://www.w3.org/2000/svg">
<rect width="61" height="54" rx="13.5211" fill="#D3DEF1" fill-opacity="0.32"/>
<g clip-path="url(#clip0_3531_36976)">
<path d="M28.8333 36.75C28.8333 37.3458 28.3458 37.8333 27.75 37.8333H23.4167C20.4267 37.8333 18 35.4067 18 32.4167V19.4167C18 16.4267 20.4267 14 23.4167 14H36.4167C39.4067 14 41.8333 16.4267 41.8333 19.4167V21.5833C41.8333 22.1792 41.3458 22.6667 40.75 22.6667C40.1542 22.6667 39.6667 22.1792 39.6667 21.5833V19.4167C39.6667 17.6292 38.2042 16.1667 36.4167 16.1667H23.4167C21.6292 16.1667 20.1667 17.6292 20.1667 19.4167V32.4167C20.1667 34.2042 21.6292 35.6667 23.4167 35.6667H27.75C28.3458 35.6667 28.8333 36.1542 28.8333 36.75ZM27.75 31.3333H24.5V23.1108L27.4358 20.175C27.75 19.8608 27.8367 19.395 27.6742 18.9942C27.5117 18.5933 27.1108 18.3225 26.6775 18.3225H24.5108C23.3192 18.3225 22.3442 19.2975 22.3442 20.4892V31.3225C22.3442 32.5142 23.3192 33.4892 24.5108 33.4892H27.7608C28.3567 33.4892 28.8442 33.0017 28.8442 32.4058C28.8442 31.81 28.3567 31.3225 27.7608 31.3225L27.75 31.3333ZM29.9167 27H28.8333V25.1908C28.8333 24.8983 28.9417 24.6275 29.1475 24.4217L32.755 20.8142C32.9608 20.6083 33.2317 20.5 33.5242 20.5H35.3333C35.3333 21.0958 35.8208 21.5833 36.4167 21.5833C37.0125 21.5833 37.5 21.0958 37.5 20.5C37.5 19.3083 36.525 18.3333 35.3333 18.3333H33.5242C32.6575 18.3333 31.845 18.6692 31.2275 19.2867L27.62 22.8942C27.0025 23.5117 26.6667 24.3242 26.6667 25.1908V27C26.6667 28.1917 27.6417 29.1667 28.8333 29.1667H29.9167C30.5125 29.1667 31 28.6792 31 28.0833C31 27.4875 30.5125 27 29.9167 27ZM44 33.5V35.6667C44 38.0608 42.0608 40 39.6667 40H35.3333C32.9392 40 31 38.0608 31 35.6667V33.5C31 31.8967 31.8775 30.4992 33.1667 29.7517V28.0833C33.1667 25.6892 35.1058 23.75 37.5 23.75C39.8942 23.75 41.8333 25.6892 41.8333 28.0833V29.7517C43.1225 30.4992 44 31.9075 44 33.5ZM35.3333 29.1667H39.6667V28.0833C39.6667 26.8917 38.6917 25.9167 37.5 25.9167C36.3083 25.9167 35.3333 26.8917 35.3333 28.0833V29.1667ZM41.8333 33.5C41.8333 32.3083 40.8583 31.3333 39.6667 31.3333H35.3333C34.1417 31.3333 33.1667 32.3083 33.1667 33.5V35.6667C33.1667 36.8583 34.1417 37.8333 35.3333 37.8333H39.6667C40.8583 37.8333 41.8333 36.8583 41.8333 35.6667V33.5ZM37.5 32.9583C36.6008 32.9583 35.875 33.6842 35.875 34.5833C35.875 35.4825 36.6008 36.2083 37.5 36.2083C38.3992 36.2083 39.125 35.4825 39.125 34.5833C39.125 33.6842 38.3992 32.9583 37.5 32.9583Z" fill="#28385C" fill-opacity="0.6"/>
</g>
<defs>
<clipPath id="clip0_3531_36976">
<rect width="26" height="26" fill="white" transform="translate(18 14)"/>
</clipPath>
</defs>
</svg>
