<svg width="20" height="21" viewBox="0 0 20 21" fill="none" xmlns="http://www.w3.org/2000/svg">
<g clip-path="url(#clip0_5034_13024)">
<path d="M8.33333 18C8.33333 18.4583 7.95833 18.8333 7.5 18.8333H4.16667C1.86667 18.8333 0 16.9667 0 14.6667V4.66667C0 2.36667 1.86667 0.5 4.16667 0.5H14.1667C16.4667 0.5 18.3333 2.36667 18.3333 4.66667V6.33333C18.3333 6.79167 17.9583 7.16667 17.5 7.16667C17.0417 7.16667 16.6667 6.79167 16.6667 6.33333V4.66667C16.6667 3.29167 15.5417 2.16667 14.1667 2.16667H4.16667C2.79167 2.16667 1.66667 3.29167 1.66667 4.66667V14.6667C1.66667 16.0417 2.79167 17.1667 4.16667 17.1667H7.5C7.95833 17.1667 8.33333 17.5417 8.33333 18ZM7.5 13.8333H5V7.50833L7.25833 5.25C7.5 5.00833 7.56667 4.65 7.44167 4.34167C7.31667 4.03333 7.00833 3.825 6.675 3.825H5.00833C4.09167 3.825 3.34167 4.575 3.34167 5.49167V13.825C3.34167 14.7417 4.09167 15.4917 5.00833 15.4917H7.50833C7.96667 15.4917 8.34167 15.1167 8.34167 14.6583C8.34167 14.2 7.96667 13.825 7.50833 13.825L7.5 13.8333ZM9.16667 10.5H8.33333V9.10833C8.33333 8.88333 8.41667 8.675 8.575 8.51667L11.35 5.74167C11.5083 5.58333 11.7167 5.5 11.9417 5.5H13.3333C13.3333 5.95833 13.7083 6.33333 14.1667 6.33333C14.625 6.33333 15 5.95833 15 5.5C15 4.58333 14.25 3.83333 13.3333 3.83333H11.9417C11.275 3.83333 10.65 4.09167 10.175 4.56667L7.4 7.34167C6.925 7.81667 6.66667 8.44167 6.66667 9.10833V10.5C6.66667 11.4167 7.41667 12.1667 8.33333 12.1667H9.16667C9.625 12.1667 10 11.7917 10 11.3333C10 10.875 9.625 10.5 9.16667 10.5ZM20 15.5V17.1667C20 19.0083 18.5083 20.5 16.6667 20.5H13.3333C11.4917 20.5 10 19.0083 10 17.1667V15.5C10 14.2667 10.675 13.1917 11.6667 12.6167V11.3333C11.6667 9.49167 13.1583 8 15 8C16.8417 8 18.3333 9.49167 18.3333 11.3333V12.6167C19.325 13.1917 20 14.275 20 15.5ZM13.3333 12.1667H16.6667V11.3333C16.6667 10.4167 15.9167 9.66667 15 9.66667C14.0833 9.66667 13.3333 10.4167 13.3333 11.3333V12.1667ZM18.3333 15.5C18.3333 14.5833 17.5833 13.8333 16.6667 13.8333H13.3333C12.4167 13.8333 11.6667 14.5833 11.6667 15.5V17.1667C11.6667 18.0833 12.4167 18.8333 13.3333 18.8333H16.6667C17.5833 18.8333 18.3333 18.0833 18.3333 17.1667V15.5ZM15 15.0833C14.3083 15.0833 13.75 15.6417 13.75 16.3333C13.75 17.025 14.3083 17.5833 15 17.5833C15.6917 17.5833 16.25 17.025 16.25 16.3333C16.25 15.6417 15.6917 15.0833 15 15.0833Z" fill="#28385C"/>
</g>
<defs>
<clipPath id="clip0_5034_13024">
<rect width="20" height="20" fill="white" transform="translate(0 0.5)"/>
</clipPath>
</defs>
</svg>
