<svg width="13" height="22" viewBox="0 0 13 22" fill="none" xmlns="http://www.w3.org/2000/svg">
<g clip-path="url(#clip0_4967_30038)">
<rect width="11.6279" height="11.6279" transform="translate(0.622192 5.47662)" fill="#F5F9FB"/>
<path d="M10.0695 17.1046C9.9727 17.1047 9.87806 17.0757 9.79784 17.0215C9.71761 16.9673 9.65547 16.8902 9.61945 16.8003L9.21053 15.7766L8.18534 15.3449C8.0974 15.3061 8.02289 15.2421 7.97117 15.1611C7.91946 15.08 7.89283 14.9855 7.89464 14.8894C7.89646 14.7933 7.92662 14.6999 7.98136 14.6208C8.03609 14.5418 8.11295 14.4807 8.2023 14.4452L9.21392 14.062L9.61945 13.0484C9.65674 12.9598 9.71934 12.8842 9.79941 12.8311C9.87947 12.7779 9.97344 12.7496 10.0695 12.7496C10.1656 12.7496 10.2596 12.7779 10.3397 12.8311C10.4197 12.8842 10.4823 12.9598 10.5196 13.0484L10.9271 14.0658L11.9445 14.4733C12.0333 14.5104 12.1091 14.573 12.1624 14.6531C12.2157 14.7331 12.2442 14.8272 12.2442 14.9234C12.2442 15.0196 12.2157 15.1137 12.1624 15.1937C12.1091 15.2738 12.0333 15.3364 11.9445 15.3735L10.9271 15.781L10.5196 16.7984C10.4839 16.8887 10.4219 16.9661 10.3417 17.0207C10.2614 17.0753 10.1666 17.1045 10.0695 17.1046ZM5.46683 15.6511C5.25751 15.6536 5.05301 15.5883 4.88393 15.4649C4.71484 15.3415 4.59027 15.1666 4.52885 14.9665L3.74687 12.5213L1.29386 11.7005C1.09588 11.6344 0.924057 11.507 0.803209 11.3368C0.682361 11.1665 0.618745 10.9623 0.621549 10.7536C0.624353 10.5449 0.693432 10.3424 0.818808 10.1755C0.944185 10.0086 1.11937 9.88588 1.31906 9.82505L3.75268 9.08183L4.57245 6.63319C4.6334 6.43206 4.75948 6.2569 4.93085 6.13525C5.10223 6.0136 5.30918 5.95237 5.51916 5.96119C5.72851 5.96147 5.93213 6.02955 6.09956 6.15523C6.26699 6.28091 6.38921 6.45743 6.44793 6.65838L7.19018 9.08813L9.6272 9.86817C9.82377 9.9341 9.99465 10.0601 10.1157 10.2284C10.2368 10.3967 10.3019 10.5988 10.3019 10.8062C10.3019 11.0135 10.2368 11.2156 10.1157 11.3839C9.99465 11.5522 9.82377 11.6782 9.6272 11.7441L7.18582 12.5251L6.40481 14.9665C6.34339 15.1666 6.21882 15.3415 6.04973 15.4649C5.88065 15.5883 5.67614 15.6536 5.46683 15.6511ZM10.554 8.86817C10.446 8.86816 10.3411 8.83207 10.256 8.76562C10.1708 8.69917 10.1103 8.60617 10.0841 8.5014L9.91111 7.80857L9.21683 7.62204C9.11248 7.59401 9.02049 7.53189 8.9555 7.44557C8.8905 7.35926 8.85623 7.25369 8.85812 7.14565C8.86002 7.03762 8.89797 6.93331 8.96595 6.84933C9.03393 6.76534 9.12803 6.70648 9.2333 6.68212L9.9116 6.52466L10.0841 5.84346C10.1103 5.7387 10.1708 5.64571 10.256 5.57927C10.3411 5.51283 10.446 5.47675 10.554 5.47675C10.662 5.47675 10.7669 5.51283 10.8521 5.57927C10.9372 5.64571 10.9977 5.7387 11.024 5.84346L11.1955 6.53047L11.8825 6.70247C11.9873 6.72873 12.0803 6.78923 12.1467 6.87438C12.2132 6.95953 12.2492 7.06443 12.2492 7.17243C12.2492 7.28043 12.2132 7.38534 12.1467 7.47048C12.0803 7.55563 11.9873 7.61614 11.8825 7.64239L11.1955 7.81439L11.024 8.5014C10.9978 8.60617 10.9373 8.69917 10.8521 8.76562C10.767 8.83207 10.662 8.86816 10.554 8.86817Z" fill="#28385C"/>
</g>
<defs>
<clipPath id="clip0_4967_30038">
<rect width="11.6279" height="11.6279" fill="white" transform="translate(0.622192 5.47662)"/>
</clipPath>
</defs>
</svg>
