<svg width="130" height="40" viewBox="0 0 150 70" fill="none" xmlns="http://www.w3.org/2000/svg">
<path d="M93.124 34.0166C94.0958 32.7614 94.9405 31.3991 95.6427 29.9412C95.7521 29.7136 95.6566 29.4404 95.429 29.331C95.2022 29.2219 94.9285 29.3174 94.8188 29.5444C93.8868 31.4809 92.6946 33.2426 91.2752 34.7943C89.0042 35.6883 86.6577 36.3986 84.2584 36.912C90.3014 33.6187 94.4113 27.2077 94.4113 19.8545C94.4113 12.5015 90.3014 6.09044 84.2584 2.79719C86.6506 3.309 88.9902 4.01677 91.255 4.9071C92.531 6.29384 93.6351 7.82691 94.5215 9.49038C94.604 9.64484 94.762 9.73257 94.9255 9.73257C94.9978 9.73257 95.0714 9.71529 95.14 9.67871C95.3629 9.55999 95.4473 9.28325 95.3285 9.06054C94.6941 7.87026 93.9462 6.74858 93.1167 5.68922C100.046 8.78092 106.179 13.621 110.804 19.8545C106.181 26.086 100.05 30.9249 93.124 34.0166ZM58.7224 34.7933C57.3365 33.2831 56.1679 31.596 55.2476 29.7669C55.1343 29.5412 54.8601 29.4504 54.634 29.5637C54.4084 29.6773 54.3175 29.952 54.431 30.1775C55.1135 31.5342 55.9276 32.8156 56.8603 34.0095C49.9402 30.9172 43.8153 26.0813 39.1965 19.8545C43.823 13.6176 49.9605 8.77567 56.8945 5.68431C56.0565 6.75993 55.3022 7.90295 54.6635 9.12033C54.5463 9.34371 54.6325 9.62011 54.8561 9.73748C54.9236 9.77288 54.9965 9.78964 55.0678 9.78964C55.2324 9.78964 55.3913 9.70056 55.4731 9.54475C56.3603 7.85333 57.4675 6.3018 58.748 4.90609C61.0115 4.01626 63.3501 3.30883 65.7413 2.79736C59.6983 6.09061 55.5886 12.5016 55.5886 19.8545C55.5886 27.2075 59.6983 33.6186 65.7413 36.9118C63.3411 36.3983 60.9941 35.6878 58.7224 34.7933ZM87.7315 12.1948C87.8109 12.3631 87.9758 12.4581 88.1461 12.4581C88.2236 12.4581 88.3022 12.4385 88.374 12.397L90.0104 11.424C90.4067 11.1882 90.9228 11.3358 91.129 11.7481C92.1257 13.7398 92.7663 15.9607 92.9675 18.2239C93.0088 18.6883 92.6387 19.0875 92.1726 19.0875H88.94C88.6873 19.0875 88.4829 19.383 88.4829 19.6353C88.4829 19.8879 88.6873 20.1834 88.94 20.1834H92.2062C92.6643 20.1834 93.031 20.5694 93.0027 21.0267C92.8623 23.2932 92.2797 25.529 91.337 27.5439C91.1389 27.9673 90.6159 28.1253 90.213 27.8882L88.6027 26.9415C88.3844 26.8153 88.1044 26.8776 87.9782 27.0963C87.8519 27.3149 87.9269 27.5881 88.1456 27.7144L89.7833 28.6576C90.1803 28.8864 90.3053 29.4042 90.0522 29.7862C88.7947 31.686 87.1871 33.333 85.3223 34.6385C84.9407 34.9057 84.4106 34.7848 84.1777 34.3812L83.2493 32.7724C83.1224 32.5536 82.8427 32.4786 82.6249 32.6046C82.406 32.7309 82.331 33.0102 82.4574 33.2289L83.4305 34.8652C83.6661 35.2615 83.5186 35.7778 83.1064 35.984C81.1147 36.9806 78.8938 37.6211 76.6308 37.8223C76.1664 37.8636 75.767 37.4936 75.767 37.0273V33.7947C75.767 33.5422 75.4718 33.3376 75.2192 33.3376C74.9668 33.3376 74.6713 33.5422 74.6713 33.7947V37.061C74.6713 37.5191 74.2851 37.8858 73.828 37.8575C71.5613 37.7171 69.3255 37.1345 67.3106 36.1917C66.8872 35.9937 66.7294 35.4705 66.9663 35.0676L67.9132 33.4572C68.0392 33.2385 67.9771 32.9591 67.7582 32.8327C67.5389 32.706 67.2664 32.7816 67.1402 33.0002L66.1967 34.638C65.9681 35.0349 65.4503 35.1599 65.0683 34.9069C63.1685 33.6494 61.5217 32.0418 60.2162 30.1771C59.949 29.7956 60.0699 29.2654 60.4733 29.0326L62.0612 28.1162C62.2682 27.9968 62.37 27.7388 62.2712 27.5212C62.1576 27.2705 61.8577 27.1781 61.6256 27.3122L59.9893 28.2853C59.5931 28.5209 59.0769 28.3734 58.8706 27.9612C57.8739 25.9693 57.2334 23.7485 57.0322 21.4853C56.991 21.0209 57.3609 20.6217 57.8272 20.6217H61.06C61.3123 20.6217 61.5169 20.3262 61.5169 20.0738C61.5169 19.8213 61.3123 19.5258 61.06 19.5258H57.7935C57.3354 19.5258 56.9687 19.1398 56.9971 18.6825C57.1374 16.4158 57.7201 14.1802 58.6628 12.1653C58.861 11.7417 59.384 11.5839 59.7869 11.8208L61.3973 12.7677C61.4695 12.8092 61.5481 12.8414 61.6255 12.8414C61.7918 12.8414 61.9532 12.7577 62.0346 12.5955C62.1449 12.3758 62.0431 12.1067 61.8302 11.9839L60.216 11.0531C59.8192 10.8243 59.6946 10.3067 59.9474 9.9248C61.2049 8.02472 62.8127 6.37717 64.6775 5.07155C65.0591 4.8043 65.5892 4.92523 65.8221 5.32865L66.7505 6.93708C66.8354 7.08374 66.9888 7.16589 67.1468 7.16589C67.2242 7.16589 67.3028 7.14624 67.375 7.10475C67.5936 6.97857 67.6685 6.69912 67.5423 6.48048L66.5693 4.84393C66.3336 4.44779 66.4811 3.93158 66.8935 3.7253C68.8852 2.7286 71.106 2.08807 73.3692 1.88687C73.8336 1.84554 74.2328 2.2156 74.2328 2.68169V5.91447C74.2328 6.16699 74.5283 6.37158 74.7808 6.37158C75.0332 6.37158 75.3287 6.16699 75.3287 5.91447V2.64815C75.3287 2.19003 75.7147 1.82336 76.172 1.85164C78.4387 1.99204 80.6745 2.57465 82.6896 3.51749C83.113 3.71564 83.2708 4.23863 83.0339 4.64154L82.087 6.25201C81.9606 6.47065 82.0231 6.7501 82.2419 6.87645C82.3137 6.91794 82.3861 6.93758 82.4636 6.93758C82.6216 6.93758 82.772 6.85561 82.8569 6.70895L83.8016 5.07071C84.0304 4.67389 84.548 4.54924 84.9299 4.8021C86.8298 6.05978 88.4773 7.66737 89.7829 9.53222C90.05 9.91379 89.9293 10.4439 89.5257 10.6768L87.9399 11.5922C87.7303 11.7131 87.628 11.9759 87.7315 12.1948ZM112.209 19.4524C103.585 7.54949 89.6752 0.443058 75 0.443058C60.3248 0.443058 46.4149 7.54949 37.7911 19.4524L37.5 19.8545L37.7911 20.2567C46.4149 32.1597 60.3248 39.2661 75 39.2661C89.6752 39.2661 103.585 32.1597 112.209 20.2567L112.5 19.8545L112.209 19.4524Z" fill="#28385C"/>
<path d="M53.8739 26.3622C53.7995 26.1207 53.5428 25.9845 53.3026 26.0601C53.0613 26.1344 52.9261 26.3901 53.0003 26.6313C53.1869 27.2375 53.4031 27.8448 53.6422 28.436C53.7143 28.614 53.8856 28.7219 54.0663 28.7219C54.1232 28.7219 54.1811 28.7111 54.2375 28.6886C54.4716 28.5937 54.5845 28.3271 54.4899 28.0933C54.2602 27.5259 54.0531 26.9436 53.8739 26.3622Z" fill="#28385C"/>
<path d="M53.1419 25.468C53.3877 25.4105 53.5403 25.1645 53.4827 24.9188C52.4924 20.6905 52.8098 16.0952 54.3762 11.9795C54.4812 11.7033 54.3016 11.3888 53.982 11.36C53.7694 11.3409 53.5723 11.4794 53.4971 11.6791C52.6914 13.8173 52.2091 16.1607 52.0567 18.3458C52.0274 18.7643 51.6795 19.0875 51.26 19.0875H49.7218C49.4695 19.0875 49.2649 19.383 49.2649 19.6355C49.2649 19.8879 49.4695 20.1834 49.7218 20.1834H51.2237C51.6548 20.1834 52.0047 20.525 52.0233 20.9557C52.0816 22.3064 52.2706 23.8022 52.5927 25.1774C52.642 25.3881 52.83 25.5051 53.0373 25.5051C53.0718 25.5051 53.1069 25.4763 53.1419 25.468Z" fill="#65ACE0"/>
<path d="M96.3064 12.896C96.3561 12.896 96.4064 12.8877 96.4555 12.8708C96.6943 12.7883 96.8211 12.528 96.7385 12.2893C96.5229 11.6661 96.2753 11.042 96.0021 10.4341C95.8981 10.204 95.6276 10.1012 95.3977 10.2048C95.1673 10.3083 95.0647 10.5788 95.1683 10.8091C95.4303 11.3919 95.6681 11.9904 95.8744 12.5881C95.9399 12.7771 96.1168 12.896 96.3064 12.896Z" fill="#65ACE0"/>
<path d="M74.7871 18.9065C74.2604 18.9516 73.8699 19.4149 73.9149 19.9417C73.96 20.4684 74.4233 20.8588 74.9501 20.8139C75.4768 20.7688 75.8673 20.3054 75.8223 19.7787C75.7772 19.252 75.3138 18.8615 74.7871 18.9065Z" fill="#28385C"/>
<path d="M75.0705 22.2228C73.7652 22.3382 72.617 21.3647 72.5059 20.0621C72.3944 18.7592 73.364 17.6086 74.6668 17.4975C74.7357 17.4914 74.8044 17.4885 74.8729 17.4885C75.4302 17.4885 75.9649 17.6831 76.3966 18.0467C76.8813 18.4549 77.1777 19.0273 77.2317 19.6582C77.2858 20.2896 77.0902 20.9039 76.6822 21.3882C76.2738 21.8728 75.7017 22.169 75.0705 22.2228ZM77.2783 22.7594C77.1444 22.5211 77.1725 22.2247 77.3488 22.0157C77.867 21.4018 78.1759 20.6247 78.1554 19.8216C78.1309 18.8527 77.7685 17.9646 77.0358 17.3478C76.7633 17.1181 76.4161 16.9374 76.0852 16.8088C75.6292 16.6315 75.3288 16.1941 75.3288 15.7049V8.65677C75.3288 8.40442 75.0333 8.19983 74.7807 8.19983C74.5284 8.19983 74.2329 8.40442 74.2329 8.65677V15.7652C74.2329 16.2376 73.9478 16.6549 73.5183 16.8519C72.3214 17.4008 71.4313 18.7025 71.5541 20.1399C71.7002 21.8504 73.1594 23.1459 74.8458 23.1459C74.9389 23.1459 75.0434 23.1418 75.1379 23.1338C75.3469 23.1159 75.5522 23.078 75.7508 23.0219C76.0625 22.9338 76.3939 23.061 76.5526 23.3432L79.2068 28.0582C79.2909 28.2074 79.4473 28.2913 79.6072 28.2913C79.6831 28.2913 79.7605 28.2725 79.8315 28.2325C80.0515 28.1089 80.1299 27.8303 80.0062 27.6101L77.2783 22.7594Z" fill="#28385C"/>
<path d="M101.092 19.0875H98.729C98.3057 19.0875 97.955 18.7581 97.9316 18.3356C97.849 16.8377 97.6205 15.3553 97.2415 13.9061C97.1764 13.6586 96.9215 13.5331 96.6746 13.6024C96.429 13.6713 96.2969 13.9386 96.3613 14.1853C97.4449 18.3413 97.2559 22.9226 95.8292 27.0782C95.7475 27.317 95.8747 27.5795 96.113 27.6615C96.1626 27.6784 96.2126 27.6877 96.2617 27.6877C96.4514 27.6877 96.6291 27.6192 96.6943 27.4296C97.4166 25.3248 97.8312 23.1107 97.9384 20.9388C97.9594 20.5147 98.3113 20.1835 98.7359 20.1835H101.092C101.345 20.1835 101.55 19.8879 101.55 19.6354C101.55 19.3831 101.345 19.0875 101.092 19.0875Z" fill="#28385C"/>
<path d="M103.453 19.6355C103.453 19.8878 103.658 20.1833 103.91 20.1833H106.765C107.018 20.1833 107.222 19.8878 107.222 19.6355C107.222 19.3831 107.018 19.0876 106.765 19.0876H103.91C103.658 19.0876 103.453 19.3831 103.453 19.6355Z" fill="#65ACE0"/>
<path d="M47.9029 19.0874H42.3207C42.0684 19.0874 41.8638 19.3829 41.8638 19.6353C41.8638 19.8878 42.0684 20.1833 42.3207 20.1833H47.9029C48.1552 20.1833 48.36 19.8878 48.36 19.6353C48.36 19.3829 48.1552 19.0874 47.9029 19.0874Z" fill="#28385C"/>
<path d="M0 54.4785V69.3447H4.45986C8.66487 69.3447 12.1053 66.1166 12.1053 61.9116C12.1053 57.7066 8.66487 54.4785 4.45986 54.4785H0ZM1.69899 67.7519V56.0713H4.45986C7.92156 56.0713 10.4063 58.3437 10.4063 61.9116C10.4063 65.4795 7.92156 67.7519 4.45986 67.7519H1.69899ZM17.3935 54.4785V69.3447H27.7998V67.7519H19.0925V62.6974H25.6761V61.1046H19.0925V56.0713H27.7998V54.4785H17.3935ZM33.0879 60.8497V62.3363H40.1388V60.8497H33.0879ZM45.4269 69.3447H47.1259V62.6974H53.7095V61.1046H47.1259V56.0713H55.8332V54.4785H45.4269V69.3447ZM67.0678 54.4785L61.1213 69.3447H62.9053L64.3707 65.6706H72.0586L73.524 69.3447H75.3079L69.3615 54.4785H67.0678ZM65.0078 64.0778L68.2146 56.0713L71.4215 64.0778H65.0078ZM86.2452 69.5571C89.3034 69.5571 91.8519 67.0086 91.8519 63.9079V54.4785H90.1529V64.0141C90.1529 66.1803 88.369 67.9643 86.2452 67.9643C84.079 67.9643 82.2951 66.1803 82.2951 64.0141V54.4785H80.5961V63.9079C80.5961 67.0086 83.1446 69.5571 86.2452 69.5571ZM104.785 69.5571C107.929 69.5571 110.668 67.6245 111.815 64.8848H110.052C109.097 66.7962 107.185 67.9643 104.785 67.9643C101.324 67.9643 98.839 65.4795 98.839 61.9116C98.839 58.3437 101.324 55.8589 104.785 55.8589C106.697 55.8589 108.311 56.6235 109.373 57.8977L110.626 56.9845C109.224 55.328 107.122 54.2661 104.785 54.2661C100.58 54.2661 97.14 57.7066 97.14 61.9116C97.14 66.1166 100.58 69.5571 104.785 69.5571ZM124.749 67.9643C121.287 67.9643 118.802 65.4795 118.802 61.9116C118.802 58.3437 121.287 55.8589 124.749 55.8589C128.21 55.8589 130.695 58.3437 130.695 61.9116C130.695 65.4795 128.21 67.9643 124.749 67.9643ZM117.103 61.9116C117.103 66.1166 120.544 69.5571 124.749 69.5571C128.954 69.5571 132.394 66.1166 132.394 61.9116C132.394 57.7066 128.954 54.2661 124.749 54.2661C120.544 54.2661 117.103 57.7066 117.103 61.9116ZM137.682 54.4785V69.3447H139.381V56.1987L147.452 69.3447H150V54.4785H148.301V67.6245L140.231 54.4785H137.682Z" fill="#1B4868"/>
</svg>
