<svg width="88" height="80" viewBox="0 0 88 80" fill="none" xmlns="http://www.w3.org/2000/svg">
<rect x="3" y="67.381" width="27.6017" height="14.2205" rx="7.11026" transform="rotate(-44.6011 3 67.381)" fill="#1A87D7"/>
<circle cx="48" cy="40" r="39" fill="white" stroke="#1A87D7" stroke-width="2"/>
<g clip-path="url(#clip0_3150_1436)">
<path fill-rule="evenodd" clip-rule="evenodd" d="M39.75 37.25C40.4793 37.25 41.1788 37.5397 41.6945 38.0555C42.2103 38.5712 42.5 39.2707 42.5 40C42.5 40.7293 42.2103 41.4288 41.6945 41.9445C41.1788 42.4603 40.4793 42.75 39.75 42.75C39.0207 42.75 38.3212 42.4603 37.8055 41.9445C37.2897 41.4288 37 40.7293 37 40C37 39.2707 37.2897 38.5712 37.8055 38.0555C38.3212 37.5397 39.0207 37.25 39.75 37.25ZM56.25 37.25C56.9793 37.25 57.6788 37.5397 58.1945 38.0555C58.7103 38.5712 59 39.2707 59 40C59 40.7293 58.7103 41.4288 58.1945 41.9445C57.6788 42.4603 56.9793 42.75 56.25 42.75C55.5207 42.75 54.8212 42.4603 54.3055 41.9445C53.7897 41.4288 53.5 40.7293 53.5 40C53.5 39.2707 53.7897 38.5712 54.3055 38.0555C54.8212 37.5397 55.5207 37.25 56.25 37.25ZM48.2486 37.25C48.9779 37.25 49.6774 37.5397 50.1931 38.0555C50.7089 38.5712 50.9986 39.2707 50.9986 40C50.9986 40.7293 50.7089 41.4288 50.1931 41.9445C49.6774 42.4603 48.9779 42.75 48.2486 42.75C47.5193 42.75 46.8198 42.4603 46.3041 41.9445C45.7883 41.4288 45.4986 40.7293 45.4986 40C45.4986 39.2707 45.7883 38.5712 46.3041 38.0555C46.8198 37.5397 47.5193 37.25 48.2486 37.25Z" fill="#1A87D7"/>
</g>
<path fill-rule="evenodd" clip-rule="evenodd" d="M57 14.7221C57 12.7293 55.7118 10.9317 53.7556 10.5516C51.8928 10.1896 49.9686 10 48 10C31.4315 10 18 23.4315 18 40C18 56.5685 31.4315 70 48 70C64.5685 70 78 56.5685 78 40C78 37.7035 76.0205 36 73.724 36H71.6266C69.5457 36 68 37.9191 68 40C68 51.0457 59.0457 60 48 60C36.9543 60 28 51.0457 28 40C28 28.9543 36.9543 20 48 20C48.6475 20 49.2877 20.0308 49.9195 20.0909C53.3028 20.4131 57 18.1208 57 14.7221Z" fill="#D9D9D9"/>
<defs>
<clipPath id="clip0_3150_1436">
<rect width="22" height="22" fill="white" transform="translate(37 29)"/>
</clipPath>
</defs>
</svg>
