<svg width="76" height="68" viewBox="0 0 76 68" fill="none" xmlns="http://www.w3.org/2000/svg">
<rect x="0.00976562" y="0.635498" width="75.8224" height="67.1215" rx="16.8066" fill="#D3DEF1" fill-opacity="0.32"/>
<g clip-path="url(#clip0_6264_54257)">
<path d="M31.714 35.2813C31.5186 34.9575 31.6252 34.538 31.949 34.344L37.0827 31.264V24.1353C37.0827 23.7582 37.3888 23.4521 37.7659 23.4521C38.1431 23.4521 38.4492 23.7582 38.4492 24.1353V31.6507C38.4492 31.8912 38.3235 32.1126 38.1171 32.2369L32.6514 35.5164C32.5421 35.582 32.4204 35.6134 32.3002 35.6134C32.0693 35.6134 31.8424 35.4959 31.714 35.2813ZM51.4303 32.3339V44.6319C51.4303 48.022 48.6715 50.7808 45.2814 50.7808H30.2505C26.8604 50.7808 24.1016 48.022 24.1016 44.6319V32.3339C24.1016 32.2615 24.1125 30.7871 24.1344 30.7215C24.6126 23.6188 30.5443 17.9863 37.7659 17.9863C44.9876 17.9863 50.9193 23.6188 51.3975 30.7215C51.418 30.7871 51.4303 32.2615 51.4303 32.3339ZM25.468 31.6507C25.468 38.431 30.9843 43.9487 37.7659 43.9487C44.5476 43.9487 50.0639 38.431 50.0639 31.6507C50.0639 24.8704 44.5476 19.3528 37.7659 19.3528C30.9843 19.3528 25.468 24.8704 25.468 31.6507ZM50.0639 37.6029C47.8475 42.1641 43.1675 45.3151 37.7659 45.3151C32.3644 45.3151 27.6844 42.1641 25.468 37.6029V44.6319C25.468 47.2691 27.6133 49.4144 30.2505 49.4144H45.2814C47.9186 49.4144 50.0639 47.2691 50.0639 44.6319V37.6029Z" fill="#28385C"/>
</g>
<defs>
<clipPath id="clip0_6264_54257">
<rect width="32.7945" height="32.7945" fill="white" transform="translate(21.3691 17.9863)"/>
</clipPath>
</defs>
</svg>
