<svg width="20" height="20" viewBox="0 0 20 20" fill="none" xmlns="http://www.w3.org/2000/svg">
<g clip-path="url(#clip0_2587_2145)">
<path d="M17.334 6.33337H2.66732V4.50004H17.334V6.33337ZM15.5007 0.833374H4.50065V2.66671H15.5007V0.833374ZM19.1673 10V17.3334C19.1673 17.8196 18.9742 18.2859 18.6303 18.6297C18.2865 18.9736 17.8202 19.1667 17.334 19.1667H2.66732C2.18153 19.1653 1.71606 18.9716 1.37256 18.6281C1.02906 18.2846 0.835435 17.8192 0.833984 17.3334V10C0.835435 9.51426 1.02906 9.04878 1.37256 8.70528C1.71606 8.36178 2.18153 8.16816 2.66732 8.16671H17.334C17.8198 8.16816 18.2852 8.36178 18.6287 8.70528C18.9722 9.04878 19.1659 9.51426 19.1673 10ZM11.7671 14.6219L13.8965 12.8014L11.0924 12.5667L10.0007 10L8.9089 12.5667L6.10482 12.8014L8.23423 14.6219L7.59257 17.3334L10.0007 15.8924L12.4087 17.3334L11.7671 14.6219Z" fill="#5A6376"/>
</g>
<defs>
<clipPath id="clip0_2587_2145">
<rect width="20" height="20" fill="white"/>
</clipPath>
</defs>
</svg>
