<svg width="492" height="105" viewBox="0 0 602 105" fill="none" xmlns="http://www.w3.org/2000/svg">
<rect x="1" y="1" width="600" height="103" rx="6" fill="#1A87D7" fill-opacity="0.06"/>
<rect x="1" y="1" width="600" height="103" rx="6" stroke="#1A87D7" stroke-dasharray="6 6"/>
<path d="M245.236 48.6534V47.8182H252.619V48.6534H249.392V58H248.462V48.6534H245.236ZM255.621 58.174C255.161 58.174 254.74 58.0845 254.359 57.9055C253.978 57.7232 253.674 57.4614 253.449 57.12C253.223 56.7753 253.111 56.3577 253.111 55.8672C253.111 55.4893 253.182 55.1712 253.325 54.9126C253.467 54.6541 253.669 54.442 253.931 54.2763C254.193 54.1106 254.503 53.9796 254.861 53.8835C255.219 53.7874 255.613 53.7128 256.044 53.6598C256.472 53.6068 256.833 53.5604 257.128 53.5206C257.426 53.4808 257.653 53.4179 257.809 53.3317C257.965 53.2455 258.043 53.1063 258.043 52.9141V52.7351C258.043 52.2147 257.887 51.8054 257.575 51.5071C257.267 51.2055 256.823 51.0547 256.243 51.0547C255.693 51.0547 255.244 51.1757 254.896 51.4176C254.551 51.6596 254.309 51.9446 254.17 52.2727L253.33 51.9695C253.502 51.5518 253.741 51.2187 254.045 50.9702C254.35 50.7183 254.692 50.5376 255.07 50.4283C255.447 50.3156 255.83 50.2592 256.218 50.2592C256.51 50.2592 256.813 50.2973 257.128 50.3736C257.446 50.4498 257.741 50.5824 258.013 50.7713C258.285 50.9569 258.505 51.2171 258.674 51.5518C258.843 51.8833 258.928 52.3042 258.928 52.8146V58H258.043V56.7919H257.988C257.882 57.0173 257.724 57.236 257.516 57.4482C257.307 57.6603 257.045 57.8343 256.73 57.9702C256.415 58.1061 256.046 58.174 255.621 58.174ZM255.741 57.3636C256.211 57.3636 256.619 57.2592 256.964 57.0504C257.308 56.8416 257.574 56.5649 257.759 56.2202C257.948 55.8722 258.043 55.4893 258.043 55.0717V53.968C257.976 54.031 257.865 54.0874 257.71 54.1371C257.557 54.1868 257.38 54.2315 257.178 54.2713C256.979 54.3078 256.78 54.3393 256.581 54.3658C256.382 54.3923 256.203 54.4155 256.044 54.4354C255.613 54.4884 255.245 54.5713 254.94 54.6839C254.635 54.7966 254.402 54.9524 254.239 55.1513C254.077 55.3468 253.996 55.5987 253.996 55.907C253.996 56.371 254.161 56.7306 254.493 56.9858C254.824 57.2377 255.24 57.3636 255.741 57.3636ZM262.087 55.1165L262.077 53.9581H262.276L265.855 50.3636H266.974L263.439 53.9034L263.36 53.9183L262.087 55.1165ZM261.282 58V47.8182H262.167V58H261.282ZM266.039 58L262.937 54.0774L263.574 53.4659L267.173 58H266.039ZM271.41 58.1591C270.697 58.1591 270.081 57.9934 269.561 57.6619C269.04 57.3272 268.637 56.8648 268.352 56.2749C268.071 55.6816 267.93 54.9988 267.93 54.2266C267.93 53.4576 268.071 52.7749 268.352 52.1783C268.637 51.5784 269.03 51.1094 269.531 50.7713C270.035 50.4299 270.616 50.2592 271.276 50.2592C271.69 50.2592 272.089 50.3355 272.474 50.4879C272.858 50.6371 273.203 50.8674 273.508 51.179C273.816 51.4872 274.06 51.8767 274.239 52.3473C274.418 52.8146 274.507 53.3681 274.507 54.0078V54.4453H268.541V53.6648H273.602C273.602 53.1742 273.503 52.7334 273.304 52.3423C273.109 51.9479 272.835 51.6364 272.484 51.4077C272.136 51.179 271.733 51.0646 271.276 51.0646C270.792 51.0646 270.366 51.1939 269.998 51.4524C269.63 51.7109 269.342 52.0523 269.133 52.4766C268.927 52.9008 268.823 53.3648 268.82 53.8686V54.3359C268.82 54.9425 268.924 55.4728 269.133 55.9268C269.345 56.3776 269.645 56.7273 270.033 56.9759C270.421 57.2244 270.88 57.3487 271.41 57.3487C271.771 57.3487 272.088 57.2924 272.36 57.1797C272.635 57.067 272.865 56.9162 273.051 56.7273C273.24 56.535 273.382 56.3246 273.478 56.0959L274.318 56.3693C274.202 56.6908 274.012 56.9875 273.747 57.2592C273.485 57.531 273.157 57.7498 272.762 57.9155C272.371 58.0779 271.92 58.1591 271.41 58.1591ZM282.528 58.174C282.067 58.174 281.646 58.0845 281.265 57.9055C280.884 57.7232 280.58 57.4614 280.355 57.12C280.13 56.7753 280.017 56.3577 280.017 55.8672C280.017 55.4893 280.088 55.1712 280.231 54.9126C280.373 54.6541 280.576 54.442 280.837 54.2763C281.099 54.1106 281.409 53.9796 281.767 53.8835C282.125 53.7874 282.519 53.7128 282.95 53.6598C283.378 53.6068 283.739 53.5604 284.034 53.5206C284.332 53.4808 284.559 53.4179 284.715 53.3317C284.871 53.2455 284.949 53.1063 284.949 52.9141V52.7351C284.949 52.2147 284.793 51.8054 284.482 51.5071C284.173 51.2055 283.729 51.0547 283.149 51.0547C282.599 51.0547 282.15 51.1757 281.802 51.4176C281.457 51.6596 281.215 51.9446 281.076 52.2727L280.236 51.9695C280.408 51.5518 280.647 51.2187 280.952 50.9702C281.257 50.7183 281.598 50.5376 281.976 50.4283C282.354 50.3156 282.737 50.2592 283.124 50.2592C283.416 50.2592 283.719 50.2973 284.034 50.3736C284.352 50.4498 284.647 50.5824 284.919 50.7713C285.191 50.9569 285.411 51.2171 285.58 51.5518C285.749 51.8833 285.834 52.3042 285.834 52.8146V58H284.949V56.7919H284.894C284.788 57.0173 284.631 57.236 284.422 57.4482C284.213 57.6603 283.951 57.8343 283.636 57.9702C283.321 58.1061 282.952 58.174 282.528 58.174ZM282.647 57.3636C283.118 57.3636 283.525 57.2592 283.87 57.0504C284.215 56.8416 284.48 56.5649 284.665 56.2202C284.854 55.8722 284.949 55.4893 284.949 55.0717V53.968C284.883 54.031 284.772 54.0874 284.616 54.1371C284.463 54.1868 284.286 54.2315 284.084 54.2713C283.885 54.3078 283.686 54.3393 283.487 54.3658C283.288 54.3923 283.109 54.4155 282.95 54.4354C282.519 54.4884 282.152 54.5713 281.847 54.6839C281.542 54.7966 281.308 54.9524 281.146 55.1513C280.983 55.3468 280.902 55.5987 280.902 55.907C280.902 56.371 281.068 56.7306 281.399 56.9858C281.731 57.2377 282.147 57.3636 282.647 57.3636ZM292.125 60.8636V50.3636H292.985V51.8203H293.09C293.196 51.5916 293.342 51.358 293.527 51.1193C293.713 50.8774 293.958 50.6735 294.263 50.5078C294.571 50.3421 294.959 50.2592 295.426 50.2592C296.056 50.2592 296.606 50.425 297.077 50.7564C297.551 51.0845 297.919 51.5452 298.181 52.1385C298.446 52.7285 298.578 53.4162 298.578 54.2017C298.578 54.9905 298.446 55.6816 298.181 56.2749C297.919 56.8681 297.551 57.3305 297.077 57.6619C296.606 57.9934 296.06 58.1591 295.436 58.1591C294.976 58.1591 294.59 58.0762 294.278 57.9105C293.97 57.7448 293.72 57.541 293.527 57.299C293.338 57.0537 293.193 56.8151 293.09 56.5831H293.01V60.8636H292.125ZM293 54.1868C293 54.8033 293.092 55.3501 293.274 55.8274C293.459 56.3014 293.725 56.6742 294.069 56.946C294.417 57.2145 294.838 57.3487 295.332 57.3487C295.839 57.3487 296.267 57.2095 296.615 56.9311C296.966 56.6494 297.233 56.2699 297.415 55.7926C297.601 55.3153 297.694 54.7801 297.694 54.1868C297.694 53.6001 297.602 53.0715 297.42 52.6009C297.241 52.1302 296.976 51.7573 296.625 51.4822C296.273 51.2038 295.842 51.0646 295.332 51.0646C294.835 51.0646 294.412 51.1989 294.064 51.4673C293.716 51.7325 293.451 52.1004 293.269 52.571C293.09 53.0384 293 53.5769 293 54.1868ZM301.405 53.2273V58H300.52V47.8182H301.405V51.5618H301.484C301.663 51.1674 301.94 50.8525 302.315 50.6172C302.692 50.3819 303.17 50.2642 303.746 50.2642C304.263 50.2642 304.718 50.3703 305.109 50.5824C305.5 50.7945 305.805 51.1077 306.023 51.522C306.242 51.9363 306.352 52.4467 306.352 53.0533V58H305.462V53.108C305.462 52.4782 305.286 51.9827 304.935 51.6214C304.587 51.2569 304.116 51.0746 303.523 51.0746C303.115 51.0746 302.752 51.1607 302.434 51.3331C302.116 51.5054 301.864 51.754 301.678 52.0788C301.496 52.4003 301.405 52.7831 301.405 53.2273ZM311.65 58.1591C310.99 58.1591 310.407 57.9917 309.9 57.657C309.396 57.3222 309.002 56.8598 308.717 56.2699C308.432 55.6766 308.289 54.9922 308.289 54.2166C308.289 53.4344 308.432 52.7467 308.717 52.1534C309.002 51.5568 309.396 51.0928 309.9 50.7614C310.407 50.4266 310.99 50.2592 311.65 50.2592C312.31 50.2592 312.891 50.4266 313.395 50.7614C313.899 51.0961 314.293 51.5601 314.578 52.1534C314.867 52.7467 315.011 53.4344 315.011 54.2166C315.011 54.9922 314.868 55.6766 314.583 56.2699C314.298 56.8598 313.902 57.3222 313.395 57.657C312.891 57.9917 312.31 58.1591 311.65 58.1591ZM311.65 57.3487C312.18 57.3487 312.629 57.2062 312.997 56.9212C313.365 56.6361 313.644 56.2566 313.833 55.7827C314.025 55.3087 314.121 54.7867 314.121 54.2166C314.121 53.6465 314.025 53.1229 313.833 52.6456C313.644 52.1683 313.365 51.7855 312.997 51.4972C312.629 51.2088 312.18 51.0646 311.65 51.0646C311.123 51.0646 310.674 51.2088 310.303 51.4972C309.935 51.7855 309.655 52.1683 309.463 52.6456C309.274 53.1229 309.179 53.6465 309.179 54.2166C309.179 54.7867 309.274 55.3087 309.463 55.7827C309.655 56.2566 309.935 56.6361 310.303 56.9212C310.671 57.2062 311.12 57.3487 311.65 57.3487ZM319.961 50.3636V51.1342H316.317V50.3636H319.961ZM317.456 48.5341H318.346V56.0064C318.346 56.3246 318.4 56.5748 318.51 56.7571C318.619 56.9361 318.761 57.0637 318.937 57.1399C319.113 57.2128 319.3 57.2493 319.499 57.2493C319.615 57.2493 319.714 57.2427 319.797 57.2294C319.88 57.2128 319.953 57.1963 320.016 57.1797L320.205 57.9801C320.119 58.0133 320.013 58.0431 319.887 58.0696C319.761 58.0994 319.605 58.1143 319.419 58.1143C319.095 58.1143 318.781 58.0431 318.48 57.9006C318.181 57.758 317.936 57.5459 317.744 57.2642C317.552 56.9825 317.456 56.6328 317.456 56.2152V48.5341ZM324.857 58.1591C324.198 58.1591 323.614 57.9917 323.107 57.657C322.603 57.3222 322.209 56.8598 321.924 56.2699C321.639 55.6766 321.496 54.9922 321.496 54.2166C321.496 53.4344 321.639 52.7467 321.924 52.1534C322.209 51.5568 322.603 51.0928 323.107 50.7614C323.614 50.4266 324.198 50.2592 324.857 50.2592C325.517 50.2592 326.098 50.4266 326.602 50.7614C327.106 51.0961 327.5 51.5601 327.785 52.1534C328.074 52.7467 328.218 53.4344 328.218 54.2166C328.218 54.9922 328.075 55.6766 327.79 56.2699C327.505 56.8598 327.109 57.3222 326.602 57.657C326.098 57.9917 325.517 58.1591 324.857 58.1591ZM324.857 57.3487C325.387 57.3487 325.836 57.2062 326.204 56.9212C326.572 56.6361 326.851 56.2566 327.04 55.7827C327.232 55.3087 327.328 54.7867 327.328 54.2166C327.328 53.6465 327.232 53.1229 327.04 52.6456C326.851 52.1683 326.572 51.7855 326.204 51.4972C325.836 51.2088 325.387 51.0646 324.857 51.0646C324.33 51.0646 323.881 51.2088 323.51 51.4972C323.142 51.7855 322.862 52.1683 322.67 52.6456C322.481 53.1229 322.386 53.6465 322.386 54.2166C322.386 54.7867 322.481 55.3087 322.67 55.7827C322.862 56.2566 323.142 56.6361 323.51 56.9212C323.878 57.2062 324.327 57.3487 324.857 57.3487Z" fill="#1A87D7"/>
<path d="M349.5 55C350.605 55 351.5 54.1046 351.5 53C351.5 51.8954 350.605 51 349.5 51C348.395 51 347.5 51.8954 347.5 53C347.5 54.1046 348.395 55 349.5 55Z" fill="#1A87D7"/>
<path d="M355 49H353.156C353.062 49 352.946 48.9394 352.856 48.8438L352.045 47.5644C352.032 47.5441 352.018 47.5247 352.002 47.5066C351.722 47.18 351.344 47 350.938 47H348.062C347.656 47 347.278 47.18 346.998 47.5066C346.982 47.5247 346.968 47.5441 346.955 47.5644L346.144 48.8456C346.075 48.9212 345.977 49.0019 345.875 49.0019V48.7519C345.875 48.6193 345.822 48.4921 345.729 48.3983C345.635 48.3046 345.508 48.2519 345.375 48.2519H344.625C344.492 48.2519 344.365 48.3046 344.271 48.3983C344.178 48.4921 344.125 48.6193 344.125 48.7519V49.0019H344C343.602 49.0023 343.221 49.1605 342.94 49.4417C342.659 49.7229 342.5 50.1042 342.5 50.5019V56.5C342.5 56.8977 342.659 57.279 342.94 57.5602C343.221 57.8414 343.602 57.9996 344 58H355C355.398 57.9996 355.779 57.8414 356.06 57.5602C356.341 57.279 356.5 56.8977 356.5 56.5V50.5C356.5 50.1023 356.341 49.721 356.06 49.4398C355.779 49.1586 355.398 49.0004 355 49ZM349.5 56C348.907 56 348.327 55.8241 347.833 55.4944C347.34 55.1648 346.955 54.6962 346.728 54.1481C346.501 53.5999 346.442 52.9967 346.558 52.4147C346.673 51.8328 346.959 51.2982 347.379 50.8787C347.798 50.4591 348.333 50.1734 348.915 50.0576C349.497 49.9419 350.1 50.0013 350.648 50.2284C351.196 50.4554 351.665 50.8399 351.994 51.3333C352.324 51.8266 352.5 52.4067 352.5 53C352.499 53.7954 352.183 54.5579 351.62 55.1203C351.058 55.6827 350.295 55.9991 349.5 56Z" fill="#1A87D7"/>
</svg>
