<svg width="24" height="24" viewBox="0 0 24 24" fill="none" xmlns="http://www.w3.org/2000/svg">
<g clip-path="url(#clip0_8431_41089)">
<path d="M16.482 12.012C16.482 12.124 16.451 12.401 16.119 12.571C16.07 12.598 11.192 15.298 9.827 15.888C9.68 15.952 9.519 15.955 9.372 15.901C9.227 15.844 9.113 15.736 9.051 15.594C8.983 15.44 8.985 15.267 9.015 15.195C9.19 14.898 10.237 12.862 10.445 12.458C10.592 12.171 10.592 11.832 10.445 11.545C10.445 11.545 9.075 8.868 9.022 8.769C8.977 8.661 8.995 8.416 9.17 8.242C9.291 8.124 9.443 8.062 9.595 8.062C9.664 8.062 9.734 8.075 9.799 8.102C10.271 8.352 16.126 11.462 16.146 11.473C16.448 11.624 16.482 11.902 16.482 12.014V12.012ZM24 12C24 18.617 18.617 24 12 24C5.383 24 0 18.617 0 12C0 5.383 5.383 0 12 0C18.617 0 24 5.383 24 12ZM18.482 12.005C18.479 11.016 17.927 10.126 17.063 9.693C11.961 6.983 10.907 6.423 10.648 6.294L10.65 6.29C9.68 5.846 8.551 6.049 7.767 6.815C7.038 7.54 6.8 8.632 7.205 9.602C7.268 9.727 8.034 11.224 8.43 11.998C7.95 12.93 7.376 14.034 7.251 14.253C6.927 14.93 6.916 15.713 7.22 16.4C7.499 17.032 8.008 17.516 8.652 17.765C8.955 17.881 9.27 17.939 9.585 17.939C9.94 17.939 10.295 17.865 10.627 17.718C12.074 17.092 16.883 14.432 17.056 14.335C17.939 13.886 18.485 12.993 18.482 12.003V12.005Z" fill="#1A87D7"/>
</g>
<defs>
<clipPath id="clip0_8431_41089">
<rect width="24" height="24" fill="white"/>
</clipPath>
</defs>
</svg>
