<svg width="21" height="21" viewBox="0 0 21 21" fill="none" xmlns="http://www.w3.org/2000/svg">
<g clip-path="url(#clip0_5015_30075)">
<path d="M6.33333 13.4167C6.33333 13.8083 6.37333 14.19 6.435 14.565C3.075 14.0133 0.5 11.0975 0.5 7.58333C0.5 3.6775 3.6775 0.5 7.58333 0.5C11.0975 0.5 14.0133 3.075 14.565 6.435C14.19 6.37333 13.8083 6.33333 13.4167 6.33333C9.51083 6.33333 6.33333 9.51083 6.33333 13.4167ZM14.565 6.435C14.6267 6.81 14.6667 7.19167 14.6667 7.58333C14.6667 11.4892 11.4892 14.6667 7.58333 14.6667C7.19167 14.6667 6.81 14.6267 6.435 14.565C6.98667 17.925 9.9025 20.5 13.4167 20.5C17.3225 20.5 20.5 17.3225 20.5 13.4167C20.5 9.9025 17.925 6.98667 14.565 6.435Z" fill="white"/>
</g>
<defs>
<clipPath id="clip0_5015_30075">
<rect width="20" height="20" fill="white" transform="translate(0.5 0.5)"/>
</clipPath>
</defs>
</svg>
