<svg width="22" height="22" viewBox="0 0 22 22" fill="none" xmlns="http://www.w3.org/2000/svg">
<path d="M22 13.3834C22 13.9334 20.9 14.3001 19.6167 14.4834C18.7917 12.9251 17.1417 11.7334 15.2167 10.9084C15.4 10.6334 15.5833 10.4501 15.7667 10.1751H16.5C19.3417 10.0834 22 11.8251 22 13.3834ZM6.23333 10.0834H5.5C2.65833 10.0834 0 11.8251 0 13.3834C0 13.9334 1.1 14.3001 2.38333 14.4834C3.20833 12.9251 4.85833 11.7334 6.78333 10.9084L6.23333 10.0834ZM11 11.0001C13.0167 11.0001 14.6667 9.35008 14.6667 7.33341C14.6667 5.31675 13.0167 3.66675 11 3.66675C8.98333 3.66675 7.33333 5.31675 7.33333 7.33341C7.33333 9.35008 8.98333 11.0001 11 11.0001ZM11 11.9167C7.24167 11.9167 3.66667 14.3001 3.66667 16.5001C3.66667 18.3334 11 18.3334 11 18.3334C11 18.3334 18.3333 18.3334 18.3333 16.5001C18.3333 14.3001 14.7583 11.9167 11 11.9167ZM16.225 9.16675H16.5C18.0583 9.16675 19.25 7.97508 19.25 6.41675C19.25 4.85841 18.0583 3.66675 16.5 3.66675C16.0417 3.66675 15.675 3.75841 15.3083 3.94175C16.0417 4.85841 16.5 6.05008 16.5 7.33341C16.5 7.97508 16.4083 8.61675 16.225 9.16675ZM5.5 9.16675H5.775C5.59167 8.61675 5.5 7.97508 5.5 7.33341C5.5 6.05008 5.95833 4.85841 6.69167 3.94175C6.325 3.75841 5.95833 3.66675 5.5 3.66675C3.94167 3.66675 2.75 4.85841 2.75 6.41675C2.75 7.97508 3.94167 9.16675 5.5 9.16675Z" fill="#5A6376"/>
</svg>
