<svg width="16" height="16" viewBox="0 0 16 16" fill="none" xmlns="http://www.w3.org/2000/svg">
<path d="M8.00002 2.66675C11.5027 2.66675 12.992 4.96675 13.6027 6.54608C13.828 7.12941 13.9407 7.42075 13.742 7.71008C13.5434 8.00008 13.192 8.00008 12.4894 8.00008H3.51069C2.80802 8.00008 2.45736 8.00008 2.25803 7.71075C2.05936 7.42075 2.17202 7.12941 2.39802 6.54608C3.00736 4.96675 4.49736 2.66675 8.00002 2.66675Z" fill="#1A87D7" fill-opacity="0.25"/>
<path d="M8.00016 10.0001C9.47292 10.0001 10.6668 8.80617 10.6668 7.33341C10.6668 5.86066 9.47292 4.66675 8.00016 4.66675C6.5274 4.66675 5.3335 5.86066 5.3335 7.33341C5.3335 8.80617 6.5274 10.0001 8.00016 10.0001Z" fill="#1A87D7"/>
</svg>
