<svg width="60" height="54" viewBox="0 0 70 64" fill="none" xmlns="http://www.w3.org/2000/svg">
<rect y="0.869141" width="70" height="63" rx="8" fill="white"/>
<path d="M45.989 34.773C46.5782 34.012 47.0905 33.1859 47.5162 32.3019C47.5826 32.1639 47.5246 31.9983 47.3866 31.9319C47.2491 31.8658 47.0832 31.9237 47.0166 32.0613C46.4515 33.2355 45.7287 34.3037 44.868 35.2446C43.491 35.7867 42.0682 36.2174 40.6134 36.5286C44.2775 34.5318 46.7695 30.6445 46.7695 26.1859C46.7695 21.7275 44.2775 17.8402 40.6134 15.8433C42.0639 16.1537 43.4825 16.5828 44.8558 17.1227C45.6295 17.9635 46.2989 18.8931 46.8364 19.9017C46.8864 19.9954 46.9822 20.0486 47.0813 20.0486C47.1252 20.0486 47.1698 20.0381 47.2114 20.0159C47.3466 19.9439 47.3977 19.7761 47.3257 19.6411C46.941 18.9194 46.4875 18.2392 45.9846 17.5969C50.1862 19.4715 53.9051 22.4063 56.7089 26.1859C53.9061 29.9644 50.1888 32.8984 45.989 34.773ZM25.1298 35.244C24.2895 34.3283 23.5809 33.3053 23.0229 32.1963C22.9542 32.0594 22.7879 32.0043 22.6508 32.073C22.5141 32.142 22.4589 32.3085 22.5277 32.4452C22.9416 33.2679 23.4352 34.0448 24.0007 34.7687C19.8047 32.8938 16.091 29.9615 13.2904 26.1859C16.0956 22.4042 19.8171 19.4684 24.0215 17.5939C23.5133 18.2461 23.056 18.9392 22.6687 19.6773C22.5976 19.8128 22.6499 19.9804 22.7855 20.0515C22.8264 20.073 22.8706 20.0832 22.9138 20.0832C23.0136 20.0832 23.11 20.0292 23.1596 19.9347C23.6976 18.9091 24.3689 17.9683 25.1453 17.1221C26.5178 16.5825 27.9358 16.1536 29.3857 15.8434C25.7215 17.8403 23.2296 21.7276 23.2296 26.1859C23.2296 30.6444 25.7215 34.5317 29.3857 36.5285C27.9303 36.2172 26.5072 35.7864 25.1298 35.244ZM42.7193 21.5415C42.7674 21.6436 42.8675 21.7012 42.9707 21.7012C43.0177 21.7012 43.0653 21.6893 43.1089 21.6641L44.1011 21.0741C44.3414 20.9312 44.6543 21.0206 44.7794 21.2707C45.3837 22.4784 45.7721 23.8249 45.8941 25.1972C45.9191 25.4788 45.6948 25.7208 45.4122 25.7208H43.4521C43.2989 25.7208 43.1749 25.9 43.1749 26.0531C43.1749 26.2062 43.2989 26.3854 43.4521 26.3854H45.4325C45.7103 26.3854 45.9326 26.6194 45.9155 26.8967C45.8303 28.271 45.4771 29.6266 44.9055 30.8483C44.7853 31.1051 44.4682 31.2009 44.2239 31.0571L43.2475 30.4831C43.1152 30.4066 42.9454 30.4444 42.8689 30.5769C42.7923 30.7095 42.8378 30.8751 42.9704 30.9518L43.9634 31.5236C44.2041 31.6624 44.2799 31.9763 44.1265 32.208C43.364 33.3599 42.3892 34.3586 41.2585 35.1501C41.0271 35.3122 40.7057 35.2388 40.5645 34.9941L40.0015 34.0186C39.9246 33.886 39.755 33.8405 39.6229 33.9169C39.4902 33.9935 39.4447 34.1628 39.5214 34.2954L40.1114 35.2876C40.2543 35.5279 40.1648 35.8409 39.9149 35.966C38.7072 36.5702 37.3606 36.9586 35.9884 37.0806C35.7069 37.1057 35.4647 36.8813 35.4647 36.5986V34.6385C35.4647 34.4854 35.2857 34.3613 35.1325 34.3613C34.9795 34.3613 34.8003 34.4854 34.8003 34.6385V36.619C34.8003 36.8968 34.5662 37.1191 34.289 37.102C32.9146 37.0168 31.5589 36.6636 30.3372 36.0919C30.0805 35.9718 29.9848 35.6546 30.1284 35.4103L30.7026 34.4338C30.779 34.3013 30.7413 34.1318 30.6086 34.0552C30.4756 33.9784 30.3104 34.0242 30.2339 34.1568L29.6618 35.1498C29.5232 35.3905 29.2092 35.4663 28.9776 35.3129C27.8257 34.5504 26.8271 33.5756 26.0356 32.445C25.8735 32.2136 25.9468 31.8922 26.1914 31.751L27.1543 31.1953C27.2798 31.1229 27.3415 30.9665 27.2816 30.8346C27.2127 30.6826 27.0308 30.6265 26.8902 30.7079L25.898 31.2979C25.6578 31.4408 25.3448 31.3513 25.2197 31.1014C24.6153 29.8936 24.227 28.547 24.105 27.1748C24.08 26.8932 24.3043 26.6511 24.587 26.6511H26.5472C26.7002 26.6511 26.8242 26.4719 26.8242 26.3189C26.8242 26.1658 26.7002 25.9866 26.5472 25.9866H24.5666C24.2888 25.9866 24.0664 25.7526 24.0837 25.4753C24.1687 24.1009 24.5221 22.7453 25.0937 21.5236C25.2138 21.2668 25.5309 21.1711 25.7752 21.3148L26.7517 21.8889C26.7955 21.9141 26.8431 21.9336 26.8901 21.9336C26.9909 21.9336 27.0888 21.8828 27.1382 21.7845C27.205 21.6513 27.1433 21.4881 27.0142 21.4136L26.0355 20.8492C25.7949 20.7105 25.7193 20.3967 25.8726 20.1651C26.6351 19.013 27.6099 18.014 28.7407 17.2224C28.972 17.0603 29.2935 17.1337 29.4347 17.3783L29.9976 18.3535C30.0491 18.4425 30.1421 18.4923 30.2379 18.4923C30.2848 18.4923 30.3325 18.4804 30.3762 18.4552C30.5088 18.3787 30.5542 18.2092 30.4777 18.0767L29.8877 17.0844C29.7448 16.8442 29.8342 16.5312 30.0843 16.4061C31.2919 15.8017 32.6385 15.4134 34.0108 15.2914C34.2924 15.2663 34.5344 15.4907 34.5344 15.7733V17.7335C34.5344 17.8866 34.7136 18.0106 34.8667 18.0106C35.0198 18.0106 35.199 17.8866 35.199 17.7335V15.753C35.199 15.4752 35.433 15.2529 35.7103 15.27C37.0847 15.3551 38.4403 15.7084 39.6621 16.2801C39.9189 16.4002 40.0146 16.7173 39.8709 16.9616L39.2968 17.9381C39.2202 18.0707 39.258 18.2402 39.3907 18.3168C39.4343 18.3419 39.4781 18.3538 39.5252 18.3538C39.621 18.3538 39.7122 18.3041 39.7636 18.2152L40.3364 17.2219C40.4752 16.9813 40.789 16.9057 41.0205 17.059C42.1725 17.8216 43.1715 18.7963 43.9632 19.9271C44.1251 20.1584 44.0519 20.4799 43.8072 20.6211L42.8457 21.1761C42.7186 21.2494 42.6565 21.4088 42.7193 21.5415ZM57.5608 25.9421C52.3318 18.7249 43.8979 14.4159 34.9996 14.4159C26.1014 14.4159 17.6672 18.7249 12.4382 25.9421L12.2617 26.1859L12.4382 26.4298C17.6672 33.6471 26.1014 37.9561 34.9996 37.9561C43.8979 37.9561 52.3318 33.6471 57.5608 26.4298L57.7375 26.1859L57.5608 25.9421Z" fill="#28385C"/>
<path d="M22.1885 30.1317C22.1434 29.9853 21.9877 29.9027 21.8421 29.9485C21.6958 29.9936 21.6138 30.1486 21.6588 30.2949C21.772 30.6624 21.903 31.0307 22.048 31.3892C22.0918 31.4971 22.1956 31.5625 22.3052 31.5625C22.3397 31.5625 22.3748 31.5559 22.409 31.5423C22.5509 31.4848 22.6194 31.3231 22.562 31.1813C22.4227 30.8373 22.2971 30.4842 22.1885 30.1317Z" fill="#28385C"/>
<path d="M21.7444 29.5898C21.8934 29.5549 21.9859 29.4058 21.951 29.2568C21.3506 26.693 21.543 23.9066 22.4928 21.4111C22.5565 21.2436 22.4475 21.0529 22.2537 21.0355C22.1248 21.0239 22.0053 21.1079 21.9597 21.229C21.4712 22.5254 21.1787 23.9464 21.0863 25.2713C21.0686 25.5251 20.8576 25.721 20.6033 25.721H19.6706C19.5176 25.721 19.3936 25.9002 19.3936 26.0533C19.3936 26.2063 19.5176 26.3855 19.6706 26.3855H20.5813C20.8426 26.3855 21.0548 26.5927 21.0661 26.8538C21.1014 27.6728 21.216 28.5797 21.4113 29.4136C21.4412 29.5413 21.5552 29.6123 21.6809 29.6123C21.7019 29.6123 21.7231 29.5948 21.7444 29.5898Z" fill="#28385C"/>
<path d="M47.9177 21.9668C47.9478 21.9668 47.9783 21.9618 48.0081 21.9515C48.1529 21.9015 48.2298 21.7436 48.1797 21.599C48.049 21.221 47.8988 20.8426 47.7332 20.4741C47.6701 20.3345 47.5061 20.2722 47.3667 20.335C47.227 20.3978 47.1648 20.5618 47.2276 20.7014C47.3865 21.0548 47.5307 21.4177 47.6557 21.7801C47.6955 21.8947 47.8027 21.9668 47.9177 21.9668Z" fill="#28385C"/>
<path d="M34.8689 25.6109C34.5495 25.6382 34.3127 25.9192 34.34 26.2385C34.3674 26.5579 34.6483 26.7946 34.9677 26.7674C35.2871 26.7401 35.5239 26.4591 35.4965 26.1397C35.4692 25.8204 35.1883 25.5836 34.8689 25.6109Z" fill="#28385C"/>
<path d="M35.0414 27.6222C34.25 27.6921 33.5537 27.1019 33.4863 26.3121C33.4188 25.5221 34.0067 24.8244 34.7966 24.757C34.8384 24.7533 34.8801 24.7516 34.9216 24.7516C35.2595 24.7516 35.5837 24.8696 35.8455 25.09C36.1394 25.3375 36.3191 25.6846 36.3518 26.0671C36.3846 26.45 36.266 26.8224 36.0186 27.1161C35.771 27.4099 35.4241 27.5896 35.0414 27.6222ZM36.3801 27.9475C36.2989 27.803 36.3159 27.6233 36.4228 27.4966C36.737 27.1244 36.9244 26.6532 36.9119 26.1662C36.897 25.5787 36.6773 25.0402 36.233 24.6662C36.0678 24.527 35.8573 24.4174 35.6566 24.3395C35.3802 24.2319 35.198 23.9667 35.198 23.6701V19.3965C35.198 19.2435 35.0188 19.1194 34.8657 19.1194C34.7127 19.1194 34.5335 19.2435 34.5335 19.3965V23.7067C34.5335 23.9931 34.3607 24.2461 34.1002 24.3655C33.3745 24.6984 32.8348 25.4877 32.9092 26.3592C32.9978 27.3964 33.8826 28.1819 34.9051 28.1819C34.9616 28.1819 35.025 28.1794 35.0823 28.1746C35.209 28.1637 35.3335 28.1407 35.4539 28.1067C35.6429 28.0533 35.8438 28.1304 35.9401 28.3015L37.5494 31.1605C37.6004 31.2509 37.6953 31.3018 37.7922 31.3018C37.8382 31.3018 37.8851 31.2904 37.9282 31.2661C38.0616 31.1912 38.1091 31.0222 38.0341 30.8887L36.3801 27.9475Z" fill="#28385C"/>
<path d="M50.8206 25.7209H49.3875C49.1309 25.7209 48.9182 25.5211 48.9041 25.2649C48.8539 24.3567 48.7154 23.4578 48.4856 22.5791C48.4462 22.4291 48.2916 22.353 48.1419 22.395C47.993 22.4368 47.9129 22.5988 47.9519 22.7484C48.6089 25.2684 48.4943 28.0462 47.6292 30.566C47.5797 30.7108 47.6569 30.8699 47.8014 30.9196C47.8314 30.9299 47.8617 30.9355 47.8915 30.9355C48.0065 30.9355 48.1143 30.894 48.1538 30.779C48.5918 29.5028 48.8432 28.1603 48.9082 26.8434C48.9209 26.5862 49.1343 26.3854 49.3917 26.3854H50.8206C50.9738 26.3854 51.0978 26.2062 51.0978 26.0531C51.0978 25.9001 50.9738 25.7209 50.8206 25.7209Z" fill="#28385C"/>
<path d="M52.252 26.0526C52.252 26.2056 52.3759 26.3848 52.5291 26.3848H54.2601C54.4132 26.3848 54.5372 26.2056 54.5372 26.0526C54.5372 25.8995 54.4132 25.7203 54.2601 25.7203H52.5291C52.3759 25.7203 52.252 25.8995 52.252 26.0526Z" fill="#28385C"/>
<path d="M18.569 25.7212H15.1843C15.0313 25.7212 14.9072 25.9004 14.9072 26.0534C14.9072 26.2065 15.0313 26.3857 15.1843 26.3857H18.569C18.722 26.3857 18.8462 26.2065 18.8462 26.0534C18.8462 25.9004 18.722 25.7212 18.569 25.7212Z" fill="#28385C"/>
<path d="M8.8916 45.073V50.2481H10.4441C11.908 50.2481 13.1056 49.1243 13.1056 47.6605C13.1056 46.1967 11.908 45.073 10.4441 45.073H8.8916ZM9.48305 49.6936V45.6274H10.4441C11.6492 45.6274 12.5142 46.4185 12.5142 47.6605C12.5142 48.9026 11.6492 49.6936 10.4441 49.6936H9.48305ZM14.9465 45.073V50.2481H18.5691V49.6936H15.538V47.9341H17.8298V47.3796H15.538V45.6274H18.5691V45.073H14.9465ZM20.41 47.2909V47.8084H22.8645V47.2909H20.41ZM24.7053 50.2481H25.2968V47.9341H27.5886V47.3796H25.2968V45.6274H28.3279V45.073H24.7053V50.2481ZM32.2389 45.073L30.1688 50.2481H30.7898L31.3 48.9691H33.9762L34.4864 50.2481H35.1074L33.0373 45.073H32.2389ZM31.5217 48.4146L32.6381 45.6274L33.7544 48.4146H31.5217ZM38.9148 50.322C39.9794 50.322 40.8666 49.4349 40.8666 48.3555V45.073H40.2751V48.3924C40.2751 49.1465 39.6541 49.7675 38.9148 49.7675C38.1607 49.7675 37.5397 49.1465 37.5397 48.3924V45.073H36.9482V48.3555C36.9482 49.4349 37.8354 50.322 38.9148 50.322ZM45.3689 50.322C46.4631 50.322 47.4168 49.6493 47.816 48.6956H47.2024C46.8697 49.3609 46.2044 49.7675 45.3689 49.7675C44.1639 49.7675 43.2989 48.9026 43.2989 47.6605C43.2989 46.4185 44.1639 45.5535 45.3689 45.5535C46.0343 45.5535 46.5962 45.8197 46.9658 46.2632L47.402 45.9453C46.9141 45.3687 46.1822 44.999 45.3689 44.999C43.9051 44.999 42.7074 46.1967 42.7074 47.6605C42.7074 49.1243 43.9051 50.322 45.3689 50.322ZM52.3184 49.7675C51.1133 49.7675 50.2484 48.9026 50.2484 47.6605C50.2484 46.4185 51.1133 45.5535 52.3184 45.5535C53.5235 45.5535 54.3885 46.4185 54.3885 47.6605C54.3885 48.9026 53.5235 49.7675 52.3184 49.7675ZM49.6569 47.6605C49.6569 49.1243 50.8546 50.322 52.3184 50.322C53.7822 50.322 54.9799 49.1243 54.9799 47.6605C54.9799 46.1967 53.7822 44.999 52.3184 44.999C50.8546 44.999 49.6569 46.1967 49.6569 47.6605ZM56.8208 45.073V50.2481H57.4122V45.6718L60.2216 50.2481H61.1088V45.073H60.5173V49.6493L57.708 45.073H56.8208Z" fill="#27375B"/>
</svg>
