<svg width="14" height="14" viewBox="0 0 14 14" fill="none" xmlns="http://www.w3.org/2000/svg">
<path d="M0.906313 13.5625C0.839125 13.5625 0.772721 13.5481 0.711601 13.5202C0.65048 13.4923 0.596071 13.4516 0.552062 13.4008C0.508052 13.35 0.47547 13.2904 0.456524 13.2259C0.437577 13.1615 0.432709 13.0937 0.44225 13.0272L0.864125 10.068C0.879456 9.96726 0.927176 9.87429 1.00006 9.80313L9.87538 0.925002C10.1878 0.613282 10.6111 0.438217 11.0524 0.438217C11.4937 0.438217 11.917 0.613282 12.2294 0.925002L13.0732 1.76875C13.3848 2.08122 13.5598 2.5045 13.5598 2.94578C13.5598 3.38707 13.3848 3.81035 13.0732 4.12281L4.19694 13.0023C4.12532 13.074 4.03239 13.1206 3.93209 13.135L0.972875 13.5569C0.950854 13.5604 0.928607 13.5622 0.906313 13.5625ZM1.77116 10.3553L1.45897 12.5411L3.64475 12.2289L12.4104 3.46328C12.5465 3.32675 12.6229 3.14183 12.6229 2.94906C12.6229 2.75629 12.5465 2.57138 12.4104 2.43485L11.5666 1.5911C11.4301 1.4549 11.2452 1.37841 11.0524 1.37841C10.8596 1.37841 10.6747 1.4549 10.5382 1.5911L1.77116 10.3553Z" fill="white"/>
<path d="M11.8978 5.10719C11.7735 5.10717 11.6543 5.05776 11.5664 4.96985L9.03002 2.43344C8.94463 2.34503 8.89739 2.22663 8.89846 2.10372C8.89952 1.98082 8.94882 1.86325 9.03573 1.77634C9.12264 1.68943 9.24021 1.64013 9.36311 1.63906C9.48602 1.638 9.60443 1.68524 9.69283 1.77063L12.2292 4.30704C12.2948 4.37259 12.3394 4.45611 12.3575 4.54702C12.3756 4.63794 12.3663 4.73217 12.3308 4.81781C12.2953 4.90345 12.2353 4.97665 12.1582 5.02816C12.0811 5.07967 11.9905 5.10717 11.8978 5.10719Z" fill="white"/>
</svg>
